<svg id="Layer_1" data-name="Layer 1" xmlns="http://www.w3.org/2000/svg" viewBox="0 0 424.9 506.36"><defs><style>.cls-1{fill:none;stroke:#000;stroke-miterlimit:10;}.cls-2{font-size:36px;fill:#76cede;font-family:ShagadelicBold, Shagadelic;font-weight:700;}</style></defs><title>Andrei Chikatilo Libra</title><path d="M277.39,187c-.6,21.69.54,44.47,11.68,63.7a.5.5,0,0,0,.87-.51c-11.06-19.08-12.14-41.67-11.55-63.19,0-.64-1-.64-1,0Z" transform="translate(-187.13 -34.72)"/><path d="M295,255.27a82.15,82.15,0,0,0,45.61,22c8.28,1.13,17.34,1.92,25.17-1.61,7.23-3.27,11.58-10.21,15.43-16.81,5.89-10.12,12.08-20.06,18.16-30.07.34-.55-.52-1.05-.86-.5-5,8.21-10.09,16.36-15,24.64-4,6.78-7.64,14.5-14.06,19.38-7.35,5.59-17.11,5.32-25.83,4.34a84.53,84.53,0,0,1-24.49-6.42,80.31,80.31,0,0,1-23.44-15.65c-.46-.45-1.17.26-.7.71Z" transform="translate(-187.13 -34.72)"/><path d="M383.38,232.21c1.91-5.94,5.07-10.91,8-16.33,2.2-4.07,3.87-9,2.12-13.56-1.66-4.28-5.91-6.69-9.29-9.47a61.3,61.3,0,0,1-11.93-13.28c-.36-.53-1.22,0-.86.5a62.12,62.12,0,0,0,9.5,11.22c3.51,3.26,8.63,5.8,11,10.06,3.14,5.61,0,11.79-3,16.72a65.89,65.89,0,0,0-6.55,13.87c-.2.61.76.88,1,.27Z" transform="translate(-187.13 -34.72)"/><path d="M400.92,211.13c-.51-8.31-1.54-16.75-4.86-24.46-3.58-8.31-10.61-14.1-14.91-21.93-.31-.56-1.17-.06-.86.51,4,7.32,10.6,12.82,14.22,20.41,3.78,7.92,4.88,16.8,5.41,25.47,0,.64,1,.64,1,0Z" transform="translate(-187.13 -34.72)"/><path d="M388.74,151.17c5.9-.1,12.3.84,16.24,5.68.4.5,1.11-.21.7-.7-4.09-5-10.8-6.08-16.94-6a.5.5,0,0,0,0,1Z" transform="translate(-187.13 -34.72)"/><path d="M343,170.8l-8.13.3c-3.08.11-8.72,1-9.26-3.2-.34-2.71,2.14-5.66,3.69-7.78,1.84-2.5,4.26-6,7.76-5.68.64.06.63-.94,0-1-3.62-.36-6,2.79-8,5.37-1.8,2.35-4.84,5.81-4.69,8.94.13,2.75,2.78,4.13,5.21,4.4,4.36.49,9.06-.19,13.43-.35.64,0,.65-1,0-1Z" transform="translate(-187.13 -34.72)"/><path d="M341.14,152.83a8.58,8.58,0,0,1,5.86-6.15c.62-.19.36-1.15-.26-1a9.6,9.6,0,0,0-6.57,6.85.5.5,0,0,0,1,.26Z" transform="translate(-187.13 -34.72)"/><path d="M355.64,172.37c.66.08,1.57,3.32,2.4,4a8.08,8.08,0,0,0,5,1.55c1.64,0,1.85-.85,2.95-2a8.72,8.72,0,0,1,7.18-2.47c.64.06.63-.94,0-1a9.57,9.57,0,0,0-5,.78c-1.56.71-2.26,1.83-3.55,2.8a4.55,4.55,0,0,1-4.26.39,3.89,3.89,0,0,1-2.66-2.28c-.09-.54-.2-1.07-.34-1.59a1.89,1.89,0,0,0-1.7-1.23c-.64-.08-.63.92,0,1Z" transform="translate(-187.13 -34.72)"/><path d="M365.92,177.73a31.71,31.71,0,0,0,7.66-.53c1.78-.36,4.62-.75,6-2s.91-3.57.86-5.1a39.38,39.38,0,0,0-1-7.56,65.05,65.05,0,0,0-5.64-14.72c-1.31-2.6-2.73-5.15-4.19-7.67q-1.19-2-2.41-4c-.33-.53-.67-1.06-1-1.6l-.69-1.09c-.62-.84-.4-1.77.64-2.81a.5.5,0,0,0,.27-1,1.91,1.91,0,0,0-2.38,1c-.73,1.52.54,3.12,1.3,4.34a154.19,154.19,0,0,1,8.79,15.74,51.51,51.51,0,0,1,5.22,17.59,20.38,20.38,0,0,1,.1,4c-.31,2.42-1.83,2.85-4,3.45a30.22,30.22,0,0,1-9.56,1c-.64,0-.64,1,0,1Z" transform="translate(-187.13 -34.72)"/><path d="M360.65,129.28a19,19,0,0,0-12.59.61,4.44,4.44,0,0,0-2.71,2.22c-1,2.33-.29,6.42-4.21,6-.64-.06-.63.94,0,1,3,.3,4.37-2.22,4.76-4.81.89-5.85,10.22-5.31,14.48-4.09a.5.5,0,0,0,.27-1Z" transform="translate(-187.13 -34.72)"/><path d="M323.12,115c2.39,2.58,5.55,3.81,8.58,5.45,3.54,1.93,8.64,5.18,9.82,9.29,2.41,8.39-6.91,15.67-14.49,15.2-.64,0-.64,1,0,1,7.57.47,15.08-5.33,15.73-13.08.89-10.67-13.35-12.52-18.93-18.57-.44-.47-1.14.24-.71.71Z" transform="translate(-187.13 -34.72)"/><path d="M296.53,198.4c0-1.86,2.42-3.31,3.71-4.31s2.41-1.81,3.65-2.67c2.3-1.61,4.64-3.16,6.92-4.8A41.47,41.47,0,0,0,321.63,176c.36-.54-.51-1-.86-.51-3.59,5.48-8.9,9.26-14.23,12.91-2.35,1.61-4.71,3.21-7,5-1.69,1.31-4,2.7-4.05,5.06a.5.5,0,0,0,1,0Z" transform="translate(-187.13 -34.72)"/><path d="M298.17,185.54c2.08-6.26,8.08-9.38,12.69-13.56s8.3-11,15.29-11.89c.63-.08.64-1.08,0-1-7,.86-10.62,7.07-15.33,11.57-4.87,4.65-11.36,7.84-13.61,14.62-.21.61.76.87,1,.26Z" transform="translate(-187.13 -34.72)"/><path d="M298.79,225.6a91.29,91.29,0,0,1-3.18-25,.5.5,0,0,0-1,0,92.49,92.49,0,0,0,3.22,25.32.5.5,0,0,0,1-.27Z" transform="translate(-187.13 -34.72)"/><path d="M329.55,241.68c4.35-1,9.09-2.07,13.48-.7,4,1.25,7.66,4.33,11.15,6.53.54.35,1.05-.52.5-.86-3.79-2.4-7.76-5.78-12.2-6.86s-8.93,0-13.2.93c-.63.14-.36,1.11.27,1Z" transform="translate(-187.13 -34.72)"/><path d="M363.42,225.33c-4.39,1.08-8.06,3.35-12.73,3.2a69.93,69.93,0,0,1-7.22-.81c-1.68-.23-5.25,0-6.41-1.53-.38-.51-1.25,0-.86.5,1,1.35,2.54,1.38,4.13,1.6,2.7.37,5.39.8,8.1,1.08a20.31,20.31,0,0,0,7.25-.34c2.74-.71,5.25-2.06,8-2.74.63-.15.36-1.11-.26-1Z" transform="translate(-187.13 -34.72)"/><path d="M365.27,222.12c8-.57,11.86-8,17.58-12.45,1.14-.89,5.44-2.16,4.14-4.14-.77-1.18-2.79-2.14-3.95-2.87a41.73,41.73,0,0,0-5.42-2.85A42.73,42.73,0,0,0,355,196.58a45.93,45.93,0,0,1-6.17.82,21.15,21.15,0,0,1-6.78-1.49c-4.13-1.41-7.86-1.5-12.19-1.4-5.07.12-10.26,0-15.27.78-5.64.92-11.1,3.3-16.9,2.23-.63-.11-.9.85-.27,1a25.05,25.05,0,0,0,10.19-.6,69.32,69.32,0,0,1,12.87-2.14c4.24-.17,8.49-.26,12.73-.31s7.45,1.25,11.34,2.33c3.38.95,6.39.42,9.78-.09a40.9,40.9,0,0,1,11.27-.15,41.83,41.83,0,0,1,11.9,3.31,40.71,40.71,0,0,1,4.35,2.26q1.05.63,2.07,1.32c1.09.75,2.88,1.37,1.4,2.52-1.29,1-2.79,1.66-4.05,2.74A57.88,57.88,0,0,0,377,214c-3.21,3.38-6.8,6.81-11.69,7.16-.64,0-.64,1,0,1Z" transform="translate(-187.13 -34.72)"/><path d="M300.7,199.4c13.33-.17,26.66.4,39.95,1.33,6.7.47,13.4,1,20,2,3.18.49,6.33,1.09,9.45,1.85,1.54.37,3.07.78,4.6,1.2,1.08.3,7.86,1.8,5.73,4.3-.42.49.29,1.2.7.71,3.92-4.59-7.65-6.4-9.84-7a144.6,144.6,0,0,0-22.48-3.51,471.89,471.89,0,0,0-48.15-2,.5.5,0,0,0,0,1Z" transform="translate(-187.13 -34.72)"/><path d="M301.61,199.28c-.43,6.47,6.48,8.85,11.35,10.86,7.35,3,14.65,6.4,22.21,8.85a55.1,55.1,0,0,0,40.88-2.75c.58-.28.07-1.14-.51-.86a53.91,53.91,0,0,1-38.38,3.19c-6.2-1.83-12.14-4.54-18.11-7-3.36-1.38-6.78-2.66-10.08-4.18s-6.63-4-6.36-8.11c.05-.64-.95-.63-1,0Z" transform="translate(-187.13 -34.72)"/><path d="M317.84,215.67c-3.83-.46-6.27-3.57-8.06-6.7a.5.5,0,0,0-.87.5c2,3.5,4.71,6.69,8.93,7.2.64.07.64-.93,0-1Z" transform="translate(-187.13 -34.72)"/><path d="M304.21,204.71c.66-.38,1.2-.9,1.84-1.3.34-.21,1-.63,1.47-.49s.88,1,1.16,1.37c.48.7,3.19,3,1.86,3.84a.5.5,0,0,0,.51.86,1.83,1.83,0,0,0,.8-2.09c-.33-1.43-1.84-2.22-2.45-3.52a2,2,0,0,0-2.06-1.45c-1.46,0-2.45,1.24-3.64,1.92-.56.31-.05,1.18.51.86Z" transform="translate(-187.13 -34.72)"/><path d="M309.44,204.34a13.06,13.06,0,0,0,1.83-1c1.38-.73,2.53-.09,3.86,0a3.45,3.45,0,0,0,2.42-.51c1.69-.9,2.56-.35,4.27-.44a2.77,2.77,0,0,0,.83-.09A4.8,4.8,0,0,0,325,200c.34-.55-.53-1-.87-.51-1.31,2.1-2.46,1.59-4.42,1.64-1.33,0-1.95.73-3.09,1.13-1.51.53-2.46-.78-3.91-.69s-2.29,1.39-3.57,1.82c-.6.21-.34,1.18.27,1Z" transform="translate(-187.13 -34.72)"/><path d="M316.33,202.83v2.24c0,.53.26,1.86-.29,2.15a6.56,6.56,0,0,1-2,.19c-.78.05-1.55.08-2.33.11l.5.5.06-.29c.29-.57-.57-1.08-.86-.5a1.35,1.35,0,0,0-.2.79.51.51,0,0,0,.5.5c1,0,2.07-.09,3.1-.17a4,4,0,0,0,2.15-.43c.5-.4.41-1,.41-1.63v-3.46a.5.5,0,0,0-1,0Z" transform="translate(-187.13 -34.72)"/><path d="M317.1,208.08a17.32,17.32,0,0,0,3.67-.12c.84-.11,2-.18,2.59-.91s.35-1.77.34-2.57.27-2.2-.38-3a.49.49,0,0,0-.49-.13l-.17,0c-.63.13-.36,1.1.27,1l.17,0-.49-.13c.32.37.09,1.76.09,2.26,0,1,0,2.09-1.1,2.33a16.17,16.17,0,0,1-4.5.27c-.64-.05-.64.95,0,1Z" transform="translate(-187.13 -34.72)"/><path d="M323.73,207.07a16.2,16.2,0,0,0,7.5-1.57c1.84-.92,1.68-3.78,1.77-5.58,0-.64-1-.64-1,0a22.75,22.75,0,0,1-.37,3.19c-.27,1.33-.88,1.59-2.16,2a16.24,16.24,0,0,1-5.74.91.5.5,0,0,0,0,1Z" transform="translate(-187.13 -34.72)"/><path d="M332.33,204.9c.5.12.85.47,1.38.57a14.79,14.79,0,0,0,2.31.08c1.16,0,3,.44,4-.32,1.51-1.12,1.07-4.35-.38-5.31-.54-.35-1,.51-.5.87a2.83,2.83,0,0,1,.68,2.73c-.39,1.27-1.58,1.09-2.65,1.06-.78,0-1.57,0-2.35-.06a12.31,12.31,0,0,1-2.24-.59c-.62-.15-.89.81-.27,1Z" transform="translate(-187.13 -34.72)"/><path d="M340.14,203.75c.3,1.48,1.73,2,3.09,2.21a18.79,18.79,0,0,0,5.45.13A2,2,0,0,0,350.6,204c-.15-1.74-2.27-1.92-2.85-3.28-.26-.59-1.12-.08-.87.51a2.42,2.42,0,0,0,.89,1c.29.22.72.34,1,.63.55.28.5.69-.14,1.25,0,.81-.34,1.14-1,1a10.94,10.94,0,0,1-2.49,0c-1.17,0-3.68,0-4-1.59-.13-.63-1.09-.36-1,.26Z" transform="translate(-187.13 -34.72)"/><path d="M352.2,201.13c-.62,1.34-2.26,2.2-1.38,3.88s3.68,2,5.29,2.31,3.28.17,4.17-1.45a3.19,3.19,0,0,0-1-4c-.5-.39-1.21.31-.71.71a2.17,2.17,0,0,1,.18,3.52c-1,.92-2.91.18-4.11-.13l-1.06-.27c-.24-.06-.47-.13-.71-.21L352,203.1c.12-.44.85-1,1.06-1.46s-.59-1.09-.86-.51Z" transform="translate(-187.13 -34.72)"/><path d="M362.66,202.67c-1.33.3-3.08,1.12-3.64,2.48s1.24,2.12,2.2,2.71c1.23.78,2.32,1,3.32-.24a5,5,0,0,0,1.29-4.39c-.19-.61-1.15-.35-1,.27a3.6,3.6,0,0,1-.77,3c-.37.59-.44.73-1.2.78a1.9,1.9,0,0,1-1.52-.49,4.28,4.28,0,0,1-.86-.54c-.35-.08-.46-.3-.33-.65a.54.54,0,0,1,.27-.71,4.5,4.5,0,0,1,2.47-1.25c.62-.14.36-1.11-.27-1Z" transform="translate(-187.13 -34.72)"/><path d="M367.85,204.73c-.92-.12-1.53.48-2.19,1s-1.58,1.16-1.84,2c-.42,1.43,1.39,3,2.68,3.19,1.55.25,3.09-1.28,3.63-2.6a3.34,3.34,0,0,0-1.24-4.15c-.54-.35-1,.52-.5.87,1.89,1.23.86,3.94-.91,4.73a1.62,1.62,0,0,1-1.82-.38,1.66,1.66,0,0,1-.58-1.86,5,5,0,0,1,2.77-1.89c.63.09.63-.91,0-1Z" transform="translate(-187.13 -34.72)"/><path d="M366.76,203.73c3.15,2,6.91,5.68,6.49,9.72-.07.64.93.64,1,0,.46-4.4-3.55-8.44-7-10.59-.55-.34-1,.53-.51.87Z" transform="translate(-187.13 -34.72)"/><path d="M374.58,205.37a8.81,8.81,0,0,1-1.23,7.66c-.36.53.5,1,.87.5a9.83,9.83,0,0,0,1.33-8.42.5.5,0,0,0-1,.26Z" transform="translate(-187.13 -34.72)"/><path d="M366.68,211.35c.68,1.57,2.32,3.62,4.15,2.12.9-.75,3.07-4,1.5-4.87a.5.5,0,0,0-.5.86c.48.28-1.21,2.85-1.51,3.12-1.32,1.2-2.33-.7-2.78-1.74-.26-.58-1.12-.08-.86.51Z" transform="translate(-187.13 -34.72)"/><path d="M373,212.48a5.41,5.41,0,0,0-3.18,2.12c-.66.83-.13,2,.54,2.63,2.14,2.13,3.67-2.49,3.7-3.93a.5.5,0,0,0-1,0c0,.79-1,4.53-2.19,3-1-1.29,1.34-2.67,2.4-2.83.63-.1.36-1.06-.27-1Z" transform="translate(-187.13 -34.72)"/><path d="M365.7,218.71c-1.2-1.41-2.71-3-4.76-2.81-1.47.15-2.62,1.36-4,1.76a20.77,20.77,0,0,1-5.28.45c-5.63.09-11.63-3.1-17-.48-.58.29-.08,1.15.5.87,4.91-2.39,10.49.59,15.63.62a27.13,27.13,0,0,0,6-.4,18.86,18.86,0,0,0,2.73-1.13c2.42-.93,4,.07,5.49,1.82.42.49,1.12-.22.7-.7Z" transform="translate(-187.13 -34.72)"/><path d="M336,217.41c.05-2.09-.18-4.33-2.69-4.73-1.13-.18-1.86.42-2.89.74-1.64.51-3.68.25-5.38.3-.64,0-.64,1,0,1a31,31,0,0,0,5.1-.21c.75-.15,1.37-.64,2.09-.8,2.48-.54,2.81,2,2.77,3.7a.5.5,0,0,0,1,0Z" transform="translate(-187.13 -34.72)"/><path d="M341.34,217a3.46,3.46,0,0,0-1.41-3.95,3.31,3.31,0,0,0-2.08-.5c-1.05.09-1.92.81-3,.8a.5.5,0,0,0,0,1c1.13,0,2-.74,3.13-.8a2.39,2.39,0,0,1,2.38,3.18.5.5,0,0,0,1,.27Z" transform="translate(-187.13 -34.72)"/><path d="M340.69,213.87l2.25-.18a7.5,7.5,0,0,1,2.31-.09c1.76.48,1.52,2.82,1.35,4.18-.07.64.93.64,1,0,.2-1.65.28-3.66-1.25-4.74a2.9,2.9,0,0,0-1.76-.48c-1.29,0-2.61.21-3.9.31-.63,0-.64,1,0,1Z" transform="translate(-187.13 -34.72)"/><path d="M347.46,214.9a26.78,26.78,0,0,1,4.56-.34c.9,0,1.46.21,1.57,1.18.08.73-.09,1.46,0,2.2s1.08.63,1,0c-.15-1.35.5-3.35-1.05-4.13a5.94,5.94,0,0,0-2.75-.23,33.31,33.31,0,0,0-3.59.36c-.63.09-.37,1.05.27,1Z" transform="translate(-187.13 -34.72)"/><path d="M354.46,216.11c1.43-.46,2.54.66,3.45,1.6.45.47,1.15-.24.71-.7-1.17-1.21-2.63-2.44-4.43-1.86-.61.19-.35,1.16.27,1Z" transform="translate(-187.13 -34.72)"/><path d="M350,163.58c7.12,6.49,19.45,8.71,25.28-.72a.5.5,0,0,0-.86-.51c-5.5,8.89-17.09,6.57-23.71.52-.47-.43-1.18.27-.71.71Z" transform="translate(-187.13 -34.72)"/><path d="M353.21,171.49c-1.11-3.28-2.71-4.92-6.26-5.47a23.93,23.93,0,0,0-5.61-.05c-.95.07-2.37,0-3.14.74-1.28,1.18-.55,2.49.86,2.92a43.06,43.06,0,0,0,6.11.9,30.16,30.16,0,0,1,6.74,1.77c.6.25.86-.72.27-1a27.88,27.88,0,0,0-5.88-1.63c-1.16-.2-2.32-.35-3.49-.51-.8-.11-2.36,0-3.05-.46-1.87-1.14,1.73-1.79,2.49-1.84a26.45,26.45,0,0,1,3.21,0c3.52.23,5.65,1.52,6.79,4.89.21.6,1.17.34,1-.27Z" transform="translate(-187.13 -34.72)"/><path d="M258.61,167.28c2.67-2.34,4.15-5.17,5.88-8.21,1.86-3.27,5-8.33,9.19-8.65.64,0,.65-1,0-1-3.44.27-5.8,3.05-7.77,5.65-2.86,3.79-4.35,8.3-8,11.5-.48.42.23,1.13.71.71Z" transform="translate(-187.13 -34.72)"/><path d="M289.65,140.78a7.16,7.16,0,0,1,6.81-2.11c.62.14.89-.83.26-1a8.18,8.18,0,0,0-7.78,2.36c-.44.47.26,1.18.71.71Z" transform="translate(-187.13 -34.72)"/><path d="M306.53,135.37c4,.27,8.09.93,12.05.76,2.13-.1,4.14-1,4.56-3.29.12-.63-.84-.9-1-.26-.67,3.55-5.64,2.47-8.23,2.29l-7.42-.5c-.65,0-.64,1,0,1Z" transform="translate(-187.13 -34.72)"/><path d="M335.71,140.91l.41-6.34c.07-1,.43-2.47-.18-3.4-.51-.77-1.57-.95-2.37-1.25a29.68,29.68,0,0,1-5.56-2.83c-6-3.77-11-9-17.6-11.66-5.92-2.41-12.09-2.33-17.25,1.73-1.81,1.42-5.51,4-5.62,6.58a2.2,2.2,0,0,0,2.82,2.35c.61-.19.35-1.16-.27-1l-1.23-2.28a6.42,6.42,0,0,1,1-1.26c.36-.4.76-.78,1.15-1.15a29.58,29.58,0,0,1,3.42-3,13.7,13.7,0,0,1,8-2.71c5.34,0,10.37,2.6,14.63,5.61,3.84,2.72,7.39,5.85,11.45,8.25,1.75,1,5,1.78,6.12,3.38,1.35,1.89.21,6.61.06,8.95,0,.64,1,.64,1,0Z" transform="translate(-187.13 -34.72)"/><path d="M298.69,132.65a5.32,5.32,0,0,1-6.2-7.57,18,18,0,0,1,6.06-6.54c5.56-3.41,12.23-.87,16.43,3.47a38.27,38.27,0,0,0,4.63,4.55c1,.7,2,1.32,2.95,2a7,7,0,0,1,1.76,1.39l.55.55c-.71,1.21-1.35,1.5-1.93.87a19,19,0,0,1-2.32-1.74,18.44,18.44,0,0,0-2.65-1.37,19,19,0,0,0-6.9-1.4.5.5,0,0,0,0,1,17.59,17.59,0,0,1,7.63,1.83c1.63.82,2.86,2.11,4.38,3.07,1.25.78,3.88.7,3.55-1.41-.41-2.65-5.58-4.83-7.36-6.31-2.9-2.42-4.81-5.49-8.23-7.33a13.76,13.76,0,0,0-9.81-1.4c-3.64.93-6.5,3.8-8.64,6.76-1.71,2.37-2.44,5.26-.81,7.9a6.37,6.37,0,0,0,7.18,2.63c.62-.15.36-1.12-.27-1Z" transform="translate(-187.13 -34.72)"/><path d="M316.85,128.33a8.32,8.32,0,0,0-1.09-6.06c-.34-.54-1.2,0-.86.51a7.21,7.21,0,0,1,1,5.28c-.12.63.84.9,1,.27Z" transform="translate(-187.13 -34.72)"/><path d="M292,128.88a25.68,25.68,0,0,1,8.31-1c.64,0,.64-1,0-1a26.42,26.42,0,0,0-8.57,1.08.5.5,0,0,0,.26,1Z" transform="translate(-187.13 -34.72)"/><path d="M296.62,119.15a5.38,5.38,0,0,0,3.83,5.23.5.5,0,0,0,.27-1,4.37,4.37,0,0,1-3.1-4.27.5.5,0,0,0-1,0Z" transform="translate(-187.13 -34.72)"/><path d="M291.93,125.38c2.92,1.92,6.23.52,9.39.1a19.53,19.53,0,0,1,13.15,2.6c.54.34,1-.52.5-.86a19.5,19.5,0,0,0-10-3,24.14,24.14,0,0,0-5.09.42c-2.51.46-5.11,1.36-7.45-.17-.54-.36-1,.51-.51.86Z" transform="translate(-187.13 -34.72)"/><path d="M310.34,126.22c1.54-.57,1.58-2.7,1.67-4.11a5.5,5.5,0,0,0-1.66-4.85c-.49-.41-1.21.29-.71.7a4.2,4.2,0,0,1,1.39,3.49c0,.81,0,3.44-1,3.81-.59.22-.34,1.19.27,1Z" transform="translate(-187.13 -34.72)"/><path d="M303.19,118.31a3.11,3.11,0,0,0-2.29,3.09c.12,1.76,2,2.31,3.45,2a3.75,3.75,0,0,0,2.16-1,2.08,2.08,0,0,0,0-1.94,3.33,3.33,0,0,0-3.77-2c-.63.11-.36,1.08.27,1a2.32,2.32,0,0,1,2.39,1,2.38,2.38,0,0,1,.28.66.45.45,0,0,1-.18.69,2.2,2.2,0,0,1-1.27.61c-1.08.26-2.62,0-2.33-1.51a2.13,2.13,0,0,1,1.53-1.6c.61-.19.35-1.15-.27-1Z" transform="translate(-187.13 -34.72)"/><path d="M373.48,138.33c1.82,4.23,4.48,5.36,8.92,5.71a57,57,0,0,0,8.25.52c3-.2,5.83-1.06,8.83-.94.65,0,.64-1,0-1a28.65,28.65,0,0,0-5.7.52,29.81,29.81,0,0,1-7.89.22,60.31,60.31,0,0,1-6.3-.66c-2.84-.58-4.16-2.35-5.25-4.87-.26-.59-1.12-.08-.86.5Z" transform="translate(-187.13 -34.72)"/><path d="M402.31,147.38c-2.06-.4-3.16-2.2-4-4-.28-.58-1.14-.07-.86.5.95,2,2.29,4,4.6,4.42.62.12.89-.84.26-1Z" transform="translate(-187.13 -34.72)"/><path d="M391,121.72c-7.92.39-16.85,2.23-21.88,9-1.2,1.62-2.37,4.32-.3,5.83,2.62,1.91,7.09-.12,9.86-.38,4.59-.44,9.41.24,14,.39,2.87.1,7.24.1,9.08-2.65,1.6-2.38-.26-5-1.76-6.87-2.41-3-5.47-5.62-9.58-5.15-.63.08-.63,1.08,0,1,3.53-.41,6.18,1.62,8.34,4.19,1.38,1.65,3.79,4.41,1.84,6.68-1.11,1.29-3.49,1.65-5.05,1.78-5.6.45-11.27-.83-16.88-.37-2.33.19-4.94,1.59-7.29,1l-2.65-1.47.37-2.13a7.77,7.77,0,0,1,1.48-2,17.89,17.89,0,0,1,3.16-2.86c5-3.59,11.22-4.62,17.25-4.92.64,0,.64-1,0-1Z" transform="translate(-187.13 -34.72)"/><path d="M412.68,145.88a9,9,0,0,1-8.66-8c-.26-2.41.43-4.75-1.84-6.29-.53-.36-1,.5-.5.86,2,1.35,1.05,5.1,1.64,7.2a10,10,0,0,0,1.95,3.68,10.25,10.25,0,0,0,7.41,3.54c.64,0,.64-1,0-1Z" transform="translate(-187.13 -34.72)"/><path d="M411,138.3a5.63,5.63,0,0,1-3.63-1.16c-1.15-1-1.31-2.44-1.75-3.8a4,4,0,0,0-2.68-2.92.5.5,0,0,0-.27,1c2.5.61,2.06,4.25,3.51,6a6.26,6.26,0,0,0,4.82,2,.5.5,0,0,0,0-1Z" transform="translate(-187.13 -34.72)"/><path d="M401.26,127.59a4.86,4.86,0,0,1,3.37,3c.22.6,1.19.34,1-.26a5.92,5.92,0,0,0-4.07-3.74.5.5,0,0,0-.27,1Z" transform="translate(-187.13 -34.72)"/><path d="M375.5,125.59c-3,.77-5.75,6.23-3.63,8.9,1.29,1.63,3.79,1.5,5.64,1.43,3.39-.14,6.71-.9,10.07-1.28a28.77,28.77,0,0,1,4.54-.22c1.37.07,2.91.64,4.29.47,1.77-.22,2.18-1.58,2.14-3.2a10.56,10.56,0,0,0-7.05-9.49c-.61-.22-.87.75-.27,1a9.57,9.57,0,0,1,6.19,7.26,8.16,8.16,0,0,1,.12,2L395,133.75c.09,0-2-.28-1.94-.27a26.83,26.83,0,0,0-5,.11c-3.37.35-6.69,1.1-10.07,1.3a21.88,21.88,0,0,1-2.29,0c-1.9-.1-3.79-1.91-3.3-3.89.45-1.78,1.45-4,3.38-4.48a.5.5,0,0,0-.26-1Z" transform="translate(-187.13 -34.72)"/><path d="M381.48,123.25c-3.39.77-4,4.08-3,7,1,3.16,3.7,4.65,6.95,4.55a.5.5,0,0,0,0-1c-2.4.08-4.54-.71-5.63-3s-1.31-5.9,1.93-6.63c.63-.15.37-1.11-.26-1Z" transform="translate(-187.13 -34.72)"/><path d="M391.3,134.12c1.39-.07,1.87,0,2.49-1.37a6.66,6.66,0,0,0,.14-4.89c-1-2.76-4.05-6-7.2-5.49-.64.1-.37,1.06.26,1,2.28-.37,4.58,2.21,5.56,4,.85,1.52,1.61,5.67-1.25,5.81-.64,0-.65,1,0,1Z" transform="translate(-187.13 -34.72)"/><path d="M384.05,125.59c-1.82.25-1.62,3.22-.72,4.3a3.7,3.7,0,0,0,4.41.65c1.24-.63,2.58-2.37,1.64-3.75-1.11-1.63-3.86-1.77-5.59-1.47-.63.1-.36,1.07.27,1a6.21,6.21,0,0,1,3.17.25c.74.28,1.65.65,1.37,1.7a2.28,2.28,0,0,1-.91,1.17,3,3,0,0,1-2.53.48,1.82,1.82,0,0,1-1.39-1.33c-.1-.47-.23-1.89.54-2s.37-1-.26-1Z" transform="translate(-187.13 -34.72)"/><path d="M394.23,122.77a10.56,10.56,0,0,0,8.41-3c.46-.45-.25-1.16-.71-.71a9.58,9.58,0,0,1-7.7,2.73c-.65,0-.64,1,0,1Z" transform="translate(-187.13 -34.72)"/><path d="M357.26,120.64c-.28,2.43,0,4.93,2.6,5.88,1.9.68,5.45.85,6.48-1.29.27-.57-.59-1.08-.87-.5-.79,1.64-4.32,1.37-5.7.67-1.87-1-1.71-3-1.51-4.76.07-.64-.93-.64-1,0Z" transform="translate(-187.13 -34.72)"/><path d="M342.79,126c1.12-.1,1.64,2.39,1.83,3.18a13.41,13.41,0,0,1,.35,3.57c0,.64,1,.64,1,0a13.88,13.88,0,0,0-.91-5.49c-.41-1-1-2.37-2.27-2.26-.64,0-.64,1,0,1Z" transform="translate(-187.13 -34.72)"/><path d="M336.9,134.93a5.8,5.8,0,0,0,2.69,1.77c.62.19.88-.77.27-1a4.89,4.89,0,0,1-2.25-1.52c-.42-.49-1.12.22-.71.71Z" transform="translate(-187.13 -34.72)"/><path d="M281.88,272.66c-11.22-3.79-14-18.08-15.53-28.29-1.82-12.29-2-24.85-5.67-36.81-.19-.62-1.15-.35-1,.26,4.07,13.13,3.83,27,6.25,40.41,1.75,9.69,5.21,21.87,15.64,25.39.61.21.88-.76.27-1Z" transform="translate(-187.13 -34.72)"/><path d="M256.25,190.6A64.1,64.1,0,0,0,251.43,167c-.24-.59-1.21-.33-1,.27a63.51,63.51,0,0,1,4.78,23.32.5.5,0,0,0,1,0Z" transform="translate(-187.13 -34.72)"/><path d="M227.44,157.21a96.34,96.34,0,0,1,7.43-71.8c.3-.57-.56-1.08-.87-.51a97.44,97.44,0,0,0-7.52,72.58.5.5,0,0,0,1-.27Z" transform="translate(-187.13 -34.72)"/><path d="M259.54,98.76c-4.57-10.41,2-20.74,8.73-28.35.42-.48-.28-1.18-.71-.7-7.12,8-13.66,18.67-8.88,29.55.25.59,1.12.08.86-.5Z" transform="translate(-187.13 -34.72)"/><path d="M268.23,100.41c-.23-3.8-1.28-8.59-.15-12.28s4.33-7.08,7.07-9.74c.46-.45-.24-1.16-.71-.71-2.73,2.67-5.64,5.85-7.07,9.46-1.57,4-.39,9.11-.14,13.27,0,.64,1,.65,1,0Z" transform="translate(-187.13 -34.72)"/><path d="M264.69,129c1.63-2.59,1.16-6,.89-9-.42-4.52-.39-8.28,2.86-11.84.44-.48-.27-1.19-.7-.71a12.76,12.76,0,0,0-3.49,8c-.21,4.06,1.91,9.28-.43,13-.34.55.52,1,.87.51Z" transform="translate(-187.13 -34.72)"/><path d="M272.47,129.68a5.81,5.81,0,0,0-1.07-3.4,13.22,13.22,0,0,1-2-5.94,21.83,21.83,0,0,1,2-10.46,25.68,25.68,0,0,1,13.38-13.09c.59-.25.08-1.11-.51-.86a26.47,26.47,0,0,0-13.73,13.45,24.31,24.31,0,0,0-2.19,8.83,15.48,15.48,0,0,0,.56,5.16c.65,2.14,2.67,4,2.58,6.31,0,.64,1,.64,1,0Z" transform="translate(-187.13 -34.72)"/><path d="M276.77,119.56A28.49,28.49,0,0,1,292,99.17c.58-.29.07-1.15-.5-.86a29.44,29.44,0,0,0-15.66,21c-.11.63.85.9,1,.27Z" transform="translate(-187.13 -34.72)"/><path d="M242,124.79c1.17,4.69,7.13,7.66,11.17,9.41.58.25,1.09-.61.5-.86-3.79-1.64-9.62-4.45-10.7-8.82a.5.5,0,0,0-1,.27Z" transform="translate(-187.13 -34.72)"/><path d="M240.46,140.15h9.24a.5.5,0,0,0,0-1h-9.24a.5.5,0,0,0,0,1Z" transform="translate(-187.13 -34.72)"/><path d="M261.9,153.38a55.53,55.53,0,0,1,7.33-8.84c3-2.72,6.28-4,10-5.37,2.4-.84,4.92-1.85,6.53-3.92,2-2.6,2-6,1.84-9.09,0-.64-1-.65-1,0,.18,4.14-.12,8.15-4,10.49-2.55,1.53-5.59,2-8.29,3.28-5.79,2.62-9.65,7.93-13.25,12.94-.38.53.49,1,.86.51Z" transform="translate(-187.13 -34.72)"/><path d="M257.55,140.26a42.35,42.35,0,0,1,9.61-2.86c3.13-.53,6.32-.73,9.43-1.41,4.57-1,9-3.32,11-7.74.27-.59-.59-1.09-.86-.51-2.62,5.77-9,7.24-14.76,8A55.47,55.47,0,0,0,257,139.4c-.59.25-.08,1.11.51.86Z" transform="translate(-187.13 -34.72)"/><path d="M259.2,132.86c3.08.09,6.11.9,9.19.9a21,21,0,0,0,7.52-1.72c4.06-1.52,9.81-2.66,12.29-6.58.34-.55-.52-1-.87-.51-1.49,2.36-4.05,3.23-6.54,4.18-2.23.84-4.45,1.74-6.7,2.52-5.11,1.78-9.69.36-14.89.21-.64,0-.64,1,0,1Z" transform="translate(-187.13 -34.72)"/><path d="M418.91,202.1c2.84-17.19,3.51-35.35-4.39-51.37-.28-.58-1.15-.07-.86.51,7.76,15.74,7.07,33.7,4.28,50.59-.1.63.86.9,1,.27Z" transform="translate(-187.13 -34.72)"/><path d="M345.23,296.86c3.19-2.82,6.13-5.9,9.26-8.78,2.55-2.32,5.8-4,7.55-7.05a6,6,0,0,1,4.53-3.45,52.43,52.43,0,0,1,6.14-.7,20,20,0,0,0,9.21-3.12c6.31-4,9.91-10.4,13.64-16.67a216.36,216.36,0,0,0,12.32-23.64c.25-.58-.61-1.09-.86-.5a212.73,212.73,0,0,1-11.85,22.83C391,262.84,387,270.12,379.43,274c-3.67,1.91-7.57,1.74-11.55,2.3-2.77.4-4.76.93-6.25,3.35-2,3.35-5.29,5.33-8.15,8-3,2.79-5.87,5.76-9,8.48-.49.43.22,1.13.71.71Z" transform="translate(-187.13 -34.72)"/><path d="M315.4,318.91c9.71,1.18,17.25-6.09,22.74-13.19.39-.5-.31-1.22-.71-.71-5.34,6.9-12.57,14.05-22,12.9-.64-.08-.63.92,0,1Z" transform="translate(-187.13 -34.72)"/><path d="M414.24,151.21a4.11,4.11,0,0,0,1.94-4.47c-.26-1.82-1.22-3.41-1.39-5.25-.21-2.26.41-4.48.64-6.71a43.79,43.79,0,0,0-.89-11.53q-1.05-6.28-2.14-12.56l-2.14-12.57c-.69-4.06-1.23-8.23-2.75-12.08-2.5-6.32-6.84-12.4-10.91-17.8a68.1,68.1,0,0,0-16.68-16.07c-.54-.35-1,.51-.5.87a69.4,69.4,0,0,1,18.26,18.38c2.39,3.39,4.58,6.91,6.64,10.51a38,38,0,0,1,4.34,12.7c1.66,9.46,3.24,18.94,4.84,28.41a72.19,72.19,0,0,1,1,7.46,45.44,45.44,0,0,1-.63,8.23,11.82,11.82,0,0,0,.23,4.59c.58,2.2,2.49,5.53-.35,7-.57.3-.07,1.16.5.87Z" transform="translate(-187.13 -34.72)"/><path d="M380,52A117.2,117.2,0,0,0,335.87,35.9c-16.22-2.38-32.55-1-48.48,2.59-8.18,1.84-16.65,3.84-24.33,7.26-7.46,3.32-14.14,8.14-20.78,12.82-6,4.26-12,8.76-16.47,14.73-4.62,6.16-8,13.32-11,20.4a136.68,136.68,0,0,0-10.44,53.41.5.5,0,0,0,1,0,136.07,136.07,0,0,1,7.67-46,124.15,124.15,0,0,1,10-21.77,58.33,58.33,0,0,1,16.26-17.37A183.09,183.09,0,0,1,258,49.42c7.38-4.14,15.45-6.43,23.6-8.51,15.83-4,32.17-6.3,48.5-4.72a116.48,116.48,0,0,1,49.39,16.62c.55.34,1.05-.52.5-.86Z" transform="translate(-187.13 -34.72)"/><path d="M210.64,152.51c-1.92-3.09-4.39-6.78-8.3-7.32-4.42-.6-8.57,3.56-11.27,6.54-3.18,3.5-3.83,7.89-3.9,12.47-.1,6.53,0,13.06,0,19.59a.5.5,0,0,0,1,0v-15c0-4.09-.35-8.51,1.12-12.41a15.62,15.62,0,0,1,4.34-5.78c1.69-1.57,3.54-3.36,5.78-4.12,4.89-1.66,8.15,2.93,10.38,6.51.33.55,1.2,0,.86-.5Z" transform="translate(-187.13 -34.72)"/><path d="M282.6,297.42a37.17,37.17,0,0,0,9.9,15.6c.47.44,1.18-.27.71-.71a35.92,35.92,0,0,1-9.64-15.16c-.2-.61-1.17-.35-1,.27Z" transform="translate(-187.13 -34.72)"/><path d="M271,312.8c3.76.22,6.66,4.64,8.76,7.37,2.38,3.11,4.31,6.5,4.65,10.48.06.64,1.06.64,1,0-.37-4.38-2.49-8.06-5.15-11.46-2.35-3-5.11-7.14-9.26-7.39-.65,0-.64,1,0,1Z" transform="translate(-187.13 -34.72)"/><path d="M283.44,112c3.57-3.26,7.06-7,11.72-8.67.61-.21.35-1.17-.26-1-4.84,1.7-8.45,5.54-12.17,8.92-.47.43.23,1.14.71.71Z" transform="translate(-187.13 -34.72)"/><path d="M287.63,110.9c2.94-2.65,5.95-5.26,9.86-6.29a.5.5,0,0,0-.27-1c-4.07,1.08-7.23,3.79-10.3,6.56-.48.43.23,1.13.71.7Z" transform="translate(-187.13 -34.72)"/><path d="M292,108.71c3.86-4.29,11.65-4.17,16.93-3.7.64.06.63-.94,0-1-5.53-.49-13.59-.51-17.64,4-.43.47.28,1.18.71.7Z" transform="translate(-187.13 -34.72)"/><path d="M294.75,107.7c6.06-1.77,12.29-1.19,18.48-.53.64.07.63-.93,0-1-6.28-.67-12.6-1.23-18.75.57a.5.5,0,0,0,.27,1Z" transform="translate(-187.13 -34.72)"/><path d="M300.62,108a41.43,41.43,0,0,1,26.77,3.84c.57.29,1.08-.57.5-.87A42.55,42.55,0,0,0,300.35,107c-.63.12-.36,1.08.27,1Z" transform="translate(-187.13 -34.72)"/><path d="M306.29,108.79a27.9,27.9,0,0,1,10,.76c3,.91,5.93,2,8.89,3.07.6.21.87-.75.26-1-3.22-1.12-6.43-2.43-9.73-3.31a29.28,29.28,0,0,0-9.43-.55c-.64,0-.65,1,0,1Z" transform="translate(-187.13 -34.72)"/><path d="M311.21,110.2c7.42-1,14.54,3.08,21.15,5.88.59.25,1.1-.61.51-.86-6.77-2.88-14.06-7-21.66-6-.63.08-.64,1.08,0,1Z" transform="translate(-187.13 -34.72)"/><path d="M316.62,111.46c5.66-.75,10,3.64,14.91,5.62.6.24.86-.73.27-1-5.06-2-9.35-6.43-15.18-5.66-.63.08-.64,1.09,0,1Z" transform="translate(-187.13 -34.72)"/><path d="M318.5,112.1c5.86,1.87,10.66,6.88,17.19,6.28.63-.06.64-1.06,0-1-6.37.58-11.18-4.41-16.93-6.24-.61-.2-.87.77-.26,1Z" transform="translate(-187.13 -34.72)"/><path d="M389.75,109.82a37.25,37.25,0,0,1,16.24,3.3c.58.26,1.09-.6.5-.87a38.45,38.45,0,0,0-16.74-3.43c-.64,0-.65,1,0,1Z" transform="translate(-187.13 -34.72)"/><path d="M407.29,111a33.45,33.45,0,0,0-9.87-2.38c-.63-.08-.63.92,0,1a31.64,31.64,0,0,1,9.36,2.25c.58.26,1.09-.6.51-.87Z" transform="translate(-187.13 -34.72)"/><path d="M387,112.09c3.25.11,6.36,1.25,9.64,1.35a44.34,44.34,0,0,0,9.27-.88c.64-.11.37-1.07-.26-1a41.35,41.35,0,0,1-9.92.8c-3-.18-5.77-1.21-8.73-1.31-.64,0-.64,1,0,1Z" transform="translate(-187.13 -34.72)"/><path d="M390.77,111.4c1.72-.22,3.45.5,5.21.49,2.12,0,4.25-.12,6.38-.18.64,0,.64-1,0-1-2.13.06-4.26.16-6.38.18-1.78,0-3.44-.72-5.21-.49-.63.08-.64,1.08,0,1Z" transform="translate(-187.13 -34.72)"/><path d="M381.71,113.71a36.57,36.57,0,0,0,6.83.94,15.56,15.56,0,0,0,2.73,0c1.35-.18,2.49-.85,3.9-.83a.5.5,0,0,0,0-1c-2,0-3.72.92-5.73.9a35.51,35.51,0,0,1-7.47-.93c-.62-.14-.89.82-.26,1Z" transform="translate(-187.13 -34.72)"/><path d="M385.72,113q3.15.12,6.3.35c.64,0,.64-1,0-1q-3.15-.23-6.3-.35a.5.5,0,0,0,0,1Z" transform="translate(-187.13 -34.72)"/><path d="M381.05,115.84a39.11,39.11,0,0,0,7.57.18,35,35,0,0,0,7.71-2.2c.6-.22.34-1.19-.26-1a34.69,34.69,0,0,1-7.58,2.16,38.56,38.56,0,0,1-7.44-.18c-.64,0-.64,1,0,1Z" transform="translate(-187.13 -34.72)"/><path d="M375.63,118c5.94.12,11.82.93,16.83-2.87.51-.39,0-1.26-.5-.87-4.84,3.67-10.61,2.85-16.33,2.74a.5.5,0,0,0,0,1Z" transform="translate(-187.13 -34.72)"/><path d="M367.31,120.12a95.26,95.26,0,0,0,19.3-1.41c.64-.11.37-1.08-.26-1a93.46,93.46,0,0,1-19,1.38c-.65,0-.64,1,0,1Z" transform="translate(-187.13 -34.72)"/><path d="M365,121.75c4.7.19,9.36.28,13.9-1.06a.5.5,0,0,0-.26-1c-4.47,1.32-9,1.21-13.64,1-.64,0-.64,1,0,1Z" transform="translate(-187.13 -34.72)"/><path d="M365,122.94l7.31.11a.5.5,0,0,0,0-1l-7.31-.11a.5.5,0,0,0,0,1Z" transform="translate(-187.13 -34.72)"/><path d="M187.45,182.89q1.8,9.48,3.84,18.93c.92,4.27,1.37,9.65,5.13,12.51,3.28,2.49,7.79,2.57,11.73,2.46,4.28-.13,9.3-.5,11.38-4.88.28-.58-.58-1.09-.86-.5-2.21,4.65-8.25,4.46-12.68,4.4-4.23-.05-9-.81-11.18-4.88s-2.57-9.38-3.49-13.73q-1.51-7.27-2.91-14.58c-.12-.63-1.08-.36-1,.27Z" transform="translate(-187.13 -34.72)"/><path d="M211.36,158.71c-2.71-3.2-7.47-7-12-6.55-4.77.44-6.75,5.42-7.33,9.51-1.8,12.63,3.93,24.8,4.87,37.25,0,.64,1,.65,1,0-.76-10-4.46-19.61-5.11-29.65-.3-4.66-.4-11.22,3.36-14.61,4.55-4.11,11.39,1.13,14.46,4.76.42.49,1.12-.22.71-.71Z" transform="translate(-187.13 -34.72)"/><path d="M195.5,183.29a29.24,29.24,0,0,1,1.23-13.77,28.64,28.64,0,0,1,3-6.28c1.23-1.92,3.59-5.84,6.28-5.57.64.07.64-.93,0-1-2.45-.24-4.09,2-5.47,3.71a29.85,29.85,0,0,0-3.95,6.66,30.32,30.32,0,0,0-2.09,16.51c.1.64,1.06.37,1-.26Z" transform="translate(-187.13 -34.72)"/><path d="M286.66,337.08c2.25-.24,4,1.94,6,2.65a12.08,12.08,0,0,0,5.47.5c4.62-.57,8.62-3.31,12.43-5.78,6.41-4.15,13-9,15.19-16.73a.5.5,0,0,0-1-.27c-2.17,7.68-9,12.43-15.35,16.54-3.72,2.4-7.69,5.07-12.25,5.33a10.52,10.52,0,0,1-6.54-1.77c-1.33-.85-2.38-1.64-4-1.47-.63.07-.64,1.07,0,1Z" transform="translate(-187.13 -34.72)"/><path d="M343.81,306.68a11.93,11.93,0,0,0,4.8.77c.64,0,.65-1,0-1a11.34,11.34,0,0,1-4.54-.73c-.6-.23-.86.73-.26,1Z" transform="translate(-187.13 -34.72)"/><path d="M452.72,287.58c2,0,4.59-.24,5.58-2.32a9.43,9.43,0,0,0,.39-3.78c0-1.42.26-3.13-.38-4.45-1.11-2.33-3.83-2-6-2.16-4.66-.28-8.82-2.63-12.8-4.88a.5.5,0,0,0-.5.86c4.13,2.35,8.46,4.73,13.3,5,1,.07,2.62-.18,3.53.29,2,1,1.87,3,1.84,4.92,0,1.58.14,3.56-1.16,4.74-.91.82-2.69.74-3.81.76a.5.5,0,0,0,0,1Z" transform="translate(-187.13 -34.72)"/><path d="M353.39,305c-12.82,12.17-25.14,25.11-39.84,35.07-7.54,5.1-15.66,9.26-23.32,14.15a141.5,141.5,0,0,0-20.7,16.11,144.58,144.58,0,0,0-19,21.88c-.37.53.5,1,.87.51a141.92,141.92,0,0,1,38.56-37.12c7.65-5,15.78-9.11,23.37-14.17a170.4,170.4,0,0,0,19.36-15.36c7.32-6.6,14.28-13.58,21.43-20.36.47-.45-.24-1.15-.71-.71Z" transform="translate(-187.13 -34.72)"/><path d="M321.57,414a153.93,153.93,0,0,1,23.69-20.53c8.51-5.95,18.17-12.21,28.8-13.08a25.13,25.13,0,0,1,7.49.5c2.35.54,4.61,1.44,7,1.77,5,.68,9.41-1.91,13.67-4.15l30-15.8c4-2.09,8.77-4.3,10.75-8.63,1.45-3.15,1.14-7.1-1.63-9.39-.5-.4-1.21.3-.71.71,4.45,3.67,1.46,9.68-2.25,12.52s-8.52,4.9-12.77,7.14c-9.31,4.9-18.51,10.2-28,14.71a16.32,16.32,0,0,1-8.18,2c-2.76-.21-5.36-1.36-8.05-1.92a28.34,28.34,0,0,0-12.09.29c-9,2.07-17.09,7.26-24.55,12.48a155.29,155.29,0,0,0-23.88,20.68c-.44.47.26,1.18.7.71Z" transform="translate(-187.13 -34.72)"/><path d="M441.87,343.56a9.36,9.36,0,0,0,9-6.06,9.47,9.47,0,0,0,.22-5.65c-.71-2.71-2.33-5.05-2-8,.08-.63-.92-.63-1,0-.42,3.3,1.62,5.86,2.17,9a8.32,8.32,0,0,1-8.45,9.69.5.5,0,0,0,0,1Z" transform="translate(-187.13 -34.72)"/><path d="M422.09,323c3.87,2.62,8.49,2.87,13,2.92s10.32.42,14.53-1.75c3.4-1.75,3-6.52,2.58-9.74A24.91,24.91,0,0,0,446.94,302c-.4-.51-1.11.2-.71.7A23.92,23.92,0,0,1,451,313.13a22.7,22.7,0,0,1,.34,5.76c-.15,2.21-.59,3.73-2.79,4.66a14.56,14.56,0,0,1-2.45.68,53.72,53.72,0,0,1-12.22.67c-4-.08-7.92-.48-11.31-2.76-.53-.36-1,.51-.5.86Z" transform="translate(-187.13 -34.72)"/><path d="M416.9,300.86c9.35,1.91,18.8,4,28.41,3.35,1.35-.09,3.29.08,4.38-.78a8.46,8.46,0,0,0,2.24-3.76,18.27,18.27,0,0,0,.41-9.17c-1.06-6.07-3.81-11.69-10-13.73-7.34-2.42-15,.58-22.36,1.41-11,1.23-22.06,1-33,2.62-.63.09-.36,1.05.27,1,8.49-1.22,17.07-1.37,25.63-2,4-.27,8.05-.66,12-1.28,3.39-.53,6.62-1.52,10.07-1.65,6.81-.24,12.73,2.37,15.12,9.09a25,25,0,0,1,1.6,9.4,13,13,0,0,1-.95,4.57c-1.05,2.51-2.36,3.05-5,3.25-9.68.74-19.2-1.36-28.62-3.28-.62-.13-.89.84-.26,1Z" transform="translate(-187.13 -34.72)"/><path d="M393.89,292c1-1.71,2.08-3.4,3.9-4.36a41.86,41.86,0,0,1,5.71-2.09c.61-.21.35-1.17-.26-1-2.16.75-4.64,1.29-6.57,2.54a12.44,12.44,0,0,0-3.64,4.37.5.5,0,0,0,.86.5Z" transform="translate(-187.13 -34.72)"/><path d="M420.85,324.24a14.84,14.84,0,0,1,2.49-2.64c.5-.41-.21-1.12-.7-.71a15.84,15.84,0,0,0-2.65,2.84c-.38.52.49,1,.86.51Z" transform="translate(-187.13 -34.72)"/><path d="M422.44,345.28c7-.55,14.26,1,20.92-2,.58-.26.07-1.12-.51-.86-6.44,2.91-13.6,1.33-20.41,1.86-.64.05-.64,1.05,0,1Z" transform="translate(-187.13 -34.72)"/><path d="M425.75,348.17A7.05,7.05,0,0,0,428,345c.23-.61-.74-.87-1-.27a6.36,6.36,0,0,1-2,2.75c-.51.4.2,1.1.7.7Z" transform="translate(-187.13 -34.72)"/><path d="M396.61,363.25c2.31-.08,4,2.35,5.92,3.37a13.37,13.37,0,0,0,4.9,1.5,8.88,8.88,0,0,0,4.91-.66c1.8-.9,3-2.86,5.17-2.91a.5.5,0,0,0,0-1,5.3,5.3,0,0,0-3.15,1.21c-2.51,1.83-4.38,2.81-7.61,2.27-2.71-.46-4.6-1.86-6.74-3.45a5,5,0,0,0-3.4-1.33.5.5,0,0,0,0,1Z" transform="translate(-187.13 -34.72)"/><path d="M415.58,362.34a7.45,7.45,0,0,0,1.33-6.09c-.13-.63-1.1-.36-1,.27a6.45,6.45,0,0,1-1.22,5.31c-.39.51.48,1,.86.51Z" transform="translate(-187.13 -34.72)"/><path d="M414.47,348.41a13.07,13.07,0,0,0-.59-18.05.5.5,0,0,0-.7.7,12.08,12.08,0,0,1,.59,16.65c-.42.48.28,1.19.7.7Z" transform="translate(-187.13 -34.72)"/><path d="M409.24,329.85a11.51,11.51,0,0,0-2.33-7.54c-.38-.51-1.25,0-.86.51a10.61,10.61,0,0,1,2.19,7c0,.65,1,.64,1,0Z" transform="translate(-187.13 -34.72)"/><path d="M409.2,304.49a7.65,7.65,0,0,1,4.75,7.17c-.09,3.17-2.43,5.72-5,7.33-4.19,2.67-9.36,2.93-13.69,5.32a.5.5,0,0,0,.5.87c5.81-3.21,13.51-3,17.59-9a8.49,8.49,0,0,0-3.92-12.69c-.6-.25-.86.71-.27,1Z" transform="translate(-187.13 -34.72)"/><path d="M405.48,330.71c-9.16,1.9-18.8,3.21-27.39,7.09a.51.51,0,0,0,.12.92c1.89.35,3,1.85,4.56,2.86a16.79,16.79,0,0,0,4.08,1.82c3.39,1.09,7,1.64,9.56,4.39.44.48,1.15-.23.71-.71-2.31-2.52-5.52-3.33-8.7-4.25a17.3,17.3,0,0,1-5.64-2.49c-1.42-1-2.5-2.25-4.3-2.59l.12.92c8.49-3.85,18.09-5.11,27.15-7,.63-.13.36-1.09-.27-1Z" transform="translate(-187.13 -34.72)"/><path d="M384.38,330.61a6.5,6.5,0,0,0-4.36,1.55c-2.53,1.89-4.6,3.43-7.9,3.62-.64,0-.65,1,0,1a12.11,12.11,0,0,0,5.56-1.59c2.23-1.33,3.85-3.71,6.7-3.58.65,0,.65-1,0-1Z" transform="translate(-187.13 -34.72)"/><path d="M350.62,347c3.72-.5,5.83-3.6,8.55-5.84a20.4,20.4,0,0,1,13.65-4.52c.64,0,.64-1,0-1a21.57,21.57,0,0,0-11.66,2.91c-3.7,2.19-6.37,6.89-10.81,7.49-.63.08-.36,1,.27,1Z" transform="translate(-187.13 -34.72)"/><path d="M344.46,353.88a42,42,0,0,0,11.8-4.94c3.61-2.38,6.64-5.51,10.83-6.92,2.75-.93,6.32-2.18,8.64.08a15.12,15.12,0,0,0,3.59,2.87c3.91,2.1,8.47,3.22,12.64,4.68.61.21.87-.75.26-1-4.59-1.6-10.42-2.71-14.27-5.8-1.2-1-2-2.51-3.54-3-1.76-.58-4.1.24-5.8.67-4.29,1.1-7.43,3.54-10.9,6.14a40,40,0,0,1-13.51,6.24.5.5,0,0,0,.26,1Z" transform="translate(-187.13 -34.72)"/><path d="M393.16,350.91a6.49,6.49,0,0,0-5.22,2.28c-.44.53-.68,1.16-1.09,1.71-1.11,1.47-2.23,1.57-3.74,1.87a45.05,45.05,0,0,1-6.52.91A18.15,18.15,0,0,1,365.87,355c-2.51-1.53-5.18-.52-8-.1-.64.09-.37,1.06.26,1,1.88-.28,4.83-1.29,6.6-.45,1.23.59,2.24,1.51,3.54,2a19.86,19.86,0,0,0,8.78,1.17c2.7-.17,6.55-.33,9-1.6a5.41,5.41,0,0,0,2-2.23,5.67,5.67,0,0,1,5.11-2.9.5.5,0,0,0,0-1Z" transform="translate(-187.13 -34.72)"/><path d="M360.59,359.52a25.2,25.2,0,0,1,8.74.71,16.4,16.4,0,0,0,6.86.58c1.71-.22,3.32-.45,4.75.7a8,8,0,0,1,2.43,4c.39,1.54.53,2.72,2.16,3.28.61.21.87-.75.27-1-1.42-.5-1.36-2.64-1.83-3.76a9.75,9.75,0,0,0-1.8-2.66c-1.25-1.43-2.18-2.14-4.07-1.91a22,22,0,0,1-9.31-.45,25.37,25.37,0,0,0-8.2-.5c-.64,0-.64,1,0,1Z" transform="translate(-187.13 -34.72)"/><path d="M387.42,365.74c-1.66-.52-2.36-2.86-2-4.45.33-1.29,1.39-1.53,2.34-2.23.46-.33,2.38-3.28,2.51-3.26.63.09.9-.88.27-1a1.59,1.59,0,0,0-1.75.83c-.56.77-.63,1.68-1.36,2.38a9.52,9.52,0,0,1-1.47,1,3.32,3.32,0,0,0-1.21,1c-1.39,2.23,0,5.92,2.38,6.69.61.19.87-.77.26-1Z" transform="translate(-187.13 -34.72)"/><path d="M409.36,201.86a25.46,25.46,0,0,0-9.69,18c-.26,3.37,0,7.23,2.09,10a12.85,12.85,0,0,0,7.78,4.53,20.89,20.89,0,0,0,18-4.56c2.59-2.29,3.63-4.3,3.33-7.74a28,28,0,0,0-3-10.23c-3.69-7.23-10.7-13.08-19.14-10-.6.22-.34,1.18.27,1,9.15-3.32,16.3,4.45,19.25,12.38,1.47,4,2.94,9.25-.2,12.69a18.64,18.64,0,0,1-9.24,5.36,19.53,19.53,0,0,1-10.9-.32c-4.85-1.66-7.11-5.42-7.32-10.44a24.4,24.4,0,0,1,9.44-19.93c.51-.4-.2-1.11-.7-.71Z" transform="translate(-187.13 -34.72)"/><path d="M407.94,233.86a5.06,5.06,0,0,0-1.71,7.76c2.63,3.42,7.42,3.19,11.21,2.55,4-.67,10.37-.83,12.67-4.85,2-3.56-1.09-6.9-4-8.57a.5.5,0,0,0-.5.86c3.33,1.9,6.19,6.22,1.9,9-2.41,1.56-5.74,1.76-8.5,2.27-3.19.58-6.84,1.37-9.89-.21s-4.47-6.29-.64-7.95c.58-.26.08-1.12-.51-.86Z" transform="translate(-187.13 -34.72)"/><path d="M428.35,378.78l20.83-3c.63-.09.36-1.06-.27-1l-20.82,3c-.64.09-.37,1.06.26,1Z" transform="translate(-187.13 -34.72)"/><path d="M448.59,376.06c-1.1,8.24,4,15,8.54,21.33,2.62,3.63,5.6,7.65,6.31,12.16.73,4.7-1.85,9.23-4.25,13.08-2.81,4.52-8.4,5-13.19,6.34-4.3,1.18-11.07,4.55-14.8.91-5.91-5.78-7.63-15.48-5.18-23.18,1.37-4.29,4-8.05,4.64-12.59.65-4.92-.61-9.82-1.86-14.54a.5.5,0,0,0-1,.26c1.44,5.46,2.9,11.21,1.25,16.79-1.34,4.55-4.06,8.45-4.83,13.19-1.18,7.25,1,16.42,6.81,21.32,3.1,2.6,7,1.05,10.48.1l7.08-2a49.56,49.56,0,0,0,7.29-2.14c3.62-1.65,5.63-6.16,7.15-9.61a14.2,14.2,0,0,0,.34-11.64c-4.17-10.13-15.42-17.78-13.82-29.83.08-.63-.92-.63-1,0Z" transform="translate(-187.13 -34.72)"/><path d="M394,475.28c10.33-2.49,17.92-10.56,25-17.95s13.95-15.53,15.06-26c.07-.64-.93-.63-1,0-1.11,10.44-8.33,18.62-15.33,25.86-6.84,7.08-14.11,14.72-24,17.1-.62.15-.36,1.12.27,1Z" transform="translate(-187.13 -34.72)"/><path d="M512.57,455.21a46.33,46.33,0,0,1-33.92-8.36,82.53,82.53,0,0,1-12.52-11.7c-2.61-2.89-5.73-8.61-10.2-8.38-.64,0-.65,1,0,1,3.23-.16,5.36,3.38,7.25,5.55s3.74,4.23,5.71,6.25a65.43,65.43,0,0,0,12.76,10.48,47.29,47.29,0,0,0,31.18,6.13c.64-.1.37-1.06-.26-1Z" transform="translate(-187.13 -34.72)"/><path class="cls-1" d="M416.68,277.18c-1.71-11.07-3.78-22.09-5.12-33.22" transform="translate(-187.13 -34.72)"/><path class="cls-1" d="M432.18,378c-.91-5.62-1.73-11.26-2.54-16.9" transform="translate(-187.13 -34.72)"/><path class="cls-1" d="M428.06,275.82c-2-11-4-22-5.61-33.08" transform="translate(-187.13 -34.72)"/><path class="cls-1" d="M445.16,376l-3.85-22.59" transform="translate(-187.13 -34.72)"/><line class="cls-1" x1="238.92" y1="223.02" x2="246.13" y2="221.87"/><line class="cls-1" x1="241.93" y1="243.05" x2="249.15" y2="241.9"/><line class="cls-1" x1="226.85" y1="224.95" x2="221.71" y2="225.77"/><line class="cls-1" x1="246.13" y1="221.87" x2="249.15" y2="241.9"/><line class="cls-1" x1="221.71" y1="225.77" x2="224.73" y2="245.8"/><line class="cls-1" x1="161.7" y1="457.39" x2="371.06" y2="423.91"/><line class="cls-1" x1="369.56" y1="413.94" x2="160.21" y2="447.52"/><path class="cls-1" d="M489.74,392.09l121.78-18.28a16.63,16.63,0,0,1-1.51,7.44c-2.32,5-6.71,7.45-10.44,9.42-12.14,6.41-18.22,9.62-27.19,12.1-8.46,2.34-15,3.08-24.11,4.11A171.08,171.08,0,0,1,530,408c-11.36.07-17.25-1.12-18.89-1.47-5-1.08-8.76-1.92-12.82-4.7A27,27,0,0,1,489.74,392.09Z" transform="translate(-187.13 -34.72)"/><line class="cls-1" x1="161.7" y1="457.39" x2="160.21" y2="447.52"/><line class="cls-1" x1="369.56" y1="413.94" x2="371.06" y2="423.91"/><path class="cls-1" d="M272.21,427.47l121.21-19.38a16,16,0,0,1-.93,6.6c-1.9,5.11-6.15,8-11.71,11.1a130.52,130.52,0,0,1-30.19,12,151.13,151.13,0,0,1-17.53,3.38,142.49,142.49,0,0,1-20.75,1.3A108,108,0,0,1,294.92,441c-11.13-2-14.87-4.69-16-5.52A24.63,24.63,0,0,1,272.21,427.47Z" transform="translate(-187.13 -34.72)"/><line class="cls-1" x1="116.17" y1="387.78" x2="129.95" y2="278.38"/><line class="cls-1" x1="176.38" y1="378.15" x2="129.95" y2="278.38"/><line class="cls-1" x1="145.69" y1="383.06" x2="129.95" y2="278.38"/><line class="cls-1" x1="333.81" y1="350.38" x2="347.77" y2="243.55"/><line class="cls-1" x1="363.51" y1="348.23" x2="347.77" y2="243.55"/><line class="cls-1" x1="395.58" y1="343.1" x2="347.77" y2="243.55"/><path d="M436.18,271.28c8.4-3,16.92-5.3,24.8.25,5.67,4,10.07,9,16.88,11.15s14.06,1.94,21,.79a40,40,0,0,0,10.68-3,48.23,48.23,0,0,0,8.42-5.51,50.68,50.68,0,0,1,9.26-6.12c2.34-1.09,6.32-2.63,8.45-.44,3,3-.56,6.89-3.86,7.15l.25.93c1.66-1.25,3.76-3,3.26-5.32a4.16,4.16,0,0,0-3.79-3c-4.79-.35-8.27,6.13-6.65,10.22,2,5,9.11,4,13.13,2.64,5.4-1.77,8.47-6.85,7-12.46a14.88,14.88,0,0,0-12.1-10.62c-6.65-.9-13,2.73-18.22,6.45-6.07,4.34-12.12,9.5-19.92,9.9-8,.42-15.48-3.63-22-7.8-11.08-7-26.49-17.15-39-6.95-.49.41.22,1.11.71.71,8.93-7.29,21-3.2,29.82,2.05,8.58,5.13,16.8,11.89,27.12,12.9,10.68,1,17.91-6.23,26.2-11.61,4.72-3.06,10.56-5.76,16.31-4.46,5.59,1.26,10.62,6.64,10.47,12.55-.19,7.05-8.77,10.68-15,9.19-4.19-1-4.81-5.52-2.69-8.8,1.11-1.71,3.13-3.32,5.3-2.82,4.5,1,1.44,5-.47,6.4-.35.27-.3,1,.25.93,2.76-.21,5.54-1.9,5.86-4.89a4.74,4.74,0,0,0-4-5.3c-3.34-.47-7.05,1.5-9.8,3.18-3.51,2.15-6.61,4.89-10,7.23-7.6,5.26-17.52,6.94-26.64,6.5a31.81,31.81,0,0,1-13.73-3.52c-3.86-2.09-6.95-5.23-10.38-7.9S456,267.25,451.6,267c-5.4-.33-10.68,1.54-15.68,3.34-.6.21-.35,1.18.26,1Z" transform="translate(-187.13 -34.72)"/><path d="M320.54,309.62l-2.19-2.73a3.13,3.13,0,0,1,1.36-1.77,5.43,5.43,0,0,1,2-.94c1.59-.42,3.82-.93,4.4,1.2a8.81,8.81,0,0,1-2.65,8.17c-4.24,3.46-12.62,2.87-14.76-2.65-2-5.11-1-12,3.37-15.57,4-3.34,9.82-3.58,14.7-2.49,9.51,2.1,18.9,9.09,29,6,4.33-1.34,7.47-4.62,10.27-8,3.41-4.12,6.69-8.36,10.33-12.28,8.32-9,19.33-16.75,32.15-15.57.64.06.64-.94,0-1-14.05-1.3-25.82,7.86-34.61,17.8-2.41,2.73-4.69,5.56-7,8.39s-4.54,5.78-7.55,7.83c-6.77,4.62-15.05,2.14-22-.57-6-2.31-12.14-4.89-18.69-3.89-5.58.86-10.08,4.42-11.43,10-1.13,4.66-.59,11.47,4.16,13.95,4.08,2.13,10.82,1.5,13.82-2.22,1.81-2.25,2.16-5.44,1.85-8.22-.28-2.58-2.22-2.31-4.44-2s-4.88,1.44-5.34,3.94a3.07,3.07,0,0,0,3.21,3.68c.65,0,.65-1,0-1Z" transform="translate(-187.13 -34.72)"/><path d="M410.14,275.21c-7.41-3.86-14.76-2-20.55,3.77-3.44,3.4-6,7.55-9.16,11.2a45.87,45.87,0,0,1-37.72,15.72,46,46,0,0,1-15.38-3.84c-3.11-1.36-7.11-3.47-10.59-2.15-6.05,2.3-2.17,15,3.95,10.76.52-.36,0-1.23-.51-.86-2.8,1.95-5.32-1.09-5.4-3.82s1.15-5.42,4.26-5.42c4.06,0,7.8,2.55,11.54,3.86a46.49,46.49,0,0,0,40.74-5c5.8-3.79,10.11-8.77,14.28-14.22,2.78-3.62,5.79-7.31,9.91-9.47,4.61-2.42,9.57-2,14.12.34.57.3,1.08-.57.51-.87Z" transform="translate(-187.13 -34.72)"/><text class="cls-2" transform="translate(70.17 502.77)">ANDRE CHIKATILO</text></svg>