<svg id="Layer_2" data-name="Layer 2" xmlns="http://www.w3.org/2000/svg" viewBox="0 0 395.93 441.11"><defs><style>.cls-1{font-size:36px;fill:#76cede;font-family:ShagadelicBold, Shagadelic;font-weight:700;}</style></defs><title>Elizabeth Bathory Leo</title><path d="M435.66,247.14c3.36-7.6,10.16-12.83,14.06-20.08,2.06-3.83,2.87-8.05,3.46-12.31.67-4.85,1.29-9.71,1.94-14.56.09-.63-.92-.63-1,0-.65,4.91-1.27,9.82-2,14.73-.65,4.56-1.63,9-4.05,12.94-4,6.6-10.15,11.63-13.31,18.77-.26.58.6,1.09.86.51Z" transform="translate(-196.03 -31.89)"/><path d="M371.24,219.11a24.18,24.18,0,0,1,1.19-21.31c.31-.56-.55-1.07-.86-.5a25.1,25.1,0,0,0-1.3,22.07c.25.59,1.22.33,1-.26Z" transform="translate(-196.03 -31.89)"/><path d="M360.77,217.44a31.63,31.63,0,0,0-5.84-25.87c-.38-.5-1.25,0-.86.51a30.68,30.68,0,0,1,5.74,25.1c-.13.62.83.89,1,.26Z" transform="translate(-196.03 -31.89)"/><path d="M364.2,291.12a27.9,27.9,0,0,0,17.1.33.5.5,0,0,0-.27-1,26.93,26.93,0,0,1-16.56-.34c-.61-.2-.87.76-.27,1Z" transform="translate(-196.03 -31.89)"/><path d="M373.1,310l3.3.7c.63.13.89-.83.26-1l-3.29-.71c-.63-.13-.9.83-.27,1Z" transform="translate(-196.03 -31.89)"/><path d="M325.55,104.55c-9.53,3.67-11.13,15.31-12.27,24.15A403.3,403.3,0,0,0,310,173.84c-.24,14.8-.07,29.9,1.84,44.59a59.62,59.62,0,0,0,4.95,17.36,66.23,66.23,0,0,1,3.8,9.34c1.05,3.74,1,7.55.92,11.39a43.65,43.65,0,0,0,.44,9.14,29.35,29.35,0,0,0,3.55,8.86c3.54,6.22,7.57,12.21,11.61,18.11,6.66,9.74,14,20.25,25,25.48,11.48,5.48,24.82,3.63,36.32-.79a79.73,79.73,0,0,0,30.74-21.62,161,161,0,0,0,23.61-35.61,60,60,0,0,0,5.84-19.63c.88-7.15,1.3-14.57,5.55-20.67.36-.53-.5-1-.87-.51-6.55,9.42-4.53,21.87-8,32.37-2.08,6.19-5.32,11.92-8.64,17.52-3.09,5.23-6.31,10.39-9.84,15.34-7.34,10.32-16.11,19.67-27.05,26.21s-24.5,11.24-37.43,9.4-21.93-11-29.3-20.93c-4-5.38-7.68-11-11.28-16.59-3.4-5.3-7.55-10.9-8.76-17.21s.43-12.93-1-19.29c-1.39-6-4.87-11.29-6.77-17.14-2.06-6.36-2.65-13.07-3.12-19.7q-.78-10.8-1-21.63a406.25,406.25,0,0,1,1.91-47.19c.69-6.94,1.21-14.08,2.88-20.87,1.42-5.77,4.08-11.78,10-14,.6-.23.34-1.2-.26-1Z" transform="translate(-196.03 -31.89)"/><path d="M466.82,184.31c-3.61-7.08-7.43-14.1-10.79-21.3a32.34,32.34,0,0,1-3.44-11.86,31.55,31.55,0,0,1,1.79-10.7c1.85-6,4.38-12.28,3-18.68-1.25-5.61-5.2-10.3-9.87-13.47-5.83-3.94-12.85-5.66-19.66-7-7.33-1.46-14.88-2.51-22.34-1.58s-13.58,5.09-20.75,6.9c-6.5,1.65-13.3,1.13-19.85.08-13.56-2.18-28-7.21-41.44-1.75-.59.24-.33,1.21.26,1,12.15-4.93,25.21-1.11,37.5,1.16,5.74,1.06,11.6,1.92,17.44,1.51,7-.49,12.63-3.62,19.08-6,7.39-2.69,15.36-2.61,23.06-1.52,7.2,1,14.74,2.41,21.4,5.44,6.31,2.87,12.18,7.88,14,14.81s-1.26,13.57-3.14,20.05a28.4,28.4,0,0,0,1.2,20.12c3.4,8,7.77,15.61,11.7,23.33.29.57,1.16.07.86-.51Z" transform="translate(-196.03 -31.89)"/><path d="M348,275.56c3.43,1.16,6.58-.41,9.31-2.49,4.2-3.2,8.79-6.76,14.49-4.95,2.07.66,3.15,2.73,4.84,4a15.4,15.4,0,0,0,4.82,2.34c4.41,1.3,9.08.82,13.58.35.64-.06.64-1.07,0-1-4.89.51-10.06,1.06-14.74-.8a14.06,14.06,0,0,1-5.18-3.69,6.57,6.57,0,0,0-3.77-2.3,14.18,14.18,0,0,0-9.77,1.63c-4.2,2.4-7.84,7.81-13.32,6-.61-.21-.87.76-.26,1Z" transform="translate(-196.03 -31.89)"/><path d="M382.64,198.73a44.81,44.81,0,0,1,26.49-6.59,53.41,53.41,0,0,1,13.38,3c3.69,1.24,7.43,2.16,11.12.5.59-.26.08-1.12-.5-.86-4.88,2.19-10-.68-14.7-2A44.42,44.42,0,0,0,405.88,191a45.78,45.78,0,0,0-23.74,6.82c-.55.34-.05,1.21.5.87Z" transform="translate(-196.03 -31.89)"/><path d="M382.7,198.66c6.17,4.87,13.62,8.46,21.62,8.49a23.65,23.65,0,0,0,18.78-8.68c.39-.5-.31-1.21-.71-.71a22.68,22.68,0,0,1-18.07,8.39c-7.72,0-14.95-3.5-20.91-8.2-.5-.4-1.21.31-.71.71Z" transform="translate(-196.03 -31.89)"/><path d="M400.54,192.16c-4.21-.46-4.11,6-3.44,8.63,1,4.18,5.92,5.12,9.66,4.88,3.53-.23,7.28-1.9,8.42-5.51a7.82,7.82,0,0,0-3.51-9,.5.5,0,0,0-.5.86,6.76,6.76,0,0,1,3.27,6.72c-.38,3-2.89,5-5.72,5.61a13.43,13.43,0,0,1-7.43-.41c-2.37-.89-3.34-2.88-3.45-5.31-.07-1.71-.21-5.82,2.7-5.5.64.07.64-.93,0-1Z" transform="translate(-196.03 -31.89)"/><path d="M405.4,192.94A3.89,3.89,0,0,0,403,198a4,4,0,0,0,5.22,1.92A4.16,4.16,0,0,0,410,194.5a4.37,4.37,0,0,0-5.74-1.82c-.59.26-.08,1.12.5.86a3.36,3.36,0,0,1,4.34,1.41,3.17,3.17,0,0,1-1.17,4,3,3,0,0,1-3.93-1,2.84,2.84,0,0,1,1.65-4c.61-.2.35-1.17-.27-1Z" transform="translate(-196.03 -31.89)"/><path d="M382.64,195.55a50.54,50.54,0,0,1,40.64-3.5c.61.21.87-.76.27-1a51.6,51.6,0,0,0-41.41,3.6c-.57.31-.06,1.18.5.87Z" transform="translate(-196.03 -31.89)"/><path d="M351.82,202.64a31.44,31.44,0,0,0-16.37-9.28c-7-1.46-14.1.08-21.07,1.07-.64.09-.37,1,.26,1,6.79-1,13.72-2.49,20.55-1.06a30.37,30.37,0,0,1,15.92,9c.44.47,1.15-.24.71-.71Z" transform="translate(-196.03 -31.89)"/><path d="M319.33,195a12,12,0,0,0,9.5,12.18c6.32,1.27,13.82,1.16,19.52-2.13a.5.5,0,0,0-.51-.86c-5,2.89-10.94,2.92-16.55,2.33-6.2-.66-11.15-4.92-11-11.52,0-.64-1-.64-1,0Z" transform="translate(-196.03 -31.89)"/><path d="M331.6,192.8c-2.64,4.68.38,11.09,5.32,12.83s10.55-1.76,10.16-7.14c-.05-.64-1.05-.64-1,0,.35,4.83-4.81,7.83-9.11,6.08s-6.8-7.19-4.51-11.27a.5.5,0,0,0-.86-.5Z" transform="translate(-196.03 -31.89)"/><path d="M338.4,194.75c-2.63.07-2.6,3.68-.9,5,2.2,1.65,5,.17,6-2,.28-.57-.58-1.08-.86-.5a3.43,3.43,0,0,1-3.23,2.2,2.38,2.38,0,0,1-1.89-1.08c-.46-.78-.47-2.52.84-2.56.64,0,.64-1,0-1Z" transform="translate(-196.03 -31.89)"/><path d="M353.19,195.5c-4.3-3.45-8.75-6.83-14.38-7.55-5.9-.75-11.72,1.18-17,3.57-.58.26-.08,1.12.51.86,4.86-2.18,10.24-4,15.65-3.52,5.73.52,10.2,3.86,14.54,7.35.5.39,1.21-.31.71-.71Z" transform="translate(-196.03 -31.89)"/><path d="M357.75,225.65a18.7,18.7,0,0,1-1.14,8.48c-.95,2.48-2.12,4.76-2.51,7.42a13.49,13.49,0,0,0,3.3,11.4c6.49,6.71,15.83,1.87,19.6-5.1.3-.57-.56-1.07-.87-.5-2,3.71-5.14,6.92-9.46,7.67a9.84,9.84,0,0,1-10.56-5.65c-2.1-4.34-1.07-9,.73-13.23a21,21,0,0,0,1.91-10.49c-.06-.63-1.06-.64-1,0Z" transform="translate(-196.03 -31.89)"/><path d="M375.29,251.64c2.49,2.88,6.58,1.91,8.72-.88a9.22,9.22,0,0,0,1.82-4.8,7.49,7.49,0,0,0-.36-3.05c-.51-1.47-2.71-3.46-1.63-5.09.36-.54-.51-1-.86-.51-1.74,2.61,1.72,4.91,1.87,7.53.26,4.17-4.76,10.82-8.86,6.09-.42-.49-1.12.22-.7.71Z" transform="translate(-196.03 -31.89)"/><path d="M352.59,238c-1.85,2.61-5.45,6.06-5,9.58.38,2.94,3.14,3.48,5.64,3.56.64,0,.64-1,0-1-1.49-.05-3.45-.06-4.33-1.62s0-3.31.76-4.64c1.11-1.87,2.53-3.6,3.79-5.37.37-.53-.5-1-.87-.51Z" transform="translate(-196.03 -31.89)"/><path d="M439.68,182.59a23.73,23.73,0,0,0,2.37-28c-.34-.54-1.2,0-.86.51A22.7,22.7,0,0,1,439,181.88c-.42.48.28,1.19.71.71Z" transform="translate(-196.03 -31.89)"/><path d="M380.55,191.16a3,3,0,0,1,2.81-2,.5.5,0,0,0,0-1,4.06,4.06,0,0,0-3.77,2.79c-.21.61.76.87,1,.26Z" transform="translate(-196.03 -31.89)"/><path d="M381.49,183a18.84,18.84,0,0,1,8.23-7.2c.58-.26.08-1.13-.5-.86a19.74,19.74,0,0,0-8.6,7.55c-.34.55.53,1.05.87.51Z" transform="translate(-196.03 -31.89)"/><path d="M379.69,181.84a38.33,38.33,0,0,1,4.71-5.62c.46-.45-.25-1.16-.71-.71a39.25,39.25,0,0,0-4.86,5.83c-.37.53.5,1,.86.5Z" transform="translate(-196.03 -31.89)"/><path d="M385.16,182.77c2.67-3.54,4.7-7.8,8.94-9.71.59-.27.08-1.13-.5-.87-4.4,2-6.53,6.4-9.3,10.08-.39.51.48,1,.86.5Z" transform="translate(-196.03 -31.89)"/><path d="M389.51,181.78a17.43,17.43,0,0,1,8.2-9c.57-.3.07-1.16-.5-.87a18.48,18.48,0,0,0-8.66,9.57c-.25.6.72.86,1,.27Z" transform="translate(-196.03 -31.89)"/><path d="M392.3,182.45c.12-2,3.48-4.71,4.89-6.09.72-.72,1.47-1.42,2.25-2.08.23-.18,3.22-2.86,3.79-2.51s1-.52.51-.86c-1.66-1-5.33,2.91-6.43,3.94-1.4,1.32-2.71,2.73-4,4.17-1,1.09-1.93,1.93-2,3.43,0,.64,1,.64,1,0Z" transform="translate(-196.03 -31.89)"/><path d="M397.09,180.77A19.8,19.8,0,0,1,408.55,172a.5.5,0,0,0-.27-1,20.85,20.85,0,0,0-12.06,9.23c-.33.55.53,1,.87.5Z" transform="translate(-196.03 -31.89)"/><path d="M404.15,178.61c2.58-3,5.41-6.07,9.65-6.15a.5.5,0,0,0,0-1c-4.51.09-7.58,3.26-10.36,6.44-.42.49.28,1.2.71.71Z" transform="translate(-196.03 -31.89)"/><path d="M410,177.9a10.77,10.77,0,0,1,8.29-3.72.5.5,0,0,0,0-1,11.78,11.78,0,0,0-9,4c-.42.48.28,1.19.71.71Z" transform="translate(-196.03 -31.89)"/><path d="M414.5,178.24a9.46,9.46,0,0,0,3-1.4,7.81,7.81,0,0,1,4.61-1.17c.65,0,.64-1,0-1a8.55,8.55,0,0,0-3.93.67c-1.35.59-2.43,1.62-3.91,1.94-.63.13-.36,1.1.27,1Z" transform="translate(-196.03 -31.89)"/><path d="M420,178.68a12.31,12.31,0,0,1,5-1.36c.64,0,.65-1,0-1a13.76,13.76,0,0,0-5.51,1.49c-.57.29-.06,1.16.51.87Z" transform="translate(-196.03 -31.89)"/><path d="M423.63,179.64a5.35,5.35,0,0,1,2.88-.36c.63.09.9-.87.27-1a6.34,6.34,0,0,0-3.42.37c-.59.23-.33,1.2.27,1Z" transform="translate(-196.03 -31.89)"/><path d="M426.28,181.32c.34-.45,1.12-.08,1.5.08a4.32,4.32,0,0,0,1.45.42c.64.05.64-.95,0-1-.82-.06-1.48-.66-2.31-.69a1.68,1.68,0,0,0-1.51.69c-.38.52.49,1,.87.5Z" transform="translate(-196.03 -31.89)"/><path d="M428,182.7a3,3,0,0,1,2,1.1c.42.49,1.13-.22.71-.71a4.07,4.07,0,0,0-2.7-1.39c-.64-.07-.64.93,0,1Z" transform="translate(-196.03 -31.89)"/><path d="M350.68,185.45a5.79,5.79,0,0,0-1.56-7.16c-.5-.4-1.21.31-.71.7a4.82,4.82,0,0,1,1.4,6c-.28.57.58,1.08.87.5Z" transform="translate(-196.03 -31.89)"/><path d="M348.49,184.13a6.16,6.16,0,0,0-1.74-6.66c-.48-.43-1.19.28-.7.7a5.2,5.2,0,0,1,1.48,5.69c-.22.61.75.87,1,.27Z" transform="translate(-196.03 -31.89)"/><path d="M345.69,183.49c1.78-2.49-.81-5-1.46-7.35a.5.5,0,0,0-1,.27c.55,2,3.05,4.49,1.56,6.57-.38.53.49,1,.86.51Z" transform="translate(-196.03 -31.89)"/><path d="M343.07,182.05A7.34,7.34,0,0,0,339.6,175c-.55-.34-1.05.52-.51.86a6.36,6.36,0,0,1,3,6.23c-.08.64.92.63,1,0Z" transform="translate(-196.03 -31.89)"/><path d="M340.22,181.3a12.39,12.39,0,0,0-3.47-6.9.5.5,0,0,0-.71.7,11.4,11.4,0,0,1,3.21,6.47c.1.63,1.06.36,1-.27Z" transform="translate(-196.03 -31.89)"/><path d="M337.91,181.08c.2-3.76-2.4-6.45-5-8.84-.47-.44-1.18.27-.7.71,2.37,2.2,4.86,4.63,4.67,8.13,0,.64,1,.64,1,0Z" transform="translate(-196.03 -31.89)"/><path d="M335.12,179.91a12.27,12.27,0,0,0-5.18-8.38c-.53-.37-1,.5-.51.86a11.26,11.26,0,0,1,4.72,7.79c.09.63,1.05.36,1-.27Z" transform="translate(-196.03 -31.89)"/><path d="M331.54,178.19c-.5-3.2-3.16-5.4-6.1-6.39-.61-.21-.87.76-.27,1,2.64.89,5,2.84,5.41,5.7.1.63,1.06.36,1-.27Z" transform="translate(-196.03 -31.89)"/><path d="M327.93,176.3a7.49,7.49,0,0,0-6.35-2.48c-.64.06-.64,1.06,0,1a6.56,6.56,0,0,1,5.64,2.19c.43.48,1.13-.23.71-.71Z" transform="translate(-196.03 -31.89)"/><path d="M324.76,177.09c-2.34-.29-4.41-1.81-6.77-.72-.58.27-.08,1.13.5.86,2-.92,4.25.61,6.27.86.64.08.63-.92,0-1Z" transform="translate(-196.03 -31.89)"/><path d="M321,178.87c-2.16-.24-4.61-.32-6.21,1.41-.44.47.27,1.18.7.7,1.42-1.51,3.63-1.32,5.51-1.11.64.07.64-.93,0-1Z" transform="translate(-196.03 -31.89)"/><path d="M361.19,274.46a17.59,17.59,0,0,0,13.65.68c.6-.21.34-1.18-.26-1a16.67,16.67,0,0,1-12.89-.58c-.58-.27-1.09.59-.5.86Z" transform="translate(-196.03 -31.89)"/><path d="M397.52,193.13a34,34,0,0,1,16.48.41c4.52,1.27,8.72,3.52,13.52,3.45a.5.5,0,0,0,0-1c-5.57.08-10.49-3-15.85-4a35.56,35.56,0,0,0-14.42.22c-.63.13-.36,1.1.27,1Z" transform="translate(-196.03 -31.89)"/><path d="M407.12,192.2a15.44,15.44,0,0,1,7.68,2.43,18.92,18.92,0,0,0,5.14,2.32c.62.2.88-.76.27-1a19.57,19.57,0,0,1-3.88-1.49,29.92,29.92,0,0,0-3.17-2,19.8,19.8,0,0,0-6-1.27c-.64-.07-.64.93,0,1Z" transform="translate(-196.03 -31.89)"/><path d="M399,193.06a76.84,76.84,0,0,1,8.85.11c2.85.29,4.77,2.29,7.47,2.9.63.14.89-.82.27-1-2.5-.56-4.32-2.44-6.9-2.85a57,57,0,0,0-9.69-.2.5.5,0,0,0,0,1Z" transform="translate(-196.03 -31.89)"/><path d="M392,193.58a5.6,5.6,0,0,0-2.46,9.54c.46.45,1.17-.26.71-.7a4.59,4.59,0,0,1,2-7.87.5.5,0,0,0-.26-1Z" transform="translate(-196.03 -31.89)"/><path d="M418.7,202.9a11.77,11.77,0,0,0,1.63-6.78c0-.64-1-.64-1,0a10.81,10.81,0,0,1-1.49,6.28.5.5,0,0,0,.86.5Z" transform="translate(-196.03 -31.89)"/><path d="M325.37,193.67a12.33,12.33,0,0,0-.56,12.51c.29.57,1.15.06.86-.51a11.3,11.3,0,0,1,.56-11.49c.35-.54-.52-1.05-.86-.51Z" transform="translate(-196.03 -31.89)"/><path d="M334.52,192.91c-3.15-.28-5.91-.26-8.67,1.45-3.37,2.09-6.56,3.34-10.61,3.07-.64,0-.64,1,0,1a16.31,16.31,0,0,0,8.44-1.6c1.5-.74,2.79-1.85,4.36-2.47,2.08-.84,4.29-.64,6.48-.45.64.06.64-.94,0-1Z" transform="translate(-196.03 -31.89)"/><path d="M327.45,193c-2.32-.65-4.36,0-6.53.89a24.93,24.93,0,0,1-9.12,2.33c-.64,0-.65,1,0,1a20.66,20.66,0,0,0,7-1.35c2.72-1.08,5.31-2.75,8.35-1.91a.5.5,0,0,0,.26-1Z" transform="translate(-196.03 -31.89)"/><path d="M325.38,197.75a16.41,16.41,0,0,0,7.39-3.89c.47-.43-.24-1.14-.71-.7a15.37,15.37,0,0,1-6.95,3.63c-.63.14-.36,1.11.27,1Z" transform="translate(-196.03 -31.89)"/><path d="M310.49,183c-6.25-14.6-13.7-29.51-15.2-45.54S298.51,105,303.9,90c2.44-6.79,5.8-13,11.11-18a41.86,41.86,0,0,1,16.26-9.37,39.57,39.57,0,0,1,19-1.19c7.31,1.4,14,5.06,21.27,6.45,14.17,2.68,27.94-3.31,41.15-7.58,13.43-4.34,27-5.94,40.89-3,27.24,5.83,50.36,27.27,54.77,55.3,1.26,8,1.51,16.14,2.06,24.19.27,4,.89,8.11-.68,11.87-1.38,3.3-4,5.89-6.67,8.17a136.59,136.59,0,0,1-19.26,13.35c-3.25,1.9-6.58,3.68-10,5.34a33.11,33.11,0,0,0-7.28,4.19,8.14,8.14,0,0,0-3,5.47c-.07.64.93.63,1,0,.42-3.89,4.12-6,7.29-7.57,3.41-1.69,6.82-3.36,10.14-5.22a154.09,154.09,0,0,0,19.29-12.82c5-3.87,10-8.39,10.47-15.07.29-4.1-.34-8.35-.62-12.44s-.52-8.14-.88-12.19c-1.28-14.58-6-27.86-15.44-39.19a72.79,72.79,0,0,0-32.42-22,73.61,73.61,0,0,0-38.81-2.47C408.24,59.54,393.71,68,377.72,67.55c-8.38-.23-15.67-4-23.58-6.2a40.38,40.38,0,0,0-18-.93c-11.76,2.06-22.75,9.17-28.83,19.53-4,6.84-6.21,14.74-8.41,22.31a116.68,116.68,0,0,0-4.73,23.9c-1.19,16.23,4.25,31.19,10.5,45.88,1.63,3.83,3.28,7.66,4.91,11.49.26.59,1.12.08.87-.51Z" transform="translate(-196.03 -31.89)"/><path d="M384.05,108.59c19.9-8.26,41.39-21.28,45.29-44.39.1-.63-.86-.9-1-.27-3.83,22.77-25,35.56-44.59,43.7-.58.24-.33,1.21.27,1Z" transform="translate(-196.03 -31.89)"/><path d="M403.28,102.1c8.42-3.2,17.13-6.59,23.77-12.9a36.78,36.78,0,0,0,11-21.82c.08-.64-.92-.63-1,0A35.73,35.73,0,0,1,425.77,89C419.32,94.89,411,98.09,403,101.14c-.6.23-.34,1.19.26,1Z" transform="translate(-196.03 -31.89)"/><path d="M384.3,107.44A33.17,33.17,0,0,1,349,74.73a.5.5,0,0,0-1,0,34.19,34.19,0,0,0,36.34,33.71c.63,0,.64-1,0-1Z" transform="translate(-196.03 -31.89)"/><path d="M343.8,68.58c-.44,9.11,0,19,5.72,26.59,5.13,6.74,13.19,10.35,21,12.91.62.2.88-.77.27-1-7.81-2.55-15.94-6.17-20.89-13-5.27-7.35-5.55-16.79-5.13-25.48,0-.65-1-.64-1,0Z" transform="translate(-196.03 -31.89)"/><path d="M309.07,196.29c-14.59-8.41-27.7-19.86-36.86-34.08a71.31,71.31,0,0,1-10.84-51C266.74,79,289,46.61,322.53,39.57c19.17-4,38.81.23,57.8,3.19a182.56,182.56,0,0,0,28,2.69c9.71,0,19.22-1.69,28.68-3.74,10.22-2.21,20.5-4.79,31-5.11s19.81,3,29,7.93c16.25,8.68,31.39,20.53,41,36.5a69,69,0,0,1,9.64,27.24c1.2,10-.62,19.77-3.27,29.4-2.38,8.63-4.83,18.69-13.25,23.42-4.27,2.39-9.21,3.22-14,3.82-5,.63-10.11,1.14-15.16,1.71l-15.7,1.76c-.63.07-.64,1.07,0,1,10.86-1.22,21.78-2.19,32.61-3.7,8.47-1.18,16.21-4,20.68-11.75a53.11,53.11,0,0,0,4.66-12A146,146,0,0,0,548,126.49a62.86,62.86,0,0,0-1.4-28.31C541.43,80,529,65,513.87,53.89a123.13,123.13,0,0,0-25.05-14.44c-9.58-4-19.39-4.44-29.59-3.08-10.56,1.41-20.86,4.25-31.32,6.16a115.3,115.3,0,0,1-32,1.28c-20.23-1.94-40.21-7.64-60.66-6.78a71.23,71.23,0,0,0-46,19C277.17,67.21,268.49,82,263.61,97.61c-5.59,17.93-6,36.62,1.71,54,6.88,15.56,18.75,28.61,32.41,38.56a122.05,122.05,0,0,0,10.83,7,.5.5,0,0,0,.51-.86Z" transform="translate(-196.03 -31.89)"/><path d="M464.93,219.15a31.18,31.18,0,0,0,4.63-21.8c-.1-.63-1.06-.36-1,.27a30.19,30.19,0,0,1-4.53,21c-.36.55.51,1.05.86.51Z" transform="translate(-196.03 -31.89)"/><path d="M415.32,100.16a42.88,42.88,0,0,0,29.8-37.11c.05-.64-.95-.64-1,0A41.85,41.85,0,0,1,415.05,99.2c-.61.19-.35,1.16.27,1Z" transform="translate(-196.03 -31.89)"/><path d="M421.88,101.75a42.72,42.72,0,0,0,23.66-26.86.5.5,0,0,0-1-.26,41.8,41.8,0,0,1-23.19,26.26c-.59.25-.08,1.12.5.86Z" transform="translate(-196.03 -31.89)"/><path d="M428.42,102.36c9.73-3.49,15.09-12.52,19.88-21.09a.5.5,0,0,0-.87-.5c-4.64,8.31-9.81,17.23-19.28,20.63-.6.21-.34,1.18.27,1Z" transform="translate(-196.03 -31.89)"/><path d="M432.81,103.54c7.06,0,13-5.46,17.05-10.74,4.4-5.72,7.38-12.37,10.28-18.93.26-.59-.6-1.1-.86-.51-2.57,5.82-5.19,11.68-8.82,16.93-4,5.75-10.15,12.25-17.65,12.25a.5.5,0,0,0,0,1Z" transform="translate(-196.03 -31.89)"/><path d="M438.54,105.73c6.13,0,11.48-4.53,15.56-8.69a46.82,46.82,0,0,0,10.09-15.65c.24-.59-.73-.85-1-.26a45.58,45.58,0,0,1-9.29,14.63c-4,4.18-9.33,9-15.4,9a.5.5,0,0,0,0,1Z" transform="translate(-196.03 -31.89)"/><path d="M444.31,107.5A27.29,27.29,0,0,0,467.2,88.27a.5.5,0,0,0-1-.27,26.25,26.25,0,0,1-21.92,18.5c-.63.08-.64,1.08,0,1Z" transform="translate(-196.03 -31.89)"/><path d="M448.66,110c7.58.91,14.68-5.47,19.77-10.35.46-.45-.24-1.16-.71-.71-4.89,4.69-11.78,10.93-19.06,10.06-.64-.08-.63.92,0,1Z" transform="translate(-196.03 -31.89)"/><path d="M451.47,113c8.06,1.48,15-2.9,20.63-8.22.47-.45-.24-1.15-.71-.71-5.33,5-12,9.37-19.65,8-.63-.12-.9.84-.27,1Z" transform="translate(-196.03 -31.89)"/><path d="M453.59,116c3.29,1.8,6.44,3.1,10.26,2.75a22.48,22.48,0,0,0,9.82-3.63c.54-.34,0-1.21-.51-.87a21.85,21.85,0,0,1-9,3.45c-3.74.44-6.86-.8-10.09-2.56-.57-.31-1.07.56-.51.86Z" transform="translate(-196.03 -31.89)"/><path d="M456.77,123.29a11.05,11.05,0,0,0,5.77,2.71c3.17.44,5.88-1.14,9-1.33.64,0,.64-1,0-1-2.32.14-4.41,1.18-6.71,1.4a9.81,9.81,0,0,1-7.33-2.49c-.49-.42-1.2.28-.71.71Z" transform="translate(-196.03 -31.89)"/><path d="M456.29,130.8c2.31,1,4.12,2.22,6.7,2.21a21.46,21.46,0,0,0,7.49-1.84c.59-.23.33-1.19-.27-1A20.41,20.41,0,0,1,463,132c-2.45,0-4.27-1.27-6.44-2.17-.59-.25-.85.72-.26,1Z" transform="translate(-196.03 -31.89)"/><path d="M453.86,137.55c4.8,3.95,10.89,2.84,16.66,2.31.63-.06.64-1.06,0-1-5.38.49-11.45,1.69-16-2-.49-.4-1.2.3-.7.71Z" transform="translate(-196.03 -31.89)"/><path d="M452.82,144.61A30.78,30.78,0,0,0,469.16,148c4.75-.34,11.65-1.75,14.91-5.56.41-.49-.29-1.2-.71-.71-3.23,3.78-10.27,5.1-15,5.31a29.47,29.47,0,0,1-15.05-3.32c-.57-.29-1.07.57-.5.87Z" transform="translate(-196.03 -31.89)"/><path d="M452.06,150c1.53.33,2.83,1.93,4.29,2.53a15.23,15.23,0,0,0,5.18.95,50.16,50.16,0,0,0,11.87-.64c.64-.12.37-1.09-.26-1a49.57,49.57,0,0,1-11.61.6,12.4,12.4,0,0,1-5.83-1.38c-1.25-.74-1.95-1.75-3.37-2.07-.63-.14-.9.83-.27,1Z" transform="translate(-196.03 -31.89)"/><path d="M452.38,155.82a17.21,17.21,0,0,0,19.15,4.27c.59-.25.33-1.21-.26-1a16.23,16.23,0,0,1-18.18-4c-.44-.48-1.14.23-.71.71Z" transform="translate(-196.03 -31.89)"/><path d="M455.68,164.51c8.09,4,17,1.89,24.44-2.63a.5.5,0,0,0-.51-.87c-7.08,4.32-15.67,6.47-23.43,2.63-.57-.28-1.08.58-.5.87Z" transform="translate(-196.03 -31.89)"/><path d="M459.86,171.49c4.17.75,10.42,1.79,13.61-1.8.42-.48-.28-1.19-.71-.71-2.86,3.23-8.9,2.22-12.63,1.54-.63-.11-.9.85-.27,1Z" transform="translate(-196.03 -31.89)"/><path d="M462.49,177.84a19.56,19.56,0,0,0,11.19-3.19c.53-.35,0-1.22-.51-.87a18.48,18.48,0,0,1-10.68,3.06.5.5,0,0,0,0,1Z" transform="translate(-196.03 -31.89)"/><path d="M487.33,162.28c11.65-1.44,19.82-10.21,25.78-19.66.34-.54-.52-1.05-.87-.5-5.74,9.1-13.65,17.77-24.91,19.16-.63.08-.64,1.08,0,1Z" transform="translate(-196.03 -31.89)"/><path d="M487.06,156.46c6.06.75,11.37-2.64,15.93-6.25,4.26-3.37,8.27-7.44,8.89-13.09.07-.64-.93-.64-1,0-.6,5.47-4.77,9.4-8.89,12.61-4.3,3.35-9.25,6.43-14.93,5.73-.63-.08-.63.92,0,1Z" transform="translate(-196.03 -31.89)"/><path d="M488.3,150c5.8.41,10.8-2.6,15.3-5.92,2-1.48,3.75-2.85,4.82-5.17a58.47,58.47,0,0,0,2.86-8.75.5.5,0,0,0-1-.27,76.37,76.37,0,0,1-2.38,7.57c-1.14,2.89-3.07,4.48-5.52,6.25-4.18,3-8.8,5.67-14.12,5.29-.64-.05-.64,1,0,1Z" transform="translate(-196.03 -31.89)"/><path d="M494,142.22a21.64,21.64,0,0,0,16-19.69c0-.65-1-.65-1,0a20.6,20.6,0,0,1-15.24,18.72.5.5,0,0,0,.27,1Z" transform="translate(-196.03 -31.89)"/><path d="M492.64,134.59c4.87-.57,8.7-3.47,11.62-7.29s5.94-8.41,5.24-13.27c-.09-.64-1.05-.37-1,.26.66,4.59-2.73,9.55-5.51,13s-6.11,5.82-10.39,6.32c-.63.07-.64,1.07,0,1Z" transform="translate(-196.03 -31.89)"/><path d="M484.69,132.29a32.75,32.75,0,0,0,15.2-9.08c4.05-4.29,8-10.42,7.35-16.54-.06-.63-1.07-.64-1,0,.62,6.07-3.48,12.22-7.58,16.37a31.68,31.68,0,0,1-14.23,8.29.5.5,0,0,0,.26,1Z" transform="translate(-196.03 -31.89)"/><path d="M491.74,119.75c4.11-2.33,8-5,9.89-9.51s3.55-9.55,2.15-14.26a.5.5,0,0,0-1,.27c1.34,4.54-.41,10.14-2.42,14.31-1.87,3.89-5.52,6.26-9.16,8.33a.5.5,0,0,0,.5.86Z" transform="translate(-196.03 -31.89)"/><path d="M480.35,118.22c14.09-3.87,19.28-18.83,19.51-32a.5.5,0,0,0-1,0c-.22,12.76-5.13,27.34-18.78,31.09a.5.5,0,0,0,.27,1Z" transform="translate(-196.03 -31.89)"/><path d="M484.87,107.43c8.66-5.66,9-16.59,8.9-25.9a.5.5,0,0,0-1,0c.11,8.91-.07,19.59-8.4,25-.54.35,0,1.21.5.86Z" transform="translate(-196.03 -31.89)"/><path d="M484.29,97.49c5.16-7.35,4.69-15.22,2.24-23.48a.5.5,0,0,0-1,.26c2.37,8,2.86,15.59-2.14,22.72-.37.53.49,1,.86.5Z" transform="translate(-196.03 -31.89)"/><path d="M480.72,91.22c.43-3.38,3-5.78,3.17-9.32.2-3.91-.09-7.9-.16-11.81a.5.5,0,0,0-1,0c.07,3.91.38,7.9.16,11.81-.19,3.5-2.74,5.93-3.17,9.32-.08.64.92.63,1,0Z" transform="translate(-196.03 -31.89)"/><path d="M475.76,88c5.09-4.63,5.92-11.49,6.5-18,.06-.64-.94-.64-1,0-.55,6.23-1.31,12.82-6.21,17.27-.48.43.23,1.14.71.71Z" transform="translate(-196.03 -31.89)"/><path d="M471.63,82.42a23.49,23.49,0,0,0,4-18.08c-.11-.64-1.08-.37-1,.26a22.5,22.5,0,0,1-3.87,17.31c-.38.53.49,1,.86.51Z" transform="translate(-196.03 -31.89)"/><path d="M466.9,78.17a17.07,17.07,0,0,0,4-14.39c-.11-.63-1.08-.36-1,.27a15.91,15.91,0,0,1-3.77,13.41c-.42.48.28,1.19.71.71Z" transform="translate(-196.03 -31.89)"/><path d="M464.31,70.72a11.93,11.93,0,0,0,1.15-11c-.23-.6-1.2-.34-1,.26a11,11,0,0,1-1.05,10.21c-.35.55.51,1.05.86.51Z" transform="translate(-196.03 -31.89)"/><path d="M454.21,74.63a21.33,21.33,0,0,0,3.7-16.13c-.11-.63-1.07-.36-1,.27a20.32,20.32,0,0,1-3.59,15.35c-.38.53.49,1,.86.51Z" transform="translate(-196.03 -31.89)"/><path d="M450.12,69.84a17.58,17.58,0,0,0,0-12.65c-.23-.59-1.2-.34-1,.27a16.7,16.7,0,0,1,0,12.11c-.23.6.74.86,1,.27Z" transform="translate(-196.03 -31.89)"/><path d="M440.71,66.24a15.19,15.19,0,0,0,2.54-9.64c-.05-.64-1.05-.64-1,0a14.22,14.22,0,0,1-2.41,9.13c-.36.54.51,1,.87.51Z" transform="translate(-196.03 -31.89)"/><path d="M430.19,73.66c1.18-2.89,3.11-5.29,4.08-8.33a43.5,43.5,0,0,0,1.67-8.91c.06-.64-.94-.63-1,0a40,40,0,0,1-1.9,9.45c-1,2.71-2.75,4.9-3.82,7.53-.24.59.73.85,1,.26Z" transform="translate(-196.03 -31.89)"/><path d="M412.52,85.45c9.26-5.92,12.9-16.54,14.5-26.92.1-.63-.87-.9-1-.26-1.56,10.09-5,20.54-14.05,26.32-.54.34,0,1.21.51.86Z" transform="translate(-196.03 -31.89)"/><path d="M381.29,108.49a63,63,0,0,0,28.43-26.87c.31-.56-.56-1.07-.86-.5a62.09,62.09,0,0,1-28.08,26.5c-.58.28-.07,1.14.51.87Z" transform="translate(-196.03 -31.89)"/><path d="M414,76.12c2.29-1.58,3.36-3.93,4.19-6.52,1.13-3.52,2.62-7.29,3-11,.06-.64-.94-.63-1,0-.28,3.11-1.57,6.24-2.45,9.21-.83,2.78-1.68,5.7-4.2,7.44-.53.36,0,1.23.51.86Z" transform="translate(-196.03 -31.89)"/><path d="M396,87.15c9.88-5.1,12.19-15.66,15-25.52a.5.5,0,0,0-1-.27c-2.74,9.59-4.92,20-14.54,24.93-.58.3-.07,1.16.5.86Z" transform="translate(-196.03 -31.89)"/><path d="M351.43,65.81a43.35,43.35,0,0,0,8.69,27.49,52.85,52.85,0,0,0,9.35,9.67c3.29,2.64,6.89,5.39,11.2,5.82.64.06.64-.94,0-1-4.58-.46-8.68-3.91-12.05-6.83A50.83,50.83,0,0,1,360,91.48a42.2,42.2,0,0,1-7.61-25.67c0-.65-1-.64-1,0Z" transform="translate(-196.03 -31.89)"/><path d="M356.8,74.05c.09,7.43,5.24,14.71,9.35,20.57,3.73,5.3,8.11,11.61,14.78,13.2.63.15.89-.81.27-1-6.62-1.58-11.05-8.2-14.69-13.47-3.81-5.54-8.62-12.4-8.71-19.34a.5.5,0,0,0-1,0Z" transform="translate(-196.03 -31.89)"/><path d="M381.23,107.46A44.17,44.17,0,0,1,377.86,70c.22-.61-.74-.87-1-.27A45.15,45.15,0,0,0,380.37,108a.5.5,0,0,0,.86-.5Z" transform="translate(-196.03 -31.89)"/><path d="M380.54,108.81a49.73,49.73,0,0,0,2.78-40.16c-.22-.6-1.18-.34-1,.27a48.75,48.75,0,0,1-2.69,39.39c-.3.57.56,1.07.87.5Z" transform="translate(-196.03 -31.89)"/><path d="M381.3,107.45c3.1-1.66,6.22-3.39,8.45-6.19a81.93,81.93,0,0,0,6.17-9.9.5.5,0,0,0-.87-.5,105,105,0,0,1-5.59,9.12c-2.21,3-5.42,4.86-8.67,6.61-.56.3-.06,1.16.51.86Z" transform="translate(-196.03 -31.89)"/><path d="M381.66,106.54c2.72-2.71,5.77-5.31,7.81-8.6s3-6.93,4-10.54a.5.5,0,0,0-1-.26c-1,3.53-2,7.14-4,10.29s-5,5.77-7.65,8.4a.5.5,0,0,0,.71.71Z" transform="translate(-196.03 -31.89)"/><path d="M395.25,83.32c5.69-4.64,7.95-13.18,10.27-19.83.21-.61-.75-.87-1-.27-2.28,6.53-4.44,14.85-10,19.39-.5.41.21,1.11.71.71Z" transform="translate(-196.03 -31.89)"/><path d="M387.39,68.19a27,27,0,0,1,3.88,16.16c0,.64,1,.64,1,0a27.86,27.86,0,0,0-4-16.66c-.33-.55-1.2,0-.86.5Z" transform="translate(-196.03 -31.89)"/><path d="M395.83,65.85c-.3,1.86.54,3.38.61,5.22.09,2.24-1.06,4.72-1.68,6.84a.5.5,0,0,0,1,.27A33.87,33.87,0,0,0,397.4,72c.18-2-.93-3.85-.6-5.86.1-.63-.86-.91-1-.27Z" transform="translate(-196.03 -31.89)"/><path d="M380.81,103.33c-.49-9.25-3.31-18.72,0-27.77.22-.6-.75-.87-1-.26-3.32,9.13-.52,18.68,0,28,0,.64,1,.65,1,0Z" transform="translate(-196.03 -31.89)"/><path d="M382.18,98.69a78.91,78.91,0,0,0-1.72-27c-.15-.62-1.11-.36-1,.27a78.07,78.07,0,0,1,1.68,26.69c-.07.64.93.64,1,0Z" transform="translate(-196.03 -31.89)"/><path d="M378.91,106.3a45.34,45.34,0,0,1-11.42-36.73c.08-.63-.88-.9-1-.27A46.46,46.46,0,0,0,378.2,107c.44.47,1.14-.23.71-.71Z" transform="translate(-196.03 -31.89)"/><path d="M372.25,68.27a33.09,33.09,0,0,0,.87,28c.29.58,1.15.07.86-.5a32,32,0,0,1-.87-27c.25-.59-.61-1.1-.86-.51Z" transform="translate(-196.03 -31.89)"/><path d="M339.25,61.14c-3.35,5.55-3.22,12.09-1.7,18.21a88.78,88.78,0,0,0,3.24,10,18.3,18.3,0,0,0,4.42,7.23c.47.44,1.18-.26.71-.7-4.14-3.86-5.76-10.65-7.18-16-1.64-6.12-2-12.7,1.38-18.31.33-.55-.53-1-.87-.5Z" transform="translate(-196.03 -31.89)"/><path d="M352.4,104.54a33.08,33.08,0,0,1-10.87-8.22c-3.15-3.65-4.7-8.12-7.45-12-.37-.53-1.23,0-.86.5,2.8,4,4.39,8.5,7.6,12.22a33.8,33.8,0,0,0,11.08,8.37c.58.28,1.08-.58.5-.86Z" transform="translate(-196.03 -31.89)"/><path d="M342.89,102.33c-9.58-3.45-12.48-14-14.66-22.83a.5.5,0,0,0-1,.27c2.28,9.28,5.42,20,15.36,23.53.61.22.87-.75.27-1Z" transform="translate(-196.03 -31.89)"/><path d="M336.49,103.51a26.52,26.52,0,0,1-13-21.72c0-.64-1-.64-1,0A27.58,27.58,0,0,0,336,104.38a.5.5,0,0,0,.5-.87Z" transform="translate(-196.03 -31.89)"/><path d="M334.09,61.53a26.92,26.92,0,0,0-1.5,15.06c.12.64,1.08.37,1-.26a26.09,26.09,0,0,1,1.5-14.54c.24-.6-.72-.86-1-.26Z" transform="translate(-196.03 -31.89)"/><path d="M327.51,63.38a15,15,0,0,0-3.87,12.05c.07.63,1.07.64,1,0a14,14,0,0,1,3.58-11.35c.43-.47-.27-1.18-.71-.7Z" transform="translate(-196.03 -31.89)"/><path d="M319.07,67.28A15.79,15.79,0,0,0,316,80.13c.12.63,1.08.37,1-.26A14.66,14.66,0,0,1,319.78,68c.39-.5-.31-1.21-.71-.71Z" transform="translate(-196.03 -31.89)"/><path d="M311.12,76.07a24.52,24.52,0,0,0,.23,12.27.5.5,0,0,0,1-.26,23.47,23.47,0,0,1-.23-11.74c.15-.63-.81-.89-1-.27Z" transform="translate(-196.03 -31.89)"/><path d="M306.75,84.14a16.78,16.78,0,0,0,2.74,12.39c.36.53,1.23,0,.86-.51a15.74,15.74,0,0,1-2.63-11.61c.1-.63-.87-.9-1-.27Z" transform="translate(-196.03 -31.89)"/><path d="M302.43,91A13,13,0,0,0,308,103.32c.53.37,1-.5.51-.86A12,12,0,0,1,303.43,91c.08-.64-.92-.63-1,0Z" transform="translate(-196.03 -31.89)"/><path d="M299.14,99.78a8.42,8.42,0,0,0,3.88,6.75c.54.36,1-.51.5-.86a7.39,7.39,0,0,1-3.38-5.89c0-.64-1-.65-1,0Z" transform="translate(-196.03 -31.89)"/><path d="M297.44,109.51a5.61,5.61,0,0,0,5.87,3.52c.63-.08.64-1.08,0-1a4.64,4.64,0,0,1-4.91-2.78c-.24-.59-1.21-.33-1,.26Z" transform="translate(-196.03 -31.89)"/><path d="M295.51,115.08c.4,4.13,6,5,9.31,5a.5.5,0,0,0,0-1c-2.57,0-8-.55-8.31-4-.06-.63-1.06-.64-1,0Z" transform="translate(-196.03 -31.89)"/><path d="M295.15,124.15a13,13,0,0,0,8.17,2.21c.64,0,.65-1,0-1a12.12,12.12,0,0,1-7.66-2.07c-.54-.36-1,.5-.51.86Z" transform="translate(-196.03 -31.89)"/><path d="M294.58,129.59a10.07,10.07,0,0,0,7.49,2.81c.64,0,.65-1,0-1a9,9,0,0,1-6.78-2.52c-.47-.44-1.17.27-.71.71Z" transform="translate(-196.03 -31.89)"/><path d="M294.12,134.5a6,6,0,0,0,5.44,4.66c.65.05.64-.95,0-1a5,5,0,0,1-4.47-3.93c-.14-.62-1.11-.36-1,.27Z" transform="translate(-196.03 -31.89)"/><path d="M294.75,143.68c1.41,1.47,2.95,2.9,5.08,3,.64.05.64-.95,0-1-1.83-.13-3.17-1.51-4.37-2.76-.44-.46-1.15.25-.71.71Z" transform="translate(-196.03 -31.89)"/><path d="M296.88,150.08a8,8,0,0,0,5.44,2.15.5.5,0,0,0,0-1,6.94,6.94,0,0,1-4.74-1.85c-.47-.44-1.18.27-.7.7Z" transform="translate(-196.03 -31.89)"/><path d="M298.73,157.28l4.63,1.83c.6.24.86-.73.26-1L299,156.32c-.59-.24-.85.73-.26,1Z" transform="translate(-196.03 -31.89)"/><path d="M302.05,165.23a6.73,6.73,0,0,0,4.53,2.48c.64.08.63-.92,0-1a5.81,5.81,0,0,1-3.83-2.19c-.4-.5-1.1.21-.7.71Z" transform="translate(-196.03 -31.89)"/><path d="M304.78,170.26a4.89,4.89,0,0,0,4.55,2.42c.64-.05.65-1.05,0-1a3.91,3.91,0,0,1-3.69-1.92.5.5,0,0,0-.86.5Z" transform="translate(-196.03 -31.89)"/><path d="M330.29,103.06a16.49,16.49,0,0,1-8.77-12.78c-.07-.64-1.07-.64-1,0a17.48,17.48,0,0,0,9.27,13.64c.56.3,1.07-.56.5-.86Z" transform="translate(-196.03 -31.89)"/><path d="M325.52,104.41a26.36,26.36,0,0,1-9.31-18.12c0-.64-1-.64-1,0a27.38,27.38,0,0,0,9.6,18.83c.49.41,1.2-.29.71-.71Z" transform="translate(-196.03 -31.89)"/><path d="M322.87,105.89a14.16,14.16,0,0,1-7.28-10.22c-.11-.64-1.07-.37-1,.26a15.09,15.09,0,0,0,7.73,10.82c.57.31,1.07-.56.51-.86Z" transform="translate(-196.03 -31.89)"/><path d="M320.05,108a21,21,0,0,1-9.12-8.17.5.5,0,0,0-.87.51,22,22,0,0,0,9.48,8.52c.58.27,1.09-.59.51-.86Z" transform="translate(-196.03 -31.89)"/><path d="M317.11,110.08c-1.65.15-3.07-.78-4.49-1.49l-3.8-1.9c-.58-.29-1.08.57-.51.86,1.66.83,3.32,1.67,5,2.49a6.92,6.92,0,0,0,3.82,1c.63,0,.64-1,0-1Z" transform="translate(-196.03 -31.89)"/><path d="M316.35,114.59a17.06,17.06,0,0,1-9.65-3.52c-.51-.39-1,.48-.5.86a18,18,0,0,0,10.15,3.66c.64,0,.64-1,0-1Z" transform="translate(-196.03 -31.89)"/><path d="M315.6,118.14a25.65,25.65,0,0,1-9.5-2c-.59-.24-1.1.62-.5.87a27.07,27.07,0,0,0,10,2.16.5.5,0,0,0,0-1Z" transform="translate(-196.03 -31.89)"/><path d="M302.8,123c1.79.16,3.19,1.53,4.94,1.92a16.33,16.33,0,0,0,5.08.06c.64-.06.64-1.06,0-1-2.25.21-4.46.36-6.55-.66A9.53,9.53,0,0,0,302.8,122c-.64-.06-.63.94,0,1Z" transform="translate(-196.03 -31.89)"/><path d="M302.14,129.68a20,20,0,0,0,9.45,2.8.5.5,0,0,0,0-1,18.92,18.92,0,0,1-8.94-2.66.5.5,0,0,0-.51.86Z" transform="translate(-196.03 -31.89)"/><path d="M300.35,136.65c3.31,1.91,6.15,4.95,10.25,4.67.64,0,.64-1,0-1-3.9.27-6.62-2.73-9.74-4.54a.5.5,0,0,0-.51.87Z" transform="translate(-196.03 -31.89)"/><path d="M300.82,142.61c2.61,2.18,5.79,6,9.51,5.78.64,0,.64-1,0-1-3.3.19-6.44-3.52-8.81-5.48-.49-.41-1.2.29-.7.7Z" transform="translate(-196.03 -31.89)"/><path d="M303.81,154.7a11.2,11.2,0,0,0,5.87,3.81.5.5,0,0,0,.26-1,10.23,10.23,0,0,1-5.42-3.55c-.4-.5-1.11.21-.71.71Z" transform="translate(-196.03 -31.89)"/><path d="M305.14,151.83a13.53,13.53,0,0,0,5.78,4.17c.6.23.86-.74.26-1a12.66,12.66,0,0,1-5.34-3.92c-.4-.5-1.1.21-.7.71Z" transform="translate(-196.03 -31.89)"/><path d="M305.15,161.43a11.58,11.58,0,0,0,5.29,4.29c.59.24.85-.73.26-1a10.34,10.34,0,0,1-4.69-3.83c-.35-.53-1.22,0-.86.51Z" transform="translate(-196.03 -31.89)"/><path d="M303.45,168.08a29.07,29.07,0,0,1-11.08,1.33l.48.63a12.5,12.5,0,0,1,6.89-8.2c.58-.28.07-1.14-.51-.86a13.49,13.49,0,0,0-7.34,8.8.5.5,0,0,0,.48.63,29.71,29.71,0,0,0,11.35-1.36c.61-.2.35-1.16-.27-1Z" transform="translate(-196.03 -31.89)"/><path d="M283.42,160.76a15,15,0,0,0,16.38-2.89c.47-.44-.24-1.15-.7-.71a14,14,0,0,1-15.18,2.74c-.58-.26-1.09.61-.5.86Z" transform="translate(-196.03 -31.89)"/><path d="M284,160.65c.19-3.12,2.71-5.37,4.67-7.57,1.77-2,3.58-4.45,6.55-4.19.64.06.64-.94,0-1-3.28-.28-5.27,2.26-7.26,4.49-2.19,2.44-4.75,4.81-5,8.27,0,.65,1,.65,1,0Z" transform="translate(-196.03 -31.89)"/><path d="M295.25,147.8l-8.13.65c-3,.24-6.2.64-8.61-1.52-.47-.43-1.18.28-.7.71,1.9,1.7,4.2,2.08,6.7,2,3.58-.12,7.17-.55,10.74-.84.64-.05.64-1.05,0-1Z" transform="translate(-196.03 -31.89)"/><path d="M278.58,147.35c3.27-5.11,9.58-5.4,15.05-5.27a.5.5,0,0,0,0-1c-5.87-.14-12.44.34-15.91,5.76-.35.55.52,1,.86.51Z" transform="translate(-196.03 -31.89)"/><path d="M293.6,141a17,17,0,0,1-13.83-4.73c-.46-.45-1.17.26-.7.71a17.93,17.93,0,0,0,14.53,5c.63-.07.64-1.07,0-1Z" transform="translate(-196.03 -31.89)"/><path d="M279.6,137.18a26.2,26.2,0,0,1,14-3c.64,0,.64-1,0-1a27.26,27.26,0,0,0-14.5,3.13c-.57.29-.07,1.16.5.86Z" transform="translate(-196.03 -31.89)"/><path d="M293.6,133.14c-4.36.4-10.32-1.86-12.73-5.63-.34-.54-1.21,0-.86.5,2.61,4.09,8.85,6.57,13.59,6.13.63-.06.64-1.06,0-1Z" transform="translate(-196.03 -31.89)"/><path d="M280.53,128.2c4.48-1.3,8.53-2.34,13.25-1.94.64.06.64-.94,0-1-4.84-.41-8.92.64-13.51,2a.5.5,0,0,0,.26,1Z" transform="translate(-196.03 -31.89)"/><path d="M293.78,125.62c-4.18.34-8.82-3.24-11.78-5.87-.47-.43-1.18.27-.7.7,3.21,2.86,7.94,6.54,12.48,6.17.64-.05.64-1.05,0-1Z" transform="translate(-196.03 -31.89)"/><path d="M281.62,120.43c2.12-.81,3.8-2.28,6.1-2.64s4.9,0,7.35-.16c.64,0,.64-1,0-1-2.49.14-5-.23-7.49.15s-4,1.84-6.22,2.69c-.6.23-.34,1.19.26,1Z" transform="translate(-196.03 -31.89)"/><path d="M295.37,117.12a17.51,17.51,0,0,1-9.49-4.75c-.46-.44-1.17.26-.7.71a18.4,18.4,0,0,0,9.93,5c.63.1.9-.86.26-1Z" transform="translate(-196.03 -31.89)"/><path d="M285.67,113.08a27.38,27.38,0,0,1,5.16-.93c1.47-.11,4.12-.44,5.36.44.53.37,1-.5.51-.87-1.34-.93-3.5-.68-5-.62a28.71,28.71,0,0,0-6.25,1,.5.5,0,0,0,.26,1Z" transform="translate(-196.03 -31.89)"/><path d="M296.53,112a25,25,0,0,1-12.95-5c-.51-.38-1,.48-.5.87A26,26,0,0,0,296.53,113c.64.06.64-.94,0-1Z" transform="translate(-196.03 -31.89)"/><path d="M283.6,107.9a22,22,0,0,1,13.89-2.62c.62.09.9-.87.26-1A23.2,23.2,0,0,0,283.1,107a.5.5,0,0,0,.5.87Z" transform="translate(-196.03 -31.89)"/><path d="M297.85,104.19c-5.06.1-9.8-2-11.87-6.8-.25-.59-1.12-.09-.87.5,2.2,5.15,7.37,7.41,12.74,7.3a.5.5,0,0,0,0-1Z" transform="translate(-196.03 -31.89)"/><path d="M285.68,98.09c4.9-1.32,9.05-2.14,13.93,0,.59.26,1.1-.6.51-.86-5.14-2.22-9.5-1.47-14.71-.07a.5.5,0,0,0,.27,1Z" transform="translate(-196.03 -31.89)"/><path d="M300,97.46a12.68,12.68,0,0,1-8.88-10.8c-.06-.64-1.06-.64-1,0a13.73,13.73,0,0,0,9.62,11.77c.62.19.88-.78.26-1Z" transform="translate(-196.03 -31.89)"/><path d="M290.48,87c3.57-.14,9.95-.94,12.41,2.29.39.5,1.26,0,.87-.51-2.84-3.71-9.19-2.94-13.28-2.78-.64,0-.65,1,0,1Z" transform="translate(-196.03 -31.89)"/><path d="M303.67,88.65a18.66,18.66,0,0,1-8.79-12.75c-.11-.63-1.08-.37-1,.26a19.6,19.6,0,0,0,9.25,13.36c.55.33,1.05-.53.5-.87Z" transform="translate(-196.03 -31.89)"/><path d="M294.52,76.48c4.8-.37,9.7-.63,13.83,2.28.53.37,1-.5.51-.87-4.26-3-9.37-2.79-14.34-2.41-.64,0-.65,1,0,1Z" transform="translate(-196.03 -31.89)"/><path d="M308.87,78.19a15,15,0,0,1-4.06-12.3c.07-.63-.93-.63-1,0a16,16,0,0,0,4.35,13c.45.47,1.15-.24.71-.7Z" transform="translate(-196.03 -31.89)"/><path d="M304.44,66.11A16.49,16.49,0,0,1,315,70.55c.47.44,1.18-.26.71-.7a17.52,17.52,0,0,0-11.3-4.74c-.65,0-.64,1,0,1Z" transform="translate(-196.03 -31.89)"/><path d="M315.76,70.72c0-4.25-2.85-9.61.57-13.19.44-.47-.27-1.18-.71-.71-3.74,3.92-.86,9.28-.86,13.9a.5.5,0,0,0,1,0Z" transform="translate(-196.03 -31.89)"/><path d="M315.72,57.64a11.9,11.9,0,0,1,7.08,6.29c.28.58,1.14.07.87-.5A12.89,12.89,0,0,0,316,56.68c-.61-.2-.87.76-.27,1Z" transform="translate(-196.03 -31.89)"/><path d="M323.81,64.08c-.52-4.48-.95-9.11,1.82-13,.38-.52-.49-1-.86-.5-2.87,4-2.5,8.82-2,13.48.07.63,1.07.64,1,0Z" transform="translate(-196.03 -31.89)"/><path d="M325.54,51.23c2.13-.6,4.57,2.79,5.67,4.24a15.24,15.24,0,0,1,2.62,5.27.5.5,0,0,0,1-.27A17.21,17.21,0,0,0,331,53.61c-1.4-1.62-3.29-4-5.7-3.34a.5.5,0,0,0,.26,1Z" transform="translate(-196.03 -31.89)"/><path d="M335,60.76a12,12,0,0,1,5.36-11.64c.54-.35,0-1.22-.5-.86A13,13,0,0,0,334,60.76c.08.63,1.08.63,1,0Z" transform="translate(-196.03 -31.89)"/><path d="M339.81,48.89a24.66,24.66,0,0,1,6.61,10.16c.21.61,1.17.35,1-.26a25.43,25.43,0,0,0-6.87-10.6c-.47-.44-1.18.26-.7.7Z" transform="translate(-196.03 -31.89)"/><path d="M347.28,58.94a8.71,8.71,0,0,1,1.91-4.7,9.91,9.91,0,0,1,3.39-3.42c.58-.28.07-1.14-.51-.87-1.61.76-2.72,2.38-3.74,3.78a9.54,9.54,0,0,0-2.05,5.21c0,.64,1,.64,1,0Z" transform="translate(-196.03 -31.89)"/><path d="M352.12,50.87c1.43.87,2,3.94,2.44,5.45a15.67,15.67,0,0,1,.57,5.73c-.06.64.94.64,1,0A18.09,18.09,0,0,0,355,54.42c-.52-1.55-.91-3.51-2.39-4.42-.55-.33-1.05.53-.5.87Z" transform="translate(-196.03 -31.89)"/><path d="M356.12,62.06a10.37,10.37,0,0,1,5.19-8.82.5.5,0,0,0-.5-.86,11.39,11.39,0,0,0-5.69,9.68c0,.64,1,.64,1,0Z" transform="translate(-196.03 -31.89)"/><path d="M360.88,52.9c1.28,1.15,1.67,3.49,2.35,5.09a13.93,13.93,0,0,1,.68,6.81c-.06.64.94.64,1,0a15.61,15.61,0,0,0-.46-6.49c-.47-1.34-1.06-2.64-1.52-4a4.76,4.76,0,0,0-1.34-2.14c-.48-.43-1.19.28-.71.71Z" transform="translate(-196.03 -31.89)"/><path d="M365.1,64.83a11,11,0,0,1,5.7-11.7c.57-.3.06-1.17-.51-.86a12,12,0,0,0-6.16,12.83c.12.63,1.08.36,1-.27Z" transform="translate(-196.03 -31.89)"/><path d="M370.18,52.83a24.77,24.77,0,0,1,4.12,13.82.5.5,0,0,0,1,0,25.8,25.8,0,0,0-4.25-14.32c-.35-.54-1.22,0-.87.5Z" transform="translate(-196.03 -31.89)"/><path d="M375.3,66.83a19.17,19.17,0,0,1,5.46-14.75c.45-.46-.25-1.17-.7-.71a20.13,20.13,0,0,0-5.76,15.46c0,.64,1,.64,1,0Z" transform="translate(-196.03 -31.89)"/><path d="M380.33,52.24c2.46.64,3.89,4.59,4.84,6.69a44.6,44.6,0,0,1,2.56,7.48c.15.62,1.12.36,1-.27a45,45,0,0,0-3.43-9.33c-1.05-2.07-2.2-4.9-4.66-5.53a.5.5,0,0,0-.27,1Z" transform="translate(-196.03 -31.89)"/><path d="M388.76,66.33c-.66-4.09,1.51-7.59,3.65-10.87.35-.54-.51-1.05-.86-.51-2.33,3.57-4.46,7.25-3.76,11.65.11.63,1.07.37,1-.27Z" transform="translate(-196.03 -31.89)"/><path d="M391.83,55.41c2.72,1.51,5.05,6.22,5.1,9.22a.5.5,0,0,0,1,0,11.56,11.56,0,0,0-1.93-5.8c-1-1.62-2-3.34-3.67-4.28-.56-.31-1.07.55-.5.86Z" transform="translate(-196.03 -31.89)"/><path d="M397.77,64.63a13.74,13.74,0,0,1,6.14-11c.53-.36,0-1.23-.51-.87a14.83,14.83,0,0,0-6.63,11.91c0,.64,1,.64,1,0Z" transform="translate(-196.03 -31.89)"/><path d="M403.34,53.43c1.35.61,2.29,2.5,3.07,3.7A40.29,40.29,0,0,1,408.62,61c.29.57,1.16.07.86-.51a41,41,0,0,0-2.82-4.73c-.75-1.07-1.59-2.59-2.81-3.15-.58-.26-1.09.6-.51.87Z" transform="translate(-196.03 -31.89)"/><path d="M409.47,60.81a9.55,9.55,0,0,1,4.12-9.51c.53-.36,0-1.23-.51-.87a10.62,10.62,0,0,0-4.57,10.64c.1.64,1.06.37,1-.26Z" transform="translate(-196.03 -31.89)"/><path d="M413.2,51.29c2.37.58,3.34,4,4.27,6,.27.58,1.14.08.86-.5-1.08-2.29-2.08-5.76-4.87-6.45a.5.5,0,0,0-.26,1Z" transform="translate(-196.03 -31.89)"/><path d="M419.67,57.31c-.2-3.61,2.29-6.15,4.7-8.48.46-.44-.25-1.15-.71-.7-2.59,2.51-5.21,5.32-5,9.18,0,.64,1,.64,1,0Z" transform="translate(-196.03 -31.89)"/><path d="M424.17,48.91c1.9.15,3.46,1.46,4.89,2.61a9.81,9.81,0,0,1,3.2,3.83c.24.59,1.21.34,1-.26a11.17,11.17,0,0,0-3.86-4.6c-1.58-1.23-3.14-2.42-5.19-2.58-.65,0-.64,1,0,1Z" transform="translate(-196.03 -31.89)"/><path d="M433.13,55.3c-.53-3.54,4.28-6.09,6.64-7.95.5-.4-.21-1.1-.71-.71-2.82,2.22-7.52,4.71-6.9,8.93.09.63,1.06.36,1-.27Z" transform="translate(-196.03 -31.89)"/><path d="M439.35,47.21a17.25,17.25,0,0,1,5,7.1c.22.6,1.19.34,1-.26a18.19,18.19,0,0,0-5.28-7.54c-.49-.42-1.2.29-.71.7Z" transform="translate(-196.03 -31.89)"/><path d="M445.39,54.53c.16-3.62,5.73-5.3,8.47-6.31.6-.22.34-1.18-.27-1-3.3,1.22-9,3-9.2,7.27,0,.64,1,.64,1,0Z" transform="translate(-196.03 -31.89)"/><path d="M453.32,47.89c.9,3.2,2.26,5.75,1.87,9.2-.07.64.93.63,1,0,.4-3.52-1-6.18-1.9-9.47a.5.5,0,0,0-1,.27Z" transform="translate(-196.03 -31.89)"/><path d="M456.06,57.3c1.69-3.57,6.18-7.25,10.16-7.32a.5.5,0,0,0,0-1,10,10,0,0,0-6.17,2.37,17.4,17.4,0,0,0-4.85,5.44c-.28.58.58,1.09.86.51Z" transform="translate(-196.03 -31.89)"/><path d="M465.75,49.69c.66,3,1.24,6,.72,9.13-.11.63.86.9,1,.27a25.27,25.27,0,0,0-.72-9.67c-.14-.63-1.1-.36-1,.27Z" transform="translate(-196.03 -31.89)"/><path d="M467.09,59.33c2-3.67,7.19-6.46,11.18-7,.64-.08.37-1-.26-1-4.24.58-9.71,3.58-11.79,7.46-.3.57.56,1.08.87.51Z" transform="translate(-196.03 -31.89)"/><path d="M477.78,52.09c1,4.3,2.6,8.5,0,12.52-.36.53.51,1,.86.5,2.83-4.28,1.22-8.67.15-13.28-.14-.63-1.11-.36-1,.26Z" transform="translate(-196.03 -31.89)"/><path d="M479,65.34a16.69,16.69,0,0,1,10.46-6.4c.63-.12.36-1.08-.27-1a17.69,17.69,0,0,0-11.05,6.87c-.39.51.48,1,.86.5Z" transform="translate(-196.03 -31.89)"/><path d="M488.9,58.55c.57,4.27.47,8.6-2,12.32-.36.54.51,1,.86.5,2.54-3.84,2.71-8.38,2.12-12.82-.08-.63-1.08-.64-1,0Z" transform="translate(-196.03 -31.89)"/><path d="M487.69,71.6a18.53,18.53,0,0,1,8.76-4.33c.64-.13.37-1.09-.26-1A19.53,19.53,0,0,0,487,70.89c-.48.43.23,1.13.71.71Z" transform="translate(-196.03 -31.89)"/><path d="M496,66.83c-.2,3.92.67,7.72-2.57,10.69-.47.43.23,1.14.71.7,3.46-3.17,2.64-7.13,2.86-11.39,0-.64-1-.64-1,0Z" transform="translate(-196.03 -31.89)"/><path d="M494.13,78.41c1.39-1.13,2.59-2.61,4.15-3.51a9.06,9.06,0,0,1,6.37-1c.62.13.89-.84.26-1a10.1,10.1,0,0,0-5.88.47c-2.26.92-3.76,2.78-5.61,4.28-.49.41.22,1.12.71.71Z" transform="translate(-196.03 -31.89)"/><path d="M504.15,73.65a17.65,17.65,0,0,1,.09,6.48,11.29,11.29,0,0,1-3.86,5.63c-.49.42.22,1.13.71.7,4.11-3.61,4.75-7.54,4.06-12.81-.09-.63-1.09-.64-1,0Z" transform="translate(-196.03 -31.89)"/><path d="M501,86.81a29.65,29.65,0,0,1,4.57-2.7c2.2-.88,4.44-.38,6.59.39.61.22.87-.75.26-1a10.91,10.91,0,0,0-6.15-.72c-2.12.48-4,2-5.77,3.13-.55.34,0,1.21.5.86Z" transform="translate(-196.03 -31.89)"/><path d="M511.72,84.43a11.57,11.57,0,0,1-5.78,11.79.5.5,0,0,0,.5.86,12.62,12.62,0,0,0,6.25-12.92c-.09-.63-1.06-.36-1,.27Z" transform="translate(-196.03 -31.89)"/><path d="M506.06,97.25c2.34.15,4.59-.85,6.93-.93a19.14,19.14,0,0,1,8.34,1.62c.58.25,1.09-.61.5-.86a20.62,20.62,0,0,0-7.16-1.75c-2.93-.15-5.76,1.1-8.61.92-.64,0-.64,1,0,1Z" transform="translate(-196.03 -31.89)"/><path d="M521.25,97.5A17.11,17.11,0,0,1,510,111.8c-.6.21-.34,1.18.27,1a18.17,18.17,0,0,0,12-15.26c.07-.64-.93-.63-1,0Z" transform="translate(-196.03 -31.89)"/><path d="M510.29,112.67c4.76.27,9.58-.8,13.95,1.66a.5.5,0,0,0,.51-.87c-4.55-2.55-9.49-1.51-14.46-1.79-.65,0-.64,1,0,1Z" transform="translate(-196.03 -31.89)"/><path d="M523.91,113.9c-.31,2.11-2.84,4.13-4.4,5.47a11.11,11.11,0,0,1-7.39,3.07.5.5,0,0,0,0,1,11.69,11.69,0,0,0,7.47-2.84c1.9-1.52,4.91-3.87,5.28-6.44.1-.63-.87-.9-1-.26Z" transform="translate(-196.03 -31.89)"/><path d="M510.85,123.81c5.33-.31,10.35-1,14.73,2.71.49.41,1.2-.29.71-.71-4.63-3.94-9.75-3.33-15.44-3-.64,0-.65,1,0,1Z" transform="translate(-196.03 -31.89)"/><path d="M525.94,125.77a14.73,14.73,0,0,1-14.17,7.08c-.64-.06-.63.94,0,1a15.66,15.66,0,0,0,15-7.58.5.5,0,0,0-.86-.5Z" transform="translate(-196.03 -31.89)"/><path d="M512,134.44a23,23,0,0,1,15.8,4.14c.52.37,1-.49.5-.86a23.72,23.72,0,0,0-16.3-4.28c-.63.07-.64,1.07,0,1Z" transform="translate(-196.03 -31.89)"/><path d="M527.67,138.14c-2.16,1.7-3.91,3.67-6.45,4.89a18,18,0,0,1-8.91,1.63c-.64,0-.64,1,0,1a18.78,18.78,0,0,0,8.7-1.45c3-1.28,4.88-3.41,7.37-5.36.51-.39-.21-1.1-.71-.71Z" transform="translate(-196.03 -31.89)"/><path d="M512.12,145.56a24.83,24.83,0,0,1,14.35,4.2c.54.35,1-.51.51-.87a25.83,25.83,0,0,0-14.86-4.33.5.5,0,0,0,0,1Z" transform="translate(-196.03 -31.89)"/><path d="M526.49,148.89c-3.16,1.05-5.27,3.74-8.56,4.64s-7.23.71-10.75.4c-.64-.05-.64.95,0,1a34.72,34.72,0,0,0,10.23-.25c3.68-.8,5.92-3.69,9.35-4.83.6-.2.34-1.17-.27-1Z" transform="translate(-196.03 -31.89)"/><path d="M507.16,154.64a11.68,11.68,0,0,1,10.09,5.7.5.5,0,0,0,.86-.51,12.73,12.73,0,0,0-10.95-6.19.5.5,0,0,0,0,1Z" transform="translate(-196.03 -31.89)"/><path d="M517.64,159.58a4.28,4.28,0,0,0-2.65,1,11.15,11.15,0,0,1-5.4,2.64c-3.95.56-8.63.57-12.29-1.13-.58-.27-1.09.59-.51.86,3.46,1.61,7.24,1.63,11,1.43a13.36,13.36,0,0,0,4.88-.94c1.7-.76,3-2.82,5-2.89.64,0,.64-1,0-1Z" transform="translate(-196.03 -31.89)"/><path d="M461.7,187c-2.41,2.46.24,5.53,3,5.92,2.24.31,4.71-.26,6.92-.62,3-.49,6-1.12,9-1.87,11.67-3,22.79-7.66,33.76-12.52,9.36-4.15,19.62-8.1,26.57-15.95,6.63-7.49,9-17.47,9.83-27.19.54-6,.67-12,.63-18s-.66-12.18-3.24-17.79c-.27-.59-1.13-.08-.87.5,4.09,8.88,3.27,19.33,2.88,28.85-.37,9-1.33,18.47-5.61,26.59-4.51,8.55-12.47,13.67-21,17.71-9.13,4.34-18.46,8.43-27.93,12a145.49,145.49,0,0,1-16.2,5.08c-2.67.65-5.37,1.21-8.08,1.65a40.35,40.35,0,0,1-5,.63c-1.77.06-6.7-1.43-3.92-4.26a.5.5,0,0,0-.71-.71Z" transform="translate(-196.03 -31.89)"/><path d="M307.15,197.84c-4.22,3.54-8.39,7.16-12.7,10.6a72.18,72.18,0,0,1-7.06,5c-1.32.82-4,1.63-4.79,2.91-.46.71-.5,2.17-.75,3-.32,1.12-.69,2.22-1.1,3.31a41.66,41.66,0,0,1-3.37,6.83,42.37,42.37,0,0,1-9.93,11.13c-.5.4.21,1.1.71.7A42.9,42.9,0,0,0,283,218.84a3.83,3.83,0,0,1,2.23-3c1.14-.64,2.27-1.31,3.38-2q3-1.92,5.83-4.11c4.57-3.57,8.94-7.42,13.39-11.14.5-.41-.21-1.12-.71-.71Z" transform="translate(-196.03 -31.89)"/><path d="M267.88,240.89c3.68,3.7.27,11.66-1.83,15.4A64.26,64.26,0,0,1,257,268c-.43.47.27,1.18.71.71,4.09-4.43,8.19-9.11,10.63-14.69,1.66-3.78,3.67-10.37.27-13.78a.5.5,0,0,0-.71.7Z" transform="translate(-196.03 -31.89)"/><path d="M257.32,268.72c6.86,1.32,5.47,12.8,4.15,17.52a41.37,41.37,0,0,1-3.7,8.79c-1,1.83-2.54,3.55-1.94,5.74a.5.5,0,0,0,1-.27c-.53-1.93,1.63-4.51,2.47-6.13a44.06,44.06,0,0,0,1.9-4.13,31.09,31.09,0,0,0,2.32-9.82c.26-4.4-.53-11.63-5.89-12.67-.63-.12-.9.85-.27,1Z" transform="translate(-196.03 -31.89)"/><path d="M256.71,300.8a35.53,35.53,0,0,1,11.88,31.85c-.09.63.87.9,1,.27a36.55,36.55,0,0,0-12.13-32.83c-.49-.42-1.2.29-.71.71Z" transform="translate(-196.03 -31.89)"/><path d="M268.66,333.73c6.22-.43,11.93,7.09,14.42,12a27.8,27.8,0,0,1,2.55,17.5c-.12.63.85.9,1,.26a28.93,28.93,0,0,0-3-18.9c-2.71-5.07-8.54-12.34-14.95-11.9-.64,0-.64,1,0,1Z" transform="translate(-196.03 -31.89)"/><path d="M286.38,364.68a26.58,26.58,0,0,1,30.54,22.74c.08.63,1.05.36,1-.27a27.56,27.56,0,0,0-31.77-23.43c-.63.1-.36,1.06.27,1Z" transform="translate(-196.03 -31.89)"/><path d="M317.36,388.1c14.12-4.27,32.9-6.72,42.77,7.12.37.52,1.24,0,.87-.5-10.16-14.24-29.28-12-43.91-7.58-.61.19-.35,1.15.27,1Z" transform="translate(-196.03 -31.89)"/><path d="M360.57,395.63a74.49,74.49,0,0,1,22.62-6.15c7-.74,15.4-1.23,21.6,2.69.54.35,1-.52.5-.86-6.38-4-14.89-3.58-22.1-2.83a75.8,75.8,0,0,0-23.12,6.28c-.59.27-.08,1.13.5.87Z" transform="translate(-196.03 -31.89)"/><path d="M405.61,392.2a42.21,42.21,0,0,1,38.28-12.09c.63.13.9-.83.27-1a43.25,43.25,0,0,0-39.25,12.34c-.45.47.26,1.18.7.71Z" transform="translate(-196.03 -31.89)"/><path d="M445.63,379.32c-1-4.41,2.18-8.58,4.87-11.76a41.43,41.43,0,0,1,25.87-14.21c.63-.09.36-1.05-.27-1a42.57,42.57,0,0,0-20.58,8.91c-5,4-12.5,11.23-10.86,18.28.15.63,1.11.37,1-.26Z" transform="translate(-196.03 -31.89)"/><path d="M477.22,352.56c-.83-5.06,1-9.86,3.72-14.05a68.45,68.45,0,0,1,4.26-5.65c1.6-2,3.16-4,5.69-4.77.61-.19.35-1.16-.27-1a11.26,11.26,0,0,0-5.31,4,75.54,75.54,0,0,0-5.23,6.85c-2.9,4.43-4.7,9.48-3.82,14.81.1.64,1.07.37,1-.26Z" transform="translate(-196.03 -31.89)"/><path d="M491.66,327.35a25.19,25.19,0,0,1,16.76-22.15c.61-.21.35-1.17-.26-1a26.23,26.23,0,0,0-17.5,23.11c0,.65,1,.65,1,0Z" transform="translate(-196.03 -31.89)"/><path d="M509.13,304.74a14,14,0,0,1,13.36-17.32c.64,0,.65-1,0-1A15,15,0,0,0,508.16,305c.15.62,1.11.36,1-.27Z" transform="translate(-196.03 -31.89)"/><path d="M523.41,287.05c.6-4.31-.23-8.56-.08-12.87.19-5.83,3.35-9.21,7.78-12.53.51-.38,0-1.25-.5-.86-3.55,2.66-6.9,5.47-7.9,10-1.16,5.26.47,10.68-.26,16-.09.63.87.9,1,.27Z" transform="translate(-196.03 -31.89)"/><path d="M531.72,261.1c.29-4.66-2.09-8.92-1.92-13.56a17.35,17.35,0,0,1,5.84-12.25c.48-.44-.23-1.14-.71-.71a18.48,18.48,0,0,0-6,11.32c-.68,5.26,2.12,10,1.79,15.2,0,.64,1,.64,1,0Z" transform="translate(-196.03 -31.89)"/><path d="M536.58,234.62c-2.05-6.57-4.13-13.9-.18-20.21.34-.55-.52-1-.86-.51-4.1,6.54-2.06,14.15.08,21,.19.61,1.16.35,1-.27Z" transform="translate(-196.03 -31.89)"/><path d="M536.19,213.6a15.17,15.17,0,0,1-10.28-13.4c0-.64-1-.64-1,0a16.22,16.22,0,0,0,11,14.37c.61.2.87-.76.26-1Z" transform="translate(-196.03 -31.89)"/><path d="M525.26,199.12a12.4,12.4,0,0,1-13.2-6.91c-.27-.58-1.14-.07-.86.51a13.4,13.4,0,0,0,14.33,7.36c.63-.11.36-1.07-.27-1Z" transform="translate(-196.03 -31.89)"/><path d="M465.06,193.39c3,4.66,6.28,9.53,11,12.59a15.79,15.79,0,0,0,15.61.74c6.11-2.87,11.11-8.15,15.41-13.23a86.08,86.08,0,0,0,11.27-17.21c.28-.57-.58-1.08-.87-.5-5.31,10.69-13.18,21.92-23.4,28.46-5.33,3.4-11.62,4.5-17.22,1-4.76-2.92-8-7.8-11-12.4-.35-.54-1.21,0-.86.5Z" transform="translate(-196.03 -31.89)"/><path d="M325.26,376.31c7.13-20.49,22.25-36.62,37.65-51.33.46-.44-.24-1.15-.71-.7-15.53,14.83-30.71,31.1-37.91,51.76-.21.61.76.87,1,.27Z" transform="translate(-196.03 -31.89)"/><path d="M354.7,315.66c5.61,1.36,6.29,7.52,6.13,12.34,0,.64,1,.64,1,0,.17-5.29-.84-11.84-6.87-13.3-.62-.15-.89.81-.26,1Z" transform="translate(-196.03 -31.89)"/><path d="M361.74,329a62.72,62.72,0,0,1,19.9.84c.63.13.9-.83.27-1a63.53,63.53,0,0,0-20.17-.88c-.64.07-.64,1.07,0,1Z" transform="translate(-196.03 -31.89)"/><path d="M367.43,384.38c-.3-11.59,3.37-22.67,8.08-33.13A157.19,157.19,0,0,1,382.57,337c2.91-5,7.14-9.72,13.25-10.34.64-.06.64-1.07,0-1-11.47,1.17-16.26,14.45-20.41,23.43-5.14,11.12-9.3,22.89-9,35.29a.5.5,0,0,0,1,0Z" transform="translate(-196.03 -31.89)"/><path d="M382.32,329.83a3.52,3.52,0,0,1,2.56.35c.56.31,1.07-.56.5-.87a4.54,4.54,0,0,0-3.33-.44c-.62.15-.36,1.11.27,1Z" transform="translate(-196.03 -31.89)"/><path d="M397.1,327.46a14.46,14.46,0,0,1,15.83-6.09c5.55,1.54,9.78,6,13.26,10.31,7.56,9.44,14.53,20.73,14.4,33.2a.5.5,0,0,0,1,0c.14-13.57-7.95-26.49-16.72-36.32-3.77-4.22-8.56-8.12-14.41-8.66A15.51,15.51,0,0,0,396.24,327c-.36.54.51,1,.86.5Z" transform="translate(-196.03 -31.89)"/><path d="M395.23,328.29c8.12,14.26,9.22,30.92,10.14,46.95,0,.64,1,.65,1,0-.93-16.21-2.06-33-10.27-47.46a.5.5,0,0,0-.87.51Z" transform="translate(-196.03 -31.89)"/><path d="M418.47,321.46c-.43-3.39-.9-7,.38-10.3,1.4-3.59,4.86-5.8,8.44-6.87,7.21-2.16,14.73.24,21.17,3.54,10.88,5.59,21.82,13.68,26,25.65.21.61,1.17.35,1-.26-4.64-13.37-17.84-22.87-30.46-28.13-6.38-2.66-13.87-3.84-20.36-.84a12.47,12.47,0,0,0-6.65,6.46c-1.37,3.41-.91,7.21-.46,10.75.08.63,1.08.64,1,0Z" transform="translate(-196.03 -31.89)"/><path d="M434.64,300.8c-1.76-5.3,1.63-10.91,6.44-13.26,5.73-2.8,12.48-1.83,18.46-.46a83.51,83.51,0,0,1,30.73,14.12c.52.39,1-.48.51-.86-10.55-7.73-23.17-13.4-36.18-15.21-5.7-.79-12.12-.53-16.74,3.34-3.64,3.06-5.73,7.94-4.18,12.59.2.61,1.16.35,1-.26Z" transform="translate(-196.03 -31.89)"/><path d="M445.54,284c-.46-5.66,9.12-7.55,13.18-8.59a45.49,45.49,0,0,1,18.14-1c11.18,1.7,21.34,7.16,31.16,12.47.57.31,1.07-.55.51-.86-11.18-6-23-12.33-35.91-13.05a50.65,50.65,0,0,0-19,3c-3.69,1.26-9.44,3.25-9,8.1,0,.64,1,.65,1,0Z" transform="translate(-196.03 -31.89)"/><path d="M453.76,273.75c-1.12-12.26,17.06-15.06,25.81-16.57a104.4,104.4,0,0,1,34.47-.12c.62.1.9-.87.26-1a105.9,105.9,0,0,0-37.74.63c-8.72,1.75-24.91,5-23.8,17,.06.63,1.06.64,1,0Z" transform="translate(-196.03 -31.89)"/><path d="M461.3,261.63c.86-11.16,13.78-16.62,23.08-19.1,10.8-2.89,22.11-3,33.22-3.15a.5.5,0,0,0,0-1c-12.34.14-25,.3-36.83,4.17-8.86,2.9-19.66,8.62-20.47,19.08-.05.64.95.64,1,0Z" transform="translate(-196.03 -31.89)"/><path d="M462.75,249.48l.57,1.46c.23.59,1.16.37,1-.26-3.21-10.86,12-17.51,19.65-21.16a109.64,109.64,0,0,1,30.32-9.26c.64-.1.37-1.06-.26-1a110.58,110.58,0,0,0-33.7,10.92c-7.52,3.88-20.07,10.27-17,20.73l1-.26-.57-1.47c-.24-.59-1.2-.33-1,.27Z" transform="translate(-196.03 -31.89)"/><path d="M465.07,238.09c-1.17-4.48,2-8.05,5.2-10.72a77.57,77.57,0,0,0,7.06-6.38c4.34-4.65,8.38-10,14.59-12.15.61-.22.35-1.18-.26-1-6.89,2.44-11.15,8.43-16.05,13.47-4.57,4.69-13.56,9.13-11.5,17a.5.5,0,0,0,1-.27Z" transform="translate(-196.03 -31.89)"/><path d="M465.1,230.27a5.38,5.38,0,0,1-2.37-6.48c.22-.61-.75-.87-1-.27a6.39,6.39,0,0,0,2.82,7.62.5.5,0,0,0,.51-.87Z" transform="translate(-196.03 -31.89)"/><path d="M294.56,357.14c3.34-5,7.75-9.05,12.33-12.89q7.23-6.08,15-11.43A203.29,203.29,0,0,1,353,315.22c.58-.27.07-1.13-.51-.87A203.7,203.7,0,0,0,320,333c-9.44,6.62-19.78,14-26.26,23.66-.35.54.51,1,.87.51Z" transform="translate(-196.03 -31.89)"/><path d="M279.35,328.53c18.16-13.11,38.61-24.83,61.5-25.95.65,0,.65-1,0-1-23.07,1.13-43.69,12.86-62,26.09-.52.37,0,1.24.5.86Z" transform="translate(-196.03 -31.89)"/><path d="M275,301.28c4.5-.51,8-3.49,12-5.47a63.05,63.05,0,0,1,15.3-5.18c10.4-2.19,21.09-2.32,31.67-2.25a.5.5,0,0,0,0-1c-10.12-.07-20.31.07-30.28,1.95a68.38,68.38,0,0,0-14.09,4.19c-4.76,2-9.38,6.17-14.59,6.76-.63.07-.64,1.07,0,1Z" transform="translate(-196.03 -31.89)"/><path d="M267.76,272.79c17.38-2.34,35.05-4.62,52.5-1.6.63.11.9-.85.26-1-17.64-3.06-35.46-.77-53,1.59-.63.09-.36,1.05.27,1Z" transform="translate(-196.03 -31.89)"/><path d="M279.88,244.36c6.74.47,13.57,1,20.06,3a35.44,35.44,0,0,1,9.11,4.33c2.47,1.66,4.76,3.44,7.67,4.25a.5.5,0,0,0,.27-1c-3.36-.93-5.88-3.25-8.8-5a36.38,36.38,0,0,0-8.78-3.79c-6.33-1.86-13-2.34-19.53-2.8-.64,0-.64,1,0,1Z" transform="translate(-196.03 -31.89)"/><path d="M289.12,226a32.36,32.36,0,0,1,19.13,5.49c.54.36,1-.5.51-.86A33.2,33.2,0,0,0,289.12,225a.5.5,0,0,0,0,1Z" transform="translate(-196.03 -31.89)"/><path d="M300.81,209a6.8,6.8,0,0,1,6.58,4.92.5.5,0,0,0,1-.26,7.81,7.81,0,0,0-7.54-5.66.5.5,0,0,0,0,1Z" transform="translate(-196.03 -31.89)"/><path d="M297.86,191c-3.95,4.1-10.18-1.3-6.48-5.73l-.79-.61c-1.82,3.06-6.34,4.18-9.14,1.73s-2.33-7,.43-9.31a.5.5,0,0,0-.35-.85c-3.08.11-6.91.08-9.23-2.3-2-2-2.09-6.42,1.07-7.38.37-.11.53-.72.12-.91-2.29-1-4.75.32-7-.92-3.64-2-3.14-7,.33-8.8l-.5-.87c-2.16,1.23-5.41,1-6.85-1.28a4.25,4.25,0,0,1,4.06-6.4v-1a5.84,5.84,0,0,1-4-9.74.51.51,0,0,0-.35-.86,4.28,4.28,0,0,1-1.16-8.27.51.51,0,0,0,0-.87,6.18,6.18,0,0,1-.84-10.13l-.69-.18a2.88,2.88,0,0,0,2,1.64.5.5,0,0,0,.49-.83c-3.22-2.92-2.35-8.78,1.72-10.48a.5.5,0,0,0,.3-.73A7,7,0,0,1,263.37,96a.5.5,0,0,0,.18-.68,6.65,6.65,0,0,1,4.07-9.68.52.52,0,0,0,.3-.74,5.9,5.9,0,0,1,4.15-8.81c.64-.09.37-1.06-.26-1a6.91,6.91,0,0,0-4.76,10.29l.3-.74a7.67,7.67,0,0,0-4.66,11.15l.18-.68a8,8,0,0,0-2.69,11.2l.3-.73c-4.72,2-6,8.67-2.17,12.14l.49-.83-1.4-1.19a.5.5,0,0,0-.69-.17,7.19,7.19,0,0,0,.85,11.86v-.87a5.28,5.28,0,0,0,1.66,10.14l-.36-.85a6.85,6.85,0,0,0,4.67,11.45c.65.07.63-.92,0-1A5.32,5.32,0,0,0,258,153.2c1.25,3.52,5.81,4.36,8.78,2.68a.5.5,0,0,0-.5-.87,6.07,6.07,0,0,0-3.07,7.39,6.14,6.14,0,0,0,3,3.29c2.19,1.07,4.56-.21,6.7.77l.12-.91c-3,.91-3.84,4.43-2.74,7.15,1.72,4.28,7.25,4.63,11.17,4.49l-.35-.85c-3.21,2.62-3.63,8-.36,10.82s8.52,1.52,10.64-2c.28-.47-.42-1.05-.79-.6a5.33,5.33,0,1,0,7.9,7.15c.44-.47-.26-1.17-.71-.71Z" transform="translate(-196.03 -31.89)"/><path d="M273,75.83a12.82,12.82,0,0,1-.65-3.46c0-1.87,1.39-4.85,4-3.48a.5.5,0,0,0,.68-.68,5.3,5.3,0,0,1,7.24-7.33c.35.2.91-.14.74-.56a4.26,4.26,0,0,1,5.41-5.83A.5.5,0,0,0,291,54a5.23,5.23,0,0,1,6.36-5.11.51.51,0,0,0,.61-.35,5.39,5.39,0,0,1,7.31-3.44.5.5,0,0,0,.73-.3,6.26,6.26,0,0,1,8.47-4.34.47.47,0,0,0,.49-.13c2.19-2.75,5.52-3.59,8.88-3.9,1.67-.15,3.34-.19,5-.37.64-.07,1.28-.15,1.91-.27.79-.15,3.41-1.29,2.21,1.32l.91.39a5.18,5.18,0,0,1,9.82-.21c.15.4.88.55,1,0a4.17,4.17,0,0,1,8.29-.13.5.5,0,0,0,1,0,3.39,3.39,0,1,1,6.68,1.21c-.08.53.61.92.91.39a6.39,6.39,0,0,1,3.69-3.27c2.32-.61,4.91,1.39,4.15,3.87-.16.51.48.8.84.49,2-1.72,4.43-3.39,7.2-3.43,3,0,6.08,2.52,5.33,5.73l1,.26a9,9,0,0,1,17.84,0c.08.47.7.43.92.12,2.67-3.78,8.94-3.15,10.94,1,.24.49.89.19.94-.25a7.11,7.11,0,0,1,14.08-.93.5.5,0,0,0,1-.27,8.11,8.11,0,0,0-16.05,1.2l.93-.26c-2.36-4.83-9.61-5.29-12.68-.94l.92.12a10,10,0,0,0-19.77,0c-.11.62.82.9,1,.26a5.79,5.79,0,0,0-4.09-6.67c-3.7-1.22-7.41,1.09-10.11,3.4l.83.49a4.16,4.16,0,0,0-3.17-5.19c-2.81-.62-5.21,1.57-6.49,3.81l.91.39A4.39,4.39,0,1,0,353,36.9h1A5.15,5.15,0,0,0,343.7,37h1a6.17,6.17,0,0,0-11.74.2c-.18.53.68.9.91.39a3.15,3.15,0,0,0-.17-3.28.49.49,0,0,0-.56-.23c-3.67,1.26-7.48.94-11.26,1.56a16.13,16.13,0,0,0-3.6,1,25.07,25.07,0,0,0-3.3,2.17c-1,.62-2.1.05-3.31.13a7.51,7.51,0,0,0-2.62.71,7,7,0,0,0-4,4.88l.73-.3a6.38,6.38,0,0,0-8.77,4l.61-.35A6.22,6.22,0,0,0,290,54l.63-.48a5.24,5.24,0,0,0-6.64,7l.74-.56a6.3,6.3,0,0,0-8.61,8.69l.68-.68a3.52,3.52,0,0,0-4.47,1c-1.67,2-1,4.81-.34,7.08a.5.5,0,0,0,1-.27Z" transform="translate(-196.03 -31.89)"/><path d="M428.14,42.24A9.06,9.06,0,0,1,445,38.78a.5.5,0,0,0,.91-.12c1-2.73,3-5.21,6-5.68a5.58,5.58,0,0,1,6.38,4.33.51.51,0,0,0,.84.22c3.27-2.84,9.38-6.51,12.67-1.45a.51.51,0,0,0,.79.1,7.47,7.47,0,0,1,13.07,2.11.51.51,0,0,0,.74.3A8.58,8.58,0,0,1,493,36.85a5,5,0,0,1,4.07,5.87.51.51,0,0,0,.84.49,6.9,6.9,0,0,1,11.56,7c-.15.45.53.88.84.49a4.64,4.64,0,0,1,6.71-.5c2.06,1.82,2.23,4.84,1.58,7.33a.5.5,0,0,0,.84.48,5.19,5.19,0,1,1,7.42,7.24c-.26.29-.11.91.36.85l5.39-.64c1.85-.23,3.22-.74,4.15,1.13a10.53,10.53,0,0,1-.31,9.73.5.5,0,0,0,.79.6c2.7-2.21,7.38-2.34,9.49.81a5.4,5.4,0,0,1-3.49,8.12l.27,1c2.49-.89,5.68-.4,7.22,2a4.51,4.51,0,0,1-3.93,6.91v1c2.25.13,4.66,1,5.8,3.12a4.27,4.27,0,0,1-2.52,6.19.5.5,0,0,0,0,1c3.09.59,6.37,2.4,7.24,5.67s-1.61,7-5.11,6.73l.14,1c3.54-1,7.81,2.44,6.38,6.25a5.32,5.32,0,0,1-7.43,2.59l-.25.93c3.61-.44,7.5,2.78,6.63,6.66-.76,3.37-4.65,5.11-7.75,4l-.13,1c4.15-.35,7.36,4.33,5.64,8.12-1.6,3.54-6,4.69-9.45,3.56l-.26,1c2.69.64,2.4,4.18.75,5.71s-4,1.83-6.09,2.15a.51.51,0,0,0-.22.84,3.63,3.63,0,0,1-.74,5.68c-1.63,1.07-3.79.91-5.58.48a.53.53,0,0,0-.57.23c-1.31,2.71-4.53,7.89-8,4.53a.51.51,0,0,0-.84.22,7.91,7.91,0,0,1-6,6,.51.51,0,0,0-.35.62,5,5,0,0,1-5.31,6.45l-.14,1,.76,1.54c-1,1.17-2.08,1.44-3.13.82a8.08,8.08,0,0,1-1.87-1.07c-.52-.37-1,.49-.5.86,1.66,1.16,5,2.81,6.27.21.7-1.44.13-3.19-1.53-3.36-.55-.06-.69.9-.13,1a6,6,0,0,0,6.55-7.68l-.35.61a8.94,8.94,0,0,0,6.69-6.72l-.84.23a4.61,4.61,0,0,0,5.47.63,7.73,7.73,0,0,0,2.74-2.71,11.63,11.63,0,0,1,1.09-2c.57-.45,1.16-.15,1.81-.11,2.33.15,4.9-.61,6-2.8a4.37,4.37,0,0,0-.8-5.38l-.22.83c2.94-.45,7-1.26,7.91-4.6.6-2.15-.28-4.64-2.58-5.19a.5.5,0,0,0-.26,1c4.2,1.36,9.73-.45,11-5.06,1.16-4.27-2.48-9-6.92-8.59a.5.5,0,0,0-.14,1c3.82,1.35,8.58-1.13,9.09-5.33s-3.63-7.8-7.7-7.31a.51.51,0,0,0-.26.94c3.4,1.92,8.36.06,9.14-4,.85-4.36-3.86-7.83-7.85-6.72a.5.5,0,0,0,.13,1c3.6.23,6.42-3.1,6.29-6.6-.15-4.3-4.33-7-8.16-7.76v1a5.23,5.23,0,0,0,3.66-6.34c-.81-3.21-4.17-4.76-7.2-4.93-.64,0-.64,1,0,1a5.57,5.57,0,0,0,5.49-7c-1.09-3.77-5.67-5-9-3.84a.5.5,0,0,0,.27,1c4.12-.67,6.36-5.83,4.23-9.4-2.36-3.93-8-3.85-11.21-1.19l.78.6a11.51,11.51,0,0,0-.83-12.53.52.52,0,0,0-.43-.25l-8.83,1.06.35.86a6.47,6.47,0,0,0,0-8.87c-2.45-2.43-6.48-2.05-8.86.22l.83.48c.8-3.06.38-6.8-2.41-8.75a5.61,5.61,0,0,0-7.55,1l.84.49a7.91,7.91,0,0,0-13.24-8L498,43a5.86,5.86,0,0,0-3-6.48c-3-1.65-6.47-.55-9.1,1.22l.74.3a8.47,8.47,0,0,0-14.75-2.55l.78.1C469,30,462.26,33.51,458.44,36.83l.84.22a6.61,6.61,0,0,0-7.07-5.14c-3.59.32-6.14,3.27-7.27,6.48l.91-.12A10.05,10.05,0,0,0,427.17,42c-.08.63.88.91,1,.27Z" transform="translate(-196.03 -31.89)"/><path d="M466,193.81c1.58,3.91,6,3.9,9.62,3.38a5.4,5.4,0,0,0,3.66-1.71c1.41-1.72,1.17-4.2,2.69-5.87l-.85-.35a6.7,6.7,0,0,0,7.2,6.52,6.83,6.83,0,0,0,4.79-2.76c1.52-2.13,1.36-4.93,2.89-7.07h-.86c1.37,2.64,3.54,5.69,6.95,4.43s4.15-5.36,4.48-8.61l-.93.25c1.25,2.14,3.46,5.15,6.34,3.86,2.4-1.09,2.48-4.44,2.35-6.66,0-.64-1-.65-1,0,.09,1.54.17,3.3-.71,4.64-2.15,3.28-5-.35-6.11-2.34a.51.51,0,0,0-.94.25c-.26,2.6-.62,5.95-3.2,7.38-3.1,1.72-5.14-1.33-6.37-3.71a.51.51,0,0,0-.86,0c-1.84,2.57-1.4,6.27-4.11,8.23a5.62,5.62,0,0,1-8.91-4.41.5.5,0,0,0-.85-.36c-1.49,1.63-1.34,3.84-2.51,5.59-2.16,3.22-10.34,2.65-11.79-.94-.24-.59-1.21-.34-1,.26Z" transform="translate(-196.03 -31.89)"/><path d="M301.68,193.12a86,86,0,0,0-20.43,6.82.5.5,0,0,0-.25.43,14.5,14.5,0,0,1-13.75,13.77.5.5,0,0,0-.43.75c3.62,7.94-1.93,18-10.49,19.36a.51.51,0,0,0-.35.61,23.45,23.45,0,0,1-11.22,26.5.5.5,0,0,0-.1.78c7.13,9.21,4.89,23.75-4.64,30.41-.32.22-.35.83.11.91a11.22,11.22,0,0,1,3.84,21,.51.51,0,0,0,0,.87,22.57,22.57,0,0,1,9.82,24.46.5.5,0,0,0,.35.61c9.95,1.51,15.44,14.86,9.16,22.85a.51.51,0,0,0,.22.84c4.57,1.2,9.5,3.13,12.24,7.22,2.51,3.76,2.61,9.19-1,12.3-.39.34,0,1,.49.84,11.82-3.18,24.44,7.86,23,20,0,.4.46.59.76.43,9.63-5.08,22.89,2.39,23.53,13.26a.5.5,0,0,0,.75.43,24.53,24.53,0,0,1,30.85,6,.48.48,0,0,0,.6.07,32.68,32.68,0,0,1,36,2.37.5.5,0,0,0,.68-.18c6.34-13.34,23.18-19.86,36.85-14.29.34.14.6-.2.64-.48a19.66,19.66,0,0,1,30.41-13.87.51.51,0,0,0,.74-.3c5.33-15.09,23.25-23.78,38.4-18.72a.51.51,0,0,0,.64-.48,23.86,23.86,0,0,1,20-20.26c.34,0,.44-.48.3-.73-3-5.81-.07-12.73,4.71-16.61,5-4.06,11.61-5.43,17.79-6.73a.5.5,0,0,0,.36-.49A28.92,28.92,0,0,1,558,305.11a.5.5,0,0,0,0-.86c-4.68-3.05-6-9.07-4.86-14.28,1.33-6.07,5.7-11,9.67-15.56a.5.5,0,0,0,.08-.6,17.1,17.1,0,0,1,4-22.58.51.51,0,0,0-.12-.92c-7.47-2.42-11.26-11.75-7.59-18.69.13-.25,0-.69-.3-.74-7.29-1-11.23-10.44-6.79-16.3a.51.51,0,0,0-.43-.76,8.61,8.61,0,0,1-6.41-14.94c.29-.27.09-.91-.36-.85l-4.67.57c-1.65.2-3.51.91-4.51-.77a7.06,7.06,0,0,1,.49-7.87c.31-.41-.29-.92-.69-.68a8.26,8.26,0,0,1-9.84-1,8.16,8.16,0,0,1-.42-10.79c.39-.5-.31-1.21-.71-.71A8.88,8.88,0,0,0,536,190.14l-.69-.68a8,8,0,0,0-.79,8.32c.39.78,1.07,2,1.94,2.27,1,.34,3.11-.38,4.21-.51l4.2-.51-.35-.86a9.61,9.61,0,0,0,7.12,16.65l-.43-.75c-4.81,6.34-.5,16.71,7.38,17.78l-.3-.74a14.58,14.58,0,0,0,8.19,20.17l-.12-.92a17.8,17.8,0,0,0-6.94,11.9,18.11,18.11,0,0,0,.5,7.54c.35,1.2,1,2.24,1.41,3.4.32,1,.31.82-.35,1.79-.47.69-1.12,1.3-1.65,1.95-3.75,4.55-7.31,9.79-7.57,15.87-.21,4.81,1.6,9.62,5.73,12.3v-.86a30,30,0,0,0-16.12,22.3,26.63,26.63,0,0,0-.31,4.09c0,.53.35,2.11.11,2.52-.41.72-1.6.68-2.34.84-6.46,1.45-13.57,3.5-17.92,8.86-3.51,4.31-5,10.25-2.38,15.36l.3-.74a24.84,24.84,0,0,0-20.71,21.22l.63-.48c-15.7-5.24-34.14,3.83-39.64,19.41l.74-.29a20.42,20.42,0,0,0-31.92,14.73l.63-.48c-14-5.73-31.47,1-38,14.74l.68-.18a33.18,33.18,0,0,0-18.13-6.76,34.15,34.15,0,0,0-9.77.78,32.1,32.1,0,0,0-5,1.57c-.88.36-3.05,1.86-3.92,1.6-.4-.12-1-1.15-1.35-1.5a24,24,0,0,0-2-1.79,24.74,24.74,0,0,0-3.43-2.3,26.3,26.3,0,0,0-8.33-2.9,24.94,24.94,0,0,0-16.56,2.84l.76.43c-.69-11.64-14.72-19.57-25-14.12l.75.43c1.54-12.78-11.85-24.28-24.25-20.95l.49.84c3.54-3.09,3.83-8.32,1.78-12.36-2.56-5.07-8.32-7.47-13.51-8.84l.22.84c6.69-8.51,1.19-22.89-9.6-24.52l.35.61a23.59,23.59,0,0,0-10.27-25.59v.87a12.21,12.21,0,0,0-4.08-22.83l.12.91c10.11-7.06,12.39-22.23,4.85-32l-.1.78A24.48,24.48,0,0,0,257,234.59l-.35.62c9.25-1.47,14.94-12.35,11.08-20.83l-.43.76a15.6,15.6,0,0,0,13.8-9.91c.47-1.21.34-3.09.92-4.16s2.08-1.35,3-1.76c1.33-.58,2.68-1.11,4-1.62A86.14,86.14,0,0,1,302,194.08c.63-.12.36-1.09-.27-1Z" transform="translate(-196.03 -31.89)"/><text class="cls-1" transform="translate(0 437.52)">ELIZABETH BATHORY</text></svg>