<svg id="Layer_1" data-name="Layer 1" xmlns="http://www.w3.org/2000/svg" viewBox="0 0 242.68 406.35"><defs><style>.cls-1{font-size:36px;fill:#76cede;font-family:ShagadelicBold, Shagadelic;font-weight:700;}</style></defs><title>HH Holmes Taurus</title><path d="M348.88,117.09A49.67,49.67,0,0,1,373.66,93c12.67-5.46,27-8,40.75-8.26,12.94-.29,26,2.91,35.88,11.66,9.54,8.47,15.33,20.19,19.3,32.12,5.1,15.33,8.24,31.22,10.94,47.12.11.63,1.08.37,1-.26-2.6-15.28-5.61-30.55-10.36-45.33-3.93-12.22-9.49-24.3-18.95-33.26-9.14-8.66-21.23-12.62-33.68-13a111.85,111.85,0,0,0-42.11,7.08A51.11,51.11,0,0,0,348,116.59c-.28.57.58,1.08.86.5Z" transform="translate(-298.02 -15.63)"/><path d="M341.12,170.48c0-1.35,0-2.69-.05-4a.5.5,0,0,0-1,0c0,1.35,0,2.69.05,4a.5.5,0,0,0,1,0Z" transform="translate(-298.02 -15.63)"/><path d="M506.13,171.22a240,240,0,0,1-24.6,10.66,103.7,103.7,0,0,1-26.74,5.28c-9,.65-18,1.16-27,1.16-9.39,0-18.43-1.39-27.69-2.79-8.78-1.33-17.79-.68-26.5-2.37-8.23-1.6-16-4.89-24.48-5.1A66.77,66.77,0,0,0,324.85,182c-5.76,2.17-9.55,6.53-9.91,12.8-.43,7.52,3.07,15.18,6.51,21.67,3.72,7,8.7,13.37,15.48,17.64.55.34,1.05-.52.51-.86-6.3-4-11-9.77-14.56-16.24-3.39-6.13-6.72-13.26-7-20.39-.13-3.82.86-7.73,3.73-10.41,2.69-2.53,6.29-3.68,9.81-4.55,8.64-2.13,17.69-3.55,26.54-1.88,7.78,1.46,15.13,4.41,23.07,5.13,4.3.39,8.62.39,12.93.69s8.61,1,12.89,1.71c16.58,2.74,33.2,2.05,49.9.84a104.58,104.58,0,0,0,27-5.32,241.24,241.24,0,0,0,24.83-10.75c.58-.28.08-1.14-.5-.87Z" transform="translate(-298.02 -15.63)"/><path d="M355.76,170.64a37.46,37.46,0,0,0-23.42,1.59,69,69,0,0,0-10.81,5.4c-2.76,1.66-5.44,3.33-7.35,6-3.63,5.07-4.63,12.71-3.85,18.76a33.51,33.51,0,0,0,8,17.05c5.2,6.18,12,10.92,19.11,14.58.57.3,1.08-.57.5-.86-11-5.66-22.24-14.48-25.78-26.9a29.54,29.54,0,0,1,1.22-19.1c2.74-6.48,10.18-9.94,16.25-12.7,8.22-3.74,17.06-5.22,25.89-2.85a.5.5,0,0,0,.26-1Z" transform="translate(-298.02 -15.63)"/><path d="M488.1,196.18c9.91-5,18.43-13.06,22.1-23.74.62-1.79,1.42-3.73,1.19-5.66a8.29,8.29,0,0,0-3.57-5.78c-4-2.71-8.19-.85-11.63,1.83-5.05,3.95-9.45,8.54-14.88,12a65.62,65.62,0,0,1-18.68,8.25c-14.09,3.7-29.47,1.63-43.63-.71-16.89-2.79-33.51-7-50.46-9.49-.63-.09-.9.87-.27,1,27.12,3.94,53.78,12.65,81.41,12.1,11.63-.22,23.17-4.35,32.83-10.71,4.65-3.07,8.57-6.91,12.83-10.46,2.16-1.79,4.67-3.94,7.6-4.19a7.24,7.24,0,0,1,7.39,5.84c.59,2.95-1.49,7.14-2.74,9.69a37.44,37.44,0,0,1-5.12,7.77,47.1,47.1,0,0,1-14.88,11.39c-.57.29-.07,1.16.51.87Z" transform="translate(-298.02 -15.63)"/><path d="M352.06,228.08c-2.82-7.53-3-16.21-3.43-24.18-.41-8.17,0-16.38,2.78-24.14.22-.6-.74-.86-1-.26-2.83,7.84-3.23,16.15-2.82,24.4.41,8,.62,16.83,3.46,24.45.23.6,1.19.34,1-.27Z" transform="translate(-298.02 -15.63)"/><path d="M379.67,164.83A289.86,289.86,0,0,1,429,158.58q12.09-.53,24.19-.11c8.23.26,16.42.89,24.21,3.75.6.23.87-.74.27-1-7.41-2.72-15.2-3.46-23-3.75q-12.81-.47-25.64.07a291.77,291.77,0,0,0-49.54,6.28c-.63.14-.37,1.1.26,1Z" transform="translate(-298.02 -15.63)"/><path d="M408.52,179.68l66.58-.86a.5.5,0,0,0,0-1l-66.58.86a.5.5,0,0,0,0,1Z" transform="translate(-298.02 -15.63)"/><path d="M483.9,235.25c4.61-17.49,7.74-36.79-1.26-53.48-.3-.56-1.17-.06-.86.51,8.86,16.43,5.69,35.49,1.16,52.7a.5.5,0,0,0,1,.27Z" transform="translate(-298.02 -15.63)"/><path d="M480,284.92a99,99,0,0,0,2.3-51c-1.86-8.86-4.31-17.8-3.75-26.94.24-3.86.77-7.32-.76-11s-3.9-6.74-4.14-10.71c0-.64-1-.65-1,0,.19,3.1,1.55,5.71,2.94,8.43a21.48,21.48,0,0,1,2.14,5.32c.48,2.35.07,4.69-.11,7-.68,8.6,1.31,17.05,3.13,25.39,3.9,17.88,3.93,35.68-1.71,53.22-.2.62.77.88,1,.27Z" transform="translate(-298.02 -15.63)"/><path d="M485.37,245.63c1.62-3.22,4.29-8.07,2.64-11.77-.84-1.86-3.52-2.67-4.58-.54-.28.57.58,1.08.87.5,2.08-.29,3.1.27,3.05,1.67a5.53,5.53,0,0,1,0,1.52,12.46,12.46,0,0,1-.6,2.9,34.48,34.48,0,0,1-2.27,5.22c-.29.57.57,1.08.86.5Z" transform="translate(-298.02 -15.63)"/><path d="M386.48,233.49a29.42,29.42,0,0,0,10.85,5.57.5.5,0,0,0,.27-1,28.21,28.21,0,0,1-10.41-5.32c-.49-.4-1.21.3-.71.71Z" transform="translate(-298.02 -15.63)"/><path d="M408.11,235.5a31,31,0,0,0,11.57-4.32c.54-.34,0-1.2-.51-.86a30.32,30.32,0,0,1-11.33,4.22c-.63.1-.36,1.06.27,1Z" transform="translate(-298.02 -15.63)"/><path d="M422.07,234.64a11.16,11.16,0,0,0,5.28-13.11c-.19-.62-1.15-.36-1,.26a10.18,10.18,0,0,1-4.82,12c-.57.31-.06,1.17.5.86Z" transform="translate(-298.02 -15.63)"/><path d="M435.31,239c.9-5.28,1.69-10.57.38-15.85-.15-.62-1.12-.36-1,.27,1.27,5.11.49,10.2-.39,15.31-.11.63.86.9,1,.27Z" transform="translate(-298.02 -15.63)"/><path d="M433.32,246.59c-.13,1.32-.67,3.18-.26,4.47a5.42,5.42,0,0,0,1.76,2.16,4.25,4.25,0,0,0,2.38,1.09,26.11,26.11,0,0,1,5.3,1.08c.61.21.87-.76.26-1a21.47,21.47,0,0,0-3.45-.95c-1.09-.16-2.3,0-3.28-.57a4.3,4.3,0,0,1-2.06-2.52,18,18,0,0,1,.35-3.79c.07-.64-.93-.63-1,0Z" transform="translate(-298.02 -15.63)"/><path d="M424.93,252.84c0,2.71-1,6.5,1.63,8.42,2.22,1.62,6.29.92,8.6-.16.58-.27.07-1.13-.51-.86-2,.92-6.15,1.66-7.87-.11s-.81-5.07-.85-7.29a.5.5,0,0,0-1,0Z" transform="translate(-298.02 -15.63)"/><path d="M449.24,261.42c1.7,0,4.06-.49,4.9-2.19.93-1.89.38-4.66-.23-6.56-.2-.61-1.17-.34-1,.27a11.15,11.15,0,0,1,.59,4.47c-.21,2.34-2.23,3-4.29,3a.5.5,0,0,0,0,1Z" transform="translate(-298.02 -15.63)"/><path d="M449.43,255.88c2.7-1.31,5-3,4.3-6.35-1-4.66-3.46-9.11-5.22-13.52-3.52-8.82-6.14-19.92,1.08-27.68.44-.47-.27-1.18-.71-.71-5.29,5.69-5.73,13.69-3.93,20.92a88.24,88.24,0,0,0,4.68,12.76c.92,2.23,1.85,4.46,2.6,6.76.59,1.78,1.07,3.77-.49,5.24a10.82,10.82,0,0,1-2.82,1.72c-.58.28-.07,1.14.51.86Z" transform="translate(-298.02 -15.63)"/><path d="M448.22,222.76c6.11-5.67,19.91-6,24,2.44.28.58,1.15.07.87-.51-4.38-9-19-8.72-25.56-2.64-.48.44.23,1.15.7.71Z" transform="translate(-298.02 -15.63)"/><path d="M419.11,220.71c-4.8-3.66-10.88-2.81-16.21-.87-4.47,1.63-9.32,3.93-9.95,9.19-.07.64.93.63,1,0,.64-5.31,6.52-7.42,10.92-8.8,4.65-1.47,9.67-1.76,13.73,1.35.52.39,1-.48.51-.87Z" transform="translate(-298.02 -15.63)"/><path d="M397.65,228.35c3-2.26,6.11-4.94,9.87-5.79,4.57-1.05,7.89,1.52,10.8,4.68.44.48,1.15-.23.71-.7-2.66-2.89-5.75-5.47-9.91-5.23-4.65.28-8.42,3.51-12,6.18-.51.38,0,1.25.51.86Z" transform="translate(-298.02 -15.63)"/><path d="M397.37,228.59c1.73.72,3.16,1.86,5,2.34a14.67,14.67,0,0,0,5.36.31c3.9-.44,7.52-2.14,11-3.79.58-.28.07-1.14-.51-.87-3.39,1.6-6.88,3.23-10.65,3.66a13.16,13.16,0,0,1-5.78-.52c-1.48-.52-2.73-1.49-4.18-2.09-.59-.25-.85.72-.26,1Z" transform="translate(-298.02 -15.63)"/><path d="M402,224.85c1.1,2.68,3.47,5,6.6,4.54a6.52,6.52,0,0,0,5.46-6.45c0-.64-1-.65-1,0a5.55,5.55,0,0,1-4,5.34c-2.75.78-5.1-1.31-6.08-3.7-.24-.58-1.21-.33-1,.27Z" transform="translate(-298.02 -15.63)"/><path d="M408.74,222.59a2,2,0,0,0-1.63,3.73,2,2,0,0,0,2.61-1,1.79,1.79,0,0,0-1.25-2.4c-.63-.14-.9.82-.27,1a.8.8,0,0,1,.53,1.19,1,1,0,0,1-1.38.2,1,1,0,0,1,1.12-1.75c.6.23.86-.73.27-1Z" transform="translate(-298.02 -15.63)"/><path d="M471,227.49a13.62,13.62,0,0,0-12.4-5.91,16.79,16.79,0,0,0-7.13,2.71c-1.68,1-3.54,1.83-4,3.87a.5.5,0,0,0,.48.63c2.59,0,4.75,1.35,7.16,2.13a18.66,18.66,0,0,0,6.33,1,12,12,0,0,0,9-4.28c.41-.49-.3-1.2-.7-.71-2.89,3.51-7.39,4.52-11.74,3.72-3.44-.64-6.52-2.82-10.05-2.84l.48.63c.47-1.89,2.85-2.86,4.39-3.75a14,14,0,0,1,6.67-2.15A12.57,12.57,0,0,1,470.09,228c.37.52,1.24,0,.86-.5Z" transform="translate(-298.02 -15.63)"/><path d="M454.89,223.31c-.32,1.93-.64,4.14.62,5.83,1,1.34,2.68,1.62,4.26,1.7,4.22.2,6.29-3.61,5.13-7.4-.19-.61-1.15-.35-1,.26.95,3.12-.55,6.34-4.17,6.14-1.42-.08-2.91-.33-3.7-1.68s-.46-3.14-.22-4.59c.1-.63-.86-.9-1-.26Z" transform="translate(-298.02 -15.63)"/><path d="M459.69,222.68a1.72,1.72,0,0,0-2.11,1.76,2.23,2.23,0,0,0,2.44,1.95,2.06,2.06,0,0,0,2-2.09,1.82,1.82,0,0,0-2.31-1.57c-.6.21-.34,1.18.27,1a.81.81,0,0,1,1,.64c.1.55-.42.94-.89,1a1.26,1.26,0,0,1-1.33-.53c-.33-.52,0-1.37.68-1.2s.89-.81.26-1Z" transform="translate(-298.02 -15.63)"/><path d="M432.2,258.38c1.25-2.58,4.13-1.39,5.44.16.33.4.57.84.92,1.22a7.32,7.32,0,0,0,3.56,2.26,5.62,5.62,0,0,0,3.89-.33c1.56-.74,2.56-2.21,4.35-2.5.63-.1.36-1.07-.27-1-1.88.31-2.89,1.8-4.56,2.54a5.09,5.09,0,0,1-5.28-.81c-1.15-.87-1.6-2.09-2.49-3.14-1.59-1.89-5.41-1-6.42,1.06-.29.58.58,1.09.86.51Z" transform="translate(-298.02 -15.63)"/><path d="M430.39,211.71a23.88,23.88,0,0,0-4.62-6.21c-.46-.45-1.17.26-.71.71a22.6,22.6,0,0,1,4.46,6c.3.58,1.16.07.87-.5Z" transform="translate(-298.02 -15.63)"/><path d="M427.12,211.62a42.94,42.94,0,0,0-4.59-7.31c-.4-.5-1.1.21-.71.71a41.79,41.79,0,0,1,4.44,7.1c.29.58,1.15.07.86-.5Z" transform="translate(-298.02 -15.63)"/><path d="M424.71,212.11c-.45-3.81-3.22-6.28-6.06-8.55-.5-.4-1.21.31-.71.71,2.58,2.06,5.36,4.34,5.77,7.84.07.63,1.07.64,1,0Z" transform="translate(-298.02 -15.63)"/><path d="M422.52,212c-.58-3.48-4.16-6.72-7.15-8.29-.57-.3-1.08.57-.51.87,2.76,1.44,6.16,4.49,6.69,7.68.11.64,1.07.37,1-.26Z" transform="translate(-298.02 -15.63)"/><path d="M419.88,212.27c-.12-1.77-1.37-3.05-2.52-4.3a35.78,35.78,0,0,0-4.94-4.43c-.51-.39-1,.48-.5.86a36.37,36.37,0,0,1,3.92,3.42c1.16,1.18,2.92,2.69,3,4.45,0,.64,1,.64,1,0Z" transform="translate(-298.02 -15.63)"/><path d="M416.82,211.15c-1.47-1.47-2.9-3-4.26-4.58a19.18,19.18,0,0,0-1.72-2c-.43-.39-1.57-.69-1.82-1.14s-1.18-.06-.87.5.61.58,1.1.85a8.3,8.3,0,0,1,2.42,2.27c1.41,1.66,2.9,3.26,4.44,4.8a.5.5,0,0,0,.71-.71Z" transform="translate(-298.02 -15.63)"/><path d="M413.08,210.16c-1.8-1.66-3.55-3.43-5.44-5a6.22,6.22,0,0,0-4.56-1.76c-.64.05-.64,1.05,0,1,2.2-.19,3.75,1.35,5.25,2.73l4,3.72c.47.44,1.18-.26.71-.7Z" transform="translate(-298.02 -15.63)"/><path d="M410,210.23c-3.13-2.69-6.76-7.21-11.34-6.43-.63.11-.36,1.08.27,1,4-.69,7.6,3.79,10.36,6.16.49.42,1.2-.28.71-.7Z" transform="translate(-298.02 -15.63)"/><path d="M407.2,210.64c-3.67-2.53-7-6.47-11.86-5.88-.63.08-.64,1.08,0,1,4.69-.57,7.85,3.32,11.36,5.74.53.37,1-.5.5-.86Z" transform="translate(-298.02 -15.63)"/><path d="M403.21,210.64a14.46,14.46,0,0,0-9.82-4.88c-.64,0-.64,1,0,1a13.5,13.5,0,0,1,9.12,4.58c.42.49,1.13-.22.7-.7Z" transform="translate(-298.02 -15.63)"/><path d="M400.2,211.53a12.47,12.47,0,0,0-8.13-4.19c-.64-.07-.64.93,0,1a11.42,11.42,0,0,1,7.42,3.9c.43.48,1.13-.23.71-.71Z" transform="translate(-298.02 -15.63)"/><path d="M397.1,212.5a10,10,0,0,0-7.33-2.39c-.64,0-.65,1,0,1a9,9,0,0,1,6.62,2.09c.49.41,1.2-.29.71-.7Z" transform="translate(-298.02 -15.63)"/><path d="M395.07,213.4a9.25,9.25,0,0,0-7.7-.23c-.59.24-.33,1.21.27,1a8.32,8.32,0,0,1,6.92.13c.58.28,1.09-.58.51-.86Z" transform="translate(-298.02 -15.63)"/><path d="M392.89,214.84a14.84,14.84,0,0,0-8,2.27c-.55.33-.05,1.2.5.86a13.88,13.88,0,0,1,7.46-2.13.5.5,0,0,0,0-1Z" transform="translate(-298.02 -15.63)"/><path d="M390.3,216.62c-2.45.67-4.89,1.47-6.48,3.57-.39.52.48,1,.87.51,1.4-1.87,3.73-2.53,5.88-3.12a.5.5,0,0,0-.27-1Z" transform="translate(-298.02 -15.63)"/><path d="M389,218.24c-3.52.32-5.46,3.28-6.8,6.24-.27.59.6,1.09.86.51,1.16-2.58,2.82-5.47,5.94-5.75.64-.06.64-1.06,0-1Z" transform="translate(-298.02 -15.63)"/><path d="M449.13,210.8a7,7,0,0,1,2.22-6.46c.47-.43-.24-1.14-.71-.7a8,8,0,0,0-2.48,7.42c.12.64,1.08.37,1-.26Z" transform="translate(-298.02 -15.63)"/><path d="M451.29,210.13a5.83,5.83,0,0,1,1.95-6c.49-.42-.22-1.12-.71-.71a6.84,6.84,0,0,0-2.2,7,.5.5,0,0,0,1-.26Z" transform="translate(-298.02 -15.63)"/><path d="M452.88,209.82a7.17,7.17,0,0,1,2.44-6.43c.48-.43-.23-1.13-.71-.71a8.26,8.26,0,0,0-2.7,7.41c.09.63,1.06.36,1-.27Z" transform="translate(-298.02 -15.63)"/><path d="M455.21,209.65a8.09,8.09,0,0,1,1.74-6.59c.4-.5-.3-1.21-.71-.71a9.23,9.23,0,0,0-2,7.56c.11.64,1.08.37,1-.26Z" transform="translate(-298.02 -15.63)"/><path d="M457.87,209.47a6.23,6.23,0,0,1,1.73-6.07c.46-.45-.25-1.15-.71-.7a7.23,7.23,0,0,0-2,7,.5.5,0,0,0,1-.26Z" transform="translate(-298.02 -15.63)"/><path d="M460.19,210a9.31,9.31,0,0,1,3.69-7.21c.51-.38,0-1.25-.5-.86a10.35,10.35,0,0,0-4.19,8.07c0,.64,1,.64,1,0Z" transform="translate(-298.02 -15.63)"/><path d="M462.74,208.49c-.6-2.07,3.11-4,4.61-4.62.59-.25.08-1.11-.5-.86-2,.85-5.86,3.05-5.07,5.75a.5.5,0,0,0,1-.27Z" transform="translate(-298.02 -15.63)"/><path d="M464.88,208.83c.38-2.88,3.75-3.33,6.05-3.55.63-.06.64-1.06,0-1-3,.28-6.58,1-7.05,4.55-.09.63.91.63,1,0Z" transform="translate(-298.02 -15.63)"/><path d="M467.63,209.33a8.9,8.9,0,0,1,5.26-1.9c.64,0,.64-1,0-1a9.83,9.83,0,0,0-5.77,2c-.5.38,0,1.25.51.86Z" transform="translate(-298.02 -15.63)"/><path d="M470.54,210.28a5.51,5.51,0,0,1,4.56-.28c.61.22.87-.74.27-1a6.42,6.42,0,0,0-5.33.38c-.57.3-.06,1.16.5.86Z" transform="translate(-298.02 -15.63)"/><path d="M472.22,211.51a5.47,5.47,0,0,1,4,.54c.56.32,1.07-.55.51-.86a6.56,6.56,0,0,0-4.79-.64c-.63.15-.36,1.11.26,1Z" transform="translate(-298.02 -15.63)"/><path d="M473.05,213.05a3.93,3.93,0,0,1,2.76,1.21c.45.47,1.16-.24.71-.7a4.89,4.89,0,0,0-3.47-1.51.5.5,0,0,0,0,1Z" transform="translate(-298.02 -15.63)"/><path d="M434,300.33c6.78,1,13.63,1.84,20.36.12a.5.5,0,0,0-.26-1c-6.56,1.69-13.24.83-19.84-.12-.63-.09-.9.88-.26,1Z" transform="translate(-298.02 -15.63)"/><path d="M433.74,308.83c5-.28,10.09-.42,15.14-.45a.5.5,0,0,0,0-1c-5.05,0-10.1.17-15.14.45-.64,0-.65,1,0,1Z" transform="translate(-298.02 -15.63)"/><path d="M432.26,289c2.19-.06,4.33.9,6.47,1.31a34.53,34.53,0,0,0,5.08.6,35.75,35.75,0,0,0,10.89-1.27.5.5,0,0,0-.27-1,34.78,34.78,0,0,1-11.53,1.18c-3.57-.25-7.11-1.95-10.64-1.86a.5.5,0,0,0,0,1Z" transform="translate(-298.02 -15.63)"/><path d="M409.36,327.15c11.29,5.83,24.12,10.75,36.92,7.25a27.14,27.14,0,0,0,14.5-9.84c4.51-5.82,8.82-11.65,13.92-17,.45-.46-.26-1.17-.7-.71a143.23,143.23,0,0,0-12.14,14.58c-4,5.52-8.43,9.76-15.1,11.79-12.71,3.86-25.65-1.13-36.89-6.93-.57-.3-1.08.57-.51.86Z" transform="translate(-298.02 -15.63)"/><path d="M362,276.9c-.74,21.18,21.48,32.16,32,47.59.36.53,1.22,0,.86-.5-10.35-15.23-32.55-26.24-31.82-47.09,0-.64-1-.64-1,0Z" transform="translate(-298.02 -15.63)"/><path d="M378.39,275.82c-1-5.12-4.37-9.49-4.81-14.74-.06-.64-1.06-.64-1,0,.45,5.37,3.82,9.79,4.84,15,.13.63,1.09.37,1-.26Z" transform="translate(-298.02 -15.63)"/><path d="M372.18,252.74V245a.5.5,0,0,0-1,0v7.79a.5.5,0,0,0,1,0Z" transform="translate(-298.02 -15.63)"/><path d="M362.61,236.66a17.63,17.63,0,0,0-14.75-8.25c-2.54,0-5.36.51-7.09,2.53-2.1,2.46-2.45,6.2-2.67,9.28-.9,12.26-.26,30.33,14,34.92a20.78,20.78,0,0,0,5.7.87c1.37.05,3.27.38,4.59-.16,2.47-1,2.54-5.76,1.73-7.8-.24-.59-1.21-.33-1,.27.83,2.07.61,6.06-2.19,6.72-1.76.41-4.41,0-6.16-.29a15.92,15.92,0,0,1-8.48-4.25c-5.16-4.89-7-11.94-7.42-18.84a90.42,90.42,0,0,1,.13-10.54c.23-3.86.56-9.51,4.83-11.11,6.56-2.47,14.37,1.62,17.88,7.15.34.55,1.21.05.86-.5Z" transform="translate(-298.02 -15.63)"/><path d="M356.8,267.07c-5,2.59-8.92-2.63-11.44-6.16s-3.95-6.93-3.86-11.39c.05-2.14.28-4.28.44-6.42.21-2.54-.24-6.69,2.66-7.76,3.85-1.42,8.26,1.94,10.9,4.32a26.69,26.69,0,0,1,3.71,3.73c1.45,2-.57,3.59-1.33,5.42a10.73,10.73,0,0,0-.17,7.94c.25.68,1.28,2.17,1.16,2.69-.67,3-1.72.37-2.11,0a3.87,3.87,0,0,0-2.38-1.11c-.45-.08-.9-.09-1.35-.15-2.34-.31-2.88-2.12-3.06-4.15-.19-2.2-.13-4.42,1.45-6.15.43-.47-.28-1.18-.71-.71-2.15,2.36-2.27,6.23-1.43,9.2a3.28,3.28,0,0,0,1.89,2.43,6.84,6.84,0,0,0,1.86.38,10.45,10.45,0,0,1,1.67.21c1.86.61,1.34,1.16,2.25,2.19,1.48,1.68,3.25.58,3.07-1.49-.21-2.35-1.91-4.21-2-6.67-.11-3,1.23-4.72,2.67-7.13,1.65-2.74-2.4-5.38-4.19-7-2.6-2.39-5.86-4.87-9.52-5.13-3-.2-5.15,1.21-5.65,4.2-.43,2.54-.44,5.24-.63,7.8a32.39,32.39,0,0,0,0,7c.62,4.53,3.63,8.63,6.6,12,2.55,2.87,6.33,4.83,10,2.9.57-.3.07-1.16-.5-.86Z" transform="translate(-298.02 -15.63)"/><path d="M354.46,244.32a13,13,0,0,0,2.75-2.88c.36-.53-.5-1-.87-.5a11.2,11.2,0,0,1-2.39,2.52c-.5.38,0,1.25.51.86Z" transform="translate(-298.02 -15.63)"/><path d="M342,246.15l4.09-5.34c1.36-1.77,2.73-4.42,5.05-5,.62-.15.36-1.11-.27-1-1.9.47-3,2-4.11,3.45q-2.82,3.67-5.63,7.34c-.39.51.48,1,.87.51Z" transform="translate(-298.02 -15.63)"/><path d="M451.91,232.85a10.66,10.66,0,0,0,4.93,5.93.5.5,0,0,0,.51-.86,9.6,9.6,0,0,1-4.47-5.33c-.21-.61-1.18-.35-1,.26Z" transform="translate(-298.02 -15.63)"/><path d="M433.55,261.76a8.88,8.88,0,0,1-4.28,5.86q-2.86,1.81-5.74,3.6a20.89,20.89,0,0,1-3.29,2c-.48.17-1.22,0-1.65.25s-.83.84-1.23,1.22a5.33,5.33,0,0,1-4.05,1.87.51.51,0,0,0-.5.5c.18,1.86-2.52,2.78-3.62,3.93a8.91,8.91,0,0,0-1.86,3.17c-1.24,3.5,0,7.13-2.28,10.35-2,2.8-4.51,4.84-5.87,8.1A16.83,16.83,0,0,0,398,307a21.08,21.08,0,0,1-.5,3.71c-.25.75-.71,1.4-.94,2.16-.56,1.83.56,3.54.09,5.35-.37,1.43-1.55,2.5-1.95,3.92-.64,2.25.66,4.31,2.48,5.57,4.56,3.17,11.07,1.21,14.07-3.1a.49.49,0,0,0-.18-.68c-1.25-.89-1.26-1.79,0-2.72a.51.51,0,0,0,0-.86c-2.43-1.5-.48-7.16.24-9.11a11.27,11.27,0,0,0,.93-6.07l-.48.64c1.4,0,2-.74,2.24-2.08.23-1.1.11-.81.79-1.58a10.4,10.4,0,0,0,1.45-2.13,33,33,0,0,1,1.93-3.85,8,8,0,0,1,2.4-1.79c1.23-.85,2.39-1.85,3.58-2.76,1.49-1.15,2-1.55,3.8-.83a.52.52,0,0,0,.57-.23c.3-.65,1-2.35,1.61-2.5.26,0,.94.36,1.29.37a2.69,2.69,0,0,0,2.48-1.52l-.78.1c1.8,1.42,4,0,5.84-.68,1.52-.6,3-1.7,4.61-1.83a14.67,14.67,0,0,1,5.28.9,10,10,0,0,1,5.14,2.92,6.24,6.24,0,0,0,1.89,1.87c.66.36,1.32.33,1.88,1,.33.39.37,1,.71,1.39a1.84,1.84,0,0,0,1.82.81l-.43-.75c-.75,1.52.63,2,1.81,2.36,1.34.45,3,2.54,4.21.85H465a2.38,2.38,0,0,0,1.33,1.31c.53.26,1.15.29,1.68.55,1.6.76,2,2,2.62,3.39l2.47,5.24c.51,1.1.79,1.56.14,2.64a18.27,18.27,0,0,1-2.26,2.48.51.51,0,0,0,.36.86c6.58.23,9.47-8.07,10.08-13.35.24-2,1.62-16.06-3.14-13.91l.74.3c-.91-3.28-4-3.64-6.6-5.16-2-1.18-4.26-1.74-6.27-2.86s-5.16-2.65-6.42-4.52c-2.08-3.07-3.82-6.36-6.94-8.59-2.21-1.59-5.35-2-7.2.36l.79.1c-.58-1-1.33-.89-2.37-.72a9.36,9.36,0,0,1-2.93.44,12,12,0,0,1-2.17-.92l-4.79-2c-.6-.25-.86.72-.27,1,2.29,1,4.6,2.19,7,2.93a3.7,3.7,0,0,0,1.74.35c.68-.09,2.45-1.43,3-.53a.49.49,0,0,0,.78.1c3-3.77,7.18.69,9.22,3.08a22.24,22.24,0,0,1,3,4.17,4.4,4.4,0,0,0,2.42,2.65l4.34,2.76a32,32,0,0,0,4.39,1.94c1.54.69,2.89,1.94,4.41,2.59.44.18,1,.1,1.41.24a4.11,4.11,0,0,1,2.59,2.91.52.52,0,0,0,.74.3c.47-.22,1.51,2.18,1.6,2.66a13,13,0,0,1,.1,1.53q.11,1.55.15,3.09a36.19,36.19,0,0,1-.42,7.13c-.76,4.43-3.45,11.17-8.88,11l.35.85,3.22-3.55a.53.53,0,0,0,.08-.6c-1.42-3-2.7-6.15-4.27-9.07a4.31,4.31,0,0,0-1.52-1.8c-1-.63-2.76-.54-3.34-1.8-.17-.38-.66-.27-.86,0s-4.13-2.54-4.29-2.21c.15-.3,0-.79-.44-.75-1.36.14-1.51-1.93-2.26-2.56a6.08,6.08,0,0,0-.64-.39,13.19,13.19,0,0,1-2.51-1.64,12.32,12.32,0,0,0-5.4-3.25c-2.11-.67-4.5-1.36-6.73-1s-6.82,4.37-8.93,2.71a.5.5,0,0,0-.78.1c-.92,1.15-1.81,1.34-2.65.59a.52.52,0,0,0-.71,0,25,25,0,0,1-1.55,2.11c-.94.83-.93-.24-2.07-.08-.64.09-1.31.88-1.8,1.26-1,.79-2,1.64-3.11,2.39s-2.49,1.07-3.34,2.18c-1.53,2-2,6-4.53,7-.19.08-.4.25-.37.48a2,2,0,0,1-1.15,2.44.5.5,0,0,0-.48.63c.61,3.55-1.85,6.6-2.14,10.06-.17,1.89-.42,4.57,1.42,5.71v-.86a2.46,2.46,0,0,0,.05,4.44l-.18-.68a9.75,9.75,0,0,1-9.9,3.93c-2.07-.43-4.27-1.75-4.76-3.92s1.12-3.44,1.77-5.33a6.87,6.87,0,0,0,0-3.22c-.19-2.25,1-3.9,1.29-6,.53-4.11,1.19-7.43,3.92-10.72,1.65-2,3.72-3.79,4.53-6.33,1.05-3.26-.11-6.62,1.86-9.72.85-1.34,2.15-2,3.32-3a4.51,4.51,0,0,0,.93-.92c.12-.17.36-1.06.46-1.14.43-.34,1.47-.34,2.07-.65a7.51,7.51,0,0,0,1.31-.88,8.51,8.51,0,0,1,2.3-1.5c3.39-1.46,6.66-3.94,9.83-5.94,2.88-1.82,4.22-3.39,5.15-6.72a.5.5,0,0,0-1-.26Z" transform="translate(-298.02 -15.63)"/><path d="M442.21,266a36.64,36.64,0,0,1-.2,17.57.5.5,0,0,0,1,.26,37.91,37.91,0,0,0,.19-18.09c-.14-.63-1.11-.37-1,.26Z" transform="translate(-298.02 -15.63)"/><path d="M443.52,265.13c2.8,5.82,2,12.16.42,18.21a.5.5,0,0,0,1,.27c1.62-6.33,2.4-12.9-.52-19-.28-.58-1.15-.07-.87.5Z" transform="translate(-298.02 -15.63)"/><path d="M445.36,265.42c2.88,5.24,2.57,12.65,1.11,18.31a.5.5,0,0,0,1,.27c1.54-6,1.84-13.54-1.22-19.08-.31-.57-1.17-.06-.86.5Z" transform="translate(-298.02 -15.63)"/><path d="M446.91,264.5a30.46,30.46,0,0,1,1.6,20.18.5.5,0,0,0,1,.27,31.51,31.51,0,0,0-1.7-21c-.26-.58-1.12-.08-.86.51Z" transform="translate(-298.02 -15.63)"/><path d="M448.43,264c1.9,2.88,2.53,6.16,3,9.52.56,3.88-.44,7.25-1.36,11a.5.5,0,0,0,1,.26c.89-3.62,2-7,1.47-10.73s-1.14-7.38-3.22-10.55c-.36-.53-1.22,0-.87.51Z" transform="translate(-298.02 -15.63)"/><path d="M450.93,264.14a29.71,29.71,0,0,1,.5,20.57c-.21.61.76.87,1,.26a30.57,30.57,0,0,0-.49-21.1c-.23-.59-1.2-.33-1,.27Z" transform="translate(-298.02 -15.63)"/><path d="M453.52,266.83a22.42,22.42,0,0,1-.87,18.66c-.29.57.57,1.08.87.5a23.34,23.34,0,0,0,1-19.42c-.23-.59-1.2-.34-1,.26Z" transform="translate(-298.02 -15.63)"/><path d="M456,270.42c.57,3.07,1.64,6.45.86,9.54-.64,2.52-1.71,5-2.57,7.43-.21.61.75.87,1,.27,1-2.89,2.58-6,2.89-9.07.28-2.76-.68-5.75-1.17-8.44-.12-.63-1.08-.36-1,.27Z" transform="translate(-298.02 -15.63)"/><path d="M458.78,274.2a16.15,16.15,0,0,1-.36,8c-.7,2.24-2,4.23-2.85,6.41-.23.6.74.86,1,.27,1.06-2.73,2.67-5.13,3.26-8a17.66,17.66,0,0,0-.05-6.91c-.12-.63-1.09-.36-1,.27Z" transform="translate(-298.02 -15.63)"/><path d="M460.67,275.29c-.2,2.48.33,4.54-.45,7a40.44,40.44,0,0,1-3,7.28c-.3.57.56,1.08.87.51a43.12,43.12,0,0,0,3.06-7.52c.82-2.58.28-4.68.49-7.29.06-.64-.94-.64-1,0Z" transform="translate(-298.02 -15.63)"/><path d="M462.54,276.69c-.13,2.7.37,5.51-.3,8.15-.62,2.43-2.14,4.72-3.3,6.93-.3.57.57,1.07.87.5,1.2-2.29,2.73-4.63,3.39-7.16.71-2.73.2-5.63.34-8.42,0-.64-1-.64-1,0Z" transform="translate(-298.02 -15.63)"/><path d="M463.69,277.33a19.59,19.59,0,0,1-.35,7.85,70.65,70.65,0,0,1-3.25,7.55c-.26.59.6,1.1.86.51a79.85,79.85,0,0,0,3.36-7.79,19.84,19.84,0,0,0,.38-8.12c-.06-.64-1.06-.64-1,0Z" transform="translate(-298.02 -15.63)"/><path d="M465.16,277.79a25,25,0,0,1-3.48,15.33.5.5,0,0,0,.87.51,25.89,25.89,0,0,0,3.61-15.84c-.06-.63-1.06-.64-1,0Z" transform="translate(-298.02 -15.63)"/><path d="M466.91,278.73c.48,3,1,6.08-.11,9a60.8,60.8,0,0,1-3.61,7.05c-.3.57.56,1.08.86.51,1.41-2.66,3.34-5.41,4.06-8.37.68-2.78.22-5.66-.23-8.44-.11-.63-1.07-.36-1,.27Z" transform="translate(-298.02 -15.63)"/><path d="M469.4,280a18,18,0,0,1-1.72,9.33,52.84,52.84,0,0,0-3.15,6.24c-.21.61.75.87,1,.27.95-2.69,2.71-5,3.78-7.59A19,19,0,0,0,470.4,280c0-.64-1-.64-1,0Z" transform="translate(-298.02 -15.63)"/><path d="M470.78,281.24a15.63,15.63,0,0,1-1.18,7.85c-.49,1.09-1,2.17-1.54,3.25-.42.89-.9,2.7-1.67,3.33l.83.22,0-.11-.35.62.07,0c.63-.15.36-1.11-.26-1h-.08a.52.52,0,0,0-.35.62l0,.1a.51.51,0,0,0,.84.22c.8-.65,1.2-2.21,1.63-3.12.69-1.46,1.43-2.9,2.07-4.38a15.72,15.72,0,0,0,1-7.63c0-.64-1-.64-1,0Z" transform="translate(-298.02 -15.63)"/><path d="M472,282.35c.29,2.52.49,5-.41,7.42a40.71,40.71,0,0,1-3.73,7c-.34.55.53,1.05.86.5a41.29,41.29,0,0,0,3.84-7.22,16.47,16.47,0,0,0,.44-7.68c-.07-.63-1.07-.64-1,0Z" transform="translate(-298.02 -15.63)"/><path d="M473.38,281.72a29.12,29.12,0,0,1-.3,9.27,21.32,21.32,0,0,1-3.56,7c-.37.53.5,1,.87.51a22.06,22.06,0,0,0,3.65-7.24c.8-3.11.57-6.36.34-9.53,0-.64-1-.64-1,0Z" transform="translate(-298.02 -15.63)"/><path d="M475.32,282.92c1.21,6.33-1.58,12.13-4.89,17.35-.34.54.52,1,.86.5,3.48-5.48,6.26-11.49,5-18.12-.12-.63-1.09-.36-1,.27Z" transform="translate(-298.02 -15.63)"/><path d="M477.24,284.52a11,11,0,0,1,.81,4.85,17,17,0,0,1-1.82,5.17,30.54,30.54,0,0,1-4.53,7.56c-.42.48.29,1.19.71.71a35.26,35.26,0,0,0,5.39-9.35,11.3,11.3,0,0,0,.4-9.21c-.2-.61-1.17-.35-1,.27Z" transform="translate(-298.02 -15.63)"/><path d="M479.49,286.56A25.88,25.88,0,0,1,472.54,305c-.44.47.27,1.18.7.71a26.9,26.9,0,0,0,7.25-19.15c0-.64-1-.64-1,0Z" transform="translate(-298.02 -15.63)"/><path d="M480.2,293.15c.37,4.91-3.07,9.66-6.52,12.85-.47.44.24,1.15.71.71,3.66-3.39,7.21-8.35,6.81-13.56-.05-.64-1.05-.65-1,0Z" transform="translate(-298.02 -15.63)"/><path d="M480,300.21c-.4,2.09-2.13,4-3.37,5.7s-2.81,3.58-4.33,5.27c-.43.48.28,1.19.71.71,1.57-1.76,3.07-3.58,4.48-5.48s3.05-3.73,3.48-5.93c.12-.63-.84-.9-1-.27Z" transform="translate(-298.02 -15.63)"/><path d="M442.42,282.41a35.81,35.81,0,0,1-1.25-17c.13-.63-.83-.9-1-.27a36.67,36.67,0,0,0,1.25,17.55c.19.61,1.16.35,1-.27Z" transform="translate(-298.02 -15.63)"/><path d="M441.45,283.44a23,23,0,0,1-1.78-17.59.5.5,0,0,0-1-.27A24,24,0,0,0,440.59,284c.3.56,1.17.06.86-.51Z" transform="translate(-298.02 -15.63)"/><path d="M440.41,284.43A23.77,23.77,0,0,1,437,274.07a21.29,21.29,0,0,1,.18-5.29c.27-1.58,1.08-2.94,1.44-4.49.15-.63-.81-.9-1-.27-.43,1.84-1.32,3.4-1.56,5.33a23.42,23.42,0,0,0,0,5.55,24.83,24.83,0,0,0,3.48,10,.5.5,0,0,0,.86-.51Z" transform="translate(-298.02 -15.63)"/><path d="M438.84,285.33c-.72-1.54-1.79-2.86-2.53-4.39a17.58,17.58,0,0,1-1.63-6.28A27.63,27.63,0,0,1,436.2,264c.2-.61-.77-.87-1-.27a27.72,27.72,0,0,0-1.47,11.77,18.58,18.58,0,0,0,1.3,5.14c.79,1.86,2.06,3.42,2.91,5.24.27.58,1.14.07.87-.51Z" transform="translate(-298.02 -15.63)"/><path d="M437.35,285.78c-6.35-5.17-6-15.52-3-22.36.26-.58-.6-1.09-.86-.51-3.19,7.22-3.57,18.11,3.14,23.57.5.41,1.21-.3.71-.7Z" transform="translate(-298.02 -15.63)"/><path d="M435.38,287.19c-6.36-4.09-5.8-12.24-5.1-18.82.07-.64-.93-.64-1,0-.75,7-1.11,15.38,5.59,19.69.55.35,1.05-.52.51-.87Z" transform="translate(-298.02 -15.63)"/><path d="M432.76,287c-4.12-4.6-5.11-10.61-4.95-16.59a.5.5,0,0,0-1,0c-.17,6.26.94,12.5,5.24,17.29.43.48,1.14-.22.71-.7Z" transform="translate(-298.02 -15.63)"/><path d="M426.44,270.5a19.84,19.84,0,0,0,2.92,17.82c.38.52,1.25,0,.87-.5a18.86,18.86,0,0,1-2.82-17.06c.19-.61-.77-.88-1-.26Z" transform="translate(-298.02 -15.63)"/><path d="M425.28,270.82c-1.76,6.42-3,13.46,1,19.31.36.53,1.23,0,.87-.5-3.84-5.64-2.6-12.38-.92-18.54a.5.5,0,0,0-1-.27Z" transform="translate(-298.02 -15.63)"/><path d="M422.86,272.71c0,3.37-1.56,6.42-1.35,9.88a18.6,18.6,0,0,0,2.54,8.28.5.5,0,0,0,.87-.5,17.49,17.49,0,0,1-2.43-9.39c.09-2.84,1.39-5.44,1.37-8.27a.5.5,0,0,0-1,0Z" transform="translate(-298.02 -15.63)"/><path d="M420.93,274.07c-.79,5.8-1.43,11.7,1.35,17.08.3.57,1.16.07.86-.51-2.64-5.12-2-10.8-1.25-16.3.09-.63-.88-.9-1-.27Z" transform="translate(-298.02 -15.63)"/><path d="M418.54,274.33a25.76,25.76,0,0,0,2.65,17.88c.31.56,1.17.06.86-.5a24.76,24.76,0,0,1-2.55-17.12c.14-.63-.83-.89-1-.26Z" transform="translate(-298.02 -15.63)"/><path d="M416.54,275.5c-.42,6.43-.11,12.11,4,17.31.4.5,1.11-.21.71-.71-4-5-4.16-10.52-3.76-16.6,0-.64-1-.64-1,0Z" transform="translate(-298.02 -15.63)"/><path d="M415.72,275.5c-1.4,3.05-.88,6.19-.22,9.38s1.54,6.41,3.87,8.91c.44.47,1.15-.24.71-.71-2-2.16-2.84-4.88-3.45-7.71-.67-3.09-1.42-6.36-.05-9.37.27-.58-.6-1.09-.86-.5Z" transform="translate(-298.02 -15.63)"/><path d="M413.24,277a25.1,25.1,0,0,0,.87,9.9c.74,2.74,1.47,6.15,3.29,8.4.4.5,1.1-.21.7-.71-1.78-2.22-2.58-6.09-3.25-8.84a23.27,23.27,0,0,1-.61-8.75c.08-.63-.92-.63-1,0Z" transform="translate(-298.02 -15.63)"/><path d="M411.22,280.12c-.34,5.75,2.49,10.64,5.44,15.35.34.55,1.2,0,.86-.5-2.85-4.57-5.63-9.27-5.3-14.85,0-.64-1-.64-1,0Z" transform="translate(-298.02 -15.63)"/><path d="M410.16,280.43a22.54,22.54,0,0,0,6.33,15.94c.44.46,1.15-.24.7-.71a21.53,21.53,0,0,1-6-15.23.5.5,0,0,0-1,0Z" transform="translate(-298.02 -15.63)"/><path d="M409.18,281.45c-1.19,6.75,2.89,11.86,7.2,16.57.43.47,1.14-.24.7-.71-4-4.39-8.06-9.23-6.94-15.6.11-.63-.85-.9-1-.26Z" transform="translate(-298.02 -15.63)"/><path d="M407.82,284c-.21,3.17,1,6.11,2.25,9,1.15,2.62,2.59,4.92,5.24,6.2.57.27,1.08-.59.5-.87-2.83-1.37-4.12-4-5.26-6.77-1-2.43-1.9-4.85-1.73-7.53,0-.64-1-.64-1,0Z" transform="translate(-298.02 -15.63)"/><path d="M407,288.09c-.34,5.05,2.41,11.68,7.73,13.17a.5.5,0,0,0,.27-1c-4.91-1.38-7.31-7.6-7-12.21,0-.64-1-.64-1,0Z" transform="translate(-298.02 -15.63)"/><path d="M405.67,293.48a10.22,10.22,0,0,0,2.51,5.84c1.34,1.73,3.53,2.09,4.9,3.72.41.49,1.12-.22.71-.71-1-1.22-2.53-1.6-3.77-2.54a9.37,9.37,0,0,1-3.35-6.31.5.5,0,0,0-1,0Z" transform="translate(-298.02 -15.63)"/><path d="M405.07,295.49c.93,2.42,1.65,5,3.21,7.13,1,1.34,2.08,3.36,3.87,3.59.64.08.63-.92,0-1-1.44-.18-3.25-3.26-3.86-4.37a43.2,43.2,0,0,1-2.25-5.61c-.23-.6-1.2-.34-1,.26Z" transform="translate(-298.02 -15.63)"/><path d="M404.47,296.75c-.54,4.39,3.15,8.95,6.8,11a.5.5,0,0,0,.5-.86c-3.31-1.89-6.79-6.19-6.3-10.17.08-.64-.92-.63-1,0Z" transform="translate(-298.02 -15.63)"/><path d="M402.89,298.16c-.57,5.12,3.79,9.47,8.18,11.27.59.25.85-.72.26-1-4-1.65-8-5.66-7.44-10.31.07-.64-.93-.63-1,0Z" transform="translate(-298.02 -15.63)"/><path d="M401.73,300.31c0,3.23,1.29,6.31,2.56,9.23a16.66,16.66,0,0,0,4.56,6.5c.49.41,1.2-.29.71-.7a16.68,16.68,0,0,1-4.61-6.79c-1.09-2.63-2.24-5.36-2.22-8.24a.5.5,0,0,0-1,0Z" transform="translate(-298.02 -15.63)"/><path d="M400.24,301.82c-.26,3.37,1.46,6.63,2.84,9.62a23.09,23.09,0,0,0,5.79,8.15c.49.41,1.2-.29.71-.71a21.67,21.67,0,0,1-5.31-7.25c-1.43-2.95-3.29-6.44-3-9.81.05-.64-.95-.64-1,0Z" transform="translate(-298.02 -15.63)"/><path d="M398.91,304.39c-.19,3.49,1.43,7.23,3,10.29A17.15,17.15,0,0,0,409,322c.57.31,1.07-.55.51-.86a16.34,16.34,0,0,1-6.78-6.92c-1.46-2.87-3-6.51-2.85-9.79,0-.64-1-.64-1,0Z" transform="translate(-298.02 -15.63)"/><path d="M398.1,308.56c.08,3.73,2,6.95,3.93,10a18.46,18.46,0,0,0,8,7.55c.58.28,1.09-.59.51-.86a17.68,17.68,0,0,1-7.64-7.19c-1.81-2.93-3.73-6-3.8-9.54a.5.5,0,0,0-1,0Z" transform="translate(-298.02 -15.63)"/><path d="M397.26,312.47c-.32,3,1.6,5.48,3.38,7.78a50.5,50.5,0,0,0,6.42,6.74c.48.42,1.19-.28.71-.71a50.32,50.32,0,0,1-5.29-5.34c-2-2.34-4.56-5.23-4.22-8.47.06-.64-.94-.64-1,0Z" transform="translate(-298.02 -15.63)"/><path d="M396.87,317.58a24,24,0,0,0,3.7,5.42,17.63,17.63,0,0,0,5,4.65.5.5,0,0,0,.5-.86,16.26,16.26,0,0,1-4.42-4c-1.33-1.65-3-3.49-3.83-5.46-.23-.59-1.2-.34-1,.26Z" transform="translate(-298.02 -15.63)"/><path d="M396.24,319.6a17.32,17.32,0,0,0,7.11,8.58.5.5,0,0,0,.51-.86,16.27,16.27,0,0,1-6.65-8c-.23-.6-1.19-.34-1,.26Z" transform="translate(-298.02 -15.63)"/><path d="M395.22,321.83a10.72,10.72,0,0,0,4.54,6.42c.54.36,1-.5.51-.86a9.69,9.69,0,0,1-4.09-5.82c-.15-.63-1.12-.36-1,.26Z" transform="translate(-298.02 -15.63)"/><path d="M401.82,299.33c.14,4.94,4.18,9.58,7.81,12.56.5.41,1.21-.3.71-.71C407,308.4,403,304,402.82,299.33c0-.64-1-.64-1,0Z" transform="translate(-298.02 -15.63)"/><path d="M363.44,236.86c0-1.26-.24-2.34,1-3a.5.5,0,0,0-.12-.91c-1.42-.5-.68-5.39-.3-6.36a22.67,22.67,0,0,0,1.42-3.87c.65-3.18-.75-6.47.4-9.45a31.58,31.58,0,0,0,1.8-9.83c.09-1.69-.34-12.14,1.26-12.42a.5.5,0,0,0,.35-.62c-1-2.49.8-4.71,2.41-6.47.43-.47-.28-1.18-.71-.71-1.89,2.07-3.79,4.56-2.67,7.45l.35-.62c-1.09.2-1.36,1-1.5,2a68.93,68.93,0,0,0-.31,7.19c-.1,2.44-.14,4.9-.42,7.32-.31,2.8-1.41,5.07-2,7.73-.44,1.82.36,3.6.38,5.43,0,2.83-1.2,4.67-2,7.25a5.14,5.14,0,0,0-.15,1.51,22.38,22.38,0,0,0-.14,3.38,2.21,2.21,0,0,0,1.62,2l-.12-.91-1.23.66a.51.51,0,0,0-.24.43l0,2.78a.5.5,0,0,0,1,0Z" transform="translate(-298.02 -15.63)"/><path d="M483.77,186a7.76,7.76,0,0,0-3.82-3.17c-.6-.24-.85.73-.26,1a6.7,6.7,0,0,1,3.21,2.71c.34.55,1.21.05.87-.5Z" transform="translate(-298.02 -15.63)"/><path d="M486,190.7c-1.53-1.47-3.06-2.95-4.61-4.41a9.81,9.81,0,0,0-3.73-2.43c-.62-.19-.88.78-.27,1a11.09,11.09,0,0,1,4.14,3l3.76,3.6c.47.45,1.18-.26.71-.71Z" transform="translate(-298.02 -15.63)"/><path d="M475,185.2c2.35.12,5.19,3.4,6.77,5a41.33,41.33,0,0,1,5,6c.37.53,1.24,0,.87-.5a42.83,42.83,0,0,0-6.36-7.34c-1.63-1.48-4-4-6.27-4.1-.64,0-.64,1,0,1Z" transform="translate(-298.02 -15.63)"/><path d="M473.55,185.63a33.74,33.74,0,0,1,13.09,13.73c.29.58,1.16.07.86-.5a34.61,34.61,0,0,0-13.44-14.09.5.5,0,0,0-.51.86Z" transform="translate(-298.02 -15.63)"/><path d="M473.2,187.66a50.92,50.92,0,0,1,7.91,6.82c2.51,2.51,4.75,5.2,5.86,8.62.2.61,1.16.35,1-.26a22,22,0,0,0-5.55-8.49,52.85,52.85,0,0,0-8.68-7.55c-.54-.35-1,.51-.51.86Z" transform="translate(-298.02 -15.63)"/><path d="M474.62,190.94c2.95,1.5,5.52,5.16,7.46,7.74a54,54,0,0,1,5.29,8.7c.29.58,1.15.07.87-.51a54.46,54.46,0,0,0-5.89-9.47c-1.94-2.5-4.34-5.86-7.22-7.32-.58-.29-1.08.57-.51.86Z" transform="translate(-298.02 -15.63)"/><path d="M476.25,195.74a34.15,34.15,0,0,1,10.62,16c.19.61,1.15.35,1-.26A35,35,0,0,0,477,195c-.49-.42-1.2.29-.71.7Z" transform="translate(-298.02 -15.63)"/><path d="M478.08,200A111.48,111.48,0,0,1,487,217.29c.24.59,1.21.33,1-.26a112.86,112.86,0,0,0-9-17.5c-.34-.54-1.2,0-.86.51Z" transform="translate(-298.02 -15.63)"/><path d="M477.7,203.87a68.46,68.46,0,0,1,8.49,15.84c.22.6,1.19.34,1-.27a68.91,68.91,0,0,0-8.59-16.08c-.37-.52-1.24,0-.86.51Z" transform="translate(-298.02 -15.63)"/><path d="M477.49,207.26c.81,2.58,2.82,4.56,4.29,6.78a51.94,51.94,0,0,1,4.67,8.85c.24.58,1.21.33,1-.27a53.33,53.33,0,0,0-3.86-7.66c-1.6-2.61-4.17-5-5.1-8-.19-.61-1.16-.35-1,.27Z" transform="translate(-298.02 -15.63)"/><path d="M478,211.49a29.11,29.11,0,0,1,7.82,11.72c.21.61,1.18.35,1-.26a29.94,29.94,0,0,0-8.07-12.16c-.48-.44-1.19.27-.71.7Z" transform="translate(-298.02 -15.63)"/><path d="M477.64,214.59a24.14,24.14,0,0,1,8.53,9.93c.27.58,1.14.07.86-.51a25.11,25.11,0,0,0-8.88-10.28c-.54-.36-1,.51-.51.86Z" transform="translate(-298.02 -15.63)"/><path d="M478.11,217.36a23.16,23.16,0,0,1,6.93,9.91c.22.6,1.19.34,1-.26a24.16,24.16,0,0,0-7.19-10.36c-.49-.41-1.2.3-.71.71Z" transform="translate(-298.02 -15.63)"/><path d="M478.84,221.31a21.65,21.65,0,0,1,5.28,7.93c.23.59,1.2.33,1-.27a23,23,0,0,0-5.54-8.37c-.47-.45-1.18.26-.71.71Z" transform="translate(-298.02 -15.63)"/><path d="M480,226.81a11.63,11.63,0,0,1,3.35,4.85c.21.6,1.18.34,1-.26a12.63,12.63,0,0,0-3.6-5.3c-.49-.42-1.2.29-.71.71Z" transform="translate(-298.02 -15.63)"/><path d="M480.93,231.56a4.93,4.93,0,0,1,1.52,2.5.5.5,0,0,0,1-.27,6,6,0,0,0-1.78-2.94c-.48-.43-1.19.28-.71.71Z" transform="translate(-298.02 -15.63)"/><path d="M360.84,234.45a3.83,3.83,0,0,1,1.77-2.79c.54-.34,0-1.21-.5-.86a4.86,4.86,0,0,0-2.27,3.65c-.08.63.92.63,1,0Z" transform="translate(-298.02 -15.63)"/><path d="M359.18,232.65c.52-2.69,2.57-4.55,4.55-6.28.49-.42-.22-1.13-.7-.71-2.12,1.84-4.27,3.86-4.82,6.73-.12.63.85.9,1,.26Z" transform="translate(-298.02 -15.63)"/><path d="M357.22,230.56c1-3.8,4.09-6.35,7-8.72.5-.4-.21-1.1-.71-.7-3.1,2.48-6.22,5.17-7.3,9.15a.5.5,0,0,0,1,.27Z" transform="translate(-298.02 -15.63)"/><path d="M363.71,217.26a25.82,25.82,0,0,0-9.14,12.44c-.21.61.75.88,1,.27a24.79,24.79,0,0,1,8.68-11.85c.52-.38,0-1.25-.5-.86Z" transform="translate(-298.02 -15.63)"/><path d="M364.09,214a30.26,30.26,0,0,0-6.49,6.19,71.53,71.53,0,0,0-4.67,8.67c-.3.57.57,1.08.86.51a84.08,84.08,0,0,1,4.21-8,28.24,28.24,0,0,1,6.8-6.69c.51-.39-.2-1.1-.71-.71Z" transform="translate(-298.02 -15.63)"/><path d="M365.12,209.58c-3.22,2.09-5.67,5.53-8,8.51a43.84,43.84,0,0,0-6.29,10.16c-.25.59.61,1.1.86.51a43.21,43.21,0,0,1,6.13-10c2.3-2.9,4.71-6.32,7.83-8.36.54-.35,0-1.22-.5-.86Z" transform="translate(-298.02 -15.63)"/><path d="M351.08,224.08c2.37-3.73,4.53-7.79,7.32-11.22a15.75,15.75,0,0,1,4.87-4c.94-.49,2.32-.58,2.88-1.53a.53.53,0,0,0-.18-.69l-.21-.13a.5.5,0,0,0-.68.18l-.11.14c-.38.52.48,1,.86.51l.11-.15-.68.18.2.14-.17-.69c-.24.41-2.13,1-2.52,1.18a14.47,14.47,0,0,0-2.08,1.3,17.42,17.42,0,0,0-3.52,3.55c-2.57,3.38-4.68,7.17-6.95,10.75-.34.54.52,1,.86.5Z" transform="translate(-298.02 -15.63)"/><path d="M350.11,220.66c1.65-3.38,4.39-6.45,6.95-9.19a25.44,25.44,0,0,1,9.73-6.89c.6-.22.34-1.18-.27-1a25.68,25.68,0,0,0-9.63,6.58c-2.81,2.91-5.86,6.3-7.64,10-.28.58.58,1.09.86.51Z" transform="translate(-298.02 -15.63)"/><path d="M349.67,217.32a47.74,47.74,0,0,1,7.28-9,26.15,26.15,0,0,1,9.53-6.61c.59-.22.33-1.19-.27-1a26.67,26.67,0,0,0-9.42,6.31,48,48,0,0,0-8,9.78.5.5,0,0,0,.86.5Z" transform="translate(-298.02 -15.63)"/><path d="M366.54,196.4c-6.55,5.26-14.67,10-17.69,18.3-.23.6.74.86,1,.26,2.93-8,11.08-12.75,17.44-17.85.5-.41-.21-1.11-.71-.71Z" transform="translate(-298.02 -15.63)"/><path d="M366.81,193c-1.9.6-2.73,2.45-4.18,3.69-1.89,1.63-4.15,2.78-6.09,4.34a27.46,27.46,0,0,0-8,10.88c-.25.59.72.85,1,.26a26.37,26.37,0,0,1,7.77-10.43c1.61-1.29,3.43-2.28,5.07-3.53s2.93-3.67,4.75-4.25c.61-.19.35-1.16-.26-1Z" transform="translate(-298.02 -15.63)"/><path d="M367.82,189.77c-7.25,5.09-15.87,9.65-18.69,18.68-.19.61.78.88,1,.26,2.73-8.74,11.21-13.15,18.22-18.07.53-.37,0-1.24-.5-.87Z" transform="translate(-298.02 -15.63)"/><path d="M348.66,205.92c4.37-7.1,11.2-14.83,19.56-17a.5.5,0,0,0-.26-1c-8.63,2.26-15.65,10.16-20.16,17.48a.5.5,0,0,0,.86.51Z" transform="translate(-298.02 -15.63)"/><path d="M348.92,200.91c3-3,5.95-6.59,9.49-9a66.6,66.6,0,0,1,10.84-5.69c.59-.25.08-1.11-.51-.86a58.67,58.67,0,0,0-11.53,6.18c-3.3,2.45-6.09,5.77-9,8.67a.5.5,0,0,0,.7.7Z" transform="translate(-298.02 -15.63)"/><path d="M370.57,183.27a33.4,33.4,0,0,0-22.27,13.57c-.37.52.49,1,.87.5a32.43,32.43,0,0,1,21.67-13.11c.64-.09.37-1.06-.27-1Z" transform="translate(-298.02 -15.63)"/><path d="M348.64,195.11a36.6,36.6,0,0,1,7.88-7.44c2.8-1.93,6.92-4.66,10.41-4.47.65,0,.65-1,0-1-3.5-.19-7.45,2.32-10.26,4.17a37.26,37.26,0,0,0-8.73,8c-.4.5.3,1.21.7.71Z" transform="translate(-298.02 -15.63)"/><path d="M348.62,191.12c4.15-3.42,9.13-8,14.54-9.15.63-.13.36-1.1-.26-1-5.65,1.17-10.65,5.84-15,9.41-.5.41.21,1.12.7.71Z" transform="translate(-298.02 -15.63)"/><path d="M349.68,186.46a58.57,58.57,0,0,1,9.66-5.17c.58-.24.32-1.21-.27-1a59.73,59.73,0,0,0-9.89,5.27c-.54.35,0,1.22.5.86Z" transform="translate(-298.02 -15.63)"/><path d="M350.09,183.94l2.85-1.93a6.31,6.31,0,0,1,3-1.46c.64-.05.65-1.05,0-1-2.36.16-4.51,2.25-6.38,3.53-.53.36,0,1.23.5.86Z" transform="translate(-298.02 -15.63)"/><path d="M351.47,180.87l2-1.14a.5.5,0,0,0-.5-.86L351,180a.5.5,0,0,0,.5.86Z" transform="translate(-298.02 -15.63)"/><path d="M358.38,316.85c-.43-3.8,2.2-6.93,2.91-10.54a24.72,24.72,0,0,0,0-8.32c-.93-6.69-3.41-13.59-.84-20.22.23-.6-.74-.86-1-.27-2.34,6.06-.58,12.39.49,18.52.61,3.53,1.06,7.2.21,10.74s-3.21,6.38-2.79,10.09c.07.63,1.07.64,1,0Z" transform="translate(-298.02 -15.63)"/><path d="M444.18,360.05c-.76-6,6.73-8.6,9.29-13.16a14.7,14.7,0,0,0,1.79-6.31c.23-3.45-.24-7.08,2.22-9.89.42-.49-.28-1.2-.71-.71-4.2,4.81-1.14,11.84-4.59,17.12-2.86,4.38-9.79,6.76-9,12.95.08.63,1.08.64,1,0Z" transform="translate(-298.02 -15.63)"/><path d="M437.29,361.2c-4.3-.36-7.72-3.39-11.28-5.53-3.3-2-6.73-3.73-10.21-5.39-6.71-3.19-13.6-6-20.2-9.41a90.54,90.54,0,0,1-9.56-5.61c-3.08-2.1-5.91-4.56-9.07-6.55-6.43-4-16.24-5.28-19.07-13.38-.21-.61-1.18-.35-1,.26,2.55,7.29,10.27,9.24,16.51,12.3,3.91,1.92,7.18,4.73,10.7,7.25a84.67,84.67,0,0,0,10.19,6.2c7.35,3.85,15.06,6.92,22.51,10.55a103.5,103.5,0,0,1,10.48,5.77c3.17,2,6.12,4.22,10,4.54.64.06.64-.94,0-1Z" transform="translate(-298.02 -15.63)"/><path d="M357.51,314.38c-6.64.64-7.95,8.45-5.62,13.54,1.75,3.8,4.81,7,7.57,10.06q4.55,5.11,9.43,9.9A205.87,205.87,0,0,0,412,380.19a.5.5,0,0,0,.73-.3A28.5,28.5,0,0,1,434,362.6c.63-.11.36-1.08-.27-1a29.46,29.46,0,0,0-22,18l.73-.29a205.21,205.21,0,0,1-37.9-27.45,202.44,202.44,0,0,1-16.09-16.53c-2.6-3-5.45-6.16-6.49-10.09s.84-9.43,5.53-9.88c.64-.07.64-1.07,0-1Z" transform="translate(-298.02 -15.63)"/><path d="M437,362.22c3.81-1.34,7.74-2.61,11.8-1.61a18.94,18.94,0,0,1,8.75,5.4c5,5.09,7.7,11.93,11.82,17.67a.51.51,0,0,0,.86,0c2.28-3.51,1.53-7.65.39-11.44-1.67-5.57-3.68-11-5.26-16.61-1.41-5-2.23-10.13-3.24-15.24-.89-4.51-2.21-8.89-5-12.6-.38-.5-1.25,0-.86.51,5.53,7.24,5.42,17.26,7.68,25.76,1.3,4.9,2.93,9.71,4.5,14.54,1.49,4.55,3.86,10.11,1,14.57h.86c-4.61-6.41-7.54-14.23-13.67-19.46a18.38,18.38,0,0,0-8.23-4.23c-4-.78-7.85.46-11.59,1.77-.61.21-.35,1.18.26,1Z" transform="translate(-298.02 -15.63)"/><path d="M423.74,158.57c-.5,3.06.46,5.89,1.27,8.83l2.85,10.36a.5.5,0,0,0,1-.27l-2.36-8.56c-.88-3.21-2.32-6.73-1.77-10.1.1-.63-.86-.9-1-.26Z" transform="translate(-298.02 -15.63)"/><path d="M420,158.88c-.35,3.29.81,6.23,1.92,9.28,1.17,3.21,2.17,6.48,3,9.8a.5.5,0,0,0,1-.27c-.79-3-1.68-6-2.73-9-1.15-3.23-2.56-6.34-2.19-9.85.07-.64-.93-.64-1,0Z" transform="translate(-298.02 -15.63)"/><path d="M427.86,159.07c.17,2.92,1.28,5.56,1.9,8.38a70.76,70.76,0,0,1,1.05,10.38c0,.64,1,.65,1,0-.2-3-.31-5.94-.76-8.87-.5-3.35-2-6.48-2.19-9.89,0-.64-1-.64-1,0Z" transform="translate(-298.02 -15.63)"/><path d="M431.94,158.83a106.72,106.72,0,0,1,1.72,18.8.5.5,0,0,0,1,0,107.89,107.89,0,0,0-1.76-19.07c-.11-.63-1.08-.36-1,.27Z" transform="translate(-298.02 -15.63)"/><path d="M434.21,158.23a64.88,64.88,0,0,1,2.37,19.6c0,.65,1,.65,1,0A65.71,65.71,0,0,0,435.17,158a.5.5,0,0,0-1,.27Z" transform="translate(-298.02 -15.63)"/><path d="M437,158.25c0,2.92,1.64,5.74,2.14,8.61a64.9,64.9,0,0,1,.64,11,.5.5,0,0,0,1,0,75.29,75.29,0,0,0-.46-9.85,31.18,31.18,0,0,0-.89-4.4c-.51-1.79-1.42-3.43-1.43-5.33a.5.5,0,0,0-1,0Z" transform="translate(-298.02 -15.63)"/><path d="M440.39,158.56c-.48,2.75,1.39,5.19,2.13,7.75a32.09,32.09,0,0,1,1,11.12c0,.64,1,.64,1,0a34.27,34.27,0,0,0-.44-8.7,25.88,25.88,0,0,0-1.2-4.43c-.67-1.77-1.9-3.5-1.56-5.48.11-.63-.85-.9-1-.26Z" transform="translate(-298.02 -15.63)"/><path d="M444.41,158.66c.09,2.91,1.13,5.75,1.56,8.62a58.65,58.65,0,0,1,.58,10.34c0,.64,1,.64,1,0a58.68,58.68,0,0,0-.42-9.18c-.41-3.25-1.61-6.52-1.72-9.78,0-.64-1-.64-1,0Z" transform="translate(-298.02 -15.63)"/><path d="M447.28,158.82c.37,1.44,1.05,2.76,1.46,4.18a17.5,17.5,0,0,1,.45,5q0,4.71,0,9.42a.5.5,0,0,0,1,0c0-3.45,0-6.91,0-10.36,0-3.15-1.17-5.52-1.95-8.51a.5.5,0,0,0-1,.27Z" transform="translate(-298.02 -15.63)"/><path d="M449.69,158.44a44.29,44.29,0,0,1,2.7,19.18c-.06.64.95.64,1,0a45.07,45.07,0,0,0-2.73-19.45c-.22-.6-1.19-.34-1,.27Z" transform="translate(-298.02 -15.63)"/><path d="M452.54,158.42c1.28,6.32,2.93,12.7,2.53,19.2,0,.64,1,.64,1,0,.41-6.59-1.27-13.06-2.57-19.47-.13-.63-1.09-.36-1,.27Z" transform="translate(-298.02 -15.63)"/><path d="M454.9,159a31.88,31.88,0,0,1,2.29,5.18,41.3,41.3,0,0,1,.86,4.65l1.47,9.61c.09.64,1.06.37,1-.26q-.8-5.26-1.6-10.51a31.94,31.94,0,0,0-3.12-9.18c-.27-.58-1.13-.07-.86.51Z" transform="translate(-298.02 -15.63)"/><path d="M459.05,158.66c.14,2.85,1.46,5.65,1.93,8.48a46.11,46.11,0,0,1,.48,10.69c0,.64,1,.64,1,0a47,47,0,0,0-.29-9.49c-.44-3.21-2-6.48-2.12-9.68,0-.64-1-.64-1,0Z" transform="translate(-298.02 -15.63)"/><path d="M462.41,159.29a36.62,36.62,0,0,1,2.46,9.61c.32,3,0,6,.31,8.95.07.63,1.07.64,1,0-.37-3.27,0-6.55-.42-9.82a37.91,37.91,0,0,0-2.38-9c-.24-.59-1.21-.33-1,.27Z" transform="translate(-298.02 -15.63)"/><path d="M465.18,159.83c3,5.48,2.4,12.16,2.41,18.21a.5.5,0,0,0,1,0c0-6.25.6-13-2.55-18.72-.31-.56-1.18,0-.86.51Z" transform="translate(-298.02 -15.63)"/><path d="M468.88,160.26A79.68,79.68,0,0,1,470.12,177c0,.64,1,.64,1,0a80.12,80.12,0,0,0-1.28-17c-.12-.63-1.08-.37-1,.26Z" transform="translate(-298.02 -15.63)"/><path d="M471.86,161.35a7.08,7.08,0,0,0,.42,2.77,15.28,15.28,0,0,1,.81,5c0,2.89,0,5.79,0,8.69a.5.5,0,0,0,1,0c0-2.9,0-5.8,0-8.69a14.94,14.94,0,0,0-.23-3.41c-.35-1.53-1.1-2.76-1-4.39,0-.64-1-.64-1,0Z" transform="translate(-298.02 -15.63)"/><path d="M474.47,161.55c.21,2.31,1.23,4.4,1.64,6.68a44.49,44.49,0,0,1,.45,8.16.5.5,0,0,0,1,0,52.12,52.12,0,0,0-.28-7.07c-.34-2.66-1.57-5.12-1.81-7.77-.06-.64-1.06-.64-1,0Z" transform="translate(-298.02 -15.63)"/><path d="M422.67,177.45a66.63,66.63,0,0,1-3.57-18.17c0-.64-1-.64-1,0a67.83,67.83,0,0,0,3.61,18.44c.2.6,1.17.34,1-.27Z" transform="translate(-298.02 -15.63)"/><path d="M419.27,177.63c0-2.72-1.73-5.35-2.24-8a56.37,56.37,0,0,1-.65-10.71.5.5,0,0,0-1,0,65.75,65.75,0,0,0,.41,9.2,30.09,30.09,0,0,0,.89,4.4c.49,1.66,1.57,3.41,1.59,5.16a.5.5,0,0,0,1,0Z" transform="translate(-298.02 -15.63)"/><path d="M416.13,178.44c.36-2.93-1.57-5.73-1.8-8.69-.25-3.34-.21-6.72-.3-10.07,0-.64-1-.64-1,0,.09,3.35.06,6.73.3,10.07a16.54,16.54,0,0,0,.59,3.57c.52,1.76,1.44,3.21,1.21,5.12-.08.64.92.63,1,0Z" transform="translate(-298.02 -15.63)"/><path d="M410.36,159.3a46.63,46.63,0,0,0,2.29,18.9c.2.6,1.17.34,1-.27a46,46,0,0,1-2.25-18.63c.05-.64-.95-.64-1,0Z" transform="translate(-298.02 -15.63)"/><path d="M406.8,159.5A73.5,73.5,0,0,0,410,178.79c.19.62,1.16.36,1-.26a72.36,72.36,0,0,1-3.19-19,.5.5,0,0,0-1,0Z" transform="translate(-298.02 -15.63)"/><path d="M402.78,160.93c-.16,6.2,3,12.2,5.2,17.85.22.6,1.19.34,1-.26-2.13-5.55-5.32-11.52-5.16-17.59,0-.64-1-.64-1,0Z" transform="translate(-298.02 -15.63)"/><path d="M408.87,178.54l-2.68.26c-.63.06-.64,1.06,0,1l2.68-.26c.63-.06.64-1.06,0-1Z" transform="translate(-298.02 -15.63)"/><path d="M405,179a33.55,33.55,0,0,1-4.09-16.61.5.5,0,0,0-1,0,34.68,34.68,0,0,0,4.23,17.12c.31.56,1.17.06.86-.51Z" transform="translate(-298.02 -15.63)"/><path d="M401,178.46c-.12-2.36-1.07-4.51-1.62-6.79a35.11,35.11,0,0,1-.92-8.61.5.5,0,0,0-1-.13l-.17.55a.5.5,0,0,0,1,.26l.16-.55-1-.13a37.1,37.1,0,0,0,.57,7.06c.52,2.79,1.82,5.5,2,8.34,0,.64,1,.64,1,0Z" transform="translate(-298.02 -15.63)"/><path d="M397.51,176.8l-1.37-14c-.06-.63-1.06-.64-1,0l1.37,14c.06.63,1.07.64,1,0Z" transform="translate(-298.02 -15.63)"/><path d="M393.64,176l.22-13.19a.5.5,0,0,0-1,0L392.64,176a.5.5,0,0,0,1,0Z" transform="translate(-298.02 -15.63)"/><path d="M389.82,175.36a79.8,79.8,0,0,1,.45-12.36c.07-.63-.93-.63-1,0a79.8,79.8,0,0,0-.45,12.36c0,.64,1,.65,1,0Z" transform="translate(-298.02 -15.63)"/><path d="M387.34,174.54a80.28,80.28,0,0,1,.31-10.52c.07-.64-.94-.64-1,0a80.28,80.28,0,0,0-.31,10.52c0,.64,1,.64,1,0Z" transform="translate(-298.02 -15.63)"/><path d="M385.46,174.13V163.61a.5.5,0,0,0-1,0v10.52a.5.5,0,0,0,1,0Z" transform="translate(-298.02 -15.63)"/><path d="M381.76,175.36l0-11a.5.5,0,0,0-.85-.35l-.4.46c-.42.49.29,1.2.71.71l.4-.46-.86-.36,0,11a.5.5,0,0,0,1,0Z" transform="translate(-298.02 -15.63)"/><path d="M378.25,174.13v-8.66a.5.5,0,0,0-1,0v8.66a.5.5,0,0,0,1,0Z" transform="translate(-298.02 -15.63)"/><path d="M375.17,166.09c.07,2.54.05,5.09-.06,7.63,0,.64,1,.64,1,0,.11-2.54.13-5.09.06-7.63,0-.64-1-.65-1,0Z" transform="translate(-298.02 -15.63)"/><path d="M372.36,167.53a36.53,36.53,0,0,1-.74,5c-.14.63.82.9,1,.27a38.93,38.93,0,0,0,.78-5.27c.05-.64-.95-.63-1,0Z" transform="translate(-298.02 -15.63)"/><text class="cls-1" transform="translate(0 402.76)">H.H. HOLMES</text><path d="M477.52,138.86c30.2-21.4,1-58,4.21-86.2,1.21-10.67,7.86-21.13,18.85-23.57.63-.14.36-1.1-.27-1-8.83,1.95-15.2,9.07-18,17.45-2.33,6.88-2.07,14.3-.94,21.38,2.5,15.8,10,31.3,9.11,47.53C489.89,124.32,485,132.35,477,138c-.52.37,0,1.24.5.86Z" transform="translate(-298.02 -15.63)"/><path d="M458.46,178.72q-5.64.75-11.31,1.18c-.64,0-.65,1,0,1q5.67-.42,11.31-1.18c.62-.08.63-1.08,0-1Z" transform="translate(-298.02 -15.63)"/><path d="M500.53,28.51c-8.16,6.06-11.76,16.3-10.43,26.25,1.49,11.27,8.35,20.86,15,29.73,7.27,9.71,15.06,19.71,17.65,31.84,2.75,12.9-.88,26.79-8.64,37.31s-19.32,16.67-31.63,20.14a.5.5,0,0,0,.27,1c10.06-2.83,19.74-7.4,27.25-14.83a49.83,49.83,0,0,0,14.44-30.45c1.17-12.23-3.14-23.35-9.77-33.42s-14.89-18.78-19.95-29.65c-5.8-12.41-5.51-28.21,6.35-37,.51-.38,0-1.25-.51-.86Z" transform="translate(-298.02 -15.63)"/><path d="M454.38,179.5c1.5-2.13,1.43-4.78,1.4-7.27a.5.5,0,0,0-1,0c0,2.32.13,4.77-1.26,6.76-.37.53.5,1,.86.51Z" transform="translate(-298.02 -15.63)"/><path d="M476,144.55a43.76,43.76,0,0,1,15.81,26.37c.1.64,1.07.37,1-.26a44.55,44.55,0,0,0-16.07-26.82c-.49-.4-1.2.3-.7.71Z" transform="translate(-298.02 -15.63)"/><path d="M471.6,141.41c.94.59,1.86,1.22,2.76,1.87.52.38,1-.48.5-.86-.89-.65-1.81-1.28-2.75-1.88-.55-.34-1.05.52-.51.87Z" transform="translate(-298.02 -15.63)"/><path d="M477.46,137.87c12.05,4.37,22.48,13,27.69,24.91.26.58,1.12.08.87-.51-5.32-12.09-16-20.91-28.29-25.36-.61-.22-.87.75-.27,1Z" transform="translate(-298.02 -15.63)"/><path d="M483.91,131.51c11.95,4.17,22.56,12,29.16,22.88.34.55,1.2.05.87-.5-6.75-11.13-17.56-19.09-29.76-23.34-.61-.22-.87.75-.27,1Z" transform="translate(-298.02 -15.63)"/><path d="M488.82,123.39a54.14,54.14,0,0,1,18.41,6.84,40.14,40.14,0,0,1,12.9,12c.36.53,1.22,0,.86-.5a41.22,41.22,0,0,0-12.57-12,54.6,54.6,0,0,0-19.33-7.36c-.63-.09-.9.87-.27,1Z" transform="translate(-298.02 -15.63)"/><path d="M490.61,115.11a67.55,67.55,0,0,1,18,5.45,60.27,60.27,0,0,1,7.37,4.09c2.72,1.76,5.67,3.66,7.13,6.66.28.58,1.15.07.86-.5-2.49-5.12-9.23-8.39-14.09-10.75a67.9,67.9,0,0,0-19-5.91c-.63-.1-.9.86-.26,1Z" transform="translate(-298.02 -15.63)"/><path d="M490.82,107.19a79.49,79.49,0,0,1,17.24,3.58c5.68,1.69,11.11,3.38,15.43,7.66a.5.5,0,0,0,.71-.71c-4.21-4.17-9.43-6-15-7.64-6-1.81-12.09-3.47-18.39-3.89-.65,0-.64,1,0,1Z" transform="translate(-298.02 -15.63)"/><path d="M519.79,104.19c-9.11-4.41-19.36-3.77-29.17-3.06-.63.05-.64,1.05,0,1,9.61-.69,19.74-1.4,28.66,2.92.58.28,1.09-.58.51-.86Z" transform="translate(-298.02 -15.63)"/><path d="M512.37,93.54c-7.92-.89-15.86-1.67-23.77-.26-.63.11-.36,1.08.27,1,7.81-1.4,15.68-.59,23.5.29.64.08.63-.92,0-1Z" transform="translate(-298.02 -15.63)"/><path d="M506,83.57c-6.45.06-13.7-.75-19.69,2.12-.58.28-.07,1.14.51.86,5.77-2.76,13-1.92,19.18-2a.5.5,0,0,0,0-1Z" transform="translate(-298.02 -15.63)"/><path d="M501,76.52c-5.63-.22-11.23.29-16.37,2.75-.58.27-.08,1.14.5.86,5-2.37,10.43-2.82,15.87-2.61.64,0,.64-1,0-1Z" transform="translate(-298.02 -15.63)"/><path d="M497.1,70.3a19.72,19.72,0,0,0-10.17.45c-.62.19-.35,1.16.26,1a18.6,18.6,0,0,1,9.65-.44c.63.13.89-.83.26-1Z" transform="translate(-298.02 -15.63)"/><path d="M493.32,63.36a18.37,18.37,0,0,0-7.42.25c-.63.15-.36,1.11.26,1a17.39,17.39,0,0,1,6.89-.25c.63.11.9-.86.27-1Z" transform="translate(-298.02 -15.63)"/><path d="M491.41,57.44a15.58,15.58,0,0,0-6.27-.06c-.63.12-.36,1.09.27,1a14.18,14.18,0,0,1,5.73,0c.63.14.9-.83.27-1Z" transform="translate(-298.02 -15.63)"/><path d="M490.76,52.05a28.2,28.2,0,0,0-7.11.11c-.63.08-.36,1.05.27,1a27.47,27.47,0,0,1,6.84-.07c.64.07.63-.93,0-1Z" transform="translate(-298.02 -15.63)"/><path d="M491.3,47.78a9.37,9.37,0,0,0-6.5-2.05c-.64,0-.64,1,0,1a8.28,8.28,0,0,1,5.79,1.76c.5.4,1.21-.3.71-.71Z" transform="translate(-298.02 -15.63)"/><path d="M491.73,43.78c.43-2.19-2.09-2.9-3.74-3.17-.63-.1-.9.86-.26,1,1,.16,3.32.48,3,2-.13.63.83.9,1,.26Z" transform="translate(-298.02 -15.63)"/><path d="M457.52,179.62a48,48,0,0,0,0-5.23c-.05-.64-1.05-.64-1,0a48,48,0,0,1,0,5.23c0,.64,1,.64,1,0Z" transform="translate(-298.02 -15.63)"/><path d="M455.81,179.92a39.93,39.93,0,0,0,.75-5.87c0-.65-1-.64-1,0a37.63,37.63,0,0,1-.72,5.6c-.12.63.84.9,1,.27Z" transform="translate(-298.02 -15.63)"/><path d="M451.85,179.57a88.93,88.93,0,0,0,1.8-10.5c.05-.64-.95-.64-1,0a88.55,88.55,0,0,1-1.77,10.23c-.12.63.84.9,1,.27Z" transform="translate(-298.02 -15.63)"/><path d="M477.1,175.94c1-2.83,1.92-6.14.94-9.09-.2-.6-1.17-.34-1,.27.92,2.76,0,5.9-.94,8.56-.21.61.75.87,1,.26Z" transform="translate(-298.02 -15.63)"/><path d="M478.45,175.47l-.27-4.64c0-.64-1-.64-1,0l.27,4.64c0,.64,1,.65,1,0Z" transform="translate(-298.02 -15.63)"/><path d="M484,173.59a42.31,42.31,0,0,0-1.31-7,.5.5,0,0,0-1,.27,40.13,40.13,0,0,1,1.28,6.71c.07.63,1.07.64,1,0Z" transform="translate(-298.02 -15.63)"/><path d="M481.69,174.42a32.11,32.11,0,0,0-3.07-17.86c-.28-.58-1.14-.08-.86.5a31.33,31.33,0,0,1,2.93,17.36c-.08.64.92.64,1,0Z" transform="translate(-298.02 -15.63)"/><path d="M482.85,174.09c-.3-2.66-.25-5.76-1.25-8.26-.23-.59-1.2-.34-1,.26,1,2.43.92,5.41,1.21,8,.07.63,1.07.63,1,0Z" transform="translate(-298.02 -15.63)"/><path d="M486.81,172.58a31.17,31.17,0,0,0-2.57-12.66c-.25-.59-1.12-.08-.87.5a30.07,30.07,0,0,1,2.44,12.16.5.5,0,0,0,1,0Z" transform="translate(-298.02 -15.63)"/><path d="M490,171.67a36.85,36.85,0,0,0-5.56-11.34c-.37-.52-1.24,0-.86.51a36.25,36.25,0,0,1,5.46,11.1.5.5,0,0,0,1-.27Z" transform="translate(-298.02 -15.63)"/><path d="M487.58,172.25c.32-3.45-.79-6.3-1.92-9.51-.21-.6-1.18-.34-1,.27,1.09,3.11,2.19,5.88,1.88,9.24-.06.64.94.64,1,0Z" transform="translate(-298.02 -15.63)"/><path d="M489,172.16a66.8,66.8,0,0,0-2-6.93c-.2-.6-1.17-.34-1,.27a71.94,71.94,0,0,1,2,6.92c.14.63,1.11.37,1-.26Z" transform="translate(-298.02 -15.63)"/><path d="M495.68,169.36A36.36,36.36,0,0,0,483,150.25c-.5-.4-1.21.31-.71.71a35.56,35.56,0,0,1,12.42,18.67.5.5,0,0,0,1-.27Z" transform="translate(-298.02 -15.63)"/><path d="M494.08,170.34c-.91-5.81-3.76-10.89-7.08-15.65-.37-.53-1.23,0-.86.5,3.27,4.7,6.08,9.69,7,15.42.1.63,1.07.36,1-.27Z" transform="translate(-298.02 -15.63)"/><path d="M497.34,168a25.33,25.33,0,0,0-.72-7c-.71-2.41-1.79-4.74-2.7-7.08-.23-.59-1.2-.34-1,.27.84,2.13,1.77,4.25,2.5,6.43a23.5,23.5,0,0,1,.89,7.38.5.5,0,0,0,1,0Z" transform="translate(-298.02 -15.63)"/><path d="M500.84,166.53c0-2.3-1.45-4.59-2.56-6.54a41.36,41.36,0,0,0-4.51-6.31c-.42-.49-1.13.22-.71.71,2.54,3,6.69,8,6.78,12.14a.5.5,0,0,0,1,0Z" transform="translate(-298.02 -15.63)"/><path d="M498.31,168.23a29,29,0,0,0-.44-6c-.48-2.16-1.88-3.94-2.32-6.09-.13-.63-1.09-.36-1,.27.39,1.89,1.58,3.42,2.11,5.27a24.22,24.22,0,0,1,.61,6.58.5.5,0,0,0,1,0Z" transform="translate(-298.02 -15.63)"/><path d="M499.72,167.87a21.87,21.87,0,0,0-3.17-9.5c-.34-.55-1.21-.05-.87.5a20.65,20.65,0,0,1,3,9c.06.63,1.06.64,1,0Z" transform="translate(-298.02 -15.63)"/><path d="M502.47,165.93c1.26-2.72.69-5.34-.45-8a55.42,55.42,0,0,0-5.86-10.15c-.37-.53-1.23,0-.86.5a62.1,62.1,0,0,1,4.51,7.35c1.54,3,3.34,6.49,1.8,9.83-.27.58.6,1.09.86.5Z" transform="translate(-298.02 -15.63)"/><path d="M504.5,164.74c.36-4-1.65-7.36-3.21-10.9-.26-.59-1.12-.08-.87.5,1.48,3.37,3.42,6.62,3.08,10.4-.06.64.94.63,1,0Z" transform="translate(-298.02 -15.63)"/><path d="M508.59,160.44a7.66,7.66,0,0,0-2-5.31c-1.85-2.4-4-4.63-5.95-6.92-.42-.48-1.13.23-.71.71l4.3,5c1.65,1.91,3.53,3.86,3.36,6.57,0,.64,1,.64,1,0Z" transform="translate(-298.02 -15.63)"/><path d="M499.67,148.8c4,1.27,8.94,5.56,10.1,9.64a.5.5,0,0,0,1-.26,13,13,0,0,0-4.25-6.08,18.64,18.64,0,0,0-6.55-4.26c-.61-.2-.88.77-.27,1Z" transform="translate(-298.02 -15.63)"/><path d="M509.6,159.8c-.47-4.27-4.21-8.12-7.3-10.8-.49-.42-1.2.28-.71.7,2.86,2.49,6.58,6.14,7,10.1.07.63,1.07.64,1,0Z" transform="translate(-298.02 -15.63)"/><path d="M511.64,157.54c-.55-6.95-6.22-13.66-11-18.34-.46-.45-1.17.26-.71.71,4.54,4.44,10.19,11,10.71,17.63.05.64,1.05.64,1,0Z" transform="translate(-298.02 -15.63)"/><path d="M512.86,156.5c-.05-2.32-1.8-4.27-3-6.16-.66-1-1.28-2.1-2-3.08s-2.24-2-2.49-3.18c-.14-.63-1.1-.36-1,.26.37,1.69,2.29,2.94,3.23,4.33,1.4,2.08,4.18,5.27,4.23,7.83a.5.5,0,0,0,1,0Z" transform="translate(-298.02 -15.63)"/><path d="M513.74,154.87c-1.91-4.79-5.33-10-9.84-12.63a.5.5,0,0,0-.5.87c4.23,2.51,7.57,7.48,9.37,12,.24.59,1.21.34,1-.26Z" transform="translate(-298.02 -15.63)"/><path d="M516.34,151.13a70.11,70.11,0,0,0-11-15.93c-.44-.48-1.14.23-.71.7a69.09,69.09,0,0,1,10.83,15.74c.29.57,1.15.07.87-.51Z" transform="translate(-298.02 -15.63)"/><path d="M504.83,135.88c2.63,1.23,4.63,3.36,6.62,5.42s4.8,4.5,5.75,7.29c.2.61,1.17.35,1-.26-.95-2.81-3.4-5-5.39-7.11-2.22-2.33-4.48-4.82-7.44-6.21-.57-.27-1.08.59-.5.87Z" transform="translate(-298.02 -15.63)"/><path d="M517.3,150A54,54,0,0,0,506,135.68c-.47-.43-1.18.28-.7.71a53.26,53.26,0,0,1,11.14,14.14c.3.56,1.17.06.86-.51Z" transform="translate(-298.02 -15.63)"/><path d="M517.7,148.81a35,35,0,0,1-3.35-4.57,9.26,9.26,0,0,0-2.46-3c-.52-.38-1,.49-.5.86,1.35,1,2,2.58,3,3.93a35.47,35.47,0,0,0,2.65,3.45c.43.48,1.13-.23.71-.71Z" transform="translate(-298.02 -15.63)"/><path d="M518.75,146.76c-.23-3.43-2.67-6.39-4.58-9.1a95.41,95.41,0,0,0-7.15-8.88c-.43-.47-1.13.23-.7.71a94.43,94.43,0,0,1,6.46,7.94c1.92,2.66,4.75,6,5,9.33,0,.64,1,.65,1,0Z" transform="translate(-298.02 -15.63)"/><path d="M519.65,145.11A56.3,56.3,0,0,0,511,131.79c-.42-.49-1.12.22-.7.7a55.35,55.35,0,0,1,8.45,13.13c.27.58,1.13.07.87-.51Z" transform="translate(-298.02 -15.63)"/><path d="M520.69,143.77a43,43,0,0,0-8.77-10.92c-.48-.43-1.19.27-.71.71a42.09,42.09,0,0,1,8.62,10.72.5.5,0,0,0,.86-.51Z" transform="translate(-298.02 -15.63)"/><path d="M522.61,139c-1.94-4.54-6.2-8.38-10.09-11.24-.52-.38-1,.49-.5.87,3.76,2.76,7.86,6.5,9.73,10.88.25.59,1.11.08.86-.51Z" transform="translate(-298.02 -15.63)"/><path d="M512,128.48c2.17.35,4.35,2.07,6,3.42a29.26,29.26,0,0,1,4.37,4.39c.41.5,1.11-.21.71-.71a29.78,29.78,0,0,0-5-4.89c-1.69-1.3-3.67-2.83-5.83-3.17-.63-.1-.9.86-.26,1Z" transform="translate(-298.02 -15.63)"/><path d="M523.3,135.39c-.64-2.84-3.44-5.57-5.22-7.83a28.61,28.61,0,0,0-7.21-6.76c-.54-.35-1,.52-.5.86a26.57,26.57,0,0,1,6.5,6c1.74,2.16,4.85,5.28,5.47,8,.14.63,1.11.36,1-.27Z" transform="translate(-298.02 -15.63)"/><path d="M513.43,123.44a26.25,26.25,0,0,1,9.51,10.48c.29.57,1.15.07.87-.51a27.34,27.34,0,0,0-9.88-10.83c-.54-.35-1,.51-.5.86Z" transform="translate(-298.02 -15.63)"/><path d="M522.82,137.14c-1.56-3.75-5.71-6.71-9-8.86-.54-.35-1,.52-.5.87a34.31,34.31,0,0,1,4.75,3.66,14.44,14.44,0,0,1,3.79,4.6c.25.59,1.22.33,1-.27Z" transform="translate(-298.02 -15.63)"/><path d="M524.91,126.51c-.76-2.5-3.23-4.15-5.22-5.66a50.23,50.23,0,0,0-9.27-5.48c-.58-.27-1.08.59-.5.86a50.37,50.37,0,0,1,7.18,4c2.27,1.53,6,3.77,6.85,6.55a.5.5,0,0,0,1-.27Z" transform="translate(-298.02 -15.63)"/><path d="M510.22,116.06c4.66.16,10.41,2.71,13.43,6.3.42.49,1.12-.22.71-.71-3.19-3.79-9.23-6.42-14.14-6.59-.64,0-.64,1,0,1Z" transform="translate(-298.02 -15.63)"/><path d="M524.46,123.39c-1.64-2-3.93-3.34-6-4.78a16.82,16.82,0,0,0-2.66-1.61c-1.31-.59-2.72-.73-3.95-1.52-.54-.35-1,.52-.5.86,1.86,1.2,4.09,1.45,6,2.7,2.23,1.48,4.74,3,6.45,5,.41.5,1.11-.21.71-.7Z" transform="translate(-298.02 -15.63)"/><path d="M523.89,119.38c-5.77-3.86-11.44-8-18.08-10.27-.61-.21-.87.76-.27,1,6.55,2.2,12.16,6.36,17.85,10.17.53.36,1-.51.5-.87Z" transform="translate(-298.02 -15.63)"/><path d="M511,111.73a53.36,53.36,0,0,1,12.41,7.51c.49.41,1.2-.29.71-.71a54.35,54.35,0,0,0-12.62-7.66c-.58-.27-1.08.59-.5.86Z" transform="translate(-298.02 -15.63)"/><path d="M524,116.94c-2.8-5-7.89-7.92-12.8-10.6-.57-.31-1.07.55-.51.86,4.76,2.6,9.73,5.34,12.44,10.24a.5.5,0,0,0,.87-.5Z" transform="translate(-298.02 -15.63)"/><path d="M510.76,107.3c3.54,1,8.91,1.6,10.9,5.08a.5.5,0,0,0,.86-.5c-2.2-3.85-7.63-4.46-11.5-5.54a.5.5,0,0,0-.26,1Z" transform="translate(-298.02 -15.63)"/><path d="M522.87,113.75c-2.26-3.69-6.25-5.47-10.16-6.89-.61-.22-.87.74-.27,1,3.66,1.33,7.45,3,9.56,6.43.34.55,1.2,0,.87-.5Z" transform="translate(-298.02 -15.63)"/><path d="M521.75,108.84c-2.23-2.92-6.48-4.44-9.89-5.46a82.5,82.5,0,0,0-13.33-2.44c-.64-.08-.64.92,0,1a92.84,92.84,0,0,1,11.47,2c3.58.93,8.54,2.36,10.88,5.45.39.51,1.26,0,.87-.51Z" transform="translate(-298.02 -15.63)"/><path d="M498.64,101.81A42,42,0,0,1,509.58,103c3.19.71,7,1.25,9.62,3.26.51.38,1-.48.51-.87-2.76-2.08-6.57-2.62-9.86-3.36a43.2,43.2,0,0,0-11.21-1.21c-.64,0-.65,1,0,1Z" transform="translate(-298.02 -15.63)"/><path d="M518.09,101.61c-2.84-2.44-7.18-3.33-10.77-3.87-.63-.09-.9.87-.27,1,3.39.5,7.66,1.32,10.33,3.61.49.42,1.2-.29.71-.71Z" transform="translate(-298.02 -15.63)"/><path d="M507,98.57c2.7.08,6.33-1.18,8.52,1,.46.45,1.17-.26.71-.71-2.47-2.43-6.17-1.17-9.23-1.26-.64,0-.64,1,0,1Z" transform="translate(-298.02 -15.63)"/><path d="M516.38,99.58c-2.92-1.21-5.41-2.33-8.65-2.28a.5.5,0,0,0,0,1c3.17,0,5.54,1.07,8.39,2.24.59.25.85-.72.26-1Z" transform="translate(-298.02 -15.63)"/><path d="M515.14,96.73c-4.81-4.22-12.85-3.66-18.82-4.2-.64-.06-.63.94,0,1,5.67.51,13.57-.08,18.11,3.91.48.42,1.19-.28.71-.71Z" transform="translate(-298.02 -15.63)"/><path d="M510.09,90.27c-3.8,2.23-8.84,1.82-13.09,2-.64,0-.65,1,0,1,4.46-.23,9.6.16,13.59-2.17a.5.5,0,0,0-.5-.87Z" transform="translate(-298.02 -15.63)"/><path d="M510.69,91.55a20.58,20.58,0,0,1-6.39.81.5.5,0,0,0,0,1,21.13,21.13,0,0,0,6.66-.85.5.5,0,0,0-.27-1Z" transform="translate(-298.02 -15.63)"/><path d="M509.72,89.92a21,21,0,0,0-6.76-3.8,28.78,28.78,0,0,0-8.33-2.32c-.64-.06-.63.94,0,1a26,26,0,0,1,7.28,2c2.52,1,5.09,2,7.1,3.86.47.44,1.18-.26.71-.7Z" transform="translate(-298.02 -15.63)"/><path d="M496.35,84.8a15.68,15.68,0,0,1,11.29,3.89c.48.43,1.19-.28.71-.71a16.77,16.77,0,0,0-12-4.18c-.64,0-.64,1,0,1Z" transform="translate(-298.02 -15.63)"/><path d="M503.08,84.68a4.17,4.17,0,0,1,2.56,1.24c.44.46,1.15-.25.7-.71a5.25,5.25,0,0,0-3.26-1.53c-.64-.07-.64.93,0,1Z" transform="translate(-298.02 -15.63)"/><path d="M505.41,83.24c-1.17-2.16-4.09-2.86-6.28-3.53a40.52,40.52,0,0,0-9.84-1.65c-.65,0-.64,1,0,1a40.17,40.17,0,0,1,7.86,1.14c2.29.58,6.17,1.28,7.39,3.54.31.57,1.17.07.87-.5Z" transform="translate(-298.02 -15.63)"/><path d="M490.56,78.67a20.41,20.41,0,0,1,11,2.66.5.5,0,0,0,.51-.87,21.61,21.61,0,0,0-11.48-2.79c-.64,0-.64,1,0,1Z" transform="translate(-298.02 -15.63)"/><path d="M502.88,80c-.17-1-1.9-1.36-2.69-1.7a25.08,25.08,0,0,0-4.3-1.39c-.63-.14-.9.83-.27,1a22,22,0,0,1,3.28,1c.49.19,2.93.94,3,1.42s1.07.36,1-.27Z" transform="translate(-298.02 -15.63)"/><path d="M500.18,76.48c-3.47-3.38-8-4.71-12.62-5.84-.62-.16-.89.81-.26,1,4.41,1.09,8.83,2.33,12.17,5.58.47.45,1.17-.25.71-.7Z" transform="translate(-298.02 -15.63)"/><path d="M488.9,71.49c3.08-.64,6.87,1.4,8.89,3.69.42.48,1.13-.22.7-.71-2.27-2.59-6.39-4.67-9.86-4-.63.13-.36,1.1.27,1Z" transform="translate(-298.02 -15.63)"/><path d="M493.09,70.84c1.53,0,2.59,1,3.59,2.09.45.47,1.15-.24.71-.7-1.2-1.25-2.49-2.35-4.3-2.39a.5.5,0,0,0,0,1Z" transform="translate(-298.02 -15.63)"/><path d="M496.49,70.35c-1.9-3.35-6.29-5.64-9.74-7-.6-.23-.86.73-.27,1,3.22,1.25,7.38,3.4,9.15,6.53a.5.5,0,0,0,.86-.51Z" transform="translate(-298.02 -15.63)"/><path d="M487.12,64.31c2.73-.44,4.7,1.43,6.41,3.26.44.48,1.14-.23.7-.7-2-2.15-4.26-4-7.38-3.52-.63.1-.36,1.07.27,1Z" transform="translate(-298.02 -15.63)"/><path d="M491.26,64.05a3.34,3.34,0,0,1,1.79,1.77c.26.59,1.12.08.87-.51a4.34,4.34,0,0,0-2.39-2.22c-.6-.25-.86.72-.27,1Z" transform="translate(-298.02 -15.63)"/><path d="M492.44,62.91c-.87-2.82-4.25-4.62-6.88-5.41a.5.5,0,0,0-.27,1c2.26.68,5.43,2.26,6.19,4.71.19.62,1.15.36,1-.26Z" transform="translate(-298.02 -15.63)"/><path d="M485.93,58.35c2.51-.68,4,2,5.23,3.66.37.52,1.24,0,.86-.5-1.54-2.11-3.31-4.95-6.36-4.13a.5.5,0,0,0,.27,1Z" transform="translate(-298.02 -15.63)"/><path d="M489.05,58.29a2.78,2.78,0,0,1,1.62,1.76.5.5,0,0,0,1-.27,3.81,3.81,0,0,0-2.31-2.45c-.6-.25-.86.72-.27,1Z" transform="translate(-298.02 -15.63)"/><path d="M491.05,57.85c.41-2.79-3-5.26-5.46-5.67-.63-.11-.9.85-.27,1,1.8.3,5.08,2.27,4.76,4.44-.09.63.87.9,1,.27Z" transform="translate(-298.02 -15.63)"/><path d="M485.56,53a4.17,4.17,0,0,1,4.35,2.3c.25.59,1.11.09.86-.5a5.1,5.1,0,0,0-5.21-2.8c-.63.06-.64,1.06,0,1Z" transform="translate(-298.02 -15.63)"/><path d="M490.68,51.35a7.84,7.84,0,0,0-5.17-6c-.6-.23-.86.73-.26,1a6.82,6.82,0,0,1,4.46,5.32c.1.64,1.06.37,1-.26Z" transform="translate(-298.02 -15.63)"/><path d="M487.57,47.31c.43-.1.89.52,1.14.79a8.1,8.1,0,0,1,.89,1.22.5.5,0,0,0,.86-.51c-.6-1-1.76-2.8-3.15-2.46-.63.15-.36,1.12.26,1Z" transform="translate(-298.02 -15.63)"/><path d="M490.78,47.44c.3-2.62-1.27-4.72-3-6.5-.45-.47-1.15.24-.71.71,1.54,1.61,3,3.42,2.69,5.79-.08.63.92.63,1,0Z" transform="translate(-298.02 -15.63)"/><path d="M487.42,41.74c1.42.11,2,1.46,2.46,2.63.22.6,1.19.35,1-.26-.61-1.65-1.5-3.22-3.43-3.37-.64-.05-.64.95,0,1Z" transform="translate(-298.02 -15.63)"/><path d="M476.22,145.6l3,1.55c.57.3,1.07-.57.5-.86l-3-1.55c-.57-.29-1.08.57-.51.86Z" transform="translate(-298.02 -15.63)"/><path d="M476.35,146.14a24.68,24.68,0,0,1,3.74,1.79.5.5,0,0,0,.5-.86,25,25,0,0,0-4-1.89c-.6-.23-.86.73-.26,1Z" transform="translate(-298.02 -15.63)"/><path d="M475.68,140.15c3.73-.54,7.21.74,10.62,2.1.59.23.85-.73.26-1-3.62-1.44-7.2-2.67-11.14-2.1-.64.09-.37,1.06.26,1Z" transform="translate(-298.02 -15.63)"/><path d="M473.89,141.16a30.23,30.23,0,0,1,12.67,1.41c.62.21.88-.76.27-1a30.86,30.86,0,0,0-12.94-1.45c-.63.06-.64,1.06,0,1Z" transform="translate(-298.02 -15.63)"/><path d="M478.55,138.27a19,19,0,0,1,17-1.32c.59.24.85-.73.26-1a20,20,0,0,0-17.72,1.42.5.5,0,0,0,.5.87Z" transform="translate(-298.02 -15.63)"/><path d="M481.16,135.84a19,19,0,0,1,11.09-.94c.63.13.9-.83.27-1a19.93,19.93,0,0,0-11.63.94c-.59.23-.33,1.2.27,1Z" transform="translate(-298.02 -15.63)"/><path d="M483.29,133.73c1.22-.18,6.51-.76,6.65,1.34,0,.64,1,.64,1,0-.22-3.18-5.9-2.6-7.92-2.31-.63.1-.36,1.06.27,1Z" transform="translate(-298.02 -15.63)"/><path d="M486.37,130a12.83,12.83,0,0,1,11.17-4.09c.63.07.63-.93,0-1a13.76,13.76,0,0,0-11.88,4.38c-.42.48.28,1.19.71.71Z" transform="translate(-298.02 -15.63)"/><path d="M487.14,127.79c2.22-2.59,5.81-2.54,8.94-2.48a.5.5,0,0,0,0-1c-3.4-.06-7.26,0-9.65,2.77-.42.48.28,1.2.71.71Z" transform="translate(-298.02 -15.63)"/><path d="M488.25,125.36a21.29,21.29,0,0,1,2.36-.56c.43-.08,2.53-.58,2.83.08s1.14.08.87-.5c-.4-.85-1.41-.83-2.22-.77a19.77,19.77,0,0,0-4.11.79.5.5,0,0,0,.27,1Z" transform="translate(-298.02 -15.63)"/><path d="M489.82,122.92c1.75-3.68,8-4.83,11.67-5.19.63-.06.64-1.06,0-1-4,.39-10.6,1.64-12.53,5.69-.28.58.58,1.08.86.5Z" transform="translate(-298.02 -15.63)"/><path d="M490,121c2-3,5.75-3.65,9-4.31.63-.12.36-1.09-.27-1-3.57.72-7.42,1.57-9.61,4.76-.36.53.5,1,.86.51Z" transform="translate(-298.02 -15.63)"/><path d="M490.48,118.42a10.67,10.67,0,0,1,6.43-2,.5.5,0,0,0,0-1,11.63,11.63,0,0,0-6.94,2.14c-.51.37,0,1.24.51.87Z" transform="translate(-298.02 -15.63)"/><path d="M490.65,116.89l3.56-1.17c.61-.19.35-1.16-.26-1l-3.57,1.17c-.6.2-.34,1.16.27,1Z" transform="translate(-298.02 -15.63)"/><path d="M491.23,114.46a11.5,11.5,0,0,1,7.24-6.32c.61-.2.35-1.16-.27-1a12.54,12.54,0,0,0-7.93,7c-.25.59.72.85,1,.27Z" transform="translate(-298.02 -15.63)"/><path d="M491.82,111.14a8.64,8.64,0,0,1,5.37-3.26c.63-.13.36-1.09-.27-1a9.69,9.69,0,0,0-6,3.72c-.38.52.49,1,.87.51Z" transform="translate(-298.02 -15.63)"/><path d="M491.46,109.57a4.24,4.24,0,0,1,2.73-1.67c.64-.13.37-1.09-.26-1a5.22,5.22,0,0,0-3.33,2.14c-.37.52.49,1,.86.5Z" transform="translate(-298.02 -15.63)"/><path d="M491.09,106.48a11.59,11.59,0,0,1,7.39-4.35c.63-.11.36-1.08-.27-1a12.5,12.5,0,0,0-8,4.81c-.39.51.48,1,.86.5Z" transform="translate(-298.02 -15.63)"/><path d="M491.09,105.3a6.43,6.43,0,0,1,5.16-3.35c.64-.06.65-1.06,0-1a7.47,7.47,0,0,0-6,3.85c-.3.57.57,1.08.86.5Z" transform="translate(-298.02 -15.63)"/><path d="M490.85,103.59l2.59-2c.51-.4-.2-1.1-.7-.71l-2.59,2c-.51.39.2,1.1.7.71Z" transform="translate(-298.02 -15.63)"/><path d="M490.13,101.77a17.83,17.83,0,0,1,8.67-8.08c.59-.27.08-1.13-.5-.86a18.64,18.64,0,0,0-9,8.43c-.3.57.57,1.08.86.51Z" transform="translate(-298.02 -15.63)"/><path d="M490.11,99.07a11.91,11.91,0,0,1,7.09-5.18.5.5,0,0,0-.27-1,12.93,12.93,0,0,0-7.68,5.65c-.34.55.53,1.05.86.5Z" transform="translate(-298.02 -15.63)"/><path d="M489.76,96.66a9.73,9.73,0,0,1,4.45-2.2c.63-.14.36-1.1-.26-1A10.65,10.65,0,0,0,489.06,96c-.49.43.22,1.13.7.71Z" transform="translate(-298.02 -15.63)"/><path d="M489.37,93c-.88-3,3.26-7,5.88-8,.6-.21.34-1.18-.27-1a12.23,12.23,0,0,0-5.06,4.1c-1.23,1.49-2.08,3.16-1.52,5.1a.5.5,0,0,0,1-.26Z" transform="translate(-298.02 -15.63)"/><path d="M488.25,90.06c.71-2.72,3.45-4.06,5.88-5,.6-.22.34-1.19-.27-1-2.77,1-5.77,2.56-6.57,5.65a.5.5,0,0,0,1,.27Z" transform="translate(-298.02 -15.63)"/><path d="M487.32,88.34a5.85,5.85,0,0,1,3.07-2.49c.6-.23.34-1.19-.27-1a7.07,7.07,0,0,0-3.66,3,.5.5,0,0,0,.86.51Z" transform="translate(-298.02 -15.63)"/><path d="M487,85.54a12.18,12.18,0,0,1,5-8.19c.51-.38,0-1.24-.5-.86A13.27,13.27,0,0,0,486,85.54c-.08.64.92.64,1,0Z" transform="translate(-298.02 -15.63)"/><path d="M486.46,83.61a5.29,5.29,0,0,1,2.88-4.52.5.5,0,0,0-.5-.87,6.3,6.3,0,0,0-3.38,5.39.5.5,0,0,0,1,0Z" transform="translate(-298.02 -15.63)"/><path d="M485.89,81.25A5.05,5.05,0,0,1,488.46,79c.59-.23.33-1.2-.27-1A6.09,6.09,0,0,0,485,80.75c-.31.57.55,1.07.86.5Z" transform="translate(-298.02 -15.63)"/><path d="M485.32,79.27c-.28-1.6.74-3.1,1.45-4.45.58-1.12,1.2-2.21,1.84-3.29a.5.5,0,0,0-.86-.51c-1.4,2.36-3.9,5.62-3.39,8.52.11.63,1.07.36,1-.27Z" transform="translate(-298.02 -15.63)"/><path d="M484.29,77.6a14,14,0,0,1,3.31-6.27c.43-.48-.27-1.19-.71-.71a14.92,14.92,0,0,0-3.56,6.71c-.15.63.81.9,1,.27Z" transform="translate(-298.02 -15.63)"/><path d="M484,74.47a6,6,0,0,1,4-3c.63-.15.36-1.11-.26-1A7,7,0,0,0,483.13,74c-.3.57.56,1.07.87.5Z" transform="translate(-298.02 -15.63)"/><path d="M482.46,68.6c-.77-2.31,2.74-3.64,4.42-3.88.64-.1.37-1.06-.27-1-2.25.33-6.08,2.21-5.12,5.11.21.61,1.17.35,1-.26Z" transform="translate(-298.02 -15.63)"/><path d="M482.54,70.38a8,8,0,0,1,4-5.94c.55-.33.05-1.2-.5-.87a9.05,9.05,0,0,0-4.54,6.81c-.07.64.93.63,1,0Z" transform="translate(-298.02 -15.63)"/><path d="M481.66,66.1a9.48,9.48,0,0,1,4.87-1.92c.63-.07.64-1.07,0-1a10.51,10.51,0,0,0-5.38,2.06c-.5.38,0,1.25.51.86Z" transform="translate(-298.02 -15.63)"/><path d="M481.54,65a10.24,10.24,0,0,1,4.6-6.29c.54-.35,0-1.21-.5-.86a11.24,11.24,0,0,0-5.06,6.88c-.15.63.82.89,1,.27Z" transform="translate(-298.02 -15.63)"/><path d="M481.58,62a10.32,10.32,0,0,1,3.72-3.53.5.5,0,0,0-.51-.86,11.44,11.44,0,0,0-4.08,3.89c-.34.55.53,1.05.87.5Z" transform="translate(-298.02 -15.63)"/><path d="M481.27,60.47a16.4,16.4,0,0,1,4.3-2.12c.61-.2.35-1.17-.27-1a17.43,17.43,0,0,0-4.54,2.23c-.52.36,0,1.23.51.86Z" transform="translate(-298.02 -15.63)"/><path d="M481.43,59c-.25-2.71,2-4.53,3.93-6.08.5-.41-.22-1.12-.71-.71-2.1,1.72-4.49,3.8-4.22,6.79.06.64,1.06.64,1,0Z" transform="translate(-298.02 -15.63)"/><path d="M481.68,55.62a3,3,0,0,1,2.27-2.3.5.5,0,0,0-.27-1,3.94,3.94,0,0,0-3,3c-.11.63.86.9,1,.26Z" transform="translate(-298.02 -15.63)"/><path d="M481.56,54l2.76-.82a.5.5,0,0,0-.26-1l-2.77.82a.5.5,0,0,0,.27,1Z" transform="translate(-298.02 -15.63)"/><path d="M481.52,53c.5-2.62,1.2-5.25,3.83-6.45.59-.26.08-1.12-.5-.86-2.87,1.3-3.75,4.17-4.29,7-.12.63.85.9,1,.27Z" transform="translate(-298.02 -15.63)"/><path d="M482.12,52.87c.05-2.66,2.16-4.61,4-6.31.47-.45-.24-1.15-.71-.71-2,1.9-4.21,4.07-4.26,7a.5.5,0,0,0,1,0Z" transform="translate(-298.02 -15.63)"/><path d="M482.78,47.14a8.87,8.87,0,0,1,2.63-1c.63-.13.36-1.1-.27-1a9.87,9.87,0,0,0-2.87,1.08c-.56.31,0,1.18.51.86Z" transform="translate(-298.02 -15.63)"/><path d="M483.39,46a6.17,6.17,0,0,1,4.41-4.28.5.5,0,0,0-.27-1,7.23,7.23,0,0,0-5.11,5c-.15.62.81.89,1,.27Z" transform="translate(-298.02 -15.63)"/><path d="M485.17,42.12a4.74,4.74,0,0,1,3-1,.5.5,0,0,0,0-1,5.81,5.81,0,0,0-3.71,1.28c-.51.4.2,1.1.7.71Z" transform="translate(-298.02 -15.63)"/><path d="M491,42.05a19.82,19.82,0,0,1,3.65-6c.43-.48-.28-1.19-.7-.71A21.4,21.4,0,0,0,490,41.79c-.23.6.74.86,1,.26Z" transform="translate(-298.02 -15.63)"/><path d="M489,42c2.57-4.83,7.25-8.5,11.1-12.29a.5.5,0,0,0-.7-.71c-3.94,3.87-8.64,7.57-11.27,12.5-.3.57.56,1.07.87.5Z" transform="translate(-298.02 -15.63)"/><path d="M488.27,41.41a26.08,26.08,0,0,1,5.52-6.93c1.78-1.59,4.81-4.44,7.27-4.8.64-.09.37-1.06-.26-1-2.51.37-5.17,2.91-7.07,4.5a27.13,27.13,0,0,0-6.33,7.69.5.5,0,0,0,.87.51Z" transform="translate(-298.02 -15.63)"/><path d="M389.87,145.57q-9.33-3.45-18.33-7.7c-5.31-2.52-11-5-15.51-8.83-8.06-6.7-11.41-17.41-10.37-27.65,2.25-22.3,22.71-40.29,20.11-63.47-1-9.32-6.08-18-14.61-22.24-.57-.28-1.08.58-.5.87,8.82,4.42,13.78,13.67,14.27,23.34.61,12.1-5.32,23.43-10.55,33.93-4.79,9.63-9.76,19.82-9.9,30.8-.12,9.18,3.25,18.48,10.24,24.62,4.61,4,10.4,6.67,15.89,9.29,6.2,3,12.55,5.62,19,8,.6.22.86-.75.26-1Z" transform="translate(-298.02 -15.63)"/><path d="M350.17,16.73c10.42,11.08,7.49,26.86-.77,38.19-8.59,11.79-21.1,20-30,31.43a47,47,0,0,0-9.62,35.51,51.21,51.21,0,0,0,19.46,33.43c6.49,4.92,14.08,8.38,21.55,11.52a185.76,185.76,0,0,0,25.58,8.62.5.5,0,0,0,.27-1c-14.9-3.86-30.36-9.22-43.38-17.59a50.37,50.37,0,0,1-22.5-35.22c-2-14.51,3.06-27.87,12.72-38.62,9.29-10.34,21.12-18.47,28.67-30.33,7.22-11.35,8.48-26.34-1.25-36.68-.44-.47-1.15.24-.7.7Z" transform="translate(-298.02 -15.63)"/><path d="M370.42,172.36c-1.15-2.6-.27-5.92.37-8.56a37.38,37.38,0,0,1,2.74-7.68,41.43,41.43,0,0,1,9.26-12.4c.47-.44-.24-1.15-.71-.71a42,42,0,0,0-10.26,14.47c-1.78,4.24-4.26,10.86-2.27,15.38.26.59,1.12.08.87-.5Z" transform="translate(-298.02 -15.63)"/><path d="M361.36,170c-3.31-11.72,6.66-21.48,13.42-29.73.4-.49-.3-1.21-.71-.71-7,8.56-17.1,18.57-13.67,30.71a.5.5,0,0,0,1-.27Z" transform="translate(-298.02 -15.63)"/><path d="M352.72,166.18c-1.26-6.25,2-11.92,5.82-16.59a82.19,82.19,0,0,1,11.92-11.67c.5-.4-.21-1.11-.7-.71A75.56,75.56,0,0,0,356.17,151c-3.3,4.53-5.56,9.77-4.42,15.44.13.63,1.09.36,1-.27Z" transform="translate(-298.02 -15.63)"/><path d="M365.12,134.68c-11.34,5.26-19.69,15.89-20.65,28.53-.05.64.95.64,1,0,.93-12.3,9.16-22.56,20.16-27.67.58-.27.07-1.13-.51-.86Z" transform="translate(-298.02 -15.63)"/><path d="M359,131.29c-11.73,4.87-21.42,14-25.75,26.07-.22.61.75.87,1,.26,4.2-11.71,13.66-20.64,25-25.37.58-.24.33-1.21-.27-1Z" transform="translate(-298.02 -15.63)"/><path d="M354,126.74c-12.88,2.22-24.91,9-32.29,20-.36.54.5,1,.86.51,7.24-10.75,19.07-17.38,31.7-19.55.63-.11.36-1.07-.27-1Z" transform="translate(-298.02 -15.63)"/><path d="M348.78,119.34c-12.71,2-24.74,7.94-33.31,17.66-.43.48.28,1.19.7.7,8.48-9.59,20.31-15.4,32.87-17.4.64-.1.37-1.06-.26-1Z" transform="translate(-298.02 -15.63)"/><path d="M345.51,110.46a54.46,54.46,0,0,0-20.33,3.8,41,41,0,0,0-14.51,9.56c-.45.46.26,1.17.71.71a40.16,40.16,0,0,1,14.82-9.59,53.88,53.88,0,0,1,19.31-3.48.5.5,0,0,0,0-1Z" transform="translate(-298.02 -15.63)"/><path d="M345.22,102a67.58,67.58,0,0,0-20.3,2.59c-5.13,1.49-12,3.5-15.33,8-.38.52.49,1,.86.5,1.81-2.47,4.79-3.76,7.53-5a60.55,60.55,0,0,1,8.89-3A67.17,67.17,0,0,1,345.22,103a.5.5,0,0,0,0-1Z" transform="translate(-298.02 -15.63)"/><path d="M346.56,94.17c-6.55-.73-13.07-.07-19.59.68-5.45.62-10.58,1.57-15.19,4.74-.52.36,0,1.23.51.86,5-3.46,10.69-4.16,16.62-4.82a79.56,79.56,0,0,1,17.65-.46c.64.07.63-.93,0-1Z" transform="translate(-298.02 -15.63)"/><path d="M318.79,88c9.57-2.66,19.37-.21,28.72,2.18a.5.5,0,0,0,.26-1c-9.52-2.43-19.5-4.9-29.24-2.18a.5.5,0,0,0,.26,1Z" transform="translate(-298.02 -15.63)"/><path d="M327.59,78.9c7.85.52,15.73,1.14,23.17,3.9.6.22.86-.75.27-1-7.53-2.79-15.51-3.4-23.44-3.93-.65,0-.64,1,0,1Z" transform="translate(-298.02 -15.63)"/><path d="M335.51,70.2c6.17,1.17,13.4,1.64,18.64,5.41.52.38,1-.49.5-.86-5.33-3.84-12.6-4.32-18.88-5.52-.63-.12-.9.85-.26,1Z" transform="translate(-298.02 -15.63)"/><path d="M341.67,64.14c5.44.77,10.76,2.2,15.27,5.45.52.37,1-.49.5-.87-4.57-3.29-10-4.77-15.51-5.54-.63-.09-.9.88-.26,1Z" transform="translate(-298.02 -15.63)"/><path d="M346.86,58.74a18.6,18.6,0,0,1,9.42,2.13c.57.3,1.08-.57.51-.86a19.63,19.63,0,0,0-9.93-2.27c-.64,0-.65,1,0,1Z" transform="translate(-298.02 -15.63)"/><path d="M351.81,52.58A17,17,0,0,1,358.56,54c.58.26,1.09-.61.5-.86a18.29,18.29,0,0,0-7.25-1.58.5.5,0,0,0,0,1Z" transform="translate(-298.02 -15.63)"/><path d="M354.74,47.09a14.49,14.49,0,0,1,5.79,1c.6.23.86-.74.26-1a15.21,15.21,0,0,0-6.05-1c-.64,0-.64,1,0,1Z" transform="translate(-298.02 -15.63)"/><path d="M356.2,41.9a27.47,27.47,0,0,1,6.72,1.3c.61.2.87-.77.26-1a27.63,27.63,0,0,0-7-1.34c-.64,0-.64,1,0,1Z" transform="translate(-298.02 -15.63)"/><path d="M357.06,37.45a8.31,8.31,0,0,1,6-.74c.63.15.9-.81.27-1a9.32,9.32,0,0,0-6.77.84c-.56.31-.06,1.17.51.86Z" transform="translate(-298.02 -15.63)"/><path d="M357.8,32.55c0-1.53,2.27-1.44,3.29-1.42a.5.5,0,0,0,0-1c-1.65,0-4.31.2-4.29,2.42a.5.5,0,0,0,1,0Z" transform="translate(-298.02 -15.63)"/><path d="M367.38,172.57c.83-5.8,2.95-10.67,5.8-15.74a.5.5,0,0,0-.87-.5c-2.9,5.16-5.05,10.06-5.89,16-.09.63.87.9,1,.27Z" transform="translate(-298.02 -15.63)"/><path d="M369,172.9c-.08-4.44.38-8.91,2.61-12.84a.5.5,0,0,0-.86-.5c-2.32,4.07-2.83,8.72-2.75,13.34a.5.5,0,0,0,1,0Z" transform="translate(-298.02 -15.63)"/><path d="M374.86,152.73a52,52,0,0,0,2.87-5.1,30.43,30.43,0,0,1,2.42-5.09c.37-.53-.5-1-.86-.51a27,27,0,0,0-2.32,4.85,48.18,48.18,0,0,1-3,5.35.5.5,0,0,0,.86.5Z" transform="translate(-298.02 -15.63)"/><path d="M376.64,150.08c.06-.62.84-1.18,1.21-1.65a15.93,15.93,0,0,0,1.17-1.77,16.77,16.77,0,0,1,2.65-3.81c.47-.45-.24-1.16-.71-.71a19.26,19.26,0,0,0-2.92,4.22,22.06,22.06,0,0,1-1.81,2.39,2.14,2.14,0,0,0-.59,1.33c-.06.64.94.63,1,0Z" transform="translate(-298.02 -15.63)"/><path d="M366.65,171.54c-1.66-4.06-1.16-8.2-.48-12.42.1-.63-.86-.9-1-.26-.71,4.37-1.24,8.74.48,12.95.24.58,1.21.33,1-.27Z" transform="translate(-298.02 -15.63)"/><path d="M363.61,170.74a57.43,57.43,0,0,1,2.66-11.94c.21-.61-.76-.87-1-.27a58.7,58.7,0,0,0-2.7,12.21c-.07.64.93.63,1,0Z" transform="translate(-298.02 -15.63)"/><path d="M365.28,171.14c-.18-2.31-.26-4.61-.26-6.92a.5.5,0,0,0-1,0c0,2.31.08,4.61.26,6.92.05.64,1.05.64,1,0Z" transform="translate(-298.02 -15.63)"/><path d="M363.88,166.9a26.19,26.19,0,0,1,2.8-16.12.5.5,0,0,0-.86-.5,27,27,0,0,0-2.63,8.3,22.34,22.34,0,0,0-.28,8.58c.12.64,1.08.37,1-.26Z" transform="translate(-298.02 -15.63)"/><path d="M363.05,170.38a25.36,25.36,0,0,1,2.48-17.91c.31-.57-.55-1.07-.86-.51a26.42,26.42,0,0,0-2.58,18.69c.14.63,1.1.36,1-.27Z" transform="translate(-298.02 -15.63)"/><path d="M362,170.18a20.8,20.8,0,0,1,.65-13.11c.23-.6-.74-.86-1-.26a21.71,21.71,0,0,0-.64,13.63.5.5,0,0,0,1-.26Z" transform="translate(-298.02 -15.63)"/><path d="M368,148.55c2.66-3.1,5.61-5.79,9.77-6.47.63-.1.37-1.06-.26-1-4.34.71-7.45,3.5-10.22,6.72-.42.49.29,1.2.71.71Z" transform="translate(-298.02 -15.63)"/><path d="M376.32,140.14A6.38,6.38,0,0,0,373,141.5a5,5,0,0,0-1.35,1c-.24.32-.24,1-.56,1.2-.53.36,0,1.23.51.87a1.32,1.32,0,0,0,.53-.59,2.52,2.52,0,0,1,.9-1.29,6.41,6.41,0,0,1,3.28-1.53c.64,0,.64-1,0-1Z" transform="translate(-298.02 -15.63)"/><path d="M373,173.25c0-4.38-1.05-10.3,1.43-14.17.35-.54-.52-1-.86-.5-2.66,4.13-1.62,10-1.57,14.67a.5.5,0,0,0,1,0Z" transform="translate(-298.02 -15.63)"/><path d="M365.17,143.08c.43-1.05,3.22-1.81,4.15-2.18,1.36-.54,2.74-1,4.13-1.44.61-.19.35-1.16-.27-1a57.49,57.49,0,0,0-5.67,2.09c-1.21.52-2.77.93-3.31,2.24-.24.59.72.85,1,.26Z" transform="translate(-298.02 -15.63)"/><path d="M371.36,138a17.11,17.11,0,0,0-6.24,3.94c-.45.45.26,1.16.71.7a15.94,15.94,0,0,1,5.8-3.68c.6-.22.34-1.18-.27-1Z" transform="translate(-298.02 -15.63)"/><path d="M359.4,169a13.8,13.8,0,0,1,1.66-12.47c.36-.53-.5-1-.86-.51a14.8,14.8,0,0,0-1.77,13.24c.21.61,1.17.35,1-.26Z" transform="translate(-298.02 -15.63)"/><path d="M356.26,168a20.4,20.4,0,0,1,4.65-11.5c.44-.47-.27-1.18-.71-.71A21.28,21.28,0,0,0,355.26,168c0,.65,1,.64,1,0Z" transform="translate(-298.02 -15.63)"/><path d="M358.08,168.62a29.32,29.32,0,0,1-.11-7.25c.07-.64-.93-.63-1,0a30,30,0,0,0,.15,7.51c.09.64,1.05.37,1-.26Z" transform="translate(-298.02 -15.63)"/><path d="M356.22,166.37a23.81,23.81,0,0,1,4-18.55c.37-.52-.5-1-.86-.5a24.77,24.77,0,0,0-4.1,19.31c.12.64,1.08.37,1-.26Z" transform="translate(-298.02 -15.63)"/><path d="M355.19,167.15A21.09,21.09,0,0,1,358,150.63c.35-.55-.52-1-.86-.51a22.08,22.08,0,0,0-2.86,17.29c.14.63,1.11.36,1-.26Z" transform="translate(-298.02 -15.63)"/><path d="M354,167.1a23.15,23.15,0,0,1,1-12.39c.22-.6-.74-.86-1-.26A24.09,24.09,0,0,0,353,167.37c.12.63,1.08.36,1-.27Z" transform="translate(-298.02 -15.63)"/><path d="M356.7,165.7A16.13,16.13,0,0,1,360,153.39c.39-.51-.48-1-.86-.5A17.05,17.05,0,0,0,355.74,166c.09.63,1.05.36,1-.27Z" transform="translate(-298.02 -15.63)"/><path d="M351.61,166.09c-1.7-5.3.84-11.62,4.46-15.49.44-.47-.26-1.18-.7-.71-3.89,4.16-6.54,10.79-4.72,16.46.19.61,1.16.35,1-.26Z" transform="translate(-298.02 -15.63)"/><path d="M350.18,165.39c-1.72-4-.67-8.08.51-12.08a.5.5,0,0,0-1-.27c-1.28,4.32-2.26,8.56-.41,12.85.25.59,1.11.08.86-.5Z" transform="translate(-298.02 -15.63)"/><path d="M346.38,164.21a19.65,19.65,0,0,1,2.18-6.15c.76-1.59,1.22-3.56,2.47-4.81.46-.46-.25-1.17-.7-.71-1.52,1.51-2.05,3.82-3,5.71a18.31,18.31,0,0,0-2,6c-.08.64.93.63,1,0Z" transform="translate(-298.02 -15.63)"/><path d="M348.77,165.08c-.41-2.71-.8-6,.58-8.47.32-.56-.55-1.07-.86-.5-1.54,2.76-1.14,6.23-.69,9.23.1.64,1.06.37,1-.26Z" transform="translate(-298.02 -15.63)"/><path d="M347.51,164.78l1.1-4.53c.15-.62-.82-.89-1-.26l-1.09,4.52c-.15.63.81.89,1,.27Z" transform="translate(-298.02 -15.63)"/><path d="M342.38,161.94a40.87,40.87,0,0,1,12.49-19.3c.49-.42-.22-1.13-.71-.7a41.76,41.76,0,0,0-12.74,19.73.5.5,0,0,0,1,.27Z" transform="translate(-298.02 -15.63)"/><path d="M344.53,163a31.23,31.23,0,0,1,6-16.56c.37-.52-.49-1-.87-.5A32.23,32.23,0,0,0,343.53,163c0,.64,1,.64,1,0Z" transform="translate(-298.02 -15.63)"/><path d="M343.44,162.63c.73-2.46,1.2-5.48,2.59-7.66.35-.54-.52-1.05-.86-.5-1.46,2.28-1.93,5.32-2.7,7.9a.5.5,0,0,0,1,.26Z" transform="translate(-298.02 -15.63)"/><path d="M339.8,160.45a30.15,30.15,0,0,1,4.61-11.65c.36-.54-.51-1-.86-.51a30.72,30.72,0,0,0-4.72,11.89c-.1.63.86.9,1,.27Z" transform="translate(-298.02 -15.63)"/><path d="M336.74,159.24a36,36,0,0,1,7.33-10c.46-.45-.24-1.15-.71-.71a36.66,36.66,0,0,0-7.48,10.17c-.29.58.57,1.09.86.51Z" transform="translate(-298.02 -15.63)"/><path d="M339.12,159.85c.28-3.29,1.87-5.83,3.46-8.63a.5.5,0,0,0-.86-.51c-1.7,3-3.3,5.65-3.6,9.14-.06.64.94.64,1,0Z" transform="translate(-298.02 -15.63)"/><path d="M337.59,159.88a70.31,70.31,0,0,1,3.18-6.46c.32-.56-.55-1.07-.86-.51a65.69,65.69,0,0,0-3.18,6.47c-.25.59.61,1.1.86.5Z" transform="translate(-298.02 -15.63)"/><path d="M331.55,156a35.44,35.44,0,0,1,15.51-16.19c.57-.31.06-1.17-.5-.87a36.37,36.37,0,0,0-15.87,16.55c-.27.58.59,1.09.86.51Z" transform="translate(-298.02 -15.63)"/><path d="M333,157.09c1.87-5.44,5.53-9.82,9.54-13.83.46-.45-.25-1.16-.7-.71-4.15,4.14-7.87,8.67-9.8,14.27-.21.61.75.87,1,.27Z" transform="translate(-298.02 -15.63)"/><path d="M330.25,154.08a23.54,23.54,0,0,1,2.17-7.11c1.1-2,2.4-3.94,3.6-5.89.34-.55-.53-1.05-.86-.5-1.32,2.13-2.79,4.24-3.92,6.48a24.74,24.74,0,0,0-1.95,6.76c-.12.62.84.89,1,.26Z" transform="translate(-298.02 -15.63)"/><path d="M327.09,151.87c.28-2.21,2.84-4.77,4.24-6.34a39.93,39.93,0,0,1,4.64-4.37c.49-.41-.22-1.11-.71-.71a40,40,0,0,0-6.07,6.07c-1.24,1.55-2.84,3.33-3.1,5.35-.09.64.91.63,1,0Z" transform="translate(-298.02 -15.63)"/><path d="M329.25,154.13a22.36,22.36,0,0,1,2-6.85c.86-1.56,2.16-2.77,2.8-4.46.24-.6-.73-.86-1-.27-.75,1.95-2.4,3.39-3.24,5.32a26.85,26.85,0,0,0-1.58,6c-.11.63.85.9,1,.27Z" transform="translate(-298.02 -15.63)"/><path d="M327.93,153.53a20.57,20.57,0,0,1,4.57-8.34c.42-.48-.28-1.19-.71-.7a21.6,21.6,0,0,0-4.82,8.77.5.5,0,0,0,1,.27Z" transform="translate(-298.02 -15.63)"/><path d="M325.54,150.61c-.87-3.48,1.29-6.48,3.28-9.11a59.91,59.91,0,0,1,5.94-6.69.5.5,0,0,0-.71-.71,58.71,58.71,0,0,0-7.15,8.35c-1.79,2.57-3.12,5.26-2.32,8.42.15.63,1.12.36,1-.26Z" transform="translate(-298.02 -15.63)"/><path d="M323.8,149.46c.33-3.77,2.87-6.63,4.91-9.67.36-.53-.5-1-.86-.5-2.19,3.25-4.7,6.14-5.05,10.17-.05.64.95.64,1,0Z" transform="translate(-298.02 -15.63)"/><path d="M320.53,144.51c.23-2.47,2.32-4,4.1-5.49l5.54-4.46c.5-.4-.21-1.11-.71-.71-2.33,1.88-4.76,3.69-7,5.69a7.54,7.54,0,0,0-2.93,5c0,.64,1,.64,1,0Z" transform="translate(-298.02 -15.63)"/><path d="M330.2,133.56c-4.51.63-10.29,4-12.35,8.22-.29.57.58,1.08.86.5,1.93-3.91,7.52-7.17,11.76-7.75.63-.09.36-1.05-.27-1Z" transform="translate(-298.02 -15.63)"/><path d="M319.64,143.83c1.08-3.8,5.44-6.81,8.66-8.71.55-.33.05-1.2-.5-.87-3.5,2.08-8,5.2-9.13,9.32a.5.5,0,0,0,1,.26Z" transform="translate(-298.02 -15.63)"/><path d="M318,141.25c1.69-6.43,8.37-11.91,13.64-15.48.53-.36,0-1.23-.51-.86-5.51,3.74-12.33,9.33-14.09,16.07a.5.5,0,0,0,1,.27Z" transform="translate(-298.02 -15.63)"/><path d="M317,140c.41-2.4,3.67-4.95,5.29-6.69,1.3-1.4,3.5-2.28,4.24-4.07.25-.6-.72-.86-1-.27-.43,1-2.14,1.8-3,2.57-1,1-1.93,2-2.87,3.07-1.37,1.5-3.35,3-3.7,5.13-.11.63.85.9,1,.26Z" transform="translate(-298.02 -15.63)"/><path d="M316.34,138.49c2.56-4.11,6.74-8.49,11.34-10.2.6-.22.34-1.19-.26-1-4.91,1.82-9.21,6.28-11.94,10.66-.34.54.52,1,.86.5Z" transform="translate(-298.02 -15.63)"/><path d="M314.38,134.46A69,69,0,0,1,327.74,121c.51-.38,0-1.25-.5-.86A70.22,70.22,0,0,0,313.52,134c-.39.52.48,1,.86.5Z" transform="translate(-298.02 -15.63)"/><path d="M327.29,120c-3.16.84-5.82,2.88-8.42,4.78-2.33,1.71-5.16,3.45-6.58,6-.31.56.55,1.07.86.5,1.45-2.62,4.56-4.47,6.93-6.18s4.67-3.42,7.47-4.17a.5.5,0,0,0-.26-1Z" transform="translate(-298.02 -15.63)"/><path d="M313.55,133.3a53.5,53.5,0,0,1,13.46-12c.54-.34,0-1.2-.51-.86a54.24,54.24,0,0,0-13.66,12.1c-.39.5.31,1.21.71.71Z" transform="translate(-298.02 -15.63)"/><path d="M313.27,132.12a34.4,34.4,0,0,0,3.56-3.27,11.32,11.32,0,0,1,3.28-3c.58-.28.07-1.14-.51-.87a10.34,10.34,0,0,0-3.15,2.78,36,36,0,0,1-3.88,3.63c-.5.4.21,1.1.7.7Z" transform="translate(-298.02 -15.63)"/><path d="M312.94,129.38c.76-3.21,3.92-5.78,6.2-8a94.26,94.26,0,0,1,8.09-7c.5-.38,0-1.25-.51-.86a96.94,96.94,0,0,0-8.92,7.77c-2.24,2.23-5.07,4.64-5.83,7.82-.14.63.82.9,1,.27Z" transform="translate(-298.02 -15.63)"/><path d="M312.19,128a55.19,55.19,0,0,1,10.66-11.4c.5-.4-.21-1.11-.7-.71a56.29,56.29,0,0,0-10.83,11.61c-.36.53.5,1,.87.5Z" transform="translate(-298.02 -15.63)"/><path d="M311.31,126.55a42.28,42.28,0,0,1,10.38-9c.55-.34,0-1.21-.51-.86a42.76,42.76,0,0,0-10.57,9.18c-.41.5.3,1.21.7.71Z" transform="translate(-298.02 -15.63)"/><path d="M310.36,121.36c2.62-4,7.34-6.89,11.54-8.94.57-.29.07-1.15-.51-.87-4.33,2.13-9.18,5.19-11.9,9.31-.35.54.52,1,.87.5Z" transform="translate(-298.02 -15.63)"/><path d="M321.76,111.36c-4.35,0-9,3.36-12.21,6.07-.49.42.22,1.13.71.71,2.93-2.51,7.5-5.75,11.5-5.78a.5.5,0,0,0,0-1Z" transform="translate(-298.02 -15.63)"/><path d="M310.43,117.51c.54-1.43,2.16-2.57,3.23-3.58s2-1.88,3-2.79a27.56,27.56,0,0,1,7.95-5.19c.59-.24.33-1.2-.27-1a29,29,0,0,0-8.39,5.44c-2.12,1.89-5.47,4.09-6.49,6.81-.23.61.74.87,1,.27Z" transform="translate(-298.02 -15.63)"/><path d="M321,106.2a27.47,27.47,0,0,0-11.73,9c-.38.51.49,1,.87.5a26.26,26.26,0,0,1,11.13-8.54c.58-.24.33-1.21-.27-1Z" transform="translate(-298.02 -15.63)"/><path d="M310.55,119.44c2.11-3.18,6.56-5.25,10-6.69.59-.25.08-1.11-.5-.87-3.6,1.52-8.11,3.7-10.34,7.06-.35.53.51,1,.87.5Z" transform="translate(-298.02 -15.63)"/><path d="M310.37,108.6c1.24-2.42,4.85-3.86,7.22-4.95a50.28,50.28,0,0,1,8.44-3,.5.5,0,0,0-.27-1,51.07,51.07,0,0,0-9.45,3.43c-2.39,1.16-5.53,2.46-6.8,4.95-.29.57.57,1.08.86.5Z" transform="translate(-298.02 -15.63)"/><path d="M326,99.48c-5-.72-11.31.8-15.2,4-.49.41.22,1.12.71.71,3.51-2.92,9.75-4.42,14.22-3.78.63.09.9-.87.27-1Z" transform="translate(-298.02 -15.63)"/><path d="M311.13,105.91c2-1.66,4.58-2.64,6.91-3.66,2.16-.94,4.47-.82,6.59-1.7.58-.24.33-1.21-.27-1-2.18.9-4.59.8-6.83,1.8-2.44,1.09-5,2.06-7.11,3.81-.49.42.22,1.12.71.71Z" transform="translate(-298.02 -15.63)"/><path d="M312.18,102.2c6.28-2.74,12.53-5.81,19.37-6.82.63-.1.36-1.06-.27-1-6.92,1-13.25,4.15-19.61,6.93-.58.26-.08,1.12.51.86Z" transform="translate(-298.02 -15.63)"/><path d="M325.49,95.1a54.53,54.53,0,0,0-13.77,5.3.5.5,0,0,0,.5.86,54,54,0,0,1,13.54-5.2.5.5,0,0,0-.27-1Z" transform="translate(-298.02 -15.63)"/><path d="M312.78,99.55c3.54-4.34,8.9-6.18,14.05-7.89.6-.21.34-1.17-.27-1-5.3,1.77-10.84,3.68-14.49,8.15-.4.5.3,1.21.71.71Z" transform="translate(-298.02 -15.63)"/><path d="M326.77,90.74c-4,.38-9.48,0-12.31,3.39-.41.49.29,1.2.71.71,2.62-3.14,7.87-2.74,11.6-3.1.64-.06.65-1.06,0-1Z" transform="translate(-298.02 -15.63)"/><path d="M314.5,96.61c2.74-3.06,6.76-4,10.66-4.67.63-.11.36-1.08-.27-1-4.06.71-8.25,1.75-11.1,4.94-.43.47.28,1.18.71.7Z" transform="translate(-298.02 -15.63)"/><path d="M316.47,92c2.92-2.69,8.3-3.25,12.07-3.49a95.7,95.7,0,0,1,11.36.14c.64,0,.64-1,0-1a78.91,78.91,0,0,0-13.92.1c-3.38.42-7.62,1.15-10.22,3.54-.48.44.23,1.14.71.71Z" transform="translate(-298.02 -15.63)"/><path d="M340,87.5a43.87,43.87,0,0,0-11.72-.77c-3.29.16-7,0-10,1.57-.58.29-.07,1.16.5.86,3-1.53,7.06-1.35,10.38-1.47a40.78,40.78,0,0,1,10.52.78c.63.13.89-.83.27-1Z" transform="translate(-298.02 -15.63)"/><path d="M321.15,85.68c3.12-1.77,7.3-1.84,10.8-1.74.64,0,.64-1,0-1-3.66-.11-8.05,0-11.3,1.88a.5.5,0,0,0,.5.86Z" transform="translate(-298.02 -15.63)"/><path d="M332.26,82.83c-3-.45-6.46-2.37-9.31-.42-.52.36,0,1.23.51.86,2.54-1.74,5.84.12,8.54.52.63.1.9-.87.26-1Z" transform="translate(-298.02 -15.63)"/><path d="M322.83,84.12c2.95-.64,5.47-1.31,8.52-.72.63.12.9-.84.27-1-3.23-.63-5.92,0-9.05.72-.63.13-.37,1.1.26,1Z" transform="translate(-298.02 -15.63)"/><path d="M324.92,81.4c5.2-3.13,12.95-1.16,18.64-.66.64.06.63-.94,0-1-5.95-.52-13.68-2.49-19.14.8-.55.33-.05,1.2.5.86Z" transform="translate(-298.02 -15.63)"/><path d="M329.82,75.83c3.52,3,8.61,3.55,13,4.57.62.14.89-.82.26-1-4.12-1-9.21-1.46-12.53-4.31-.49-.41-1.2.29-.71.71Z" transform="translate(-298.02 -15.63)"/><path d="M329.21,77.13a21.17,21.17,0,0,0,6.39,2c.63.1.9-.87.27-1a20.53,20.53,0,0,1-6.16-1.92c-.57-.29-1.08.57-.5.86Z" transform="translate(-298.02 -15.63)"/><path d="M331.46,75.65c4.06-2.62,10.58-3.58,15.31-3.19.64.05.63-.95,0-1a29.15,29.15,0,0,0-8.53.8A21.25,21.25,0,0,0,331,74.79c-.54.35,0,1.22.5.86Z" transform="translate(-298.02 -15.63)"/><path d="M345.21,71.16a16.83,16.83,0,0,0-12.56,2c-.55.34,0,1.2.5.86a15.8,15.8,0,0,1,11.79-1.86c.63.13.9-.83.27-1Z" transform="translate(-298.02 -15.63)"/><path d="M338.48,69.84a5.23,5.23,0,0,0-3.37.92c-.52.37,0,1.24.51.86a4.32,4.32,0,0,1,2.86-.78c.64,0,.64-1,0-1Z" transform="translate(-298.02 -15.63)"/><path d="M337.08,69.68c1.66-2.07,5.87-2.08,8.27-2.23a40.32,40.32,0,0,1,7.69.31c.64.08.63-.92,0-1a40.35,40.35,0,0,0-10.53,0c-2.1.28-4.72.48-6.13,2.24-.4.5.3,1.21.7.71Z" transform="translate(-298.02 -15.63)"/><path d="M352,66.16a21.51,21.51,0,0,0-11.79.7c-.61.21-.35,1.18.26,1a20.59,20.59,0,0,1,11.27-.7c.63.14.89-.83.26-1Z" transform="translate(-298.02 -15.63)"/><path d="M340.36,66.57c.12-.35,2.58-.66,3-.74a22.1,22.1,0,0,1,3.52-.42.5.5,0,0,0,0-1,24.56,24.56,0,0,0-4.81.68c-.87.2-2.34.25-2.69,1.21-.22.61.75.87,1,.27Z" transform="translate(-298.02 -15.63)"/><path d="M343.23,64.11c3.87-2.61,8.41-3.06,13-3.35.64,0,.64-1,0-1-4.71.3-9.46.78-13.47,3.49-.53.36,0,1.23.51.86Z" transform="translate(-298.02 -15.63)"/><path d="M355,59.43c-3.31-1.33-7.69.11-10.39,2.23-.51.4.21,1.1.71.71,2.4-1.89,6.49-3.15,9.41-2,.6.24.86-.72.27-1Z" transform="translate(-298.02 -15.63)"/><path d="M350.89,58a6.18,6.18,0,0,0-4.66,1.55c-.52.38,0,1.25.5.87,1.16-.84,2.39-1.68,3.9-1.46.63.1.9-.87.26-1Z" transform="translate(-298.02 -15.63)"/><path d="M348.14,58.58c2.32-2.8,6.86-4.17,10.27-4.85.63-.12.37-1.08-.26-1-3.59.71-8.29,2.18-10.72,5.1-.41.49.3,1.2.71.71Z" transform="translate(-298.02 -15.63)"/><path d="M358.05,52.68c-2.91-1-5.48.45-7.77,2.17-.51.38,0,1.25.51.86,2.06-1.55,4.32-3,7-2.06.61.21.87-.75.27-1Z" transform="translate(-298.02 -15.63)"/><path d="M353.49,51.65a4.29,4.29,0,0,0-2.71,1.82c-.35.54.51,1,.87.5a3.32,3.32,0,0,1,2.11-1.36c.63-.14.36-1.1-.27-1Z" transform="translate(-298.02 -15.63)"/><path d="M353.59,51.76c1.19-2.28,4.55-3.3,6.9-3.58.63-.07.64-1.07,0-1-2.71.33-6.4,1.45-7.76,4.08-.3.57.57,1.07.86.5Z" transform="translate(-298.02 -15.63)"/><path d="M360.4,47.07c-2.89-1.33-5.07,1-7,2.89-.47.44.24,1.15.71.71,1.51-1.45,3.43-3.82,5.79-2.73.58.27,1.09-.6.5-.87Z" transform="translate(-298.02 -15.63)"/><path d="M356.69,46.37a3.75,3.75,0,0,0-2.61,2c-.28.58.58,1.08.86.51a2.82,2.82,0,0,1,2-1.49c.63-.14.37-1.11-.26-1Z" transform="translate(-298.02 -15.63)"/><path d="M356,46.51c.07-2.19,3.62-3.57,5.43-3.57a.5.5,0,0,0,0-1c-2.46,0-6.34,1.73-6.43,4.57a.5.5,0,0,0,1,0Z" transform="translate(-298.02 -15.63)"/><path d="M361.46,41.77a5.16,5.16,0,0,0-5.72,1.9c-.36.54.51,1,.87.5a4.12,4.12,0,0,1,4.59-1.43.5.5,0,0,0,.26-1Z" transform="translate(-298.02 -15.63)"/><path d="M357.43,40.57a6.86,6.86,0,0,1,5.39-4.37c.64-.13.37-1.09-.26-1a7.85,7.85,0,0,0-6.1,5.08c-.2.61.76.87,1,.26Z" transform="translate(-298.02 -15.63)"/><path d="M360.74,35.92c-1.34-.57-2.75.9-3.56,1.82-.42.48.29,1.2.71.71a8.07,8.07,0,0,1,1-1c.29-.24,1-.87,1.36-.7.59.25,1.1-.62.51-.87Z" transform="translate(-298.02 -15.63)"/><path d="M358.08,36.45c.12-2.3,1.9-3.86,3.63-5.12.52-.37,0-1.24-.5-.86-2,1.49-4,3.29-4.13,6,0,.64,1,.64,1,0Z" transform="translate(-298.02 -15.63)"/><path d="M361.5,30.35c-1.86-.17-3,1.23-3.87,2.69a.5.5,0,0,0,.87.5c.67-1.16,1.49-2.32,3-2.19.64.06.63-.94,0-1Z" transform="translate(-298.02 -15.63)"/><path d="M368.08,136.13c-2.92-.76-5.59.24-8.24,1.42-.59.26-.08,1.12.5.86,2.4-1.07,4.82-2,7.47-1.31a.5.5,0,0,0,.27-1Z" transform="translate(-298.02 -15.63)"/><path d="M367.78,136.08c-3.26-.65-7.45,1.46-10.13,3.14-.54.34,0,1.2.51.86,2.39-1.5,6.42-3.62,9.35-3,.63.13.9-.83.27-1Z" transform="translate(-298.02 -15.63)"/><path d="M361.82,133.06c-3.79-.44-7.79,1.44-11.34,2.53a.5.5,0,0,0,.27,1c3.45-1.06,7.4-2.92,11.07-2.5.63.07.63-.93,0-1Z" transform="translate(-298.02 -15.63)"/><path d="M363,133.85a25.46,25.46,0,0,0-6.49.74,38.85,38.85,0,0,0-7,1.62c-.6.21-.34,1.18.27,1a34.88,34.88,0,0,1,6.15-1.48c2.28-.39,4.74-1.05,7.05-.84.64.06.64-.95,0-1Z" transform="translate(-298.02 -15.63)"/><path d="M355.87,129.34c-3.74-1.25-7.56-.63-11.34.14-.63.13-.36,1.09.26,1,3.63-.74,7.23-1.35,10.82-.14.61.2.87-.76.26-1Z" transform="translate(-298.02 -15.63)"/><path d="M357.33,130.61a31.43,31.43,0,0,0-13.12-.85c-.64.09-.37,1.05.26,1a30.09,30.09,0,0,1,12.59.86.5.5,0,0,0,.27-1Z" transform="translate(-298.02 -15.63)"/><path d="M353.71,127.18a20,20,0,0,0-17.31-4.54c-.63.13-.36,1.09.27,1A18.94,18.94,0,0,1,353,127.89c.48.42,1.19-.28.7-.71Z" transform="translate(-298.02 -15.63)"/><path d="M351.37,124.19a19.94,19.94,0,0,0-11.27-3c-.64,0-.64,1,0,1a19,19,0,0,1,10.76,2.87c.55.34,1.05-.52.51-.86Z" transform="translate(-298.02 -15.63)"/><path d="M349.52,121.68c-1.88-.63-7.35-2.17-8.1.85-.16.62.81.89,1,.27.53-2.13,5.63-.57,6.88-.16.61.21.87-.76.26-1Z" transform="translate(-298.02 -15.63)"/><path d="M347.65,117.82a13.78,13.78,0,0,0-11-6.46c-.64,0-.64,1,0,1a12.76,12.76,0,0,1,10.16,6,.5.5,0,0,0,.86-.51Z" transform="translate(-298.02 -15.63)"/><path d="M347.28,115.55c-1.84-3.18-5.63-3.92-9-4.46-.63-.1-.9.86-.27,1,3.06.5,6.69,1.07,8.39,4a.5.5,0,0,0,.86-.5Z" transform="translate(-298.02 -15.63)"/><path d="M346.24,112.62a18.75,18.75,0,0,0-4.09-1.56c-.82-.2-1.68-.29-2.21.47-.37.53.49,1,.86.51s2,.24,2.45.38a18.8,18.8,0,0,1,2.49,1.06c.57.29,1.08-.57.5-.86Z" transform="translate(-298.02 -15.63)"/><path d="M345.61,110.52c-1.08-4.33-7.48-6.78-11.29-7.85a.5.5,0,0,0-.27,1c3.41,1,9.62,3.25,10.6,7.14a.5.5,0,0,0,1-.26Z" transform="translate(-298.02 -15.63)"/><path d="M345.7,108.48c-1.56-3.51-5.31-5-8.66-6.34-.6-.23-.86.73-.27,1,3.12,1.23,6.61,2.61,8.06,5.88.27.59,1.13.08.87-.51Z" transform="translate(-298.02 -15.63)"/><path d="M345.49,105.54a11.56,11.56,0,0,0-6.43-3.36c-.63-.11-.9.86-.27,1a10.73,10.73,0,0,1,6,3.1c.45.47,1.16-.24.71-.7Z" transform="translate(-298.02 -15.63)"/><path d="M345.38,103.86l-3.3-1.78c-.57-.31-1.07.55-.5.86l3.3,1.78c.56.3,1.07-.56.5-.86Z" transform="translate(-298.02 -15.63)"/><path d="M345.75,102.06a12.54,12.54,0,0,0-6.52-8.2c-.56-.31-1.07.56-.5.86a11.63,11.63,0,0,1,6.06,7.61c.14.62,1.1.36,1-.27Z" transform="translate(-298.02 -15.63)"/><path d="M345.68,98.44a9.61,9.61,0,0,0-5.25-4.66c-.6-.24-.86.73-.27,1A8.66,8.66,0,0,1,344.82,99c.28.58,1.15.07.86-.51Z" transform="translate(-298.02 -15.63)"/><path d="M346.31,97a5.27,5.27,0,0,0-2.94-2.64c-.6-.23-.86.74-.27,1a4.22,4.22,0,0,1,2.35,2.18c.27.58,1.13.08.86-.51Z" transform="translate(-298.02 -15.63)"/><path d="M347.22,94a12.48,12.48,0,0,0-7.05-6.1c-.6-.22-.86.74-.26,1a11.52,11.52,0,0,1,6.45,5.64c.28.58,1.15.07.86-.5Z" transform="translate(-298.02 -15.63)"/><path d="M347.48,93a7.41,7.41,0,0,0-5.22-4.88.5.5,0,0,0-.26,1,6.4,6.4,0,0,1,4.52,4.19.5.5,0,0,0,1-.27Z" transform="translate(-298.02 -15.63)"/><path d="M347.83,91l-2.19-2.45c-.43-.48-1.13.23-.7.71l2.19,2.45c.43.48,1.13-.23.7-.71Z" transform="translate(-298.02 -15.63)"/><path d="M349.06,89.64a18.88,18.88,0,0,0-7.49-10c-.52-.37-1,.49-.5.86a17.75,17.75,0,0,1,7,9.4.5.5,0,0,0,1-.27Z" transform="translate(-298.02 -15.63)"/><path d="M349.55,87A12.94,12.94,0,0,0,343,80.05c-.57-.28-1.08.59-.5.87a11.91,11.91,0,0,1,6.07,6.34c.23.59,1.2.34,1-.27Z" transform="translate(-298.02 -15.63)"/><path d="M350.13,84.34a10.65,10.65,0,0,0-4.4-3.24c-.59-.25-.85.72-.27,1a9.78,9.78,0,0,1,4,3c.39.51,1.1-.21.7-.71Z" transform="translate(-298.02 -15.63)"/><path d="M351.3,81.9c.93-2,.31-3.82-.75-5.63a11.93,11.93,0,0,0-4-4.61.5.5,0,0,0-.51.86c2.43,1.41,5.77,6,4.43,8.87-.27.58.59,1.09.87.51Z" transform="translate(-298.02 -15.63)"/><path d="M353,78.71c-.25-3.2-2.86-5.24-5.43-6.75a.5.5,0,0,0-.51.86c2.23,1.31,4.72,3.08,4.94,5.89.05.64,1.05.64,1,0Z" transform="translate(-298.02 -15.63)"/><path d="M354.2,76.92a7,7,0,0,0-3.06-3.57.5.5,0,0,0-.51.86,6,6,0,0,1,2.61,3c.22.59,1.19.33,1-.27Z" transform="translate(-298.02 -15.63)"/><path d="M355.1,74.63a13.27,13.27,0,0,0-3.81-9.77c-.44-.47-1.14.23-.7.7a12.27,12.27,0,0,1,3.51,9.07c0,.64,1,.64,1,0Z" transform="translate(-298.02 -15.63)"/><path d="M355.91,72.94A6.28,6.28,0,0,0,353.57,67c-.49-.41-1.2.29-.7.71a5.29,5.29,0,0,1,2.07,4.94c-.1.63.86.9,1,.26Z" transform="translate(-298.02 -15.63)"/><path d="M356.86,70.2A6.08,6.08,0,0,0,354.25,67c-.55-.34-1.05.53-.51.87a5,5,0,0,1,2.16,2.65c.2.61,1.17.35,1-.27Z" transform="translate(-298.02 -15.63)"/><path d="M357.76,69a5.9,5.9,0,0,0-.17-3.8c-.49-1.71-1.06-3.4-1.69-5.06-.22-.6-1.19-.34-1,.26.84,2.26,2.73,6,1.85,8.33-.22.6.74.87,1,.27Z" transform="translate(-298.02 -15.63)"/><path d="M359.13,67.15a15.08,15.08,0,0,0-2.3-7.25c-.34-.55-1.21,0-.87.5a14,14,0,0,1,2.17,6.75c0,.64,1,.64,1,0Z" transform="translate(-298.02 -15.63)"/><path d="M359.93,63.86a6.94,6.94,0,0,0-3.93-4.2c-.59-.26-1.1.6-.51.86A6,6,0,0,1,359,64.13c.2.61,1.16.35,1-.27Z" transform="translate(-298.02 -15.63)"/><path d="M362.41,59.13c1.48-2.76-2-5.26-4.2-6-.61-.2-.87.76-.26,1,1.58.53,4.71,2.46,3.6,4.53-.3.57.56,1.07.86.51Z" transform="translate(-298.02 -15.63)"/><path d="M362.13,60.48a9.06,9.06,0,0,0-3.24-7.38c-.49-.42-1.2.28-.71.71a8,8,0,0,1,2.95,6.67c-.05.65.95.64,1,0Z" transform="translate(-298.02 -15.63)"/><path d="M363.44,55.61a10.61,10.61,0,0,0-4.91-3,.5.5,0,0,0-.26,1,9.43,9.43,0,0,1,4.46,2.74c.44.48,1.14-.23.71-.71Z" transform="translate(-298.02 -15.63)"/><path d="M364.07,55.2a11.35,11.35,0,0,0-3.73-7.69c-.47-.44-1.18.27-.71.71a10.26,10.26,0,0,1,3.44,7c0,.64,1,.65,1,0Z" transform="translate(-298.02 -15.63)"/><path d="M364.52,52a11.36,11.36,0,0,0-3.31-4.56c-.49-.41-1.2.29-.7.71a10.46,10.46,0,0,1,3.05,4.12c.23.59,1.2.33,1-.27Z" transform="translate(-298.02 -15.63)"/><path d="M364.82,50.14a17.14,17.14,0,0,0-4.07-3c-.56-.31-1.07.56-.5.86a16.15,16.15,0,0,1,3.86,2.85.5.5,0,0,0,.71-.71Z" transform="translate(-298.02 -15.63)"/><path d="M365.22,49.59c.79-3-1.19-5.42-3-7.55-.41-.49-1.12.22-.7.71,1.55,1.82,3.43,4,2.74,6.57a.5.5,0,0,0,1,.27Z" transform="translate(-298.02 -15.63)"/><path d="M365.59,46a4,4,0,0,0-2.36-3.5c-.57-.27-1.08.59-.5.86A3,3,0,0,1,364.59,46a.5.5,0,0,0,1,0Z" transform="translate(-298.02 -15.63)"/><path d="M365.48,43.55l-2.58-1.29c-.58-.29-1.08.57-.51.86l2.58,1.3c.57.29,1.08-.58.51-.87Z" transform="translate(-298.02 -15.63)"/><path d="M366.21,43.43c0-3-.41-6-3-7.79-.53-.37-1,.5-.5.86,2.33,1.62,2.53,4.32,2.55,6.93a.5.5,0,0,0,1,0Z" transform="translate(-298.02 -15.63)"/><path d="M365.62,43.46c.45-3-1.24-5.41-2.92-7.67-.37-.52-1.24,0-.86.5,1.47,2,3.22,4.29,2.82,6.9-.1.63.86.9,1,.27Z" transform="translate(-298.02 -15.63)"/><path d="M365.69,36.75A10.11,10.11,0,0,0,363,35.13c-.6-.24-.86.72-.27,1A8.3,8.3,0,0,1,365,37.46c.49.41,1.2-.3.7-.71Z" transform="translate(-298.02 -15.63)"/><path d="M365.62,36.17a7.18,7.18,0,0,0-4.11-5.82c-.57-.29-1.08.57-.5.86a6.23,6.23,0,0,1,3.61,5c.05.64,1.05.65,1,0Z" transform="translate(-298.02 -15.63)"/><path d="M364.31,31.48A5.64,5.64,0,0,0,361,29.64c-.63-.11-.9.85-.27,1a4.92,4.92,0,0,1,2.89,1.58c.42.49,1.13-.22.7-.7Z" transform="translate(-298.02 -15.63)"/><path d="M358.85,30.85A21,21,0,0,0,356.17,24a.5.5,0,0,0-.87.5,20.14,20.14,0,0,1,2.58,6.65c.13.63,1.09.36,1-.27Z" transform="translate(-298.02 -15.63)"/><path d="M360.72,31c-1.71-5.33-5.67-9.8-8.86-14.31-.37-.52-1.24,0-.87.51,3.13,4.41,7.09,8.86,8.77,14.06.19.61,1.16.35,1-.26Z" transform="translate(-298.02 -15.63)"/><path d="M361.58,30.57a27.45,27.45,0,0,0-4.66-8.48c-1.64-2-3.91-5.11-6.46-6-.61-.21-.87.76-.26,1,2.22.74,4.56,3.91,6,5.7a26.41,26.41,0,0,1,4.41,8c.2.61,1.17.35,1-.26Z" transform="translate(-298.02 -15.63)"/></svg>