<?xml version="1.0" encoding="utf-8"?>
<!-- Generator: Adobe Illustrator 22.1.0, SVG Export Plug-In . SVG Version: 6.00 Build 0)  -->
<svg version="1.1" id="Layer_1" xmlns="http://www.w3.org/2000/svg" xmlns:xlink="http://www.w3.org/1999/xlink" x="0px" y="0px"
	 viewBox="0 0 344.8 363.2" style="enable-background:new 0 0 344.8 363.2;" xml:space="preserve">
<style type="text/css">
	.st0{fill:#76CEDE;}
	.st1{font-family:'ShagadelicBold';}
	.st2{font-size:36px;}
</style>
<title>Jane Toppan Aries</title>
<path d="M266.6,137.1c-7.5,2-10.5,9.5-15.6,14.5c-0.2,0.2-0.1,0.5,0.1,0.7c0.2,0.1,0.4,0.1,0.6,0c5-4.9,7.9-12.4,15.1-14.2
	c0.3-0.1,0.4-0.4,0.4-0.6C267.1,137.2,266.8,137,266.6,137.1L266.6,137.1z"/>
<path d="M262.8,198.5c11.2-12.8,14.7-31,14.9-47.5c0-0.3-0.2-0.5-0.5-0.5s-0.5,0.2-0.5,0.5c-0.2,16.2-3.6,34.2-14.6,46.8
	C261.7,198.2,262.4,198.9,262.8,198.5z"/>
<path d="M256.8,156.4c2.6-4.6,5.3-9.2,10.1-11.7c0.6-0.3,0.1-1.2-0.5-0.9c-4.9,2.6-7.8,7.4-10.4,12.1c-0.1,0.2-0.1,0.5,0.2,0.7
	C256.4,156.7,256.7,156.6,256.8,156.4L256.8,156.4z"/>
<path d="M271.5,161.4c1-2.2,1.8-4.6,2.2-7c0.1-0.6-0.9-0.9-1-0.3c-0.4,2.3-1.1,4.6-2.1,6.8C270.3,161.5,271.2,162,271.5,161.4
	L271.5,161.4z"/>
<path d="M252.7,165.9c1.9,0.2,3.5,1.5,4,3.4c0.7,1.9,0,3.2-0.9,4.8c-1,1.6-1.9,3.4-2.6,5.1c-0.9,2.2-2.4,5.6,0.6,6.7
	c0.6,0.2,0.9-0.7,0.3-1c-0.8-0.3-0.9-2.7-0.7-3.4c0.2-0.6,0.4-1.1,0.6-1.6c0.6-1.4,1.3-2.8,2-4.2c0.9-1.6,2.4-3,2.1-5
	c-0.3-2.9-2.4-5.6-5.5-5.8C252,164.8,252,165.8,252.7,165.9L252.7,165.9z"/>
<path d="M261.6,176.3c3.6-1.9,5.6-7,4.9-10.9c-0.6-3.4-3.9-5.6-7.2-4.9c-0.2,0-0.4,0.1-0.6,0.1c-0.3,0.1-0.4,0.4-0.4,0.6
	c0.1,0.3,0.4,0.4,0.6,0.4c8.8-2.2,7.6,10.9,2.1,13.9C260.5,175.7,261,176.6,261.6,176.3L261.6,176.3z"/>
<path d="M162.6,190.7c5.1,1.9,8.5,7.8,5.7,13c-2.3,4.2-7.6,5.2-12,4.1c-0.3-0.1-0.6,0.1-0.6,0.4c-0.1,0.3,0.1,0.6,0.4,0.6
	c5,1.3,11.2-0.2,13.5-5.4c2.4-5.7-1.2-11.6-6.7-13.6c-0.6-0.2-0.9,0.7-0.3,1L162.6,190.7z"/>
<path d="M130.9,235.8c2.5-1,4.3-3.1,6.6-4.5c1.6-0.9,3.6-2.2,5.4-1.3c1.5,1,2.8,2,4.1,3.3c0.5,0.4,1.2-0.3,0.7-0.7
	c-2-1.6-4.4-4.7-7.2-3.8c-1.6,0.6-3.2,1.4-4.6,2.4c-1.8,1.1-3.4,2.9-5.3,3.7C130.1,235.1,130.3,236.1,130.9,235.8L130.9,235.8z"/>
<path d="M148.3,233.8c2.4-2.5,5-5.1,8.8-4.3c2.7,0.6,5.2,1.9,7.9,2.5c5,0.9,10.2,0.5,15-1.1c0.6-0.2,0.3-1.2-0.3-1
	c-6.3,2.2-13.2,2.1-19.4-0.3c-2.4-0.9-4.7-1.7-7.2-0.8c-2.2,0.8-4,2.6-5.6,4.3C147.1,233.5,147.8,234.2,148.3,233.8L148.3,233.8z"/>
<path d="M179.1,229c0,1.1,0.5,2,1.4,2.6c0.5,0.4,1-0.5,0.5-0.9c-0.6-0.4-0.9-1-0.9-1.7c0-0.3-0.2-0.5-0.5-0.5S179.1,228.7,179.1,229
	z"/>
<path d="M129.9,233.8c0,1,0.3,2,0.8,2.8c0.1,0.2,0.4,0.3,0.7,0.2c0.2-0.1,0.3-0.4,0.2-0.7c-0.4-0.7-0.7-1.5-0.7-2.3
	C130.9,233.2,129.9,233.2,129.9,233.8z"/>
<path d="M141.9,239.6c13,5.3,25.7-2.9,37.1-8.3c0.6-0.3,0.1-1.1-0.5-0.9c-11.1,5.3-23.6,13.5-36.3,8.2
	C141.6,238.4,141.4,239.4,141.9,239.6L141.9,239.6z"/>
<path d="M149.8,250.9c3.8,0.4,7.6-0.6,10.8-2.8c0.5-0.4,0-1.2-0.5-0.9c-3,2.1-6.6,3-10.3,2.6C149.1,249.8,149.1,250.8,149.8,250.9
	L149.8,250.9z"/>
<path d="M93,97c1.2,9.7-0.1,19.4-0.7,29.1c-0.4,4.7-0.4,9.4,0,14.1c0.5,4.8,1.7,9.5,2.2,14.4c1,9.1-1.4,18.2-1.9,27.3
	c-0.4,7.6,0.1,15.2,1.3,22.7c4.8,29.6,22.1,58.9,47.5,75.4c7.9,5.1,17.5,5.1,26.6,4.7c9.3-0.4,18.6-2.2,26.7-7
	c0.2-0.1,0.3-0.4,0.2-0.7s-0.4-0.3-0.7-0.2c-7.5,4.4-16,6.2-24.5,6.7s-18.4,0.9-26-3.4c-6.6-3.8-12.5-9.1-17.8-14.5
	c-5.3-5.4-10-11.3-14.1-17.6c-8.2-12.6-13.8-26.7-16.5-41.5c-1.4-7.4-2-14.9-1.8-22.4c0.2-8.5,2.3-16.8,2.2-25.3
	c0-4.9-1.1-9.7-1.9-14.6c-0.8-5.4-1-10.8-0.7-16.2c0.5-10.3,2.1-20.6,0.8-30.9C93.9,96.4,92.9,96.4,93,97L93,97z"/>
<path d="M251.3,241.6c-1.7-4-1.4-8.3-1.3-12.6c0-0.3-0.2-0.5-0.5-0.5s-0.5,0.2-0.5,0.5c-0.1,4.4-0.4,8.7,1.3,12.8
	C250.6,242.5,251.6,242.2,251.3,241.6L251.3,241.6z"/>
<path d="M167.9,163.2c3.8-6.3,11-9.6,18.3-8.4c6.8,1.3,12.3,6.2,19.1,7.4c0.6,0.1,0.9-0.9,0.3-1c-7.8-1.4-14-7.5-22.1-7.7
	c-6.7-0.1-13,3.4-16.5,9.2C166.7,163.2,167.6,163.7,167.9,163.2L167.9,163.2z"/>
<path d="M171.5,166.8c5.9,1.1,11.9,1.4,17.8,1c5.2-0.5,9.9-2.9,14.4-5.3c0.6-0.3,0.1-1.2-0.5-0.9c-4.7,2.5-9.5,4.9-14.8,5.2
	c-5.6,0.3-11.1,0-16.6-1C171.1,165.8,170.9,166.8,171.5,166.8L171.5,166.8z"/>
<path d="M177.3,154.4c-1.8,1.3-1.8,3.2-0.9,5.1c0.9,2.2,3,3.7,5.3,4c4.8,0.8,9.9-2.4,9.2-7.6c0-0.3-0.2-0.5-0.5-0.5h-0.6
	c-0.6,0-0.6,1,0,1c0.9,0.1-0.8,3.5-1,3.8c-1.1,1.5-2.9,2.4-4.7,2.5c-1.5,0.2-3.1-0.1-4.5-0.8c-1.9-1-4.1-4.9-1.8-6.5
	C178.4,154.9,177.8,154.1,177.3,154.4L177.3,154.4z"/>
<path d="M182.6,153.9c-1.6-0.1-3.2,2.2-3.2,3.7c0,1.8,1.7,2.5,3.3,2.5c1.5,0.1,3.2-0.6,3.4-2.4c0.1-1.5-1-2.8-2.5-2.9
	c-0.2,0-0.4,0-0.5,0c-0.6,0.1-0.6,1.1,0,1c0.9-0.2,1.8,0.4,2,1.3c0,0.2,0,0.4,0,0.7c-0.3,1.1-1.3,1.3-2.3,1.3c-1,0-2-0.2-2.2-1.2
	s1.1-3.1,2.2-3.1C183.3,154.9,183.3,153.9,182.6,153.9L182.6,153.9z"/>
<path d="M205.5,158.4c-6.1-5.1-13.3-8.6-21-10.3c-7.8-1.5-12.9,2.9-17.9,8.3c-0.4,0.5,0.3,1.2,0.7,0.7c2.1-2.6,4.6-4.8,7.3-6.6
	c3.6-2.1,7.3-2,11.3-1c6.9,1.8,13.4,5.1,18.9,9.6C205.3,159.5,206,158.8,205.5,158.4L205.5,158.4z"/>
<path d="M155.7,148.1c0.3-2.7,1.6-5.2,3.6-7.1c0.5-0.5-0.2-1.2-0.7-0.7c-2.2,2.1-3.5,4.8-3.9,7.8
	C154.6,148.7,155.6,148.7,155.7,148.1L155.7,148.1z"/>
<path d="M158.1,146.6c0.9-5.8,6.8-7.7,11.8-9c5.4-1.5,10.9-2.5,16.5-3.1c10.8-0.8,21.4,2.2,31.7,5.2c0.3,0.1,0.6-0.1,0.6-0.4
	c0.1-0.3-0.1-0.6-0.4-0.6c-11.5-3.3-23.3-6.4-35.4-4.9c-5.8,0.7-11.5,2-17.1,3.8c-4.1,1.4-8.1,4-8.8,8.6
	C157.1,146.9,158,147.1,158.1,146.6L158.1,146.6z"/>
<path d="M218.3,139.7c-10.9-1.9-22.2-4.9-33.4-3.3c-5.3,0.9-10.6,2.1-15.7,3.6c-4.3,1.2-8.5,2.7-11.8,5.8c-0.5,0.4,0.2,1.1,0.7,0.7
	c3.5-3.2,8-4.6,12.5-5.9c5.2-1.5,10.5-2.7,15.8-3.4c10.5-1.2,21.3,1.7,31.6,3.5C218.7,140.8,218.9,139.8,218.3,139.7L218.3,139.7z"
	/>
<path d="M131.2,150c-0.9-2.6-3.5-3.5-5.9-4.3c-3.1-1-6.3-1.7-9.5-1.9c-6.6-0.7-13.3,0.9-19,4.4c-0.5,0.4,0,1.2,0.5,0.9
	c4.8-3,10.5-4.5,16.1-4.4c2.7,0,5.5,0.4,8.1,1c2.8,0.6,7.6,1.5,8.6,4.6C130.5,150.9,131.5,150.6,131.2,150L131.2,150z"/>
<path d="M97.1,149.1c5.4-0.7,11.2-2,16.7-1.8c5.7,0.2,11.5,2.7,16.9,4.4c0.3,0.1,0.6-0.1,0.6-0.4c0.1-0.3-0.1-0.6-0.4-0.6
	c-5.2-1.6-10.8-3.9-16.2-4.4c-2.8-0.1-5.5,0.1-8.3,0.6l-9.3,1.1C96.4,148.1,96.4,149.1,97.1,149.1L97.1,149.1z"/>
<path d="M136.4,165.8c0.5-3.6,0-7.3-1.4-10.7c-0.2-0.6-1.2-0.3-1,0.3c1.4,3.3,1.9,6.9,1.4,10.5C135.3,166.5,136.3,166.5,136.4,165.8
	z"/>
<path d="M132.6,163.8c-4-3.2-8.5-6.4-13.9-5.6c-2.5,0.4-5,1.4-7.1,2.7c-2.8,1.6-5.3,4.2-8.4,5.3c-0.6,0.2-0.4,1.2,0.3,1
	c2.2-0.7,3.9-2.2,5.8-3.5c2.2-1.6,4.7-3,7.2-3.9c6-1.9,10.9,1.1,15.4,4.8C132.4,165,133.1,164.2,132.6,163.8L132.6,163.8z"/>
<path d="M106.7,168.3c4.1,3.1,9.2,4.3,14.2,3.5c4.5-0.4,8.6-2.8,11.1-6.6c0.4-0.5-0.5-1-0.9-0.5c-2.6,4-7,5.9-11.6,6.2
	c-4.4,0.5-8.8-0.8-12.4-3.5C106.7,167,106.2,167.9,106.7,168.3L106.7,168.3z"/>
<path d="M112.4,160.3c-0.8,4.5,2.9,9.2,7.7,8.1c3.8-0.8,8-6.5,3.9-9.5c-0.5-0.4-1,0.5-0.5,0.9c2,1.5,1,4.4-0.4,5.8
	c-1.1,1.2-2.7,2-4.4,2c-3.6,0-6-3.7-5.4-7C113.5,160,112.5,159.7,112.4,160.3L112.4,160.3z"/>
<path d="M118.3,159.1c-1,0.5-2.4,2-2,3.3c0.2,0.6,1,1,1.5,1.3c0.6,0.5,1.4,0.7,2.2,0.7c1.3-0.1,2.2-1.2,2.2-2.4
	c-0.1-1.4-1.1-2.6-2.5-3c-0.6-0.2-0.9,0.8-0.3,1c1,0.2,1.7,1.1,1.7,2.1c0,0.8-0.6,1.4-1.4,1.4c-0.2,0-0.3,0-0.5-0.1
	c-0.5-0.1-1.8-0.8-1.9-1.3c-0.2-0.9,0.9-1.8,1.5-2.1S118.9,158.9,118.3,159.1L118.3,159.1z"/>
<path d="M103.1,163.5c3.3-4.6,8.3-7.7,13.9-8.6c3-0.4,6.1-0.1,8.9,1.1c1.2,0.5,2.4,1.1,3.6,1.8c0.5,0.3,0.9,0.6,1.4,0.9
	c0,0,3,2,1.6,2.3c-0.6,0.1-0.4,1.1,0.3,1c2.6-0.5,0.4-2.9-0.7-3.7c-3.1-2.3-6.7-3.9-10.6-4.5c-7.5-0.9-14.9,3.3-19.2,9.2
	C101.9,163.5,102.7,164,103.1,163.5L103.1,163.5z"/>
<path d="M211.1,267c11.5-10.1,20.1-23,24.9-37.6c0.2-0.6-0.8-0.9-1-0.3c-4.7,14.3-13.2,27.2-24.5,37.1
	C209.9,266.7,210.6,267.4,211.1,267L211.1,267z"/>
<path d="M230,134.6c-2.1-5.5-7-8.8-9.4-14c-2.7-5.7-4.5-11.7-7.5-17.2c-1.3-2.5-3.7-4.6-5.6-6.6c-2.2-2.3-4.4-4.6-6.5-7
	c-1.9-2.1-3.8-4.3-5.6-6.5c-2-2.5-3.5-5.4-5.5-7.8c-1.5-1.7-3-4.1-5-5.2c-2.3-1.3-5.8-0.9-8.4-1c-3.5,0-6.9-0.5-10.3-1.4
	c-2.5-0.9-5.2-1-7.8-0.4c-6.4,1.6-12.3,6.9-19.2,5.4c-4.8-1.1-8.6-3.6-13.4-1c-6.4,3.6-12.8,7-18.7,11.5c-1.3,1-2.5,1.9-3.7,3
	c-1.3,1.2-2.3,2.6-3.6,3.9c-2.4,2.5-5.2,4.6-7.8,6.9c-0.5,0.4,0.2,1.1,0.7,0.7c2.2-1.9,4.4-3.7,6.5-5.7s3.9-4.4,6.2-6.3
	c4.8-3.8,9.8-7.2,15.2-10.1c2.6-1.4,5.9-3.9,8.9-4.2c2.8-0.2,5.4,1.1,8,1.9c4.5,1.4,10,0.1,14.2-1.9c3.1-1.4,5.8-3.2,9.3-3.5
	c3.3-0.2,6.4,1.4,9.6,1.8c2.7,0.4,5.5,0.4,8.2,0.5c1.5,0.1,4.1,0,5.5,0.7s2.5,2.3,3.4,3.5c3.6,4.2,6.5,9,10.2,13.2
	c3.8,4.4,8,8.5,11.9,12.8c4.5,4.9,6.2,11.9,8.8,17.9c1.2,2.8,2.3,5.4,4.4,7.5c2.6,2.4,4.6,5.4,6,8.7
	C229.3,135.4,230.2,135.2,230,134.6L230,134.6z"/>
<path d="M237.5,155c-0.9-0.6-1.5-1.3-2-2.3c-0.2-0.6-1.2-0.3-1,0.3c0.5,1.2,1.4,2.1,2.4,2.9C237.4,156.3,237.9,155.4,237.5,155
	L237.5,155z"/>
<path d="M249.5,156.8c0.9-1.9,1.8-3.8,2.8-5.7c0.3-0.6-0.6-1.1-0.9-0.5c-1,1.9-1.9,3.8-2.8,5.7C248.3,156.9,249.2,157.4,249.5,156.8
	z"/>
<path d="M249.6,236.3c1.8-1.5,3.1-3.6,3.6-5.9c0.1-0.3-0.1-0.6-0.4-0.6c-0.3-0.1-0.6,0.1-0.6,0.4l0,0c-0.4,2.1-1.5,3.9-3.1,5.3
	C248.6,235.8,249.1,236.6,249.6,236.3L249.6,236.3z"/>
<path d="M62.2,92.6c-3.5,15.4,3.2,30.2,8.8,44.2c5.9,14.8,13,29.2,15.1,45.2c1,7.3,2.2,14.5,6.8,20.5c0.4,0.5,1.1-0.2,0.7-0.7
	c-5.9-7.5-5.7-17.1-7.5-26c-1.9-9.2-5.4-18-9-26.6s-7.4-17.5-10.5-26.4c-3.4-9.6-5.7-19.7-3.4-29.8C63.3,92.3,62.3,92,62.2,92.6
	L62.2,92.6z"/>
<path d="M212.8,24.3C184,16,153.6,14.2,124.7,23c-0.3,0.1-0.4,0.4-0.4,0.6c0.1,0.3,0.4,0.4,0.6,0.4c28.7-8.8,59-7,87.6,1.2
	c0.3,0.1,0.6-0.1,0.6-0.4S213.1,24.3,212.8,24.3L212.8,24.3z"/>
<path d="M281.9,116.7c-1-14.1-4-29-10.4-41.7c-0.3-0.6-1.1-0.1-0.9,0.5c6.3,12.6,9.2,27.3,10.2,41.2
	C280.9,117.3,281.9,117.3,281.9,116.7z"/>
<path d="M192.2,79c10.9-1.3,14.3-12.4,19.7-20.3c0.4-0.5-0.5-1-0.9-0.5c-5.1,7.5-8.4,18.6-18.8,19.8C191.6,78.1,191.6,79.1,192.2,79
	L192.2,79z"/>
<path d="M190.8,76.8c8.6-4.1,14.9-11.7,17.3-20.9c0.1-0.3-0.1-0.6-0.4-0.6c-0.3-0.1-0.6,0.1-0.6,0.4c-2.3,8.9-8.5,16.4-16.9,20.3
	C189.6,76.2,190.1,77.1,190.8,76.8L190.8,76.8z"/>
<path d="M188.8,72.9c7.2-4,12.5-10.7,14.9-18.7c0.1-0.3-0.1-0.6-0.4-0.6c-0.3-0.1-0.6,0.1-0.6,0.4c-2.2,7.7-7.4,14.1-14.4,18.1
	C187.7,72.4,188.2,73.2,188.8,72.9z"/>
<path d="M193.8,81.7c6.2-0.6,11.7-5.4,14.8-10.6c0.1-0.2,0.1-0.5-0.2-0.7c-0.2-0.1-0.5-0.1-0.7,0.2c-2.9,4.9-8,9.5-13.9,10.1
	C193.2,80.8,193.2,81.8,193.8,81.7z"/>
<path d="M195.9,84.9c5-1.5,9.6-4.2,13.3-7.8c1.8-1.8,3.4-3.7,4.8-5.9c0.8-1.3,1.5-2.7,2.3-4c0.7-0.8,1.1-1.7,1-2.8c0-0.6-1-0.6-1,0
	c0.1,1.4-1.4,3.1-2.1,4.2c-0.5,0.9-1,1.8-1.6,2.6c-1.4,2-3,3.9-4.8,5.6c-3.5,3.2-7.7,5.6-12.3,7c-0.3,0.1-0.4,0.4-0.4,0.6
	C195.3,84.8,195.6,85,195.9,84.9L195.9,84.9z"/>
<path d="M196.9,87.8c11.5,0,19.2-11.3,24-20.4c0.3-0.6-0.6-1.1-0.9-0.5c-4.7,8.6-12.1,19.8-23.2,19.9c-0.3,0-0.5,0.2-0.5,0.5
	S196.6,87.8,196.9,87.8z"/>
<path d="M200.3,90.5c8.8-1.8,16.4-7.4,20.9-15.2c0.1-0.3,0-0.5-0.3-0.7c-0.2-0.1-0.4,0-0.6,0.1c-4.4,7.6-11.8,12.9-20.3,14.7
	C199.4,89.6,199.7,90.6,200.3,90.5L200.3,90.5z"/>
<path d="M202.2,92.9c4.4-0.2,8.7-1.5,12.3-4c3.3-2.2,5.6-5.6,7.7-8.8c0.4-0.5-0.5-1-0.9-0.5c-2.1,3.1-4.2,6.3-7.4,8.5
	c-3.5,2.4-7.6,3.7-11.8,3.9c-0.3,0-0.5,0.2-0.5,0.5S202,92.9,202.2,92.9L202.2,92.9z"/>
<path d="M206.3,96c5.2-0.1,9.9-2.5,13.9-5.6s8.3-7,9.3-12.2c0.1-0.6-0.8-0.9-1-0.3c-0.9,4.8-4.7,8.3-8.4,11.2
	c-4,3.2-8.6,5.7-13.9,5.8c-0.3,0-0.5,0.2-0.5,0.5S206,96,206.3,96L206.3,96z"/>
<path d="M209.2,99c3.2,0.3,6.4-1.6,9-3.1c3.1-1.8,6.1-3.9,8.8-6.3c0.5-0.4-0.2-1.1-0.7-0.7c-2.4,2.2-5.1,4.1-7.9,5.7
	c-2.7,1.6-6,3.7-9.3,3.4C208.5,97.9,208.5,98.9,209.2,99L209.2,99z"/>
<path d="M211.7,101.9c6.7-0.8,12.9-4.2,17.1-9.6c0.4-0.5-0.3-1.2-0.7-0.7c-4,5.2-9.9,8.5-16.4,9.3C211.1,101,211.1,102,211.7,101.9
	L211.7,101.9z"/>
<path d="M213.2,105.9c5.9,0.3,10.5-3.4,14.8-7c0.5-0.4-0.2-1.1-0.7-0.7c-4.1,3.5-8.4,7-14.1,6.7
	C212.6,104.9,212.6,105.9,213.2,105.9L213.2,105.9z"/>
<path d="M215.3,108.8c9.6-0.4,16.8-6.8,22.7-13.8c0.4-0.5-0.3-1.2-0.7-0.7c-5.7,6.7-12.7,13.1-22,13.5
	C214.6,107.8,214.6,108.8,215.3,108.8L215.3,108.8z"/>
<path d="M216.6,112.8c5,0.2,9.4-2,13.4-4.9c4.3-3.1,8.3-6.7,11.9-10.7c0.4-0.5-0.3-1.2-0.7-0.7c-3.3,3.7-7,7-11,10
	c-4,3-8.4,5.5-13.5,5.2C216,111.7,216,112.7,216.6,112.8L216.6,112.8z"/>
<path d="M217.6,116.3c8,0.7,14.5-4.2,19.8-9.6c0.5-0.5-0.3-1.2-0.7-0.7c-5.1,5.2-11.3,10-19.1,9.3
	C216.9,115.2,216.9,116.2,217.6,116.3z"/>
<path d="M219.9,119.7c9.6,0.8,16.6-7.2,23-13.2c0.5-0.4-0.2-1.1-0.7-0.7c-6.2,5.8-12.9,13.7-22.3,12.9
	C219.2,118.6,219.2,119.6,219.9,119.7z"/>
<path d="M221.2,122.7c5.4,0.3,9.3-0.6,13.6-3.9c4.2-3.1,8-6.8,11.2-10.9c0.4-0.5-0.5-1-0.9-0.5c-2.8,3.6-6.1,6.9-9.7,9.7
	c-1.8,1.6-3.9,3-6.1,4c-2.6,1-5.4,0.8-8.1,0.7C220.6,121.7,220.6,122.7,221.2,122.7L221.2,122.7z"/>
<path d="M223.4,125.6c3.2,0.2,6.4-0.4,9.3-1.7c0.6-0.2,0.1-1.1-0.5-0.9c-2.8,1.3-5.8,1.8-8.8,1.6
	C222.8,124.6,222.8,125.6,223.4,125.6z"/>
<path d="M226.2,129c1.8-0.2,3.6-0.5,5.4-1c0.3-0.1,0.4-0.4,0.4-0.6s-0.4-0.4-0.6-0.4c-1.7,0.5-3.4,0.8-5.1,1
	C225.6,128,225.6,129,226.2,129z"/>
<path d="M227.4,131.5c1.2,0.2,2.5,0.3,3.8,0.3c0.6,0,0.6-1,0-1c-1.2,0.1-2.3,0-3.5-0.2C227,130.4,226.8,131.4,227.4,131.5
	L227.4,131.5z"/>
<path d="M254.4,137.2c1-0.9,2-1.8,2.9-2.9c0.4-0.5-0.3-1.2-0.7-0.7c-0.9,1-1.9,2-2.9,2.9C253.2,136.9,253.9,137.6,254.4,137.2
	L254.4,137.2z"/>
<path d="M251.4,149c2.4-1.7,4.6-3.4,5.8-6.2c0.2-0.6-0.7-0.9-1-0.3c-1,2.5-3.2,4.1-5.3,5.6C250.3,148.5,250.9,149.4,251.4,149
	L251.4,149z"/>
<path d="M126,71.1c3.9-2.9,5.4-7.5,5.7-12.2c0-0.6-1-0.6-1,0c-0.2,4.3-1.5,8.7-5.2,11.3C125,70.6,125.5,71.4,126,71.1z"/>
<path d="M118.2,78.3c5.2-3.8,8.6-9.5,9.5-15.8c0.1-0.6-0.9-0.6-1,0c-0.9,6-4.2,11.4-9,15C117.2,77.8,117.7,78.7,118.2,78.3
	L118.2,78.3z"/>
<path d="M118.4,78.1c3-3.7,4.9-8.1,5.4-12.8c0.1-0.6-0.9-0.6-1,0c-0.6,4.4-2.3,8.6-5.1,12.1C117.3,77.9,118,78.6,118.4,78.1z"/>
<path d="M112.6,81.7c1.7-0.4,3.4-1.2,4.7-2.4c0.5-0.4-0.2-1.1-0.7-0.7c-1.2,1.1-2.7,1.8-4.3,2.2C111.7,80.8,112,81.8,112.6,81.7
	L112.6,81.7z"/>
<path d="M158.7,67.2C155.9,51,168.1,37.9,182,32c0.6-0.2,0.1-1.1-0.5-0.9c-14.4,6.1-26.6,19.7-23.8,36.3
	C157.8,68,158.8,67.8,158.7,67.2L158.7,67.2z"/>
<path d="M162.3,66.7c-0.2-3-0.5-6.1,0.5-9c0.9-2.4,2.1-4.7,3.5-6.8c2.6-4.3,5.6-8.4,10.3-10.6c0.6-0.3,0.1-1.1-0.5-0.9
	c-4.8,2.3-8,6.5-10.6,11c-1.5,2.2-2.7,4.5-3.6,7c-1,3-0.8,6.2-0.5,9.2C161.3,67.3,162.3,67.3,162.3,66.7L162.3,66.7z"/>
<path d="M167.4,67c-0.6-7.6,4-13.8,8.7-19.3c0.4-0.5-0.3-1.2-0.7-0.7c-4.9,5.7-9.5,12.1-9,20C166.4,67.7,167.4,67.7,167.4,67
	L167.4,67z"/>
<path d="M173.8,69.6c-1.8-4.9-0.2-9.8,2.3-14.1c2.1-3.7,4.6-7.9,8.9-9.2c0.6-0.2,0.4-1.2-0.3-1c-4.6,1.5-7.2,5.8-9.5,9.7
	c-2.6,4.5-4.2,9.7-2.4,14.8C173.1,70.4,174.1,70.1,173.8,69.6L173.8,69.6z"/>
<path d="M178,70.2c-1-5.5,0.8-11,4-15.5c1.5-2,3.1-3.8,5-5.5c2.1-1.9,4.6-4.3,7.4-5.2c0.6-0.2,0.4-1.2-0.3-1
	c-2.6,0.8-4.9,2.9-6.9,4.7c-2.3,1.9-4.4,4.1-6.2,6.5c-3.4,4.7-5.2,10.5-4.1,16.3C177.1,71,178,70.8,178,70.2L178,70.2z"/>
<path d="M182.9,69.9c-2.5-10.1,6.6-17.1,13.9-22.1c0.5-0.4,0-1.2-0.5-0.9c-7.6,5.3-16.9,12.7-14.3,23.3
	C182,70.9,183,70.6,182.9,69.9L182.9,69.9z"/>
<path d="M185.7,70.4c1.2-4.7,3.5-9.1,6.7-12.8c1.4-1.6,2.9-3.1,4.5-4.5c1-0.9,3.1-1.8,3.5-3.1c0.1-0.2,0-0.5-0.2-0.6l-0.2-0.1
	c-0.2-0.1-0.4-0.1-0.6,0.1l-0.1,0.1c-0.4,0.5,0.3,1.2,0.7,0.7c-0.1,0.1-1.1,0.1-1.3,0.2c-0.6,0.3-1.1,0.8-1.5,1.2
	c-0.8,0.7-1.6,1.4-2.4,2.1c-1.6,1.5-3.2,3.2-4.5,5c-2.6,3.4-4.4,7.2-5.5,11.3c-0.1,0.3,0.1,0.6,0.4,0.6
	C185.4,70.9,185.6,70.7,185.7,70.4L185.7,70.4z"/>
<path d="M187.4,71.9c5.9-7.6,15-16.2,13.4-26.7c-0.1-0.6-1.1-0.4-1,0.3c1.5,10-7.6,18.5-13.2,25.7C186.3,71.7,187,72.4,187.4,71.9
	L187.4,71.9z"/>
<path d="M154.3,68.7c-2.1-11.7,2.8-23.6,12.7-30.3c0.5-0.4,0-1.2-0.5-0.9c-10.2,7-15.4,19.3-13.1,31.5
	C153.4,69.6,154.4,69.3,154.3,68.7L154.3,68.7z"/>
<path d="M151.7,70.8c-1.4-2.3-1.4-4.9-1.4-7.5s-0.1-5.3,0.1-8c0.4-6.1,5.5-10.3,9.4-14.5c0.4-0.5-0.3-1.2-0.7-0.7
	c-3.8,4.1-9,8.4-9.6,14.4c-0.2,3.2-0.3,6.5-0.1,9.7c0,2.6,0.2,5,1.6,7.2C151.1,71.9,152,71.3,151.7,70.8L151.7,70.8z"/>
<path d="M149.4,71.4c-2-2.6-2-5.9-2-9c-0.1-3.1,0.1-6.1,0.5-9.2c1.1-6.5,4.4-11,9.4-15.2c0.5-0.4-0.2-1.1-0.7-0.7
	c-2.6,2.3-5.2,4.6-7,7.7c-1.5,2.9-2.5,6-2.8,9.3c-0.4,3.4-0.5,6.8-0.3,10.2c0.1,2.8,0.5,5.5,2.3,7.7
	C149.1,72.6,149.8,71.9,149.4,71.4L149.4,71.4z"/>
<path d="M146.3,72.1c-6.9-14.5-1.4-31.9,12.6-39.7c0.6-0.3,0.1-1.2-0.5-0.9c-14.5,8.1-20.2,26.1-13,41.1
	C145.6,73.2,146.5,72.7,146.3,72.1L146.3,72.1z"/>
<path d="M143.8,72.7c-2.2-5.3-2.4-11.1-0.6-16.5c0.2-0.6-0.8-0.9-1-0.3c-1.9,5.6-1.7,11.6,0.6,17.1C143,73.5,144,73.3,143.8,72.7
	L143.8,72.7z"/>
<path d="M142,73.8c-9.1-5.3-0.9-20,3.8-25.7c0.4-0.5-0.3-1.2-0.7-0.7c-5.1,6.2-13.5,21.5-3.6,27.3c0.2,0.1,0.5,0.1,0.7-0.2
	C142.3,74.3,142.2,74,142,73.8L142,73.8z"/>
<path d="M130.8,71c2.4-3.6,3.7-7.9,3.8-12.2c0-0.3-0.2-0.5-0.5-0.5s-0.5,0.2-0.5,0.5c-0.1,4.2-1.4,8.2-3.7,11.7
	C129.6,71,130.4,71.5,130.8,71z"/>
<path d="M135.2,71.9c1.4-4.5,0.9-9,0.7-13.6c0-0.6-1-0.6-1,0c0.2,4.5,0.7,8.9-0.7,13.3C134.1,72.2,135,72.5,135.2,71.9L135.2,71.9z"
	/>
<path d="M137.1,73.7c0.1-1.8,0.1-3.7-0.1-5.5c-0.1-0.6-1.1-0.6-1,0c0.2,1.8,0.3,3.7,0.1,5.5C136.1,74.3,137.1,74.3,137.1,73.7z"/>
<path d="M93.5,105.3c-2.5,8.8-13.8,12.7-21.9,14.1c-0.6,0.1-0.4,1.1,0.3,1c8.5-1.4,19.9-5.6,22.5-14.8c0.1-0.3-0.1-0.6-0.4-0.6
	C93.9,104.9,93.6,105.1,93.5,105.3L93.5,105.3z"/>
<path d="M93.5,109.7c-2.6,7.6-10.4,10.5-17.5,12.1c-0.6,0.1-0.4,1.1,0.3,1c7.5-1.7,15.5-4.9,18.2-12.8
	C94.6,109.4,93.7,109.1,93.5,109.7L93.5,109.7z"/>
<path d="M93,116.9c-3,5.1-8.4,8.3-14.3,8.6c-0.6,0-0.6,1,0,1c6.3-0.3,11.9-3.7,15.1-9.1c0.1-0.2,0.1-0.5-0.2-0.7
	C93.5,116.6,93.2,116.7,93,116.9L93,116.9z"/>
<path d="M91.3,124.1c-4.7,3.7-9.7,7.6-16,7.9c-0.6,0-0.6,1,0,1c6.5-0.4,11.7-4.3,16.7-8.2C92.5,124.4,91.7,123.7,91.3,124.1
	L91.3,124.1z"/>
<path d="M79.2,136.6c5.8,1.1,10.5-3.7,12.9-8.5c0.3-0.6-0.6-1.1-0.9-0.5c-2.2,4.3-6.4,9-11.8,8C78.8,135.5,78.5,136.5,79.2,136.6
	L79.2,136.6z"/>
<path d="M81,140.8c2.5,0.1,4.7-0.1,6.8-1.6c1.6-1.2,3.5-2.8,4.1-4.8c0.2-0.6-0.8-0.9-1-0.3c-0.5,1.7-2.4,3.2-3.8,4.2
	c-1.9,1.4-3.9,1.5-6.1,1.4C80.3,139.8,80.3,140.8,81,140.8L81,140.8z"/>
<path d="M79.7,146.8c2.6,0.2,5.4,0.3,7.8-0.7c2.2-0.9,3.7-2.8,5.1-4.6c0.4-0.5-0.5-1-0.9-0.5c-1.5,2.1-3.2,3.9-5.8,4.6
	c-2.1,0.4-4.2,0.5-6.3,0.2C79.1,145.8,79.1,146.8,79.7,146.8L79.7,146.8z"/>
<path d="M85.7,143.1c1.7-0.5,3.3-1.2,4.8-2.2c1-0.7,2-1.5,2-2.8c0-0.3-0.2-0.5-0.5-0.5s-0.5,0.2-0.5,0.5c0,1.3-1.7,2.1-2.7,2.6
	c-1.1,0.6-2.2,1-3.4,1.4c-0.3,0.1-0.4,0.4-0.4,0.6C85.1,143,85.4,143.2,85.7,143.1L85.7,143.1z"/>
<path d="M87.4,150c1.4-0.5,2.6-1.3,3.8-2.2c1-0.9,2.2-2,2.2-3.4c0-0.6-1-0.6-1,0c0,1.2-1.3,2.3-2.3,3c-0.9,0.7-1.9,1.2-3,1.6
	C86.5,149.3,86.7,150.2,87.4,150L87.4,150z"/>
<path d="M85.4,155.2c3.6-0.7,6.8-2.8,8.8-6c0.3-0.6-0.5-1-0.9-0.5c-1.8,2.9-4.8,5-8.2,5.5C84.5,154.4,84.8,155.3,85.4,155.2
	L85.4,155.2z"/>
<path d="M86.6,159.2c3.5-0.1,6.5-2.2,7.9-5.4c0.2-0.6-0.7-0.9-1-0.3c-1.2,2.8-3.9,4.6-6.9,4.6c-0.3,0-0.5,0.2-0.5,0.5
	C86.1,159,86.3,159.2,86.6,159.2L86.6,159.2z"/>
<path d="M87.9,163.5c2.8-0.3,6.8-1.7,7.2-4.9c0.1-0.6-0.9-0.9-1-0.3c-0.4,2.8-3.9,3.9-6.3,4.2C87.2,162.5,87.2,163.5,87.9,163.5
	L87.9,163.5z"/>
<path d="M87.4,168.3c2.7,0.2,5.9,0,7-2.9c0.2-0.6-0.7-0.9-1-0.3c-0.9,2.4-3.9,2.3-6.1,2.2C86.7,167.3,86.7,168.3,87.4,168.3
	L87.4,168.3z"/>
<path d="M89.8,165.6c2.2,0.1,4.2-1.1,5.3-3c0.1-0.2,0.1-0.5-0.2-0.7c-0.2-0.1-0.5-0.1-0.7,0.2c-0.9,1.6-2.6,2.6-4.4,2.5
	C89.2,164.6,89.2,165.6,89.8,165.6L89.8,165.6z"/>
<path d="M86.9,174c3,0.9,6.2-0.9,7.1-3.9c0-0.1,0-0.1,0-0.2c0.1-0.6-0.8-0.9-1-0.3c-0.6,2.5-3.2,4.1-5.7,3.4c-0.1,0-0.1,0-0.2-0.1
	c-0.3-0.1-0.6,0.1-0.6,0.4C86.5,173.7,86.6,174,86.9,174L86.9,174L86.9,174z"/>
<path d="M88.6,170.8c2.1,0.3,4.9,0.4,6-1.9c0.3-0.6-0.6-1.1-0.9-0.5c-0.9,1.9-3.1,1.7-4.8,1.4C88.2,169.8,88,170.7,88.6,170.8
	L88.6,170.8z"/>
<path d="M86.9,177.5c2.6,0.7,5.2-0.4,6.7-2.6c0.4-0.5-0.5-1-0.9-0.5c-1.2,1.8-3.5,2.6-5.6,2.1c-0.3-0.1-0.6,0.1-0.6,0.4
	C86.5,177.2,86.6,177.5,86.9,177.5L86.9,177.5L86.9,177.5z"/>
<path d="M136.1,173.9c-1.1,5.3-2.1,10.6-2.8,16c-0.7,5.6-1.6,11.7-1.3,17.3c0.2,3.5,3.2,5,6.5,4.4c2.4-0.5,4.7-1.2,7-2l9-2.8
	c0.6-0.2,0.4-1.1-0.3-1c-4.4,1.4-8.8,2.8-13.2,4.1c-2.6,0.8-6.5,1.8-7.8-1.6c-0.7-2-0.1-4.8,0-6.8c0.5-9.2,1.8-18.4,3.8-27.4
	C137.2,173.5,136.3,173.2,136.1,173.9L136.1,173.9z"/>
<path d="M87.1,181.5c2.4,0.4,4.9-0.5,6.5-2.4c0.4-0.5-0.3-1.2-0.7-0.7c-1.4,1.6-3.5,2.4-5.5,2.1C86.8,180.5,86.5,181.4,87.1,181.5
	L87.1,181.5z"/>
<path d="M88.6,185.8c1.5,0.5,3.2,0.3,4.6-0.6c0.2-0.1,0.3-0.4,0.2-0.7c-0.1-0.2-0.4-0.3-0.7-0.2c-1.1,0.7-2.5,0.9-3.8,0.5
	c-0.3-0.1-0.6,0.1-0.6,0.4C88.2,185.5,88.4,185.8,88.6,185.8L88.6,185.8L88.6,185.8z"/>
<path d="M89.8,190.8c1.2,0.3,2.5-0.1,3.2-1.2c0.4-0.5-0.5-1-0.9-0.5c-0.5,0.7-1.3,1-2.1,0.7c-0.3-0.1-0.6,0.1-0.6,0.4
	C89.4,190.5,89.6,190.8,89.8,190.8L89.8,190.8z"/>
<path d="M89.2,193.4c1.5,0.1,2.9-0.4,4-1.4c0.5-0.4-0.2-1.1-0.7-0.7c-0.9,0.8-2.1,1.3-3.3,1.1C88.6,192.3,88.6,193.3,89.2,193.4
	L89.2,193.4z"/>
<path d="M89.5,195.5c1.3,0.2,2.7-0.2,3.7-1.2c0.2-0.2,0.1-0.5-0.1-0.7c-0.2-0.1-0.4-0.1-0.6,0c-0.7,0.7-1.7,1-2.7,0.9
	C89.1,194.5,88.9,195.4,89.5,195.5L89.5,195.5z"/>
<path d="M90.9,197.8c1-0.1,2-0.4,2.8-1.1c0.5-0.4,0-1.2-0.5-0.9c-0.7,0.5-1.5,0.9-2.3,0.9C90.2,196.9,90.2,197.9,90.9,197.8
	L90.9,197.8z"/>
<path d="M91.6,200.2c0.7,0.4,1.6,0.2,2.1-0.4c0.4-0.5-0.3-1.2-0.7-0.7c-0.2,0.3-0.6,0.4-0.9,0.2C91.5,199.1,91,200,91.6,200.2z"/>
<path d="M124.9,175.8c3.7-1.2,6.8-3.7,8.9-7c0.3-0.6-0.5-1-0.9-0.5c-1.9,3.1-4.8,5.4-8.2,6.6C124,175.1,124.3,176,124.9,175.8
	L124.9,175.8z"/>
<path d="M164.1,168.1l9.2,3.3c0.6,0.2,0.9-0.8,0.3-1l-9.2-3.2C163.8,167,163.5,167.9,164.1,168.1L164.1,168.1z"/>
<path d="M81.2,112.9c7.2-1.9,10.5-8.7,12.9-15.1c0.2-0.6-0.7-0.9-1-0.3c-2.3,6.1-5.4,12.6-12.2,14.4c-0.3,0.1-0.4,0.4-0.4,0.6
	S80.9,113.1,81.2,112.9L81.2,112.9z"/>
<path d="M81.3,106.7c5.3-1.5,9.9-4.8,13-9.4c0.4-0.5-0.5-1-0.9-0.5c-2.9,4.4-7.3,7.6-12.4,9c-0.3,0.1-0.4,0.4-0.4,0.6
	S81,106.8,81.3,106.7L81.3,106.7L81.3,106.7z"/>
<path d="M77.3,151.8l5.9,0.9c0.6,0.1,0.9-0.9,0.3-1l-5.9-0.9C76.9,150.7,76.6,151.7,77.3,151.8L77.3,151.8z"/>
<path d="M80.6,157.2c1,0.9,2.4,1.4,3.7,1.4c0.6,0,0.6-1,0-1c-1.1,0.1-2.2-0.3-3-1.1C80.9,156,80.2,156.8,80.6,157.2L80.6,157.2z"/>
<path d="M81.7,160.2c1.6,0.4,3.2,0.6,4.9,0.7c0.6,0,0.6-1,0-1c-1.5-0.1-3.1-0.3-4.6-0.7C81.4,159.1,81.1,160.1,81.7,160.2
	L81.7,160.2z"/>
<path d="M83,164c1.9,0.5,3.4,2.3,5.5,1.4c0.6-0.3,0.1-1.1-0.5-0.9c-1.6,0.7-3.2-1.1-4.7-1.5C82.6,162.9,82.3,163.9,83,164L83,164z"
	/>
<path d="M83.8,169.9c0.7,0.5,1.7,0.8,2.6,0.7c0.6-0.1,0.6-1.1,0-1c-0.7,0.1-1.5-0.1-2.1-0.5C83.8,168.6,83.3,169.5,83.8,169.9z"/>
<path d="M85.5,179.1l2.5,0.4c0.6,0.1,0.9-0.9,0.3-1l-2.5-0.4C85.2,178,84.9,179,85.5,179.1z"/>
<path d="M70.7,138.2c0.9,4.4,6.5,4.8,10,4.9c0.3,0,0.5-0.2,0.5-0.5c0-0.3-0.2-0.5-0.5-0.5c-3.1-0.1-8.3-0.2-9.1-4.2
	C71.5,137.3,70.6,137.6,70.7,138.2L70.7,138.2z"/>
<path d="M68.4,133.9c1.2,3.7,5,5.9,8.8,5.1c0.6-0.1,0.4-1.1-0.3-1c-3.3,0.6-6.5-1.3-7.5-4.4C69.2,133,68.2,133.2,68.4,133.9
	L68.4,133.9z"/>
<path d="M68.6,128.4c-0.4,3,1.7,5.8,4.7,6.1c0.1,0,0.2,0,0.3,0c0.6,0.1,0.6-0.9,0-1c-2.5-0.2-4.3-2.4-4-4.9c0-0.1,0-0.2,0-0.3
	C69.6,127.8,68.6,127.8,68.6,128.4z"/>
<path d="M68.1,123.8c0.1,1.8,0.5,3.8,1.9,5c1.8,1.5,4.9,1.3,7,1.2c0.6,0,0.6-1,0-1c-1.8,0.1-4.1,0.3-5.7-0.5
	c-1.6-0.8-2.1-2.8-2.2-4.6C69,123.2,68,123.2,68.1,123.8L68.1,123.8z"/>
<path d="M67.9,119.1c-0.3,1.9,1.2,3.9,2.5,5.1c1.2,1.4,3.1,2,4.9,1.6c0.6-0.1,0.4-1.1-0.3-1c-1.4,0.3-2.9-0.2-3.9-1.4
	c-0.9-0.9-2.4-2.8-2.2-4.1C68.9,118.7,68,118.5,67.9,119.1L67.9,119.1z"/>
<path d="M63.3,109.9c0.8,8.2,10.3,7.8,16.1,5.9c0.6-0.2,0.4-1.2-0.3-1c-5.1,1.7-14.1,2.6-14.8-4.9C64.3,109.3,63.3,109.3,63.3,109.9
	L63.3,109.9z"/>
<path d="M60.9,101.7c0.1,3.3,0.4,7.4,3.7,9c1.9,0.9,4.3,0.8,6.3,0.9c2.2,0.1,4.3,0.3,6.3-0.7c0.6-0.3,0.1-1.2-0.5-0.9
	c-1.7,0.9-3.5,0.7-5.3,0.6c-1.7,0-3.3-0.1-5-0.4c-4.1-1-4.5-5-4.5-8.6c0-0.3-0.2-0.5-0.5-0.5S60.9,101.4,60.9,101.7L60.9,101.7z"/>
<path d="M63.4,89.7c-1.8,4.2-2.4,9.2,0.8,12.9c3,3.5,8.1,6,12.7,5.1c0.6-0.1,0.4-1.1-0.3-1c-4.1,0.7-8.4-1.5-11.2-4.3
	c-3.4-3.4-2.8-8.2-1.1-12.3C64.5,89.6,63.7,89.1,63.4,89.7L63.4,89.7z"/>
<path d="M63.2,92.9c1.5,5.2,6,9,11.3,9.5c0.6,0.1,0.6-0.9,0-1c-4.9-0.5-9-4-10.4-8.8c-0.1-0.3-0.4-0.4-0.6-0.4
	C63.2,92.3,63.1,92.6,63.2,92.9L63.2,92.9z"/>
<path d="M66.6,93c1.1,1.7,2.7,2.9,4.5,3.5c0.6,0.2,0.9-0.8,0.3-1c-1.6-0.5-3-1.6-3.9-3C67.1,92,66.2,92.5,66.6,93L66.6,93z"/>
<path d="M83.3,100.4c3.7,0,7.3-1.1,10.4-3.1c0.5-0.3,0-1.2-0.5-0.9c-3,1.9-6.4,2.9-9.9,2.9c-0.3,0-0.5,0.2-0.5,0.5
	S83,100.4,83.3,100.4z"/>
<path d="M81.9,96c5.4,1.2,10.4,1.5,15-2c0.5-0.4,0-1.2-0.5-0.9c-4.4,3.4-9.1,3.1-14.3,1.9C81.6,94.9,81.3,95.9,81.9,96L81.9,96z"/>
<path d="M77.1,90.2c2.1,0.6,4,1.8,6.1,2.4c1.9,0.5,3.9,0.8,5.9,0.8c3.6,0.1,7.4,0.3,10.5-1.7c0.5-0.3,0-1.2-0.5-0.9
	c-3.1,2.1-7.3,1.7-10.9,1.5c-2.1-0.1-4.3-0.5-6.2-1.3c-1.5-0.7-3-1.3-4.6-1.8c-0.3-0.1-0.6,0.1-0.6,0.4
	C76.7,89.9,76.9,90.1,77.1,90.2L77.1,90.2z"/>
<path d="M82.4,88.1c3.1,1.7,5.8,2.9,9.5,2.7c3.6-0.3,7.1-1.2,10.5-2.5c0.6-0.2,0.3-1.2-0.3-1c-2.9,1.1-5.9,1.9-8.9,2.4
	c-3.9,0.5-6.9-0.6-10.2-2.4C82.3,86.9,81.8,87.8,82.4,88.1L82.4,88.1z"/>
<path d="M85.8,85.6c3.9,1,7.7,1.8,11.7,1.4c4-0.6,8-1.7,11.7-3.3c0.6-0.2,0.3-1.2-0.3-1c-3.7,1.6-7.5,2.7-11.5,3.3
	c-3.9,0.4-7.7-0.4-11.5-1.3C85.4,84.4,85.1,85.4,85.8,85.6L85.8,85.6z"/>
<path d="M104.5,85c8.9-0.7,14.7-8.5,14.6-17.1c0-0.3-0.2-0.5-0.5-0.5s-0.5,0.2-0.5,0.5c0.1,8-5.3,15.5-13.6,16.1
	C103.9,84,103.9,85,104.5,85z"/>
<path d="M107.9,83.8c6.5-0.3,8-8.1,6.5-13.3c-0.1-0.3-0.4-0.4-0.6-0.4c-0.3,0.1-0.4,0.4-0.4,0.6c1.2,4.5,0.2,11.8-5.6,12
	C107.2,82.8,107.2,83.8,107.9,83.8L107.9,83.8z"/>
<path d="M110.5,81.4c-3.3,0.3-6.7,0.3-10-0.2c-0.6-0.1-0.9,0.9-0.3,1c3.4,0.4,6.8,0.5,10.2,0.2C111.1,82.4,111.1,81.4,110.5,81.4
	L110.5,81.4z"/>
<path d="M109.9,82.3c-5.7,0.5-11.3,2.3-16.9,0.3c-0.6-0.2-0.9,0.8-0.3,1c5.7,1.9,11.4,0.2,17.2-0.3
	C110.5,83.2,110.5,82.2,109.9,82.3L109.9,82.3z"/>
<path d="M101.7,78.4c3.6,1.2,7.3,2,11,2.2c0.6,0.1,0.6-0.9,0-1c-3.7-0.3-7.3-1-10.7-2.2C101.3,77.2,101.1,78.2,101.7,78.4
	L101.7,78.4z"/>
<path d="M95.9,62.6c-0.5,4.4,1.8,8.2,4.8,11.2s7,6,11.5,6.8c0.6,0.1,0.9-0.9,0.3-1c-4.1-0.7-7.5-3.1-10.5-5.9
	c-3.1-3-5.6-6.6-5.1-11.1C97,62,96,62,95.9,62.6L95.9,62.6z"/>
<path d="M109,77c1.4,1.1,2.8,2,4.4,2.8c0.6,0.3,1.1-0.6,0.5-0.9c-1.5-0.7-2.9-1.6-4.2-2.6C109.2,75.9,108.5,76.6,109,77L109,77z"/>
<path d="M110.8,74.6c1,1.2,2.1,2.3,3.2,3.4c0.5,0.4,1.2-0.3,0.7-0.7c-1.1-1.1-2.2-2.2-3.2-3.4C111.1,73.3,110.4,74,110.8,74.6
	L110.8,74.6z"/>
<path d="M131.1,24c-1.6-0.5-3.3-0.1-4.5,1c-0.5,0.4,0.2,1.1,0.7,0.7c1-0.8,2.3-1.1,3.5-0.7C131.4,25.2,131.7,24.2,131.1,24L131.1,24
	z"/>
<path d="M135,22.7c-3.2-0.4-4.7,3.4-5.4,5.9c-0.1,0.3,0.1,0.6,0.4,0.6c0.3,0.1,0.6-0.1,0.6-0.4c0.6-2,1.8-5.5,4.5-5.2
	C135.7,23.8,135.7,22.8,135,22.7L135,22.7z"/>
<path d="M136.4,36.4c-0.7-5.9,2.8-10.5,6.9-14.4c0.5-0.5-0.2-1.2-0.7-0.7c-4.2,4-8,8.9-7.2,15.1C135.5,37.1,136.5,37.1,136.4,36.4z"
	/>
<path d="M143.2,36c-2.3-2.5-0.5-6.6,0.9-9.1c1.4-2.4,3.2-4.5,5.3-6.2c0.5-0.4-0.2-1.1-0.7-0.7c-3.9,3.1-10.8,11.7-6.2,16.7
	C142.9,37.1,143.6,36.4,143.2,36z"/>
<path d="M149.4,33.1c-3.4-4.8,2.8-10.9,7-12.7c0.6-0.3,0.1-1.1-0.5-0.9c-4.7,2-11.1,8.8-7.3,14.1C148.9,34.1,149.8,33.6,149.4,33.1
	L149.4,33.1z"/>
<path d="M155,31.5c-0.2-1.5-0.1-3,0.4-4.5c0.8-1.5,2-2.9,3.5-3.8c2.1-1.5,4.4-2.7,6.8-3.5c0.6-0.2,0.3-1.2-0.3-1
	c-3,1.1-5.9,2.7-8.4,4.7c-2.6,2.3-3.3,4.6-3,8.1C154.1,32.1,155.1,32.1,155,31.5L155,31.5z"/>
<path d="M161.5,26.8c2.9-3.7,7.1-6.2,11.7-7.1c0.6-0.1,0.4-1.1-0.3-1c-4.8,0.9-9.1,3.5-12.1,7.4C160.4,26.6,161.1,27.3,161.5,26.8
	L161.5,26.8z"/>
<path d="M161.1,35.1c1.7-3.7,4.7-6.5,7.8-9c3.4-2.8,7.1-5.3,11.7-5.4c0.6,0,0.6-1,0-1c-4.2,0.1-7.8,2.1-11.1,4.7
	c-3.6,2.8-7.2,6-9.2,10.3C160,35.2,160.8,35.7,161.1,35.1L161.1,35.1z"/>
<path d="M169.7,30.8c2.7-3.6,6.6-6.2,10.9-7.5c3.8-1,7.8-1.1,11.5-2.8c0.6-0.3,0.1-1.1-0.5-0.9c-4.5,2.1-9.6,1.7-14.1,3.7
	c-3.4,1.5-6.4,3.9-8.6,6.9C168.4,30.8,169.3,31.3,169.7,30.8L169.7,30.8z"/>
<path d="M182.1,29.2c4-3.8,9.3-7.3,14.9-7.8c0.6,0,0.6-1,0-1c-6,0.5-11.4,4-15.6,8C180.9,28.9,181.7,29.6,182.1,29.2L182.1,29.2z"/>
<path d="M187.2,31.7c5.2-4.1,10.9-8.4,17.9-7.5c0.6,0.1,0.6-0.9,0-1c-7.3-0.9-13.2,3.5-18.6,7.8C186,31.4,186.7,32.1,187.2,31.7z"/>
<path d="M184.7,40.6c6.7-7.7,15.3-14.8,26-14.1c0.6,0,0.6-1,0-1c-11-0.6-19.9,6.6-26.7,14.4C183.5,40.3,184.2,41,184.7,40.6
	L184.7,40.6z"/>
<path d="M197.3,37.6c2.8-3.4,6.8-5.3,10.9-6.7c0.6-0.2,0.3-1.2-0.3-1c-4.3,1.5-8.4,3.4-11.3,7C196.1,37.4,196.8,38.1,197.3,37.6
	L197.3,37.6z"/>
<path d="M256.9,72.4c4.6,1.2,10,2.2,13.2,6.1c0.4,0.5,1.1-0.2,0.7-0.7c-3.3-4-8.9-5.1-13.6-6.3c-0.3-0.1-0.6,0.1-0.6,0.4
	C256.5,72.1,256.6,72.4,256.9,72.4L256.9,72.4z"/>
<path d="M267.5,75.1c1.2,0.7,2.3,1.6,3.3,2.5c0.5,0.4,1.2-0.3,0.7-0.7c-1.1-1-2.3-1.9-3.5-2.6C267.4,73.9,267,74.7,267.5,75.1
	L267.5,75.1z"/>
<path d="M249.7,76.2c7.9,1.3,15.6,3.6,22.9,6.9c0.6,0.3,1.1-0.6,0.5-0.9c-7.4-3.4-15.2-5.7-23.2-7C249.4,75.2,249.1,76.1,249.7,76.2
	L249.7,76.2z"/>
<path d="M235.3,75.2c1.5,0,3,0,4.5,0c0.6,0,0.6-1,0-1c-1.5,0-3-0.1-4.5,0c-0.3,0-0.5,0.2-0.5,0.5S235,75.2,235.3,75.2z"/>
<path d="M253.2,73.9c6.4,1.5,13,2.8,18.7,6.3c0.5,0.3,1-0.5,0.5-0.9c-5.7-3.6-12.4-4.9-18.9-6.4C252.9,72.8,252.6,73.8,253.2,73.9
	L253.2,73.9z"/>
<path d="M238.6,80.4c11.8-1.5,23.9-0.3,35.1,3.6c0.6,0.2,0.9-0.8,0.3-1c-11.4-3.9-23.5-5.2-35.4-3.6C238,79.5,238,80.5,238.6,80.4
	L238.6,80.4z"/>
<path d="M241,85.7c10.2-5.1,23.7-2.7,34.2,0.4c0.3,0.1,0.6-0.1,0.6-0.4c0.1-0.3-0.1-0.6-0.4-0.6c-10.8-3.2-24.5-5.6-35-0.3
	C239.9,85.1,240.4,86,241,85.7L241,85.7z"/>
<path d="M241.5,90.3c10.9-5.5,23.6-6.1,34.9-1.5c0.6,0.2,0.9-0.7,0.3-1c-11.6-4.6-24.6-4-35.7,1.6C240.4,89.8,240.9,90.6,241.5,90.3
	L241.5,90.3z"/>
<path d="M260.8,138.3c2.4-1.2,4.6-2.6,6.7-4.2c0.5-0.4,0-1.3-0.5-0.9c-2.1,1.6-4.3,3-6.7,4.2C259.7,137.8,260.2,138.6,260.8,138.3z"
	/>
<path d="M279.3,110.3c0.5-2,1.1-4,1.8-5.9c0.2-0.6-0.7-0.9-1-0.3c-0.7,1.9-1.2,3.9-1.8,5.9c-0.1,0.3,0.1,0.6,0.4,0.6
	C279,110.8,279.2,110.6,279.3,110.3z"/>
<path d="M264,130.3c0.8-0.7,1.6-1.3,2.3-2c0.5-0.4-0.2-1.1-0.7-0.7c-0.8,0.7-1.5,1.4-2.3,2C262.8,130,263.5,130.7,264,130.3z"/>
<path d="M276.7,109.1c1.2-3.4,2.2-6.9,2.9-10.4c0.1-0.6-0.8-0.9-1-0.3c-0.7,3.5-1.7,7-3,10.4C275.4,109.4,276.4,109.7,276.7,109.1
	L276.7,109.1z"/>
<path d="M271.7,108.2c3.5-4,5.9-8.7,6.9-13.9c0.1-0.6-0.9-0.9-1-0.3c-1,5-3.3,9.6-6.6,13.5C270.6,108,271.3,108.7,271.7,108.2
	L271.7,108.2z"/>
<path d="M263.9,107.6c5.6-4.5,10.1-10.1,13.3-16.5c0.3-0.6-0.6-1.1-0.9-0.5c-3.1,6.3-7.6,11.9-13.1,16.3
	C262.7,107.2,263.4,107.9,263.9,107.6L263.9,107.6z"/>
<path d="M255.9,106.9c8.7-3,15.6-9.5,19.1-18c0.2-0.6-0.7-0.8-1-0.3c-3.3,8.2-10,14.5-18.4,17.3C255,106.1,255.2,107.1,255.9,106.9
	L255.9,106.9z"/>
<path d="M250.5,102.4c8.5-1.1,15.4-8.4,21.2-14c0.5-0.4-0.2-1.2-0.7-0.7c-5.6,5.4-12.4,12.7-20.5,13.8
	C249.9,101.6,249.9,102.6,250.5,102.4L250.5,102.4z"/>
<path d="M247.7,96.8c9.2-0.2,17.3-4.8,24.9-9.4c0.5-0.3,0-1.2-0.5-0.9c-7.5,4.5-15.4,9-24.4,9.2c-0.3,0-0.5,0.2-0.5,0.5
	S247.4,96.8,247.7,96.8z"/>
<path d="M245.8,93c9-0.4,17.9-2.4,26.2-6c0.6-0.3,0.1-1.1-0.5-0.9c-8.1,3.5-16.9,5.5-25.7,5.9C245.2,92,245.2,93,245.8,93L245.8,93z
	"/>
<path d="M166.7,152.6c2.7-2.6,5.5-5.2,9.2-6c0.6-0.1,0.4-1.1-0.3-1c-3.9,0.8-6.9,3.5-9.6,6.3C165.5,152.3,166.2,153,166.7,152.6
	L166.7,152.6z"/>
<path d="M162.1,143.5c0.6-1,1.2-1.9,1.9-2.8c0.3-0.4,0.7-0.9,1-1.3c0.2-0.3,1.1-0.9,1-1.2c0.1,0.6,1.1,0.6,1,0
	c0-0.4-0.3-0.8-0.8-0.9c-0.7-0.1-1.2,0.6-1.6,1c-1.3,1.4-2.5,3-3.5,4.6c-0.1,0.3,0,0.5,0.2,0.7C161.7,143.7,162,143.7,162.1,143.5
	L162.1,143.5z"/>
<path d="M166.4,141.3c0.1-2.2,2.5-3,4.3-3.4c0.3-0.1,0.4-0.4,0.4-0.6c-0.1-0.3-0.4-0.4-0.6-0.4c-2.3,0.6-5,1.6-5,4.4
	C165.4,141.9,166.4,141.9,166.4,141.3L166.4,141.3z"/>
<path d="M169.7,140.2c0.7-1.8,2.4-3,4.3-3.2c0.6-0.1,0.6-1.1,0-1c-2.3,0.2-4.2,1.6-5.2,3.7C168.6,140.3,169.4,140.8,169.7,140.2
	L169.7,140.2z"/>
<path d="M173.4,139.8c1.2-1.5,2.8-2.7,4.6-3.4c0.6-0.2,0.3-1.2-0.3-1c-2,0.8-3.7,2-5,3.7C172.3,139.6,173,140.3,173.4,139.8
	L173.4,139.8z"/>
<path d="M177.6,138.4c0.4-0.3,5.6-3.7,5.6-3.7c0.2,0.6,1.2,0.3,1-0.3c-0.5-1.2-1.7-0.3-2.5,0.1c-1.7,0.9-3.3,2-4.8,3.2
	C176.5,138.1,177.2,138.8,177.6,138.4L177.6,138.4z"/>
<path d="M182.5,137.2c1.3-1.1,2.9-1.8,4.6-1.9c0.6,0,0.6-1,0-1c-2,0.1-3.9,0.8-5.3,2.1C181.3,136.9,182,137.6,182.5,137.2
	L182.5,137.2z"/>
<path d="M186,137.2c1.3-1,2.9-1.6,4.5-1.7c0.9,0,1.7-0.4,2.4-1c0.5-0.5-0.2-1.2-0.7-0.7c-1,1-2.5,0.7-3.8,1
	c-1.2,0.3-2.3,0.9-3.2,1.7C184.8,136.9,185.5,137.6,186,137.2L186,137.2z"/>
<path d="M192,136.7c0.7-0.1,1.5-0.3,2.1-0.5c0.4-0.2,2.1-1.4,2.5-1c0.4,0.4,1.1-0.2,0.7-0.7c-0.5-0.5-1.3-0.6-1.9-0.2
	c-1,0.7-2.2,1.2-3.4,1.4C191.4,135.8,191.4,136.8,192,136.7L192,136.7z"/>
<path d="M196.2,136.6c1.6,0.1,3.2-0.9,4.8-0.4c0.3,0.1,0.6-0.1,0.6-0.4c0.1-0.3-0.1-0.6-0.4-0.6c-1.7-0.5-3.3,0.5-5,0.4
	C195.6,135.5,195.6,136.5,196.2,136.6L196.2,136.6z"/>
<path d="M200.8,137.7l7.4-0.3c0.6,0,0.6-1,0-1l-7.4,0.3C200.2,136.7,200.2,137.7,200.8,137.7z"/>
<path d="M209.4,138.4c2.9-0.4,5.6,0.5,8.4,1.4c0.6,0.2,0.9-0.8,0.3-1c-2.8-1-5.6-1.8-8.6-1.4C208.8,137.4,208.8,138.4,209.4,138.4
	L209.4,138.4z"/>
<path d="M130.4,150.3c-1.1-1.3-2.3-2.6-3.6-3.8c-0.5-0.4-1.2,0.3-0.7,0.7c1.3,1.2,2.5,2.4,3.6,3.8
	C130.1,151.5,130.8,150.8,130.4,150.3z"/>
<path d="M127.3,149.8c0.8-2-1.8-2.7-2.8-3.8c-0.4-0.5-1.1,0.2-0.7,0.7c0.5,0.4,1,0.8,1.6,1.1c0.6,0.4,1.3,0.9,1,1.7
	C126.2,150.1,127.1,150.4,127.3,149.8L127.3,149.8z"/>
<path d="M126.1,149.1c-0.2-1.5-1.1-2.8-2.4-3.6c-0.5-0.3-1,0.5-0.5,0.9c1.1,0.7,1.8,1.8,2,3C125.2,150,126.2,149.8,126.1,149.1
	L126.1,149.1z"/>
<path d="M124.2,148.9c-0.1-1.9-1.6-3.1-3.1-4.1c-0.5-0.4-1,0.5-0.5,0.9c1.2,0.8,2.6,1.7,2.6,3.2
	C123.2,149.6,124.2,149.6,124.2,148.9z"/>
<path d="M121.5,147.9c-0.2-1.6-1.5-4.7-3.6-3.8c-0.6,0.2-0.3,1.2,0.3,1c1.4-0.6,2.2,1.8,2.4,2.8
	C120.6,148.5,121.6,148.5,121.5,147.9L121.5,147.9z"/>
<path d="M119.7,147.6c0.1-1.9-1.6-2.8-3.1-3.4c-0.6-0.2-0.9,0.7-0.3,1c1.1,0.4,2.5,1.1,2.4,2.4C118.7,148.3,119.7,148.3,119.7,147.6
	L119.7,147.6z"/>
<path d="M116.9,146.3c-0.7-1.2-1.8-2.2-3.1-2.7c-0.6-0.2-0.9,0.7-0.3,1c1.1,0.4,1.9,1.2,2.5,2.2
	C116.3,147.4,117.2,146.9,116.9,146.3L116.9,146.3z"/>
<path d="M113.7,145.5c-0.9-0.3-1.8-0.8-2.5-1.5c-0.5-0.5-1.2,0.3-0.7,0.7c0.8,0.8,1.8,1.4,2.9,1.7
	C114.1,146.7,114.3,145.7,113.7,145.5L113.7,145.5z"/>
<path d="M111.1,146.1c-0.7-0.4-1.5-0.9-2.2-1.2c-0.6-0.3-1.1,0.6-0.5,0.9c0.8,0.4,1.5,0.8,2.2,1.2
	C111.1,147.3,111.6,146.4,111.1,146.1L111.1,146.1z"/>
<path d="M108.4,146c-1.2-0.3-2.5-0.7-3.6-1.3c-0.6-0.3-1.1,0.6-0.5,0.9c1.2,0.6,2.5,1.1,3.9,1.4C108.8,147.1,109.1,146.2,108.4,146
	L108.4,146z"/>
<path d="M105.9,146.5c-1.3-0.1-2.7-0.2-4-0.4c-0.6-0.1-0.9,0.9-0.3,1c1.4,0.2,2.8,0.3,4.3,0.4C106.5,147.5,106.5,146.5,105.9,146.5
	L105.9,146.5z"/>
<path d="M147.2,219.2c-1-1.3-0.9-3,0.1-4.2c0.4-0.5-0.3-1.2-0.7-0.7c-1.3,1.5-1.4,3.8-0.2,5.4C146.7,220.2,147.5,219.7,147.2,219.2z
	"/>
<path d="M277,297.6c-3-2.4-5.9-5-8.6-7.8c-2.7-2.7-5.4-5.4-7.1-8.9c-1.6-3.4-2.7-7-3.2-10.8c-0.4-2.6-0.3-5.9-2.4-7.8
	c-0.5-0.4-1.2,0.3-0.7,0.7c1.5,1.3,1.6,3.4,1.9,5.2s0.6,3.6,1,5.5c0.7,3.2,1.8,6.3,3.5,9.1c1.8,2.8,4,5.3,6.5,7.6
	c2.7,2.7,5.6,5.3,8.6,7.8C276.8,298.7,277.5,298,277,297.6L277,297.6z"/>
<path d="M251.1,233.8c6.2,4.6,7.4,13.1,5.6,20.1c-2,7.6-6.6,14.5-10.9,21c-4.3,6.9-10,12.9-16.7,17.5c-6.4,4.4-13.1,8.2-20.1,11.4
	c-8.3,4-17.4,6.4-26.6,6.9l0.4,0.8c1.7-4,5.4-6.1,9.1-8s7.5-3.8,11.2-5.9c7.7-4.4,14.9-9.5,21.6-15.3c12.7-11.2,22.9-25.5,27.6-41.9
	c0.1-0.3-0.1-0.6-0.4-0.6c-0.3-0.1-0.6,0.1-0.6,0.4c-4.9,17.1-15.8,31.8-29.3,43.1c-7,5.8-14.5,10.8-22.5,15.1
	c-6,3.3-14.8,5.8-17.7,12.6c-0.1,0.2-0.1,0.5,0.2,0.7c0.1,0,0.2,0.1,0.2,0.1c17.2-0.7,33.7-9,47.6-18.7c6.7-4.7,12.4-10.7,16.7-17.6
	c4.5-7,9.7-14.5,11.3-22.9c1.4-7.1-0.4-15.1-6.4-19.6C251,232.6,250.6,233.5,251.1,233.8L251.1,233.8z"/>
<path d="M119.7,261.7c6,10.9,12.6,21.9,24.2,27.5c6.5,3.1,13.6,5.1,20.4,7.5l23.1,8.1c0.6,0.2,0.9-0.8,0.3-1l-21.7-7.6
	c-6.9-2.4-14.1-4.5-20.7-7.6c-12-5.4-18.6-16.4-24.7-27.5C120.3,260.6,119.4,261.1,119.7,261.7L119.7,261.7z"/>
<path d="M182.9,308.2c-9.4-2.1-18.8-3.9-28.1-6.3c-8.1-2.1-15.9-5.2-22.4-10.6c-11.9-9.7-18.7-24.2-18.8-39.6c0-0.3-0.2-0.5-0.5-0.5
	s-0.5,0.2-0.5,0.5c0,15.3,6.8,29.9,18.5,39.8c6.3,5.3,13.8,8.6,21.7,10.8c9.8,2.7,19.9,4.6,29.8,6.8
	C183.2,309.3,183.5,308.3,182.9,308.2L182.9,308.2z"/>
<path d="M105.7,299.9c8.6-7.1,13-18.1,11.8-29.2c-0.1-0.6-1.1-0.6-1,0c1.3,10.8-3.1,21.6-11.5,28.5
	C104.5,299.6,105.2,300.3,105.7,299.9z"/>
<path d="M200.6,56.8c-1.7-21.8,14.3-39,32.7-47.9c9.8-4.7,20.9-8.8,31.9-7.8C276.5,2.2,286.6,8,296,13.8
	c8.8,5.4,17.2,11.6,23.8,19.7c6.4,7.8,10.8,17.1,14,26.6c3,9.3,5.2,18.9,6.6,28.6c1.9,10.8,3,21.7,3.4,32.7
	c0.4,11.4-1.4,22.8-5.4,33.5c-4,10.2-8.6,20.2-13.8,29.9c-9.2,17.9-21.7,36.1-40.9,44.2c-8.7,3.7-18.3,4.5-27.4,2.1
	c-9.5-2.6-17.4-9.1-22-17.7c-4.8-8.8-6.8-18.8-8.6-28.5c-2.1-11.7-3-23.2-0.7-34.9c3.5-18.2,12.8-41.7,34.1-43.8
	c10-1.1,19.4,4.7,22.9,14.1c3.6,9.2,2.1,19.6-2.9,28c-2.5,4-5.6,7.6-9.3,10.6l0.8,0.2c-2.3-6.9-0.2-14.3-2.2-21.2
	c-1.3-4.4-4.2-8.8-9.1-9.1c-0.6,0-0.6,1,0,1c5.9,0.4,8.5,7.4,8.9,12.4c0.5,5.8-0.3,11.5,1.5,17.1c0.1,0.3,0.4,0.4,0.6,0.3
	c0.1,0,0.2-0.1,0.2-0.1c7.5-6.2,13.1-14.9,14.3-24.6c1.1-8.8-1.7-18.7-8.5-24.7s-16.6-6.5-24.8-3.3c-9.1,3.5-15.6,11.1-19.9,19.6
	c-4.7,9.6-7.7,20-8.7,30.7c-1.3,12,0.9,24.2,3.4,35.9c2.1,9.7,5.1,19.7,11.6,27.5c6,7.1,14.5,11.6,23.7,12.7
	c20.4,2.6,38.4-10.4,50.2-25.7c7.2-9.2,12.7-19.6,17.7-30.2c5-10.5,10.5-21.3,13.2-32.7c2.8-11.8,2.5-24.1,1.3-36.1
	c-1-10.9-2.7-21.8-4.9-32.5c-2.2-10.3-5.2-20.5-10-29.9c-4.9-9.6-11.9-17.9-20.3-24.5C300,14.3,290.4,8.5,280,4
	c-4.9-2.2-10.2-3.5-15.6-4c-5.9-0.3-11.8,0.5-17.3,2.4c-19.8,6.1-39.5,18.5-45.8,39.2c-1.5,4.9-2.1,10.1-1.7,15.2
	C199.6,57.4,200.6,57.5,200.6,56.8z"/>
<path d="M284.5,128.1c-2-3.8-4.3-8-8.1-10.3c-3.5-2-7.9-1.7-11,0.8c-3.9,2.8-6.4,7.2-8.3,11.5c-2.3,5.1-4.1,10.4-5.4,15.8
	c-2.3,10.3-3,21.7-0.5,32.1c1.9,7.7,6.5,16.7,15.3,17.7c9.4,1,17-7.8,21.1-15.2c5.1-9.6,8.2-20.1,9.2-30.9c1.1-11.2,0.4-22.5-2-33.6
	c-2.2-10.4-5.7-21.1-12.2-29.7s-16.5-15-27.5-14c-11.4,1-18.9,10.5-24,19.9c-0.3,0.6,0.6,1.1,0.9,0.5c4.3-8,10.3-16.3,19.6-18.8
	c9.5-2.5,19.6,1.8,26.3,8.4c6.9,6.9,11.1,16.1,13.8,25.3c2.8,9.5,4.4,19.3,4.7,29.1c0.3,10-1,19.9-3.9,29.5c-2.7,9-7,18.5-14.5,24.5
	c-3.8,3-8.6,4.9-13.4,3.5c-4.1-1.2-7.2-4.4-9.2-8.1c-4.5-8-5-18.1-4.5-27.1c0.6-11.2,3.5-23.1,9.3-32.8c2.7-4.6,7.5-10.2,13.5-8.6
	c5,1.3,7.8,6.7,10,10.9C283.9,129.2,284.8,128.7,284.5,128.1L284.5,128.1z"/>
<path d="M228.7,88.8c15.8-15.9,24.3-41,46.7-49.3c5.2-2.1,10.9-2.5,16.4-1.1c5.8,1.6,10.7,5.3,14.8,9.6C314,55.9,320,65,324.4,75
	c9.3,20.6,12.2,43.4,8.4,65.7c-2.2,12.6-6.7,24.6-11.7,36.3c-4.4,10.2-9.2,20.6-17,28.7c-7.8,8.1-18.8,12.9-29.9,9.8
	c-5.5-1.5-10.2-5.3-12.9-10.3c-3.1-5.7-4.1-12.3-6.4-18.4c-0.2-0.6-1.2-0.3-1,0.3c3.6,10,4.9,21.9,15.1,27.5
	c7.9,4.3,17.8,3.5,25.7-0.5c9.8-4.9,16.5-14.7,21.4-24.2c6.1-11.6,11-23.9,14.7-36.5c6.6-23,5.9-47.6-2.2-70.2
	c-3.8-10.7-9.2-20.7-16.2-29.7c-6.7-8.6-15.4-16.9-27-16.9c-12.6,0-23.9,8.6-31.7,17.8C244.7,65.2,238,77.9,227.9,88
	C227.5,88.5,228.2,89.2,228.7,88.8L228.7,88.8z"/>
<path d="M218,65.7c3.4-0.2,6.1,5.5,7.6,8c1.9,3.1,3.1,6.6,3.5,10.2c0,0.6,1,0.6,1,0c-0.3-4.4-2.1-8.4-4.5-12.1
	c-1.6-2.6-3.9-7.3-7.6-7.1C217.4,64.7,217.4,65.7,218,65.7L218,65.7z"/>
<path d="M222,57.4c3.3,2.2,6.2,5.1,8.5,8.3c1,1.5,1.7,3.2,2.1,5c0.3,1.7,0.2,3.2,1,4.8c0.3,0.6,1.1,0.1,0.9-0.5
	c-1-2.1-0.7-4.7-1.6-6.9c-0.6-1.5-1.5-3-2.5-4.3c-2.3-2.8-5-5.3-8-7.4C222,56.1,221.5,57,222,57.4L222,57.4z"/>
<path d="M215.4,50.6c-3.8-3.4-10.6-2.3-15.3-2.4c-0.6,0-0.6,1,0,1c2.6,0,5.2,0.1,7.8,0.2s4.9,0.2,6.9,2
	C215.2,51.7,215.9,51,215.4,50.6z"/>
<path d="M223.9,39.5c6,1.3,11.2,4.8,14.8,9.7c1.8,2.4,3.1,5.1,4,7.9c0.9,3,0.9,6.2,1.8,9.1c0.2,0.6,1.2,0.3,1-0.3
	c-1.1-3.4-1-7.1-2.3-10.5c-1-2.8-2.5-5.4-4.4-7.7c-3.7-4.7-8.8-8-14.7-9.3C223.5,38.4,223.3,39.4,223.9,39.5L223.9,39.5z"/>
<path d="M231.8,30.3c-2-3.1-5.7-3.8-9.2-4.3c-4.5-0.6-9.1-0.5-13.6,0.5c-0.6,0.1-0.4,1.1,0.3,1c3.7-0.8,7.5-1,11.3-0.6
	c3.5,0.3,8.2,0.8,10.4,4.1C231.3,31.4,232.2,30.9,231.8,30.3L231.8,30.3z"/>
<path d="M251.9,28.9c3.4,0.1,5.5,6.1,6.2,8.7c0.8,3.5,1,7.2,0.6,10.8c0,0.6,1,0.6,1,0c0.4-4.7,0.2-9.6-1.7-14
	c-1-2.4-3.1-6.3-6.1-6.4c-0.3,0-0.5,0.2-0.5,0.5S251.6,28.9,251.9,28.9L251.9,28.9z"/>
<path d="M239.1,38.7c2.6,0.1,3.8,2.9,4.6,4.9c0.2,0.6,1.2,0.3,1-0.3c-1-2.5-2.5-5.6-5.6-5.7c-0.3,0-0.5,0.2-0.5,0.5
	S238.8,38.7,239.1,38.7L239.1,38.7z"/>
<path d="M240.2,19.1c3,0.3,5.7,1.8,7.6,4.2c0.4,0.5,1.1-0.2,0.7-0.7c-2-2.6-5-4.2-8.3-4.5C239.6,18.1,239.6,19.1,240.2,19.1z"/>
<path d="M269.3,21.5c-1.7-8.2-6.2-15.6-12.7-21c-0.5-0.4-1.2,0.3-0.7,0.7c6.4,5.2,10.7,12.5,12.4,20.6
	C268.4,22.5,269.4,22.2,269.3,21.5L269.3,21.5z"/>
<path d="M280.3,30.9c0.2-2.8-0.4-5.5-1.8-7.9c-0.1-0.2-0.4-0.3-0.7-0.2c-0.2,0.1-0.3,0.4-0.2,0.7l0,0c1.3,2.2,1.9,4.8,1.7,7.4
	C279.3,31.5,280.3,31.5,280.3,30.9z"/>
<path d="M283.5,18.2c-0.3-1.3-1.2-2.5-2.3-3.3c-0.5-0.4-1,0.5-0.5,0.9c0.9,0.7,1.6,1.6,1.8,2.7c0.1,0.3,0.4,0.4,0.6,0.4
	C283.4,18.7,283.6,18.5,283.5,18.2L283.5,18.2z"/>
<path d="M289.4,26.6c0.5-6.3,1.3-12.3-1.8-18.1c-0.3-0.6-1.2-0.1-0.9,0.5c3.1,5.6,2.2,11.5,1.7,17.6
	C288.4,27.2,289.4,27.2,289.4,26.6z"/>
<path d="M295.1,37.8c1.6-0.4,2.6-2.1,2.3-3.7c-0.1-0.6-1.1-0.4-1,0.3c0.1,1.1-0.5,2.1-1.6,2.4C294.2,37,294.4,37.9,295.1,37.8
	L295.1,37.8z"/>
<path d="M300.2,40.8c1.7-0.7,2.7-2.4,2.4-4.2c-0.1-0.6-1-0.4-1,0.3c0.2,1.3-0.5,2.5-1.7,3C299.3,40.1,299.5,41.1,300.2,40.8
	L300.2,40.8z"/>
<path d="M306.7,38.5c2.1-0.6,2.6-2.6,2.8-4.6c0.4-3.6,0.3-7.3-0.2-10.9c-0.1-0.6-1.1-0.4-1,0.3c0.3,2.3,0.5,4.7,0.3,7
	c-0.1,2,0.3,6.6-2.2,7.3c-0.3,0.1-0.4,0.4-0.4,0.6S306.4,38.7,306.7,38.5L306.7,38.5z"/>
<path d="M315.8,38.9c1.5-3.1,1.9-6.6,1.3-10c-0.1-0.6-1.1-0.4-1,0.3c0.6,3.1,0.2,6.4-1.2,9.2C314.6,39,315.5,39.5,315.8,38.9
	L315.8,38.9z"/>
<path d="M322.7,49.5c1.8-3.3,2.5-7.1,1.9-10.8c-0.1-0.6-1-0.4-1,0.3c0.5,3.4-0.1,7-1.8,10C321.5,49.5,322.4,50,322.7,49.5
	L322.7,49.5z"/>
<path d="M328.5,63.4c1.4-1,1.8-2.4,2-4.1c0.3-3.2,0.2-6.5,0.3-9.8c0-0.3-0.2-0.5-0.5-0.5s-0.5,0.2-0.5,0.5l-0.2,6.3
	c-0.1,2,0.4,5.3-1.6,6.7C327.4,62.9,328,63.7,328.5,63.4z"/>
<path d="M331.9,71.8c1.9-1.6,3.3-3.7,3.8-6.2c0.1-0.6-0.8-0.9-1-0.3c-0.5,2.3-1.7,4.3-3.5,5.7C330.7,71.5,331.4,72.2,331.9,71.8
	L331.9,71.8z"/>
<path d="M338.6,91.9c1,0.2,2.1,0,3-0.6c0.5-0.4,0-1.2-0.5-0.9c-0.6,0.5-1.4,0.7-2.2,0.5C338.3,90.8,338.1,91.8,338.6,91.9
	L338.6,91.9z"/>
<path d="M339.4,110.3c1.2,0.1,2.4,0,3.6-0.3c0.3-0.1,0.4-0.4,0.4-0.6s-0.4-0.4-0.6-0.4l0,0c-1.1,0.3-2.2,0.4-3.3,0.2
	C338.8,109.2,338.8,110.2,339.4,110.3L339.4,110.3z"/>
<path d="M336.9,141.5c0.9,1.2,2.2,2.1,3.7,2.5c0.6,0.1,0.9-0.8,0.3-1c-1.2-0.3-2.3-1-3.1-2C337.4,140.4,336.5,140.9,336.9,141.5
	L336.9,141.5z"/>
<path d="M336.7,147.8c0.6,1,1.3,1.8,2.2,2.6c0.5,0.4,1.2-0.3,0.7-0.7c-0.8-0.7-1.4-1.5-2-2.4C337.2,146.7,336.4,147.2,336.7,147.8
	L336.7,147.8z"/>
<path d="M293,225.4c1.1-1.7,1.8-3.6,1.8-5.6c0-0.6-1-0.6-1,0c-0.1,1.8-0.7,3.6-1.7,5.1C291.7,225.5,292.6,226,293,225.4L293,225.4z"
	/>
<path d="M282.2,230.8c4.9-1.9,8.2-6.6,8.5-11.9c0-0.6-1-0.6-1,0c-0.2,4.8-3.2,9.1-7.7,10.9C281.4,230.1,281.6,231,282.2,230.8
	L282.2,230.8z"/>
<path d="M263.6,224.9c5.4,0.8,8.5-4.1,10.8-8.2c0.1-0.3,0-0.5-0.2-0.7c-0.2-0.1-0.5,0-0.6,0.2c-2,3.6-4.8,8.4-9.6,7.7
	C263.2,223.9,263,224.8,263.6,224.9L263.6,224.9z"/>
<path d="M231.3,207.9c2.3,0.4,4.3,1.9,6.6,2.4c2.3,0.4,4.7,0.4,7,0.1c0.6,0,0.6-1,0-1c-2.5,0.4-5.1,0.3-7.5-0.3
	c-2-0.6-3.7-1.9-5.8-2.2C231,206.8,230.7,207.8,231.3,207.9L231.3,207.9z"/>
<path d="M254,209c2.3,0.3,4.6-0.7,6-2.5c0.4-0.5-0.3-1.2-0.7-0.7c-1.2,1.6-3.2,2.5-5.3,2.2C253.4,207.9,253.4,208.9,254,209L254,209
	z"/>
<path d="M259.8,213.5c1.6-0.2,2.9-1.2,3.6-2.7c0.3-0.6-0.6-1.1-0.9-0.5c-0.5,1.2-1.5,2-2.7,2.2C259.2,212.6,259.2,213.6,259.8,213.5
	L259.8,213.5z"/>
<path d="M242.5,217.9c3.8,0.2,7.7-0.4,11.2-2c0.6-0.2,0.1-1.1-0.5-0.9c-3.4,1.4-7.1,2.1-10.7,1.8
	C241.8,216.9,241.8,217.9,242.5,217.9L242.5,217.9z"/>
<path d="M242.9,188.4c4.2,0.7,8.5,0.2,12.5-1.4c0.6-0.2,0.3-1.2-0.3-1c-3.8,1.5-8,2-12,1.3C242.5,187.2,242.2,188.2,242.9,188.4
	L242.9,188.4z"/>
<path d="M236.4,161.7c4.6-0.3,9.2,0.2,13.5,1.5c0.6,0.2,0.9-0.8,0.3-1c-4.5-1.4-9.2-1.9-13.8-1.5
	C235.8,160.8,235.8,161.8,236.4,161.7z"/>
<path d="M236.9,166.3c1.1-0.4,2.3-0.6,3.5-0.5c0.6,0.1,0.6-0.9,0-1c-1.3-0.1-2.5,0-3.7,0.5C236.1,165.6,236.4,166.5,236.9,166.3
	L236.9,166.3z"/>
<path d="M240.2,175.5c1.2-0.2,2.5-0.2,3.8-0.2c0.6,0,0.6-1,0-1c-1.3-0.1-2.7,0-4,0.2C239.3,174.6,239.6,175.6,240.2,175.5
	L240.2,175.5z"/>
<path d="M240.8,141.7c2.3-0.5,4.7-0.2,6.7,1c0.6,0.3,1.1-0.6,0.5-0.9c-2.3-1.3-4.9-1.7-7.5-1.1C239.9,140.9,240.2,141.9,240.8,141.7
	L240.8,141.7z"/>
<path d="M247.4,130.5c0.9-0.3,1.7,0.5,2.4,1l2,1.4c0.5,0.4,1-0.5,0.5-0.9c-0.9-0.6-1.8-1.3-2.8-1.9c-0.7-0.5-1.5-0.7-2.4-0.5
	c-0.3,0.1-0.4,0.4-0.4,0.6C246.9,130.5,247.2,130.7,247.4,130.5L247.4,130.5z"/>
<path d="M249.6,125.1c1.6-0.2,3.1,0,4.5,0.7c1.1,0.7,2.1,1.5,3.1,2.3c0.5,0.4,1-0.5,0.5-0.9c-1.3-0.8-2.2-1.9-3.7-2.5
	c-1.4-0.6-3-0.8-4.5-0.6C249,124.2,249,125.2,249.6,125.1z"/>
<path d="M253.1,118.5c2.1-0.4,4.3,0.2,5.9,1.6c0.5,0.4,1.2-0.3,0.7-0.7c-1.9-1.7-4.4-2.3-6.9-1.8
	C252.2,117.7,252.4,118.6,253.1,118.5L253.1,118.5z"/>
<path d="M263,118.3c0.5-0.1,1.1,0.2,1.2,0.7c0,0.1,0,0.2,0,0.4c0,0.6,1,0.6,1,0c0-1.1-0.8-2-1.9-2.1c-0.2,0-0.4,0-0.6,0.1
	C262.1,117.6,262.4,118.6,263,118.3L263,118.3z"/>
<path d="M262.2,110c1.6-0.1,3.4-0.3,4.8,0.5c1.7,0.9,2.2,2.9,2.7,4.7c0.1,0.3,0.4,0.4,0.6,0.4c0.3-0.1,0.4-0.4,0.4-0.6l0,0
	c-0.5-1.8-1.1-3.9-2.7-5s-3.8-1.1-5.7-0.9C261.6,109,261.6,110,262.2,110L262.2,110z"/>
<path d="M277.6,147.6c1.9-2.3,3.2-5,3.7-8c0.1-0.6-0.9-0.9-1-0.3c-0.5,2.8-1.7,5.4-3.5,7.6C276.4,147.4,277.1,148.1,277.6,147.6
	L277.6,147.6z"/>
<path d="M262.7,130.5c-0.3-1.8,1.3-3.5,2.5-4.7c1-1.2,2.5-2.1,4-2.3c0.6,0,0.6-1,0-1c-2,0.3-3.8,1.3-5.1,2.9
	c-1.3,1.5-2.7,3.2-2.4,5.4C261.8,131.4,262.8,131.1,262.7,130.5L262.7,130.5z"/>
<path d="M266.4,132.9c0.6-3.2,5.4-5,8.2-4.3c0.6,0.1,0.9-0.8,0.3-1c-3.4-0.8-8.8,1.3-9.4,5C265.4,133.2,266.3,133.5,266.4,132.9
	L266.4,132.9z"/>
<path d="M273.7,123.7c2.7-0.2,5.4-0.4,7.7,1.2c0.5,0.4,1-0.5,0.5-0.9c-2.5-1.6-5.4-1.5-8.2-1.3C273.1,122.8,273.1,123.8,273.7,123.7
	L273.7,123.7z"/>
<path d="M268.7,139.6c1-0.7,2.1-1.3,3.3-1.8c0.5-0.2,3.3-1.1,3.5-0.5c0.1,0.3,0.4,0.4,0.6,0.4c0.3-0.1,0.4-0.4,0.4-0.6
	c-0.3-1.2-1.8-0.9-2.7-0.7c-2,0.4-3.9,1.2-5.5,2.4C267.8,139.1,268.3,140,268.7,139.6L268.7,139.6z"/>
<path d="M269.9,143.3c1.7-0.9,3.6-1,5.4-0.2c0.6,0.3,1.1-0.6,0.5-0.9c-2-0.9-4.4-0.8-6.4,0.2C268.8,142.7,269.3,143.6,269.9,143.3z"
	/>
<path d="M269.7,147.1c1.3-0.2,2.6,0.1,3.8,0.8c0.6,0.3,1.1-0.6,0.5-0.9c-1.3-0.8-2.8-1.1-4.3-0.9
	C269.1,146.2,269.1,147.2,269.7,147.1z"/>
<path d="M269.7,150.4c1,0.2,1.6,1.2,2.5,1.6c0.8,0.4,1.8,0.5,2.7,0.3c0.6-0.1,0.4-1.1-0.3-1c-1.1,0.2-2.2-0.2-3-1
	c-0.5-0.5-1.1-0.8-1.7-1C269.3,149.2,269,150.1,269.7,150.4L269.7,150.4z"/>
<path d="M269.6,152.6c1.4,1.3,3.3,1.9,5.2,1.7c0.6-0.1,0.6-1.1,0-1c-1.6,0.2-3.3-0.3-4.5-1.4C269.8,151.5,269.1,152.2,269.6,152.6
	L269.6,152.6z"/>
<path d="M269.4,155.2c0.8,0.1,1.4,0.9,2.2,1.1c0.6,0.2,1.3,0,1.7-0.6c0.4-0.5-0.5-1-0.9-0.5s-1.2-0.3-1.5-0.5
	c-0.4-0.3-0.9-0.5-1.5-0.6C268.8,154.2,268.8,155.2,269.4,155.2z"/>
<path d="M259.5,72.8c4.1-2.7,7.3-6.6,9.1-11.2c0.2-0.6-0.6-1.1-0.9-0.5c-1.8,4.4-4.9,8.2-8.8,10.8C258.4,72.2,259,73.1,259.5,72.8z"
	/>
<path d="M279.2,53.6c1.7-2.9,4.7-4.7,8-4.9c0.6,0,0.6-1,0-1c-3.7,0.2-7,2.2-8.8,5.4c-0.1,0.3,0,0.5,0.2,0.7
	C278.8,53.8,279.1,53.8,279.2,53.6L279.2,53.6z"/>
<path d="M273.9,79c7-0.6,13.4-4.5,17-10.5c0.3-0.6-0.5-1-0.9-0.5c-3.5,5.7-9.5,9.4-16.1,10C273.2,78,273.2,79,273.9,79L273.9,79z"/>
<path d="M280,84.1c2.2,0.6,4.5,0.2,6.3-1.1c0.5-0.4,0-1.2-0.5-0.9c-1.6,1.1-3.6,1.5-5.5,1c-0.3-0.1-0.6,0.1-0.6,0.4
	S279.7,84.1,280,84.1L280,84.1z"/>
<path d="M282.9,88.3c4.7,0.1,9.1-2.2,11.6-6.2c0.4-0.5-0.5-1-0.9-0.5c-2.4,3.6-6.4,5.8-10.8,5.7C282.2,87.3,282.2,88.3,282.9,88.3z"
	/>
<path d="M288.8,101.4c6.6,0.9,13.3-0.8,18.6-4.7c0.5-0.4,0-1.2-0.5-0.9c-5.2,3.8-11.7,5.4-18.1,4.6
	C288.2,100.3,288.2,101.3,288.8,101.4L288.8,101.4z"/>
<path d="M294.7,120c2.3,0.3,4.7,0.2,6.9-0.3c0.6-0.1,0.4-1.1-0.3-1c-2.2,0.5-4.5,0.5-6.7,0.2C294.1,118.8,294.1,119.8,294.7,120
	L294.7,120z"/>
<path d="M296.1,136.9c5.3,0.4,10.7,0.3,15.9-0.5c0.6-0.1,0.4-1-0.3-1c-5.2,0.7-10.4,0.9-15.7,0.4
	C295.5,135.9,295.5,136.9,296.1,136.9L296.1,136.9z"/>
<path d="M297.6,143.1h11.8c0.3,0,0.5-0.2,0.5-0.5c0-0.3-0.2-0.5-0.5-0.5h-11.8c-0.3,0-0.5,0.2-0.5,0.5
	C297.1,142.8,297.3,143.1,297.6,143.1z"/>
<path d="M294.3,167.8l2.5,1c0.6,0.2,0.9-0.7,0.3-1l-2.5-1C294,166.6,293.8,167.5,294.3,167.8z"/>
<path d="M278.5,190.5c0.1,1.4,1,2.7,2.3,3.2c0.6,0.2,0.9-0.7,0.3-1c-0.9-0.4-1.5-1.3-1.6-2.2C279.5,189.8,278.5,189.8,278.5,190.5
	L278.5,190.5z"/>
<path d="M273.1,194.5c0.4,2.6,1.8,5,4.1,6.5c0.5,0.4,1-0.5,0.5-0.9c-2-1.4-3.3-3.5-3.6-5.9C274,193.6,273,193.9,273.1,194.5
	L273.1,194.5z"/>
<path d="M264.9,196.8c-0.5,3.9,1.2,7.8,4.4,10.2c0.5,0.4,1-0.5,0.5-0.9c-2.9-2.1-4.4-5.7-3.9-9.3C266,196.2,265,196.2,264.9,196.8
	L264.9,196.8z"/>
<path d="M276.1,213c1.7,2.3,4.3,3.7,7.1,3.9c0.6,0.1,0.6-0.9,0-1c-2.5-0.2-4.8-1.5-6.2-3.5C276.6,212,275.7,212.5,276.1,213
	L276.1,213z"/>
<path d="M288.2,197.5c4.1,4,8,8.5,12.9,11.5c0.5,0.3,1-0.5,0.5-0.9c-4.8-3-8.7-7.4-12.7-11.4C288.5,196.3,287.8,197,288.2,197.5
	L288.2,197.5z"/>
<path d="M296,193.4c2.4-0.4,5.1,2.3,6.8,3.7s3.1,2.6,4.5,4c0.5,0.5,1.2-0.3,0.7-0.7c-2.1-2-4.3-4-6.7-5.7c-1.7-1.3-3.4-2.6-5.6-2.3
	C295.1,192.5,295.4,193.5,296,193.4L296,193.4z"/>
<path d="M306.6,167.3c3-0.4,5.1,2.5,7.3,4.1c1.9,1.4,4.1,2.5,6.3,3.3c0.6,0.2,0.9-0.7,0.3-1c-3.1-1.2-6-2.9-8.5-5.2
	c-1.6-1.4-3.2-2.6-5.4-2.3C305.9,166.4,305.9,167.4,306.6,167.3L306.6,167.3z"/>
<path d="M312.8,147.2c4,3.5,8.7,6.3,14.1,5.9c0.6,0,0.6-1,0-1c-5.2,0.4-9.6-2.2-13.4-5.6C313,146.1,312.3,146.8,312.8,147.2
	L312.8,147.2z"/>
<path d="M313.8,118.7c1.6-0.4,3.2-0.5,4.8-0.6c1.9,0.1,3.7,0.7,5.4,1.6c2.1,1,4.5,1.4,6.8,1.2c0.6-0.1,0.7-1.1,0-1
	c-1.8,0.2-3.5-0.1-5.2-0.6c-1.4-0.5-2.7-1.4-4.2-1.8c-2.6-0.8-5.3-0.3-7.9,0.2C312.9,117.8,313.2,118.8,313.8,118.7L313.8,118.7z"/>
<path d="M309,106.8c4.6-0.8,9-4.2,13.7-2.4c0.6,0.2,0.9-0.7,0.3-1c-4.9-2-9.5,1.6-14.2,2.4C308.1,105.9,308.3,106.9,309,106.8
	L309,106.8z"/>
<path d="M305.2,81.1c4.7-2.5,8.6-4.7,14.2-3.7c0.6,0.1,0.9-0.8,0.3-1c-5.8-1.1-10,1.1-14.9,3.8C304.1,80.5,304.6,81.4,305.2,81.1
	L305.2,81.1z"/>
<path d="M301,66.7c3-2.2,6.9-3.1,10.5-2.2c0.6,0.1,0.9-0.8,0.3-1c-3.9-0.9-8.1,0-11.3,2.3C300,66.2,300.5,67.1,301,66.7L301,66.7z"
	/>
<path d="M65.3,121.2c-11.5,14.6-4.9,35,8.4,46c0.2,0.2,0.5,0.2,0.7,0c0.1-0.1,0.1-0.1,0.1-0.2c2-6.7,0.6-13.8,1.8-20.6
	c0.1-0.6-0.9-0.9-1-0.3c-1.2,6.8,0.2,13.9-1.8,20.6l0.8-0.2C61.6,155.9,54.8,136,66,121.8C66.4,121.3,65.7,120.6,65.3,121.2
	L65.3,121.2z"/>
<path d="M144.6,64.7c1.4-25.5-18.7-46.5-42.1-53.5C77.2,3.6,51.2,13,32.6,30.7c-9.5,9.1-17.2,19.9-22.5,31.9
	C3.8,77,1.2,93.1,0.4,108.8c-0.5,8.4-0.4,16.8-0.2,25.1c0,4.2,0.3,8.3,0.9,12.5c0.7,4.4,1.6,8.7,2.7,13c0.9,4.1,2.2,8.1,3.7,12
	c1.5,3.5,3,6.9,4.6,10.3c3.3,7,7,13.9,11.1,20.5c7.9,12.5,17.1,25.2,30.3,32.4c6,3.3,12.5,5.5,19.3,6.4c6.9,0.8,14.1-0.8,20.3-3.6
	c3.4-1.6,6.7-3.5,9.8-5.6c0.5-0.4,0-1.2-0.5-0.9c-6,4.2-12.6,7.5-19.9,8.8c-7.2,1.2-14.3-0.1-21.2-2.6c-6.7-2.4-12.8-6.1-18.1-10.9
	c-5.6-5.1-10.3-11.3-14.6-17.5c-8.4-12.2-15.4-25.3-20.9-39c-3.1-7.4-4.6-15.9-5.8-23.8c-1.3-8.1-1-16.7-0.9-24.8
	C1.1,105,2.6,89.1,7.1,73.8C11,61.2,17.3,49.6,25.8,39.5C42,20,66.1,6.8,92,10c23.8,2.9,47.4,20.5,51.2,45.2
	c0.5,3.1,0.6,6.3,0.4,9.5C143.6,65.3,144.6,65.3,144.6,64.7z"/>
<path d="M88.8,194.7c-6.3,11.9-22.3,7.2-29.2-1.4c-7.5-9.3-8.8-23-10.3-34.4c-2.9-23.3-2.2-51.2,16.3-68.3
	c10.2-9.4,27.1-12.9,37.9-2.5c0.5,0.4,1.2-0.3,0.7-0.7c-9.3-9-23.2-8.2-33.8-1.8c-11,6.8-17.8,19-20.9,31.2
	c-3.3,13.1-3.1,26.9-1.5,40.2c0.7,6.4,1.8,12.8,3.1,19.1c1.4,6.1,3.4,12.2,7.2,17.2c7.2,9.4,24.5,14.5,31.2,1.7
	C89.9,194.6,89.1,194.1,88.8,194.7L88.8,194.7z"/>
<path d="M93.8,168.3c0.4,7.2,0,14.5-2.4,21.3c-0.2,0.6,0.8,0.9,1,0.3c2.5-7,2.8-14.3,2.5-21.6C94.8,167.6,93.8,167.6,93.8,168.3
	L93.8,168.3z"/>
<path d="M60.6,136.5c1.5-3.3,3.6-6.2,6.2-8.8c0.5-0.4-0.2-1.1-0.7-0.7c-2.6,2.6-4.7,5.7-6.3,9C59.4,136.6,60.3,137.1,60.6,136.5
	L60.6,136.5z"/>
<path d="M107.3,85.2C97,70.4,86.9,50.2,67.7,45.8c-9.8-2.3-20.1,0-27.9,6.3c-9.1,7.2-15.6,17.8-20.6,28.2
	c-10.9,22.5-13.6,48.2-8.6,72.6c1.1,6.1,2.8,12,4.9,17.8c2.5,6.3,5.4,12.5,8,18.8c4.5,10.7,9.4,21,18.7,28.4
	c8.6,6.9,21.1,10.6,31.5,5.5c10-4.9,13.3-17,16-26.9c0.1-0.3-0.1-0.6-0.4-0.6c-0.3-0.1-0.6,0.1-0.6,0.4c-2.4,8.9-5.1,19.6-13.3,25
	c-9.1,6-21.5,3.6-30-2.2c-8.9-6.1-14.6-15.2-18.8-24.9c-5.1-11.7-10.7-23.4-13.8-35.8c-5.7-22.8-4.9-47,3.5-69
	c4.3-11.1,10.3-22.2,18.4-31c7.2-7.9,16.1-12.7,27-12.2c22.2,0.8,33.7,23.8,44.8,39.7C106.8,86.2,107.7,85.7,107.3,85.2L107.3,85.2z
	"/>
<path d="M126.2,72.5c-3.2-0.2-5.3,2.7-6.8,5.2c-0.1,0.3,0,0.5,0.2,0.7c0.2,0.1,0.5,0,0.6-0.2c1.3-2.2,3.1-4.9,6-4.7
	C126.8,73.5,126.8,72.5,126.2,72.5z"/>
<path d="M121.7,64.4c-3,2-5.7,4.5-8,7.4c-1,1.3-1.8,2.7-2.5,4.3c-0.9,2.2-0.6,4.8-1.6,6.9c-0.3,0.6,0.6,1.1,0.9,0.5
	c0.5-1.3,0.8-2.7,0.9-4.1c0.3-2.1,1.1-4,2.2-5.8c2.3-3.3,5.2-6.1,8.5-8.3C122.7,64.8,122.2,64,121.7,64.4L121.7,64.4z"/>
<path d="M129.5,59.1c2-1.8,4.4-1.9,6.9-2s5.2-0.1,7.8-0.2c0.6,0,0.6-1,0-1c-4.7,0.1-11.5-1-15.3,2.4C128.3,58.8,129,59.5,129.5,59.1
	L129.5,59.1z"/>
<path d="M120,46.4c-5.8,1.3-11,4.6-14.6,9.3c-1.8,2.3-3.3,4.9-4.3,7.7c-1.3,3.4-1.2,7-2.3,10.5c-0.2,0.6,0.8,0.9,1,0.3
	c0.9-3,0.9-6.1,1.8-9.1c0.9-2.8,2.2-5.5,4-7.9c3.5-5,8.8-8.4,14.8-9.7C121,47.2,120.7,46.3,120,46.4L120,46.4z"/>
<path d="M113.3,38.7c2.1-3.3,6.8-3.7,10.3-4.1c3.8-0.3,7.6-0.1,11.3,0.7c0.6,0.1,0.9-0.8,0.3-1c-4.5-0.9-9.1-1.1-13.6-0.5
	c-3.5,0.5-7.2,1.2-9.2,4.3C112.1,38.7,112.9,39.1,113.3,38.7L113.3,38.7z"/>
<path d="M92.3,35.7c-3,0.1-5.1,4-6.2,6.4c-1.9,4.4-2,9.3-1.7,14c0,0.6,1,0.6,1,0c-0.4-3.6-0.2-7.2,0.6-10.8c0.7-2.6,2.9-8.5,6.2-8.7
	C93,36.7,93,35.7,92.3,35.7L92.3,35.7z"/>
<path d="M105.1,45.5c-3.1,0.1-4.6,3.2-5.6,5.7c-0.2,0.6,0.7,0.8,1,0.3c0.9-2.1,2-4.9,4.6-4.9C105.8,46.5,105.8,45.5,105.1,45.5
	L105.1,45.5z"/>
<path d="M104,26c-3.3,0.3-6.2,1.9-8.3,4.5c-0.4,0.5,0.3,1.2,0.7,0.7c1.8-2.4,4.6-3.9,7.6-4.2C104.6,26.9,104.6,25.9,104,26L104,26z"
	/>
<path d="M75.9,29.7c1.7-8.1,6.1-15.3,12.5-20.6c0.5-0.4-0.2-1.1-0.7-0.7c-6.5,5.4-11,12.8-12.7,21C74.8,30,75.8,30.3,75.9,29.7
	L75.9,29.7z"/>
<path d="M64.9,38.7c-0.2-2.6,0.4-5.1,1.7-7.4c0.1-0.2,0.1-0.5-0.2-0.7c-0.2-0.1-0.5-0.1-0.7,0.2c-1.4,2.4-2,5.1-1.8,7.9
	C63.9,39.4,64.9,39.4,64.9,38.7z"/>
<path d="M61.7,26.3c0.3-1.1,0.9-2.1,1.8-2.7c0.5-0.4,0-1.2-0.5-0.9c-1.1,0.8-1.9,2-2.3,3.3c-0.1,0.3,0.1,0.6,0.4,0.6
	C61.4,26.7,61.6,26.6,61.7,26.3L61.7,26.3z"/>
<path d="M55.8,34.4c-0.5-6.1-1.4-12,1.7-17.6c0.3-0.6-0.5-1.1-0.9-0.5c-3.2,5.8-2.4,11.8-1.8,18.1C54.8,35.1,55.8,35.1,55.8,34.4z"
	/>
<path d="M49.4,44.7c-1.1-0.3-1.8-1.4-1.6-2.5c0.1-0.6-0.9-0.9-1-0.3c-0.3,1.7,0.7,3.3,2.3,3.7C49.7,45.8,50,44.8,49.4,44.7
	L49.4,44.7z"/>
<path d="M44.3,47.6c-1.2-0.5-1.9-1.7-1.7-3c0.1-0.6-0.9-0.9-1-0.3c-0.3,1.8,0.7,3.6,2.4,4.2C44.6,48.8,44.9,47.8,44.3,47.6
	L44.3,47.6z"/>
<path d="M37.8,45.4c-2.5-0.8-2.1-5.3-2.2-7.3c-0.1-2.3,0-4.7,0.3-7c0.1-0.6-0.9-0.9-1-0.3c-0.5,3.6-0.6,7.3-0.2,10.9
	c0.2,2,0.6,4,2.8,4.6c0.3,0.1,0.6-0.1,0.6-0.4C38.2,45.7,38,45.4,37.8,45.4L37.8,45.4z"/>
<path d="M29.3,46.2c-1.4-2.9-1.8-6.1-1.2-9.2c0.1-0.6-0.8-0.9-1-0.3c-0.7,3.4-0.2,6.9,1.3,10C28.6,47.3,29.5,46.8,29.3,46.2
	L29.3,46.2z"/>
<path d="M22.4,56.8c-1.7-3.1-2.3-6.6-1.8-10c0.1-0.6-0.9-0.9-1-0.3c-0.6,3.7,0.1,7.5,1.9,10.8C21.8,57.9,22.7,57.4,22.4,56.8
	L22.4,56.8z"/>
<path d="M16.2,70.4c-2-1.3-1.6-4.6-1.6-6.7l-0.2-6.3c0-0.6-1-0.6-1,0c0.1,3.2,0,6.5,0.3,9.8c0.2,1.7,0.6,3.1,2,4.1
	C16.3,71.6,16.7,70.7,16.2,70.4L16.2,70.4z"/>
<path d="M13,78.9c-1.8-1.4-3-3.5-3.5-5.7c-0.1-0.6-1.1-0.4-1,0.3c0.5,2.4,1.8,4.6,3.8,6.2C12.8,80,13.5,79.3,13,78.9L13,78.9z"/>
<path d="M5.3,98.8c-0.8,0.1-1.6-0.1-2.2-0.5c-0.5-0.4-1,0.5-0.5,0.9c0.9,0.6,2,0.8,3,0.6C6.2,99.7,6,98.7,5.3,98.8L5.3,98.8z"/>
<path d="M4.9,117.1c-1.1,0.1-2.2,0.1-3.3-0.2c-0.3-0.1-0.6,0.1-0.6,0.4c-0.1,0.3,0.1,0.6,0.4,0.6l0,0c1.2,0.3,2.4,0.4,3.6,0.3
	C5.5,118.1,5.5,117.1,4.9,117.1L4.9,117.1z"/>
<path d="M6.4,148.8c-0.8,1-1.8,1.7-3.1,2c-0.6,0.1-0.4,1.1,0.3,1c1.5-0.4,2.8-1.2,3.7-2.5C7.7,148.9,6.8,148.4,6.4,148.8L6.4,148.8z
	"/>
<path d="M6.6,155.1c-0.6,0.9-1.2,1.7-2,2.4c-0.5,0.4,0.2,1.1,0.7,0.7c0.8-0.8,1.6-1.6,2.1-2.6C7.8,155.1,7,154.5,6.6,155.1z"/>
<path d="M52.1,232.8c-1-1.5-1.6-3.3-1.7-5.1c0-0.6-1-0.6-1,0c0.1,2,0.7,4,1.8,5.7C51.6,233.9,52.5,233.3,52.1,232.8L52.1,232.8z"/>
<path d="M62.2,237.7c-4.5-1.8-7.5-6.1-7.7-10.9c0-0.6-1-0.6-1,0c0.2,5.3,3.6,9.9,8.5,11.9C62.6,238.9,62.8,237.9,62.2,237.7
	L62.2,237.7z"/>
<path d="M80.4,231.8c-4.8,0.7-7.6-4.1-9.6-7.7c-0.1-0.2-0.4-0.3-0.7-0.2c-0.2,0.1-0.3,0.4-0.2,0.7c2.3,4.1,5.4,9,10.8,8.2
	C81.3,232.7,81,231.7,80.4,231.8L80.4,231.8z"/>
<path d="M90.2,215.8c-2,0.3-4-0.6-5.2-2.2c-0.4-0.5-1.1,0.2-0.7,0.7c1.4,1.8,3.7,2.8,6,2.5C90.9,216.7,90.9,215.7,90.2,215.8
	L90.2,215.8z"/>
<path d="M84.4,220.4c-1.2-0.2-2.3-1-2.7-2.2c-0.3-0.6-1.1-0.1-0.9,0.5c0.6,1.5,2,2.5,3.6,2.7C85,221.4,85,220.4,84.4,220.4
	L84.4,220.4z"/>
<path d="M98,224.7c-2.4-0.2-4.8-0.9-7-1.8c-0.6-0.3-1.1,0.6-0.5,0.9c2.4,1,4.9,1.7,7.5,2C98.6,225.8,98.6,224.8,98,224.7L98,224.7z"
	/>
<path d="M67.3,154.8c-1.8-2.2-3-4.8-3.5-7.6c-0.1-0.6-1.1-0.4-1,0.3c0.5,3,1.8,5.7,3.7,8C67,156,67.7,155.3,67.3,154.8L67.3,154.8z"
	/>
<path d="M67.7,130.4c-1.9-0.1-3.8,0.4-5.4,1.4c-0.5,0.4,0,1.2,0.5,0.9c1.5-0.9,3.2-1.4,4.9-1.3c0.3,0,0.5-0.2,0.5-0.5
	C68.2,130.6,68,130.4,67.7,130.4L67.7,130.4z"/>
<path d="M76,146.6c-1.6-1.2-3.5-2-5.5-2.4c-1-0.2-2.4-0.5-2.8,0.7c-0.1,0.3,0.1,0.6,0.4,0.6c0.3,0.1,0.6-0.1,0.6-0.4
	c0.2-0.6,3.1,0.3,3.5,0.5c1.2,0.4,2.3,1,3.3,1.8C76,147.8,76.5,146.9,76,146.6L76,146.6z"/>
<path d="M74.8,150.2c-2-1.1-4.3-1.1-6.4-0.2c-0.6,0.2-0.1,1.1,0.5,0.9c1.7-0.8,3.7-0.7,5.3,0.2C74.9,151.4,75.4,150.5,74.8,150.2
	L74.8,150.2z"/>
<path d="M74.5,153.9c-1.5-0.2-3,0.1-4.3,0.9c-0.2,0.1-0.3,0.4-0.2,0.7c0.1,0.2,0.4,0.3,0.7,0.2c1.1-0.7,2.5-0.9,3.8-0.8
	C75.1,155,75.1,154,74.5,153.9z"/>
<path d="M74.2,157.2c-0.6,0.2-1.2,0.5-1.7,1c-0.8,0.8-1.9,1.2-3,1c-0.6-0.1-0.9,0.9-0.3,1c0.9,0.2,1.8,0.1,2.7-0.3
	c0.9-0.4,1.5-1.4,2.5-1.6C75.1,158.1,74.8,157.2,74.2,157.2L74.2,157.2z"/>
<path d="M73.9,159.8c-1.2,1.1-2.9,1.6-4.5,1.4c-0.6-0.1-0.6,0.9,0,1c1.9,0.2,3.8-0.4,5.2-1.7C75.1,160.1,74.4,159.4,73.9,159.8z"/>
<path d="M74.8,162.1c-0.5,0-1.1,0.2-1.5,0.6c-0.3,0.2-1.2,1-1.5,0.5c-0.4-0.5-1.2,0-0.9,0.5c0.4,0.5,1.1,0.8,1.7,0.6
	c0.8-0.2,1.4-1.1,2.2-1.1C75.5,163.1,75.5,162.1,74.8,162.1z"/>
<path d="M85.2,79.7c-3.9-2.7-7-6.4-8.8-10.8c-0.2-0.6-1.1-0.1-0.9,0.5c1.9,4.5,5.1,8.4,9.1,11.2C85.3,81,85.7,80.1,85.2,79.7
	L85.2,79.7z"/>
<path d="M65.9,60.9c-1.8-3.2-5.2-5.2-8.8-5.4c-0.6,0-0.6,1,0,1c3.3,0.2,6.3,2,8,4.9C65.4,62,66.2,61.4,65.9,60.9z"/>
<path d="M70.4,85.8c-6.7-0.6-12.7-4.3-16.1-10c-0.4-0.5-1.2,0-0.9,0.5c3.6,6,10,9.9,17,10.5C71,86.8,71,85.8,70.4,85.8z"/>
<path d="M64,91c-1.9,0.5-3.9,0.1-5.5-1c-0.5-0.4-1,0.5-0.5,0.9c1.8,1.3,4.1,1.7,6.3,1.1c0.3-0.1,0.4-0.4,0.4-0.6
	C64.6,91.1,64.3,90.9,64,91L64,91z"/>
<path d="M61.3,95.1c-4.3,0.1-8.4-2-10.8-5.7c-0.4-0.5-1.2,0-0.9,0.5c2.5,3.9,7,6.3,11.6,6.2C62,96.1,62,95.1,61.3,95.1L61.3,95.1z"
	/>
<path d="M55.4,108.2c-6.4,0.9-12.9-0.8-18.1-4.6c-0.5-0.4-1,0.5-0.5,0.9c5.4,3.9,12.1,5.6,18.6,4.7C56,109.2,56,108.2,55.4,108.2z"
	/>
<path d="M49.5,126.8c-2.2,0.3-4.5,0.2-6.7-0.2c-0.6-0.1-0.9,0.8-0.3,1c2.3,0.5,4.6,0.6,7,0.3C50.1,127.8,50.1,126.8,49.5,126.8
	L49.5,126.8z"/>
<path d="M48.1,143.7c-5.2,0.4-10.5,0.3-15.7-0.4c-0.6-0.1-0.9,0.9-0.3,1c5.3,0.8,10.6,0.9,15.9,0.5
	C48.7,144.7,48.7,143.7,48.1,143.7L48.1,143.7z"/>
<path d="M46.7,149.9H34.8c-0.3,0-0.5,0.2-0.5,0.5c0,0.3,0.2,0.5,0.5,0.5h11.8c0.3,0,0.5-0.2,0.5-0.5
	C47.2,150.1,46.9,149.9,46.7,149.9z"/>
<path d="M49.6,174.7l-2.5,1c-0.6,0.2-0.3,1.2,0.3,1l2.5-1C50.5,175.5,50.2,174.5,49.6,174.7z"/>
<path d="M64.8,198.3c-0.1,1-0.7,1.9-1.6,2.2c-0.6,0.2-0.3,1.2,0.3,1c1.3-0.5,2.2-1.8,2.3-3.2C65.8,197.7,64.8,197.7,64.8,198.3
	L64.8,198.3z"/>
<path d="M70.1,202.1c-0.3,2.4-1.6,4.5-3.6,5.9c-0.5,0.4,0,1.2,0.5,0.9c2.2-1.5,3.7-3.8,4.1-6.5C71.2,201.7,70.2,201.5,70.1,202.1
	L70.1,202.1z"/>
<path d="M78.3,204.7c0.5,3.6-1,7.2-3.9,9.3c-0.5,0.4,0,1.2,0.5,0.9c3.2-2.3,4.9-6.2,4.4-10.2C79.2,204,78.2,204,78.3,204.7
	L78.3,204.7z"/>
<path d="M67.3,220.3c-1.5,2-3.7,3.3-6.2,3.5c-0.6,0-0.6,1,0,1c2.8-0.2,5.4-1.7,7.1-4C68.5,220.3,67.6,219.8,67.3,220.3L67.3,220.3z"
	/>
<path d="M55.3,204.6c-4,4-7.9,8.4-12.7,11.4c-0.5,0.3,0,1.2,0.5,0.9c4.9-3,8.8-7.5,12.9-11.5c0.2-0.2,0.2-0.5,0-0.7
	C55.8,204.4,55.5,204.4,55.3,204.6L55.3,204.6L55.3,204.6z"/>
<path d="M48.5,200.3c-2.2-0.4-3.9,1-5.6,2.3c-2.3,1.8-4.6,3.7-6.7,5.7c-0.5,0.4,0.2,1.2,0.7,0.7c1.5-1.4,3-2.8,4.5-4
	s4.4-4.1,6.8-3.7C48.8,201.3,49.1,200.4,48.5,200.3L48.5,200.3z"/>
<path d="M37.6,174.1c-2.2-0.3-3.8,0.9-5.4,2.3c-2.5,2.2-5.4,4-8.5,5.2c-0.6,0.2-0.3,1.2,0.3,1c2.2-0.8,4.4-1.9,6.3-3.3
	c2.2-1.6,4.4-4.5,7.3-4.1C38.3,175.3,38.3,174.3,37.6,174.1L37.6,174.1z"/>
<path d="M30.7,154.3c-3.8,3.3-8.2,6-13.4,5.6c-0.6,0-0.6,1,0,1c5.4,0.4,10.1-2.4,14.1-5.9C31.9,154.6,31.2,153.9,30.7,154.3
	L30.7,154.3z"/>
<path d="M30.7,125.6c-2.6-0.5-5.3-1-7.9-0.2c-1.2,0.4-2.3,0.9-3.5,1.5c-1.9,0.8-3.9,1.1-5.9,1c-0.6,0-0.6,1,0,1
	c2.3,0.2,4.7-0.2,6.8-1.2c1.5-0.8,3.2-1.4,4.9-1.6c1.8,0,3.5,0.2,5.3,0.6C31.1,126.7,31.3,125.7,30.7,125.6L30.7,125.6z"/>
<path d="M35.5,113.7c-4.8-0.8-9.3-4.3-14.2-2.4c-0.6,0.2-0.3,1.2,0.3,1c4.7-1.9,9.1,1.6,13.7,2.4C35.9,114.8,36.2,113.8,35.5,113.7
	L35.5,113.7z"/>
<path d="M39.5,88.1c-5-2.7-9.1-4.8-14.9-3.8c-0.6,0.1-0.4,1.1,0.3,1c5.5-1,9.5,1.1,14.2,3.7C39.6,89.3,40.1,88.4,39.5,88.1
	L39.5,88.1z"/>
<path d="M43.7,73.7c-3.3-2.4-7.4-3.2-11.3-2.3c-0.6,0.1-0.4,1.1,0.3,1c3.7-0.8,7.5,0,10.6,2.2C43.7,75,44.2,74.1,43.7,73.7
	L43.7,73.7z"/>
<text transform="matrix(1 0 0 1 55.81 359.63)" class="st0 st1 st2">JANE TOPPAN</text>
</svg>
