<svg id="Layer_3" data-name="Layer 3" xmlns="http://www.w3.org/2000/svg" viewBox="0 0 485.01 525.85"><defs><style>.cls-1{fill:none;stroke:#000;stroke-miterlimit:10;}.cls-2{font-size:36px;fill:#76cede;font-family:ShagadelicBold, Shagadelic;font-weight:700;}</style></defs><title>Ted Bundy Saggitarius</title><path class="cls-1" d="M457.3,183.57" transform="translate(-144.5 -7.45)"/><path class="cls-1" d="M473.82,145" transform="translate(-144.5 -7.45)"/><path class="cls-1" d="M470,133.35" transform="translate(-144.5 -7.45)"/><path class="cls-1" d="M467.41,129" transform="translate(-144.5 -7.45)"/><path class="cls-1" d="M456.59,114.45" transform="translate(-144.5 -7.45)"/><path class="cls-1" d="M448.57,106.77" transform="translate(-144.5 -7.45)"/><path class="cls-1" d="M439.84,100.28l1.21.81" transform="translate(-144.5 -7.45)"/><path class="cls-1" d="M430.16,94.81" transform="translate(-144.5 -7.45)"/><path class="cls-1" d="M403.49,86.32" transform="translate(-144.5 -7.45)"/><path class="cls-1" d="M360.23,85.3" transform="translate(-144.5 -7.45)"/><path class="cls-1" d="M326.09,88.75l5.17-.59" transform="translate(-144.5 -7.45)"/><path class="cls-1" d="M532,354.22c1.1-1.2,2.25-2.41,3.44-3.66,16.66-17.5,18.24-15.62,33.78-32.32a332.74,332.74,0,0,0,30.62-38.46c12.92-18.46,19.47-28,24.1-42.24,3.09-9.56,6.19-19.47,4.6-32.64-2.4-20-13.89-33.23-17-36.63-12.51-13.67-27.73-19.08-35.3-21.15-27.82-7.57-51.38,3.15-54-2.86-1-2.23,2-4.21,8.89-13,3.38-4.34,12.16-15.58,16.92-27.09,2.3-5.55,6.72-16.64,4.34-30.77-.62-3.72-3.17-17.67-15.08-28.75-3.57-3.32-10.73-9-37.21-14.76-21.06-4.63-37.28-8.2-58.54-6.37-19,1.63-31.57,6.66-56.77,16.71C362.07,49.3,348.06,57.6,322,64.62a125.83,125.83,0,0,1-26.74,3.84c-11.87.45-20.16.66-28.65-4-2-1.11-13.12-7.29-14.55-18.22-.63-4.81.38-12.35,5.07-14.5,5.29-2.42,11.45,3.78,15,1.16,2.59-1.94,1.74-7.21.46-10.39-3.66-9.08-15.37-12.25-18.31-13-10.44-2.82-26.37-2.26-36.42,8.17-7.78,8.08-8.15,18.06-8.36,23.55A45.17,45.17,0,0,0,216,65.83,55.87,55.87,0,0,0,237.34,86c3.28,1.78,12.4,6.32,33.19,7.54,13.05.76,19-.48,51-4.22l4.59-.53" transform="translate(-144.5 -7.45)"/><path class="cls-1" d="M533.12,353.11" transform="translate(-144.5 -7.45)"/><path class="cls-1" d="M471,376.46c-6.56,12-8.58,17.19-10.48,27.22-1.31,6.93-4.91,26,6.92,43.76,2.87,4.32,10.1,15.18,24.44,19.62,21.31,6.6,39.43-6.83,41.48-8.41,3.52-2.7,10-7.66,12.38-16.32,3.67-13.28-4.54-27.07-7.31-26.7-2,.27.34,8.09-4.81,12.63-6,5.27-19.83,4.11-26.8-2.83s-5-17.48-3.49-25.22c1.35-6.88,3-14,13.81-28.2" transform="translate(-144.5 -7.45)"/><path class="cls-1" d="M471,376.46" transform="translate(-144.5 -7.45)"/><path class="cls-1" d="M493.32,344.75c-4.45,5.45-8.13,10.44-11.12,14.76" transform="translate(-144.5 -7.45)"/><path class="cls-1" d="M492.55,345.71c-2.24,2.76-.4.49-.67.82" transform="translate(-144.5 -7.45)"/><path class="cls-1" d="M495.68,193c12.16,6.52,17.33,14.5,21.94,20a90.79,90.79,0,0,1,14.62,24.89c2.54,6.49,7.48,19.52,6,36-1.68,18.7-10.69,31.78-16.79,40.41-9.21,13-10.14,8.59-25.64,27.4" transform="translate(-144.5 -7.45)"/><path class="cls-1" d="M495.68,193" transform="translate(-144.5 -7.45)"/><line class="cls-1" x1="136.16" y1="120.55" x2="145.52" y2="85.51"/><path class="cls-1" d="M280.66,128" transform="translate(-144.5 -7.45)"/><polyline class="cls-1" points="194.36 343.21 80.21 329.83 126.84 155.41"/><path class="cls-1" d="M338.87,350.67" transform="translate(-144.5 -7.45)"/><path class="cls-1" d="M466.67,365.65" transform="translate(-144.5 -7.45)"/><line class="cls-1" x1="146.88" y1="108.94" x2="152.95" y2="85.04"/><path class="cls-1" d="M291.38,116.4" transform="translate(-144.5 -7.45)"/><polyline class="cls-1" points="186.06 332.99 93.37 319.5 132.42 165.81"/><path class="cls-1" d="M330.56,340.44" transform="translate(-144.5 -7.45)"/><line class="cls-1" x1="328.3" y1="353.25" x2="276.11" y2="345.66"/><path class="cls-1" d="M411.25,359.51l32.57,6.19" transform="translate(-144.5 -7.45)"/><path d="M396.89,193.22c-6.75-1.41-13.47-.31-20.1,1.19-7.68,1.74-15.12,3.5-23.05,3.22-13.85-.5-28.58-4.49-41.5,2.49-.57.31-.07,1.17.5.87,13-7,28-2.66,41.95-2.34,6.9.16,13.46-1.2,20.15-2.76,7.17-1.67,14.45-3.24,21.78-1.7.63.13.9-.83.27-1Z" transform="translate(-144.5 -7.45)"/><path d="M307.64,190.3c17.47-4.66,35.6-4.7,53.51-5.89,8.56-.57,17-1.82,25.52-2.71s17.25-1,25.35,2.25c.6.24.86-.73.27-1-7.76-3.11-16.08-3.2-24.29-2.42-9,.85-17.85,2.24-26.85,2.84-18,1.2-36.22,1.25-53.78,5.93a.5.5,0,0,0,.27,1Z" transform="translate(-144.5 -7.45)"/><path d="M395.32,170.64c-4,.37-7.8-.39-11.71-.91a49.9,49.9,0,0,0-10.15-.3c-7.08.49-14,2.15-21,3.24-7.38,1.15-14.56.88-22,.71-6.35-.15-12.66.2-18.5,2.93-.58.27-.07,1.14.51.86,6.47-3,13.6-3,20.6-2.71a102.45,102.45,0,0,0,19.65-.83c7.2-1.11,14.34-2.86,21.64-3.26,7.05-.38,13.95,1.92,20.95,1.27.63-.06.64-1.06,0-1Z" transform="translate(-144.5 -7.45)"/><path d="M354.06,253.77a50.39,50.39,0,0,1,.18-8.24c.31-2.8,1.16-5.5,1.43-8.3a8.69,8.69,0,0,0-5-8.94c-.57-.28-1.08.59-.5.86,5.26,2.49,4.71,7.3,3.74,12.17a50,50,0,0,0-.83,12.45c0,.64,1,.65,1,0Z" transform="translate(-144.5 -7.45)"/><path d="M346.8,248.5c3.53-3.85,5.87-8.34,3.67-13.52-2-4.68-6.39-7.55-11.16-8.86A42.21,42.21,0,0,0,321.78,225c-2.26.39-4.94,1.2-6.4,3.11-1.84,2.39.11,4.53-.68,7.1-.19.61.77.88,1,.26.62-2-.85-4.26.12-6.17,1.31-2.61,5.2-3.29,7.8-3.53a47.24,47.24,0,0,1,13.83.91c4.61,1,9.07,3.16,11.5,7.39,2.91,5.08.83,9.73-2.82,13.71-.43.48.27,1.19.71.71Z" transform="translate(-144.5 -7.45)"/><path d="M344.42,240a21.85,21.85,0,0,1-15.9,6.62.5.5,0,0,0,0,1,22.89,22.89,0,0,0,16.61-6.91c.45-.46-.26-1.17-.71-.71Z" transform="translate(-144.5 -7.45)"/><path d="M323.61,244.28c-4.84-.84-5.29-6.17-4.49-10.08.13-.63-.83-.9-1-.27-.91,4.43-.2,10.38,5.18,11.31.63.11.9-.85.27-1Z" transform="translate(-144.5 -7.45)"/><path d="M315.05,240.33c2.1-2,3.11-4.64,5-6.78a13.8,13.8,0,0,1,8.26-4.45c7.43-1.18,12.58,3.45,18.71,6.61.57.3,1.08-.57.5-.86-6.39-3.29-11.69-8-19.41-6.74a15.15,15.15,0,0,0-7.42,3.41c-2.66,2.29-3.77,5.73-6.32,8.1-.47.44.24,1.15.71.71Z" transform="translate(-144.5 -7.45)"/><path d="M347.4,235A38.56,38.56,0,0,1,333,240c-4.64.6-11,1-14.92-2-.51-.39-1,.48-.5.87,4,3,10.37,2.71,15.06,2.16a39.83,39.83,0,0,0,15.26-5.13.5.5,0,0,0-.51-.86Z" transform="translate(-144.5 -7.45)"/><path d="M322.36,231.08c-.83.78-2.07,1.2-2.44,2.39a3.09,3.09,0,0,0,.71,2.83c1.93,2.25,6.11,2.55,8.84,2.61a.5.5,0,0,0,0-1,18.4,18.4,0,0,1-6.24-1.12,5.33,5.33,0,0,1-1.24-.62l-.87-.89.14-2.11c.33-.54,1.31-.92,1.8-1.39s-.24-1.15-.7-.7Z" transform="translate(-144.5 -7.45)"/><path d="M327.79,229c-1.09,1.8-2.3,4-1.34,6.14a7.13,7.13,0,0,0,5.23,3.62c4.58.38,7.46-4.68,6.73-8.67-.11-.64-1.08-.37-1,.26.52,2.87-1.16,6.75-4.36,7.29a5.67,5.67,0,0,1-5.19-2.13c-1.59-2-.36-4.17.76-6a.5.5,0,0,0-.87-.51Z" transform="translate(-144.5 -7.45)"/><path d="M332,230.5a2.05,2.05,0,0,0-2.47,1.95,2.67,2.67,0,0,0,2.62,2.53,3.3,3.3,0,0,0,2-.51,1.85,1.85,0,0,0,.36-1.87,2.3,2.3,0,0,0-3-1.84c-.58.24-.33,1.21.27,1a1.26,1.26,0,0,1,1.7.9c.14.4.2.73-.08,1a1.51,1.51,0,0,1-1.15.33,1.73,1.73,0,0,1-1.72-1.22,1,1,0,0,1,1.17-1.3c.63.13.89-.83.26-1Z" transform="translate(-144.5 -7.45)"/><path d="M386.52,245.12a19,19,0,0,0,12.8,6.38c5.82.39,11.27-2.27,16.81-3.59.63-.15.36-1.11-.26-1-5,1.18-9.8,3.47-15,3.58a17.94,17.94,0,0,1-13.68-6.11c-.43-.48-1.13.22-.7.7Z" transform="translate(-144.5 -7.45)"/><path d="M389.56,241.07A21,21,0,0,0,409.79,245c.6-.2.34-1.17-.27-1a19.94,19.94,0,0,1-19.25-3.68c-.49-.42-1.2.29-.71.7Z" transform="translate(-144.5 -7.45)"/><path d="M422.53,227.18c-4.44-.38-8.06-3-12.16-4.48s-8.71-1.57-13.09-1.56c-3.45,0-6.42.66-9.07,3-2.82,2.42-4.83,5.65-8.2,7.4-.57.3-.07,1.16.5.87,2.73-1.42,4.6-3.73,6.69-5.91a14.86,14.86,0,0,1,4.09-3.27c2.41-1.18,5.16-1.07,7.78-1,4.8.09,9.19.56,13.59,2.59,3.23,1.49,6.26,3.12,9.87,3.43.64.06.64-.94,0-1Z" transform="translate(-144.5 -7.45)"/><path d="M390.77,236.63a10.06,10.06,0,0,0-4.16.11,2.33,2.33,0,0,1-1.38.12c-.85.06-.82-.15.09-.66a12,12,0,0,1,2.07-1.8c3.05-2.68,6.2-6.18,10.18-7.43a15.29,15.29,0,0,1,12.51,1.65c2.57,1.58,5,3.2,8.12,2.55.63-.12.36-1.09-.27-1-3.15.65-5.55-1.45-8.1-2.92a14.55,14.55,0,0,0-5.35-1.8A15.48,15.48,0,0,0,393,228.3c-1.61,1.19-3.09,2.56-4.59,3.88l-2.75,2.41c-.52.46-1.86,1.23-2.09,2s.19,1.09.77,1.36a2.61,2.61,0,0,0,1.36,0c1.68-.19,3.08-.79,4.82-.34a.5.5,0,0,0,.26-1Z" transform="translate(-144.5 -7.45)"/><path d="M389.54,231.66c-3,5.79,5,9.8,9.77,9.45,3.39-.25,6.62-1.91,9.58-3.46a20.07,20.07,0,0,0,7.39-6.06c.37-.52-.49-1-.86-.5-2.72,3.85-7.29,6.1-11.57,7.82a12.41,12.41,0,0,1-8.11.86c-3.09-.87-7.23-3.9-5.34-7.6.29-.58-.57-1.08-.86-.51Z" transform="translate(-144.5 -7.45)"/><path d="M396.9,226.19c-2.06,1.25-2.32,4.35-1.56,6.46a6.48,6.48,0,0,0,6.36,4.12c4.57-.2,10.05-7.44,5.07-10.78-.54-.36-1,.51-.51.86,2,1.32,1.33,4.44.3,6.07a6.22,6.22,0,0,1-4.86,2.85,5.61,5.61,0,0,1-4.47-1.92c-1.41-1.59-2.08-5.43.17-6.79.55-.34.05-1.2-.5-.87Z" transform="translate(-144.5 -7.45)"/><path d="M400.46,227.49c-1.49.59-2.1,2.47-1.86,4,.29,1.8,2.09,2.21,3.62,1.66s2.7-1.84,2-3.41a3.49,3.49,0,0,0-4.18-1.91c-.59.25-.08,1.11.5.86.92-.39,2.26.52,2.69,1.31.63,1.13-.58,2-1.53,2.27-1.13.34-2.13-.07-2.14-1.35,0-.85.28-2.1,1.16-2.45.6-.23.34-1.2-.26-1Z" transform="translate(-144.5 -7.45)"/><path d="M349.41,227.05c-2.09-1.31-4.56-2.47-6.18-4.37-.42-.49-1.13.22-.71.71,1.68,2,4.23,3.17,6.39,4.52.55.34,1-.52.5-.86Z" transform="translate(-144.5 -7.45)"/><path d="M346.17,227.08c-2.63-2-5.19-4.21-8.27-5.49-.6-.25-.86.72-.27,1,3,1.25,5.49,3.46,8,5.4.51.39,1-.48.5-.87Z" transform="translate(-144.5 -7.45)"/><path d="M340.72,225.66a16.87,16.87,0,0,0-9-5.33c-.63-.14-.9.82-.27,1a16,16,0,0,1,8.59,5.08c.43.48,1.13-.22.71-.71Z" transform="translate(-144.5 -7.45)"/><path d="M335.66,224.24c-2.8-2.61-5.81-5.19-9.85-5.16a.5.5,0,0,0,0,1c3.77,0,6.54,2.44,9.15,4.87.47.44,1.18-.27.7-.71Z" transform="translate(-144.5 -7.45)"/><path d="M332,223.78a19.21,19.21,0,0,0-14-4.8c-.64,0-.64,1,0,1a18.2,18.2,0,0,1,13.27,4.5c.49.43,1.2-.28.71-.7Z" transform="translate(-144.5 -7.45)"/><path d="M327.68,223.1c-3.53-1.86-6.52-3.89-10.61-3.8a.5.5,0,0,0,0,1,10.24,10.24,0,0,1,5.47,1.23c1.55.8,3.09,1.62,4.63,2.43.57.3,1.08-.56.51-.86Z" transform="translate(-144.5 -7.45)"/><path d="M322,222.64a13.23,13.23,0,0,0-6.2-1.71c-.64,0-.64,1,0,1a12,12,0,0,1,5.69,1.58c.56.31,1.07-.55.51-.87Z" transform="translate(-144.5 -7.45)"/><path d="M310.94,226a17.21,17.21,0,0,1,5.49-5.61c.54-.34,0-1.21-.5-.86a18.11,18.11,0,0,0-5.85,6c-.34.55.53,1.05.86.51Z" transform="translate(-144.5 -7.45)"/><path d="M316.24,223.27a8.61,8.61,0,0,0-2.43.11c-.63.11-.36,1.08.27,1a7.81,7.81,0,0,1,2.16-.07c.64.06.63-.94,0-1Z" transform="translate(-144.5 -7.45)"/><path d="M306.56,229.21a24.83,24.83,0,0,1,5.89-6.94c.5-.41-.21-1.11-.71-.71a25.47,25.47,0,0,0-6,7.15.5.5,0,0,0,.86.5Z" transform="translate(-144.5 -7.45)"/><path d="M304,229.56c2.1-3.95,4.49-7.82,8.82-9.53.59-.23.33-1.2-.27-1-4.61,1.81-7.16,5.75-9.42,10-.3.57.56,1.07.87.51Z" transform="translate(-144.5 -7.45)"/><path d="M303,227.74a18.93,18.93,0,0,1,3.72-5.24.5.5,0,0,0-.71-.71,20.46,20.46,0,0,0-3.88,5.44c-.28.58.58,1.09.87.51Z" transform="translate(-144.5 -7.45)"/><path d="M301.57,210.39c.39,4.87-2.37,9.43-1.77,14.28.56,4.52,4.72,6.93,6.32,11,.24.59,1.21.33,1-.27-1.65-4.14-6.08-6.72-6.35-11.43s2.2-8.88,1.83-13.53c-.05-.64-1.05-.64-1,0Z" transform="translate(-144.5 -7.45)"/><path d="M406.52,211.6a11.93,11.93,0,0,1,8.9,6.26c.3.57,1.16.06.86-.51a12.83,12.83,0,0,0-9.49-6.71c-.63-.1-.9.87-.27,1Z" transform="translate(-144.5 -7.45)"/><path d="M409.1,210.46c4.34-.28,7.13,4.4,9.46,7.42.38.51,1.25,0,.86-.5-2.56-3.34-5.52-8.23-10.32-7.92-.64,0-.65,1,0,1Z" transform="translate(-144.5 -7.45)"/><path d="M416.52,213a12,12,0,0,1,5.56,5,.5.5,0,0,0,.86-.51,12.89,12.89,0,0,0-5.91-5.35c-.58-.27-1.09.59-.51.86Z" transform="translate(-144.5 -7.45)"/><path d="M421.6,214.51a23,23,0,0,1,3.43,3.4c.41.5,1.12-.21.71-.71a23,23,0,0,0-3.44-3.4c-.49-.4-1.2.3-.7.71Z" transform="translate(-144.5 -7.45)"/><path d="M425,215.57a26.22,26.22,0,0,1,3.69,3.29c.44.48,1.15-.23.71-.7a27.2,27.2,0,0,0-3.9-3.45c-.51-.38-1,.48-.5.86Z" transform="translate(-144.5 -7.45)"/><path d="M414.09,217a21.77,21.77,0,0,0-11-6.33c-.62-.14-.89.82-.26,1a20.83,20.83,0,0,1,10.59,6.07c.44.47,1.15-.23.71-.7Z" transform="translate(-144.5 -7.45)"/><path d="M410.51,216.44a68.27,68.27,0,0,0-6.35-3.57c-1.87-.8-4.14-.82-6.14-1.08-.64-.08-.63.92,0,1,2.39.31,4.66.41,6.81,1.57,1.75.93,3.45,2,5.17,2.94.56.32,1.07-.55.51-.86Z" transform="translate(-144.5 -7.45)"/><path d="M406.93,217.16c-4.33-1.81-9.42-5.07-14.27-4.42-.63.08-.64,1.08,0,1,4.61-.61,9.86,2.65,14,4.38.59.25.85-.72.27-1Z" transform="translate(-144.5 -7.45)"/><path d="M402.85,217.41a31.72,31.72,0,0,0-13.79-4.35c-.64-.05-.64.95,0,1a30.4,30.4,0,0,1,13.29,4.21.5.5,0,0,0,.5-.86Z" transform="translate(-144.5 -7.45)"/><path d="M399.43,217.83a46,46,0,0,1-5.18-1.92c-1.94-.64-4.07-.2-5.93-.88-.6-.23-.86.74-.26,1,1.87.69,4,.24,5.92.89,1.78.58,3.34,1.53,5.19,1.92.63.13.9-.84.26-1Z" transform="translate(-144.5 -7.45)"/><path d="M394.92,218.43c-2.63-.29-5.11-1-7.77-1a25.08,25.08,0,0,0-6.88,1,.5.5,0,0,0,.27,1,23.94,23.94,0,0,1,7.52-1c2.32.09,4.56.71,6.86,1,.63.07.63-.93,0-1Z" transform="translate(-144.5 -7.45)"/><path d="M392.14,219.44c-5.62-.31-10.61-.12-15.7,2.47-.57.3-.07,1.16.51.87,4.91-2.51,9.79-2.64,15.19-2.34.64,0,.64-1,0-1Z" transform="translate(-144.5 -7.45)"/><path d="M388.06,221.37c-4.75-.6-9.5,1.54-13.95,2.93-.61.19-.35,1.16.26,1,4.34-1.36,9.07-3.49,13.69-2.9.64.08.63-.92,0-1Z" transform="translate(-144.5 -7.45)"/><path d="M431.73,219.68c-2.29-.14-4.47-.9-6.79-1a24.22,24.22,0,0,0-5.88.54c-.63.13-.36,1.1.27,1a22.19,22.19,0,0,1,6.5-.45c2,.17,3.9.82,5.9.94.65,0,.64-1,0-1Z" transform="translate(-144.5 -7.45)"/><path d="M431.88,221.57a35.93,35.93,0,0,0-10.4-.51c-.64.06-.64,1.06,0,1a35.12,35.12,0,0,1,10.13.47c.63.12.9-.84.27-1Z" transform="translate(-144.5 -7.45)"/><path d="M431.36,223.33a20.17,20.17,0,0,0-4.84-.4c-.64,0-.65,1,0,1a19.59,19.59,0,0,1,4.58.36c.63.13.9-.84.26-1Z" transform="translate(-144.5 -7.45)"/><path d="M416.71,295.65c-2-6.42-8.56-8.46-14.1-11a30.4,30.4,0,0,1-14.69-14.23c-.29-.57-1.15-.07-.87.51a31.13,31.13,0,0,0,11.4,12.65c5.9,3.66,14.91,4.8,17.3,12.34.19.61,1.15.35,1-.27Z" transform="translate(-144.5 -7.45)"/><path d="M324,302.72c.39-3.45.44-7.21,1.55-10.53,1.28-3.8,4.95-5.89,8.24-7.81,4.15-2.43,11.49-3.91,11.81-9.75,0-.64-1-.64-1,0-.25,4.44-5.36,5.76-8.66,7.44a46.56,46.56,0,0,0-7.77,4.85c-4.78,3.79-4.55,10.24-5.17,15.8-.07.64.93.64,1,0Z" transform="translate(-144.5 -7.45)"/><path d="M413.85,342.87c4.1-7.49,8.27-14.95,12.3-22.48,3.52-6.58,6.64-13.4,7.33-20.93.06-.64-.94-.63-1,0-.73,7.94-4.28,15.09-8,22s-7.63,13.94-11.45,20.91c-.31.57.55,1.07.86.51Z" transform="translate(-144.5 -7.45)"/><path d="M337.34,340.05c-1.77-9.22-8.76-15.84-13.39-23.65-4.08-6.9-6-15.83-13.37-20.14a.5.5,0,0,0-.5.87c7.38,4.3,9.21,13.6,13.42,20.44,4.57,7.44,11.17,13.89,12.88,22.74.12.64,1.08.37,1-.26Z" transform="translate(-144.5 -7.45)"/><path d="M358.88,338.85l9.78-.87c2.82-.25,6.13-.68,8.16,1.72.42.49,1.12-.22.71-.71-1.65-1.94-4.07-2.28-6.5-2.19-4,.15-8.12.69-12.15,1.05-.64.06-.64,1.06,0,1Z" transform="translate(-144.5 -7.45)"/><path d="M378.07,289.3c3.57-.91,7.16-2.84,8.75-6.35a8,8,0,0,0-1.17-8.7c-.42-.49-1.13.22-.7.7a7.17,7.17,0,0,1,.12,9,12.51,12.51,0,0,1-7.27,4.41.5.5,0,0,0,.27,1Z" transform="translate(-144.5 -7.45)"/><path d="M349,272.92c-3,2.19-4.14,6.17-2.07,9.4a7.25,7.25,0,0,0,3.9,3c2.71.9,4,3.12,6.21,4.78,3.16,2.36,7.6,4.27,11.18,1.76,1.83-1.28,3.12-3.14,4.75-4.63a15.94,15.94,0,0,1,9.44-4c.63-.06.64-1.06,0-1a17,17,0,0,0-9.23,3.51c-3.61,2.86-5.66,7.61-11.11,5.9a15.63,15.63,0,0,1-5.59-3.28c-1.19-1.07-2-2.66-3.47-3.41-2-1-3.83-.94-5.21-3.09a5.93,5.93,0,0,1,1.71-8c.51-.38,0-1.25-.51-.87Z" transform="translate(-144.5 -7.45)"/><path d="M353.15,287.42a3.67,3.67,0,0,1-3.82-4.17c.12-.63-.85-.9-1-.26a4.67,4.67,0,0,0,4.78,5.43c.63-.05.64-1.05,0-1Z" transform="translate(-144.5 -7.45)"/><path d="M351.47,317.8a24.55,24.55,0,0,0-12.18-10.52l-.13,1a35.5,35.5,0,0,1,25.23,7c.51.39,1-.48.5-.86a36.35,36.35,0,0,0-25.73-7.13.51.51,0,0,0-.14,1,23.32,23.32,0,0,1,11.58,10.06.5.5,0,0,0,.87-.51Z" transform="translate(-144.5 -7.45)"/><path d="M364.91,315.51A28.28,28.28,0,0,1,375.38,312c3.77-.46,7.54.1,11.31-.12a85.8,85.8,0,0,0,9.43-1.29c3-.51,9.81-2.64,12,.51.36.52,1.23,0,.86-.51-1.71-2.44-4.79-2.11-7.43-1.82-4.37.49-8.65,1.52-13,2s-8.84-.26-13.24.27a29.17,29.17,0,0,0-10.91,3.65.5.5,0,0,0,.5.86Z" transform="translate(-144.5 -7.45)"/><path d="M403.5,308.72a36,36,0,0,0-8.6,5c-3.36,2.68-6.6,6.7-11.41,5.76-.63-.13-.9.84-.26,1,3.3.65,6.1-.76,8.62-2.8,3.83-3.09,7.31-6,11.92-7.95.58-.24.32-1.21-.27-1Z" transform="translate(-144.5 -7.45)"/><path d="M400,309.74c-4.21.4-8.07,2-12.08,3.17a73.12,73.12,0,0,1-14.12,2.81A75.13,75.13,0,0,1,346,313.2a.5.5,0,0,0-.26,1,75,75,0,0,0,39.81.46c4.82-1.26,9.44-3.4,14.44-3.88.63-.06.64-1.06,0-1Z" transform="translate(-144.5 -7.45)"/><path d="M409,362.75l23.4-18.5c6.72-5.3,13.3-10.5,18.45-17.42,10-13.39,14.61-30,15.76-46.46a177.36,177.36,0,0,0-1.24-33c-.08-.63-1.08-.64-1,0,2.15,18.22,2.69,37.07-2.58,54.84A77.61,77.61,0,0,1,451.6,324c-4.91,7.2-11.23,12.64-18,18l-25.31,20c-.51.4.2,1.11.7.71Z" transform="translate(-144.5 -7.45)"/><path d="M467.49,268.85c5.58,1,11.33,1.73,16.17-1.85,4.2-3.12,6.65-8.17,7.65-13.2,1.31-6.62.6-13.45.86-20.14.24-6.12.71-12.36-2.15-18-.29-.58-1.15-.07-.86.5,2.63,5.2,2.29,11,2,16.66s.2,11.5-.37,17.21c-.52,5.32-2.17,10.69-6,14.59-4.76,4.85-10.9,4.4-17.09,3.26-.63-.12-.9.84-.27,1Z" transform="translate(-144.5 -7.45)"/><path d="M469.29,257c5.12-5.37,4.43-12.88,3.25-19.63-.11-.64-1.08-.37-1,.26,1.11,6.37,1.86,13.57-3,18.66-.45.46.26,1.17.7.71Z" transform="translate(-144.5 -7.45)"/><path d="M481.55,251.77c5.29-1.36,5.64-7.33,5.95-11.86a169.17,169.17,0,0,0,.05-21.83c0-.64-1-.64-1,0,.34,5.62.43,11.25.22,16.88-.19,4.91.63,14.27-5.48,15.85a.5.5,0,0,0,.26,1Z" transform="translate(-144.5 -7.45)"/><path d="M483.79,227.69c-.74-2.06-2.62-3.2-4.46-4.18-.57-.31-1.08.56-.51.86,1.58.84,3.36,1.8,4,3.59.22.6,1.19.34,1-.27Z" transform="translate(-144.5 -7.45)"/><path d="M475,247.66c3.82-1.5,7.34-4.5,7.46-8.91a6.43,6.43,0,0,0-6.85-6.78c-.64.05-.64,1.06,0,1,3.93-.34,6.53,3.4,5.67,7.1-.76,3.31-3.52,5.44-6.54,6.63-.59.23-.34,1.2.26,1Z" transform="translate(-144.5 -7.45)"/><path d="M476,247.11c1.31-2,2.49-4.12,1.54-6.51-.85-2.17-3-3.59-4.86-4.79-.54-.35-1,.51-.5.86a11.75,11.75,0,0,1,4.08,3.62c1.33,2.27.18,4.36-1.12,6.31-.36.54.51,1,.86.51Z" transform="translate(-144.5 -7.45)"/><path d="M412.64,351c-.88,4.91-5.37,12.32-11.24,10.84-.63-.16-.89.81-.27,1,6.5,1.64,11.49-6,12.47-11.53.12-.63-.85-.9-1-.27Z" transform="translate(-144.5 -7.45)"/><path d="M358.51,364.23c-7.68-2.25-13.52-7.78-18.65-13.68-5.75-6.63-11.18-13.56-16.74-20.36-2.84-3.47-5.84-6.89-8.06-10.81s-3.54-8.26-5-12.51a201,201,0,0,1-7.26-25.7c-1.69-8.82-.9-18.73-5.42-26.78-.31-.56-1.18,0-.86.51,4.33,7.71,3.6,17.14,5.14,25.62,1.66,9.08,4.52,17.88,7.44,26.62a77.94,77.94,0,0,0,4.63,11.95,64.09,64.09,0,0,0,7.41,10.31c5.8,7.09,11.49,14.3,17.46,21.25,5.37,6.27,11.5,12.17,19.61,14.55a.5.5,0,0,0,.26-1Z" transform="translate(-144.5 -7.45)"/><path d="M301.45,277.31c-2.09-.1-3.52-3.7-4.14-5.34a19.08,19.08,0,0,1-1.15-5.38A18.81,18.81,0,0,1,298.63,256a.5.5,0,0,0-.86-.51,19.89,19.89,0,0,0-2.38,13.12c.49,3,2.26,9.54,6.06,9.72.64,0,.64-1,0-1Z" transform="translate(-144.5 -7.45)"/><path d="M461.71,250.84a30.07,30.07,0,0,1-1-9.06c.15-2.86,1.14-5.64,1.15-8.5,0-3.71-2.15-6.74-4.46-9.45-3.36-4-6.2-7.36-7.24-12.62-1.21-6.18-1.71-12.56-2.52-18.8-.08-.63-1.08-.64-1,0,.74,5.77,1.36,11.58,2.26,17.33a23.35,23.35,0,0,0,5.52,12.17c3.17,3.73,6.92,7.32,6.34,12.62-.3,2.76-1,5.38-1.08,8.18a31.26,31.26,0,0,0,1,8.39.5.5,0,0,0,1-.26Z" transform="translate(-144.5 -7.45)"/><path d="M491.4,216.59l4.5-25.19c1.39-7.84,2.74-15.74,2.54-23.74-.37-14.78-5.39-29-12.23-42A190.65,190.65,0,0,0,474.12,106c-4.26-6.16-8.82-11.81-14.86-16.33-5.58-4.19-11.59-9-18.69-10a26.53,26.53,0,0,0-19,4.83c-6.11,4.34-10.08,10.61-12.8,17.47-3.13,7.92-6.58,18.75-16.55,19.89-.63.07-.64,1.07,0,1,14.13-1.62,15.44-19.52,21.77-29,4-6.06,10-10.9,17.13-12.67,8.08-2,15,.54,21.64,5.11s12.52,9.34,17.38,15.84a186.94,186.94,0,0,1,12.28,18.74c7.4,12.81,13.31,26.87,14.74,41.72.86,9-.31,17.87-1.87,26.73-1.59,9-3.22,18-4.83,27-.11.63.86.9,1,.27Z" transform="translate(-144.5 -7.45)"/><path d="M431.33,79.91c-6.41-2.18-12.39-5.39-18.92-7.28a68.68,68.68,0,0,0-18.07-2.77,59.13,59.13,0,0,0-8.52.48c-3.32.44-6.51,1.45-9.82,1.94-5.84.88-11.06-3.56-16.74-.83-2.24,1.08-4.13,2.74-6.23,4a33.32,33.32,0,0,1-7.89,3.31c-4.52,1.42-9.47,2.73-12.69,6.46-1.67,1.93-2.67,4.38-4.5,6.17-2.09,2-4.92,3-7.65,3.76-4.21,1.25-8.34,2.41-11,6.18a52.37,52.37,0,0,1-3.13,4.78,18,18,0,0,1-4.2,3.36c-2.67,1.63-5.51,2.93-8.13,4.63-4.7,3.07-8.86,7.09-10.35,12.65a.5.5,0,0,0,1,.27c1.56-5.84,6.19-9.83,11.18-12.87,4.05-2.46,8.83-4.18,11.82-8,1.86-2.41,2.87-5.32,5.52-7.06a26.22,26.22,0,0,1,7.23-2.83c3.94-1.16,7.48-2.53,9.95-6,1.71-2.38,3-4.85,5.47-6.54A27.32,27.32,0,0,1,343,80.53c4.74-1.5,8.93-3,13-5.86,2.34-1.64,4.78-3.34,7.76-3.27s5.63,1.67,8.54,2c2.6.3,5.13-.36,7.65-1a58.87,58.87,0,0,1,10.41-1.52,66.08,66.08,0,0,1,20.93,2.42c6.85,1.89,13.08,5.25,19.78,7.52.61.21.87-.76.26-1Z" transform="translate(-144.5 -7.45)"/><path d="M284.42,125.76a50.45,50.45,0,0,0-12.58,22.41c-1,3.85-2.07,8.44-.41,12.24a31.21,31.21,0,0,0,3.17,4.89,15,15,0,0,1,2.36,8,27.16,27.16,0,0,0,.8,6.16c.76,2.47,2.24,4.64,3.11,7.07,1.7,4.72,1.75,9.86,1.86,14.81a104.79,104.79,0,0,1-1.17,15.23,15,15,0,0,0,.3,6.23c.73,2.43,2.14,4.53,2.68,7,1.07,4.91,1.58,9.57,3.85,14.14a34.07,34.07,0,0,0,8.67,11c.49.42,1.2-.29.71-.7-6.81-5.75-10.47-13.34-11.81-22a24.1,24.1,0,0,0-1.55-6c-1.14-2.61-2.17-4.89-2-7.82.23-4.78,1.41-9.33,1.38-14.16a86,86,0,0,0-.71-12.93,27,27,0,0,0-1.69-6.18c-.88-2.12-2.16-4.07-2.76-6.29-1.1-4.08-.15-8.48-2.14-12.35-.88-1.72-2.2-3.16-3.23-4.79a11.51,11.51,0,0,1-1.46-8,48.68,48.68,0,0,1,13.35-27.16c.44-.46-.26-1.17-.71-.7Z" transform="translate(-144.5 -7.45)"/><path d="M299.25,256.25c-3.05-9.59-.42-19.57-1.15-29.38-.7-9.3-4.25-18.91-.5-28,.25-.6-.72-.86-1-.27-3.79,9.16-.24,18.87.46,28.25.73,9.91-1.89,20,1.19,29.65.19.61,1.16.35,1-.27Z" transform="translate(-144.5 -7.45)"/><path d="M444.75,170.54c-5.27.75-10.09-2.85-12.1-7.57-2.09-4.9-1.43-10.39,0-15.38a.5.5,0,0,0-1-.27c-1.62,5.76-2.28,12.43.94,17.79,2.6,4.32,7.33,7.11,12.42,6.39.63-.09.36-1.05-.27-1Z" transform="translate(-144.5 -7.45)"/><path d="M431.82,146.22c-3.59.42-7.94.43-10.27-2.83-2.14-3-1.68-8.18-2-11.73-.06-.64-1.06-.65-1,0,.31,3.87-.23,9.48,2.41,12.68s7,3.32,10.83,2.88c.63-.07.64-1.07,0-1Z" transform="translate(-144.5 -7.45)"/><path d="M356.83,138.86c-.8-8.17-13-3.71-17.58-3.14s-9.43.41-13.33-2.27a10.46,10.46,0,0,1-3.62-12.81c.24-.6-.72-.86-1-.27-2.72,6.62,1,13.36,7.51,15.63,3.73,1.29,7.72,1.14,11.57.57s14.76-4.43,15.42,2.29c.06.64,1.06.64,1,0Z" transform="translate(-144.5 -7.45)"/><path d="M468.58,329.89q-2.35-21-2.82-42.23c0-.64-1-.64-1,0q.47,21.16,2.82,42.23c.07.64,1.07.64,1,0Z" transform="translate(-144.5 -7.45)"/><path d="M295.66,248.27c-1-8.65-3.49-18.82.28-27.09.26-.58-.6-1.09-.86-.5-3.89,8.52-1.43,18.68-.42,27.59.07.63,1.07.64,1,0Z" transform="translate(-144.5 -7.45)"/><path d="M292.48,242.33c-1.91-9.79-2.89-19.14,1.47-28.45.27-.58-.59-1.09-.86-.5-4.49,9.56-3.54,19.14-1.57,29.21.12.63,1.08.37,1-.26Z" transform="translate(-144.5 -7.45)"/><path d="M289.12,235.46c-2.32-5.87-1.49-11.34-.21-17.33,1.15-5.36,2.55-10.66,5.31-15.45a.5.5,0,0,0-.86-.51c-2.95,5.13-4.39,10.81-5.59,16.55s-1.88,11.27.39,17c.23.59,1.2.33,1-.27Z" transform="translate(-144.5 -7.45)"/><path d="M284.17,219.08c.49-8.18,3.49-17.27,12.13-20,.61-.19.35-1.16-.27-1-9.08,2.82-12.34,12.26-12.86,20.92,0,.65,1,.64,1,0Z" transform="translate(-144.5 -7.45)"/><path d="M294.19,183.71c-4,1.69-13.8,1.19-12-5.66a.5.5,0,0,0-1-.26c-2,7.47,8.34,8.92,13.21,6.88.59-.24.33-1.21-.26-1Z" transform="translate(-144.5 -7.45)"/><path d="M295.58,180c-3.38.95-8.39,2-11.72.4s-7.14-6.16-6-10a.5.5,0,0,0-1-.26c-1.25,4.2,2.14,7.84,5.2,10.27,3.62,2.87,9.67,1.66,13.76.52a.5.5,0,0,0-.27-1Z" transform="translate(-144.5 -7.45)"/><path d="M297,176.25c-3.57,1-8.17,2-11.84.93-3.39-1-5.6-6.71-6.14-9.88-.11-.64-1.08-.37-1,.26.59,3.39,2.67,8.79,6.05,10.3,3.84,1.71,9.33.43,13.17-.65a.5.5,0,0,0-.27-1Z" transform="translate(-144.5 -7.45)"/><path d="M298.92,168.75c-1.33,3.25-5,4.56-8.13,5.49-2.46.74-4.57.75-6.41-1.19-1.25-1.32-2.33-2.84-3.47-4.24-.41-.49-1.12.22-.71.71,1.49,1.82,3,4.45,5.06,5.64,1.79,1,3.93.6,5.79.05,3.52-1.06,7.35-2.56,8.83-6.19.25-.59-.72-.85-1-.27Z" transform="translate(-144.5 -7.45)"/><path d="M297.16,194.72c-9.18-1-13,8.71-14.75,15.94-.16.62.81.89,1,.26,1.66-6.82,5.05-16.16,13.79-15.2.64.07.63-.93,0-1Z" transform="translate(-144.5 -7.45)"/><path d="M296.86,189c-3.56-.84-6.32,2-8.6,4.38-2.46,2.54-4.57,5.37-4.72,9,0,.65,1,.65,1,0,.13-3.1,1.84-5.56,3.9-7.76s4.83-5.45,8.16-4.67c.62.14.89-.82.26-1Z" transform="translate(-144.5 -7.45)"/><path d="M296.13,186.82c-2.75,1-16.88,3.4-14.7-3.38.19-.61-.77-.87-1-.26-.89,2.78,1.28,4.75,3.79,5.44a20.52,20.52,0,0,0,12.15-.83c.6-.22.34-1.19-.27-1Z" transform="translate(-144.5 -7.45)"/><path d="M288.45,189.42a14.78,14.78,0,0,0-4.56,9c-.08.64.92.64,1,0a13.64,13.64,0,0,1,4.27-8.31c.47-.44-.24-1.15-.71-.71Z" transform="translate(-144.5 -7.45)"/><path d="M305.3,159.19c-2.32.73-3.8,3.15-5.77,4.53a22.51,22.51,0,0,1-7.27,3.31,23.25,23.25,0,0,1-8,.64c-1.19-.11-8.62-1.28-8.32-3,.11-.63-.85-.9-1-.27-.36,2.07,2.77,2.76,4.3,3.27a23.14,23.14,0,0,0,9.24,1,24,24,0,0,0,8.43-2.3,23,23,0,0,0,3.73-2.28c1.54-1.16,3-3.36,4.86-3.94.61-.19.35-1.16-.27-1Z" transform="translate(-144.5 -7.45)"/><path d="M349.63,139.45a14.82,14.82,0,0,0-13.41-.6c-5.51,2.5-9.44,7.27-15.35,9.15-5.61,1.78-12.68.87-16.2-4.36-3.86-5.75-1.48-13.87,2.82-18.64.42-.48-.28-1.19-.71-.71a18.35,18.35,0,0,0-4.73,15.36c1,5.23,5.13,8.85,10.24,9.92,5.82,1.22,11.71-1.18,16.42-4.46,2.73-1.91,5.22-4.22,8.33-5.52a13.77,13.77,0,0,1,12.08.72c.56.31,1.07-.55.51-.86Z" transform="translate(-144.5 -7.45)"/><path d="M320.07,149.11c-2.85.82-4.14,3.39-6.05,5.42a15.5,15.5,0,0,1-11.53,4.91c-4.8-.16-8.68-5.07-10.3-9.25a11.8,11.8,0,0,1,1.67-12.05c.41-.49-.29-1.2-.71-.71-5.71,6.73-2.1,16.76,4.52,21.46,3.35,2.38,8,1.73,11.54.19a16.54,16.54,0,0,0,5.51-3.84c1.77-1.87,3-4.41,5.62-5.17a.5.5,0,0,0-.27-1Z" transform="translate(-144.5 -7.45)"/><path d="M364.34,137.16c1-4.3,5.49-5.15,9.11-6.17a61.14,61.14,0,0,0,9.36-3.47c4.51-2.1,8.17-4.92,8.77-10.16,1.31-11.67-11.28-18.35-20.64-21.27-.61-.19-.88.77-.27,1,5.53,1.73,11.24,4.28,15.37,8.46,3.93,4,6.21,10.27,3.4,15.54s-10.59,7.34-15.8,8.85c-4.1,1.19-9.19,2.14-10.27,7-.14.63.83.9,1,.27Z" transform="translate(-144.5 -7.45)"/><path d="M367.6,136.39c.08-3.7,5.95-3,8.49-3.48a26.86,26.86,0,0,0,6.39-1.9,18.79,18.79,0,0,0,9.63-9,14.82,14.82,0,0,0,.6-11.76c-1.75-4.25-5.66-7-9.57-9.11-.57-.31-1.08.56-.51.86,4.55,2.44,9,5.82,9.87,11.25a15.32,15.32,0,0,1-5.16,13.5,24,24,0,0,1-13.69,5.46c-2.85.28-7,.35-7,4.16a.5.5,0,0,0,1,0Z" transform="translate(-144.5 -7.45)"/><path d="M372.59,136.73c2.25-2,5.27-1.64,8-2.35a13.93,13.93,0,0,0,5.16-2.85c3.17-2.58,6.74-5.6,6.94-10,0-.64-1-.64-1,0-.21,4.49-5.32,8.94-9.05,10.94-3.42,1.83-7.72.88-10.74,3.54-.49.42.22,1.13.7.7Z" transform="translate(-144.5 -7.45)"/><path d="M360.67,134.4a20.3,20.3,0,0,1-21-16A16.64,16.64,0,0,1,343.17,104c2.76-3.2,6.49-5.36,10.28-7.13.58-.27.08-1.13-.5-.86-4.34,2-8.61,4.6-11.48,8.53a17.75,17.75,0,0,0-2.72,14.14,21.28,21.28,0,0,0,21.92,16.72c.64,0,.64-1,0-1Z" transform="translate(-144.5 -7.45)"/><path d="M363.7,136c.22-3.45-4.1-5-6.64-6.19-4.68-2.27-7.79-5.2-8.29-10.63-.77-8.31,1.72-21,11-23.53a.5.5,0,0,0-.27-1c-8.85,2.4-11.26,12.64-11.76,20.65-.24,3.81.14,8,2.64,11.08a15,15,0,0,0,5.15,3.77c2.21,1.1,7.36,2.71,7.16,5.82-.05.64.95.64,1,0Z" transform="translate(-144.5 -7.45)"/><path d="M444.5,173.69c10,7.46,12.74,20.28,11,32.08-.09.63.87.9,1,.26,1.77-12.3-1.11-25.45-11.49-33.2-.52-.39-1,.48-.51.86Z" transform="translate(-144.5 -7.45)"/><path d="M455.35,168.34c3.73-1.31,7.59,9.08,8.46,11.58a21.25,21.25,0,0,1,.51,13.66l.83-.22-.2-.53c0-.65-1-.64-1,0s0,.75.5,1.24a.5.5,0,0,0,.83-.22c1.81-5.63.81-11.47-1.53-16.78a37.32,37.32,0,0,0-4.55-8.2c-1.07-1.34-2.42-2.09-4.12-1.49-.6.21-.34,1.18.27,1Z" transform="translate(-144.5 -7.45)"/><path d="M464.25,157.17a16.28,16.28,0,0,1,6.74,3c2,1.72,2.86,4.22,3.49,6.73a33.62,33.62,0,0,1,.08,15.8h1l-.25-.72c-.21-.61-1.18-.35-1,.26l.25.73a.51.51,0,0,0,1,0,34.63,34.63,0,0,0-.57-18.07c-1.63-5.15-5.4-7.4-10.44-8.64-.63-.16-.89.81-.27,1Z" transform="translate(-144.5 -7.45)"/><path d="M459.87,202.09c5.37-1.92,9.2,7.51,10.76,11.33a27.64,27.64,0,0,1,2,15c-.1.63.86.9,1,.27,1-6.26-.42-12.37-3.15-18-1.86-3.86-5.34-11.48-10.86-9.5-.61.22-.35,1.18.26,1Z" transform="translate(-144.5 -7.45)"/><path d="M472.14,184c6.61-.66,11.18,4.71,13.75,10.16A30.47,30.47,0,0,1,488.33,212c-.1.63.87.9,1,.27a31.62,31.62,0,0,0-2.92-19.3c-2.78-5.46-7.61-10.55-14.24-9.89-.64.07-.64,1.07,0,1Z" transform="translate(-144.5 -7.45)"/><path d="M447.34,183.73c-.9,6.67-.1,13.28,1.22,19.83a46,46,0,0,0,2.31,9.06,21,21,0,0,0,4,5.77c3.76,4.13,8.6,8,8.28,14.16-.33,6.33-4.8,12.14-2.28,18.55.24.59,1.2.34,1-.26-2.58-6.56,2.42-12.63,2.33-19.18-.06-4.49-2.86-7.95-5.81-11.06a48.67,48.67,0,0,1-5-5.64c-1.88-2.68-2.54-5.75-3.23-8.89-1.58-7.26-2.81-14.64-1.81-22.07.09-.63-.87-.9-1-.27Z" transform="translate(-144.5 -7.45)"/><path d="M476.23,147.49c5.27.39,8.68,6.7,9.58,11.37,1,5.21-2.49,10.32-4.71,14.79-.28.58.58,1.08.87.51,2.63-5.34,6.36-11,4.38-17.13-1.51-4.72-4.67-10.14-10.12-10.54-.64-.05-.64.95,0,1Z" transform="translate(-144.5 -7.45)"/><path d="M482.88,172.59c3.64,2.63,8.45,6.13,10,10.55,1.6,4.58,1.09,10.08-.08,14.68a.5.5,0,0,0,1,.26c1.27-5,1.83-11.1-.22-16-1.84-4.35-6.46-7.68-10.17-10.36-.52-.38-1,.49-.5.86Z" transform="translate(-144.5 -7.45)"/><path d="M433.74,143.65c-1.48,3-3,6.24-2.94,9.71a18.8,18.8,0,0,0,2.72,8.48c2.91,5,8.22,8.48,14.17,7.32.63-.12.36-1.09-.27-1-5.82,1.14-10.83-2.6-13.43-7.57a16.8,16.8,0,0,1-2.18-7.72c0-3.12,1.45-6,2.79-8.75.29-.57-.58-1.08-.86-.5Z" transform="translate(-144.5 -7.45)"/><path d="M436.94,142.15c-3.54,5.18-3.84,12.45,0,17.57a14.33,14.33,0,0,0,15.63,4.86c.61-.2.35-1.17-.26-1a13.31,13.31,0,0,1-14.92-5c-3.28-4.82-2.84-11.28.37-16,.37-.53-.5-1-.86-.5Z" transform="translate(-144.5 -7.45)"/><path d="M441.36,140.9A15.8,15.8,0,0,0,459.48,163c.63-.14.37-1.11-.26-1a15,15,0,0,1-17-20.6c.25-.59-.61-1.09-.87-.51Z" transform="translate(-144.5 -7.45)"/><path d="M445,139.36c.25,3.08-.51,6.33.4,9.34a13.59,13.59,0,0,0,4,5.85,19.21,19.21,0,0,0,13.36,4.91.5.5,0,0,0,0-1,18.16,18.16,0,0,1-12.65-4.62,11.85,11.85,0,0,1-4-6.3c-.53-2.67.07-5.48-.15-8.18-.05-.64-1.05-.64-1,0Z" transform="translate(-144.5 -7.45)"/><path d="M449.7,134.58c-1.25,5.38-2.54,11.62,1.35,16.16A14.63,14.63,0,0,0,464.62,156c.63-.12.36-1.08-.27-1a13.62,13.62,0,0,1-12.8-5.22c-3.34-4.13-2-10.14-.89-14.92.15-.62-.82-.89-1-.26Z" transform="translate(-144.5 -7.45)"/><path d="M453.52,131.24c-.36,5.7.11,10.54,4.13,14.89,3.55,3.84,8.68,6,13.83,4.37.61-.2.35-1.17-.27-1-5.15,1.68-10.07-.81-13.4-4.72s-3.61-8.53-3.29-13.57c0-.64-1-.64-1,0Z" transform="translate(-144.5 -7.45)"/><path d="M458.41,126.06c-.46,5.73,1.14,11.63,5.23,15.81,3.43,3.51,9.44,6.41,14.38,4.73.61-.21.35-1.18-.27-1-4.82,1.64-10.79-1.45-13.93-5a19.44,19.44,0,0,1-4.41-14.53c0-.64-1-.63-1,0Z" transform="translate(-144.5 -7.45)"/><path d="M464,118.89c.26,6.8-1.17,14.09,1.72,20.52,2.15,4.81,7,8.31,12.44,7.06.62-.14.36-1.11-.27-1-6.24,1.45-10.89-3.92-12.26-9.45s-.42-11.48-.63-17.17c0-.64-1-.65-1,0Z" transform="translate(-144.5 -7.45)"/><path d="M457.87,204.92c6.58,2.21,9.87,7.48,11.51,13.94s2.71,13.14.53,19.56c-.21.62.76.88,1,.27,2.41-7.1,1-14.82-1-21.85-1.78-6.1-5.61-10.83-11.74-12.88-.62-.21-.88.76-.27,1Z" transform="translate(-144.5 -7.45)"/><path d="M456,209a28.39,28.39,0,0,1,14.7,18.5c.69,2.82,1.63,7.29-.33,9.79-.39.5.31,1.22.71.71,3.31-4.24.61-12.08-1.43-16.36a29.3,29.3,0,0,0-13.15-13.5c-.57-.29-1.07.57-.5.86Z" transform="translate(-144.5 -7.45)"/><path d="M454.36,211a20.55,20.55,0,0,1,7.29,35.77c-.49.42.22,1.12.71.71A21.56,21.56,0,0,0,454.63,210c-.62-.19-.88.78-.27,1Z" transform="translate(-144.5 -7.45)"/><path d="M454.8,213.58c5.35,1.58,7.87,7.38,9.57,12.21,2.17,6.2,1.73,12.56-2.56,17.74-.41.49.29,1.21.7.71,4.52-5.46,5.13-12.15,2.82-18.71-1.83-5.21-4.53-11.22-10.26-12.91a.5.5,0,0,0-.27,1Z" transform="translate(-144.5 -7.45)"/><path d="M462.78,198.89c6.38-.24,10.23,7.52,11.58,12.76,1.53,6,.94,12.19-.17,18.17-.12.63.85.9,1,.27,1.29-7,1.89-14.29-.55-21.08-1.8-5-5.8-11.35-11.82-11.12-.64,0-.64,1,0,1Z" transform="translate(-144.5 -7.45)"/><path d="M464.5,195.84c7,1,10.23,8.9,11.33,15.06a63.68,63.68,0,0,1,.81,9.56c.09,3.45.32,7.14-1.89,10-.4.51.47,1,.86.5,2.17-2.81,2.12-6.33,2.05-9.72a66.35,66.35,0,0,0-1-11.43c-1.26-6.24-4.83-13.93-11.89-15-.62-.1-.9.87-.26,1Z" transform="translate(-144.5 -7.45)"/><path d="M466.79,194.13c6.66-.21,10.3,7.61,11.8,13A31.09,31.09,0,0,1,478,225.5c-.21.62.76.88,1,.27a32,32,0,0,0-.17-21.28c-1.91-5.19-5.69-11.56-12-11.36-.64,0-.65,1,0,1Z" transform="translate(-144.5 -7.45)"/><path d="M469.45,192.06a23.86,23.86,0,0,1,12.84,13.59,23.6,23.6,0,0,1,1.29,9.93,18.65,18.65,0,0,1-.87,4.51,12.67,12.67,0,0,1-1.15,2.51,18.44,18.44,0,0,1-1.86,1.88c0-.64-1-.64-1,0a1.59,1.59,0,0,0,.49,1.25.5.5,0,0,0,.6.08c5.63-4,5.63-12.83,4-18.81A24.68,24.68,0,0,0,470,191.2c-.58-.26-1.09.6-.5.86Z" transform="translate(-144.5 -7.45)"/><path d="M484.81,220.51c2.72-2.17,3.68-5.49,3.52-8.88A35.39,35.39,0,0,0,485.65,200c-1.37-3.2-3.81-5.9-6.19-8.4s-4.88-4.44-8.23-5c-.63-.11-.9.86-.27,1,3.06.53,5.4,2.31,7.53,4.49a31.94,31.94,0,0,1,5.89,7.57,34.65,34.65,0,0,1,2.62,9.33c.68,4,.46,8.2-2.9,10.89-.5.4.21,1.1.71.7Z" transform="translate(-144.5 -7.45)"/><path d="M478,183.49c1.13-5.63,1.72-11.53,0-17.1-1.6-5.06-5-8.49-9.3-11.41-.53-.37-1,.5-.5.86,4.34,2.95,7.63,6.42,9.06,11.59s.85,10.61-.2,15.8c-.13.63.84.9,1,.26Z" transform="translate(-144.5 -7.45)"/><path d="M469.33,153.48c1.84.52,3.55,2.52,4.87,3.89a23.91,23.91,0,0,1,3.78,5,15.45,15.45,0,0,1,1.12,13.5l1,.13L480,174c0-.64-1-.65-1,0l.05,2.05a.5.5,0,0,0,1,.13,16.39,16.39,0,0,0-1.22-14.27,25.46,25.46,0,0,0-4.21-5.48c-1.38-1.4-3.08-3.31-5-3.86a.5.5,0,0,0-.26,1Z" transform="translate(-144.5 -7.45)"/><path d="M472.28,151.33c6,4.95,11.79,12.34,8.62,20.52-.24.6.73.86,1,.27,3.29-8.49-2.59-16.33-8.87-21.5-.49-.4-1.21.3-.71.71Z" transform="translate(-144.5 -7.45)"/><path d="M474.51,149.08c8.77.47,10.78,14.64,7.93,20.89-.26.58.6,1.09.87.51,3.18-7,.85-21.89-8.8-22.4-.65,0-.64,1,0,1Z" transform="translate(-144.5 -7.45)"/><path d="M463.55,158.54a16.17,16.17,0,0,1,9,9.49,26.73,26.73,0,0,1,1.17,7.54c.12,2.54.38,5.19-.92,7.48a.5.5,0,0,0,.87.51c1.26-2.23,1.18-4.63,1.09-7.12a30.72,30.72,0,0,0-1.24-8.68,17.09,17.09,0,0,0-9.49-10.08c-.58-.25-1.09.61-.5.86Z" transform="translate(-144.5 -7.45)"/><path d="M460.87,160.51c11.35,2.54,10.3,18.18,9.58,26.91-.05.64.95.64,1,0,.76-9.16,1.55-25.21-10.32-27.88-.62-.14-.89.83-.26,1Z" transform="translate(-144.5 -7.45)"/><path d="M460,162.7c4.85,2.27,7.15,7.12,8.13,12.14a65.61,65.61,0,0,1,.78,17.08c0,.65,1,.64,1,0,.67-9.63,1.06-25.2-9.4-30.08-.58-.27-1.09.59-.51.86Z" transform="translate(-144.5 -7.45)"/><path d="M457.3,164.61c5.26,1.33,8.11,8.89,9.11,13.63a26.94,26.94,0,0,1-1.61,16.27c-.25.58.61,1.09.87.5a28.22,28.22,0,0,0,1.54-17.79c-1.2-4.92-4.19-12.2-9.64-13.57-.63-.16-.89.81-.27,1Z" transform="translate(-144.5 -7.45)"/><path d="M451.54,167.38c5.69,1.47,8,9.07,9,14.14,1.11,5.48,1.1,11.12,1.08,16.69a.5.5,0,0,0,1,0c0-6.48,0-13.09-1.69-19.38-1.31-4.8-3.81-11-9.13-12.41a.5.5,0,0,0-.27,1Z" transform="translate(-144.5 -7.45)"/><path d="M449.82,169.17c5.74,2.11,7.83,8.61,9.08,14.05A59.83,59.83,0,0,1,460,203.1c-.07.64.93.63,1,0a59.92,59.92,0,0,0-1.78-22.81c-1.42-5-3.91-10.18-9.11-12.09-.6-.22-.86.75-.26,1Z" transform="translate(-144.5 -7.45)"/><path d="M447.45,171.27c10,8.26,11.21,20.57,10.32,32.72,0,.64,1,.64,1,0,.91-12.41-.42-25-10.61-33.42-.49-.41-1.2.29-.71.7Z" transform="translate(-144.5 -7.45)"/><path d="M444.17,176.59a37.46,37.46,0,0,1,9.53,17.65c1.15,5.15.57,11.18,4.5,15.25.45.47,1.16-.24.71-.71-2.56-2.64-3-6.21-3.44-9.7a45.18,45.18,0,0,0-1.65-8.22,38.6,38.6,0,0,0-8.94-15c-.44-.47-1.15.24-.71.7Z" transform="translate(-144.5 -7.45)"/><path d="M445,180.1c5.17,2.84,4.78,11.77,5.58,16.79.71,4.5,2.09,8.9,5.41,12.16.46.45,1.17-.26.71-.71-4.51-4.41-5-10.75-5.82-16.66-.57-4.26-1.16-10.13-5.38-12.44-.56-.31-1.07.55-.5.86Z" transform="translate(-144.5 -7.45)"/><path d="M448.73,191.76c-.28,6.9,0,13.62,5.24,18.73a.5.5,0,0,0,.7-.7c-5-4.92-5.21-11.42-4.94-18,0-.64-1-.64-1,0Z" transform="translate(-144.5 -7.45)"/><path d="M491.13,213.19c-.32-3.46.78-6.83.44-10.3a64.22,64.22,0,0,0-1.77-9.33c-1.39-5.48-3.75-10.67-8.33-14.18-.51-.39-1,.48-.51.87,4.88,3.74,7,9.55,8.29,15.36a45.49,45.49,0,0,1,1.41,8.57c.08,3-.81,6-.53,9,.06.63,1.06.64,1,0Z" transform="translate(-144.5 -7.45)"/><path d="M493.68,201.93a31.76,31.76,0,0,0-10.22-25.51c-.47-.44-1.18.27-.71.7a30.8,30.8,0,0,1,9.93,24.81c0,.64,1,.64,1,0Z" transform="translate(-144.5 -7.45)"/><path d="M466.06,118.43c-.62,10.65,1,25.42,13.73,28.08.63.14.9-.83.27-1-12.31-2.57-13.6-16.92-13-27.12,0-.65-1-.64-1,0Z" transform="translate(-144.5 -7.45)"/><path d="M468.45,117.07a24,24,0,0,0,2.71,14.78c2.48,4.88,5.85,9.9,10,13.45.49.41,1.2-.29.71-.71a42.21,42.21,0,0,1-9.06-11.7c-2.69-4.76-4.34-10.06-3.45-15.56.1-.63-.86-.9-1-.26Z" transform="translate(-144.5 -7.45)"/><path d="M469.65,115.37c2.88,5.32,6.26,10.23,9.53,15.31a29.51,29.51,0,0,1,4.75,17.2c0,.65,1,.65,1,0A30.14,30.14,0,0,0,481,131.77c-3.3-5.76-7.33-11.05-10.51-16.91-.3-.56-1.17-.06-.86.51Z" transform="translate(-144.5 -7.45)"/><path d="M471.21,115.14a39,39,0,0,1,14.53,37.68c-.12.63.85.9,1,.27a40,40,0,0,0-14.78-38.66c-.5-.39-1.22.31-.71.71Z" transform="translate(-144.5 -7.45)"/><path d="M474.06,113.2a30.46,30.46,0,0,1,7.7,9,68.62,68.62,0,0,1,5.47,10.21,48.49,48.49,0,0,1,2.59,10.22c.82,5-.21,8.61-2.39,13.08-.28.58.58,1.09.86.51,1.89-3.86,3.38-7.56,2.8-11.93a50.81,50.81,0,0,0-2.89-12.14,70.46,70.46,0,0,0-5.81-10.83,30.56,30.56,0,0,0-7.83-9c-.51-.39-1,.48-.5.86Z" transform="translate(-144.5 -7.45)"/><path d="M490.3,150.48c2.71,9.19,4.25,18.92,1.21,28.24-.2.61.77.87,1,.26,3.09-9.47,1.54-19.42-1.22-28.77a.5.5,0,0,0-1,.27Z" transform="translate(-144.5 -7.45)"/><path d="M488.5,154.51A37.05,37.05,0,0,1,490,176.45c-.15.62.81.89,1,.26a37.93,37.93,0,0,0-1.47-22.47c-.23-.59-1.19-.34-1,.27Z" transform="translate(-144.5 -7.45)"/><path d="M487.09,156.47c1.07,2.65.57,6.77.1,9.55-.43,2.52-2.2,4-3,6.23-.21.61.75.87,1,.27.5-1.41,1.74-2.18,2.32-3.52a13.92,13.92,0,0,0,.84-3.77c.34-2.8.83-6.35-.25-9-.24-.59-1.21-.33-1,.26Z" transform="translate(-144.5 -7.45)"/><path d="M486.73,174.29c4.21-5,3.38-13.24.84-18.82-.26-.58-1.13-.08-.86.51,2.32,5.09,3.17,13-.69,17.6-.41.49.29,1.2.71.71Z" transform="translate(-144.5 -7.45)"/><path d="M480.21,140.54c.54-4.43-.56-8.62-2.16-12.72-1.43-3.64-2.86-7.51-5.48-10.48-.43-.48-1.14.23-.71.71,2.66,3,4.16,7.16,5.55,10.88a24.46,24.46,0,0,1,1.8,11.61c-.08.63.92.63,1,0Z" transform="translate(-144.5 -7.45)"/><path d="M469.5,118.94c.94,7.46,5.58,13.36,10.22,19,.41.49,1.12-.22.71-.71-4.44-5.38-9-11.11-9.93-18.27-.08-.63-1.08-.64-1,0Z" transform="translate(-144.5 -7.45)"/><path d="M413.51,98.5a87.22,87.22,0,0,1,9.29,0c3.24.34,6.28,4.31,8.13,6.8,2.12,2.86,3.56,6.4,2.61,10-.72,2.67-2.89,4.62-4.54,6.74a14.87,14.87,0,0,0-2.39,13.11c1.14,4.4,4.59,8.07,9.37,7.85.64,0,.64-1,0-1-8,.38-10.58-10.39-8-16.43,1.89-4.4,6.64-7,6.86-12.16.21-5-3.14-9.11-6.45-12.47-1.54-1.55-2.93-3.15-5.21-3.39a94.68,94.68,0,0,0-9.68-.06.5.5,0,0,0,0,1Z" transform="translate(-144.5 -7.45)"/><path d="M429.07,101.45a18.07,18.07,0,0,1,4.41,11.86c0,4.1-2,8-1.76,12.08.49,7.37,8.27,9.52,14.41,9.83.65,0,.65-1,0-1-4.37-.22-9.53-1-12.14-5-2.47-3.79-.71-8.12.08-12.13a19.2,19.2,0,0,0-4.3-16.32c-.41-.49-1.12.22-.7.71Z" transform="translate(-144.5 -7.45)"/><path d="M411.3,103.34c3.85.45,8-.9,11.71.43,4.73,1.7,4.93,8,3.62,12.08-1.18,3.69-4.15,6.17-5.77,9.6a17.64,17.64,0,0,0-1.57,9.11c0,.64,1,.64,1,0-.44-5.34,1.57-9.23,4.63-13.4a16,16,0,0,0,3.34-10.66c-.21-3.13-1.34-6.09-4.34-7.44-4-1.77-8.47-.24-12.62-.72-.63-.07-.63.93,0,1Z" transform="translate(-144.5 -7.45)"/><path d="M431.19,101.56c6.14.35,6.49,9.55,5.74,13.92-.56,3.28-.65,6.08,1.29,9a14.92,14.92,0,0,0,7.87,5.59c2.19.75,6.56,2.48,8.29.13.38-.52-.49-1-.86-.5-1.19,1.62-5.56-.05-7.16-.59a14.88,14.88,0,0,1-6-3.54,9.75,9.75,0,0,1-2.92-6,25.74,25.74,0,0,1,.64-5.16c.62-4.84-.62-13.44-6.92-13.8-.64,0-.64,1,0,1Z" transform="translate(-144.5 -7.45)"/><path d="M458.45,124.36c-7.62,3.09-14.93-1.34-16.91-9-1.26-4.84-1.64-10.47-6.44-13.24a.5.5,0,0,0-.5.86c6.44,3.73,4.41,12.83,8.5,18.25a13.18,13.18,0,0,0,15.61,4.1c.59-.24.33-1.21-.26-1Z" transform="translate(-144.5 -7.45)"/><path d="M437.94,103.31c5.13,1,4.72,7.06,5.16,11.08a10.25,10.25,0,0,0,3.72,7.4,16.88,16.88,0,0,0,8.32,3.14c2,.25,5.63.86,6.81-1.29.31-.57-.55-1.07-.86-.51-.87,1.59-4.36,1-5.82.8a18.65,18.65,0,0,1-5.29-1.41c-3.91-1.78-5.57-4.83-6-9s-.53-10.13-5.82-11.17c-.62-.12-.89.84-.26,1Z" transform="translate(-144.5 -7.45)"/><path d="M438.06,101.05c4.89-1.12,8.23,3.16,9.38,7.4.8,3,.77,5.93,2.79,8.41,2.57,3.14,10.21,8.1,13.45,3.56.38-.52-.49-1-.86-.5-2.57,3.59-9.62-1.12-11.66-3.49-2.3-2.67-2-6.22-3.11-9.38-1.51-4.39-5.33-8.09-10.26-7-.63.14-.36,1.1.27,1Z" transform="translate(-144.5 -7.45)"/><path d="M442.24,98.7c5.34-.64,10.63,1.52,15.15,4.23,4.76,2.86,6.34,7.57,7.63,12.69a.5.5,0,0,0,1-.26c-1.27-5.07-2.85-9.89-7.43-12.89S447.92,97,442.24,97.7c-.63.08-.64,1.08,0,1Z" transform="translate(-144.5 -7.45)"/><path d="M450.54,96.06c5.31-.73,10.23,2.54,12.81,7s3,9.63,3,14.63a.5.5,0,0,0,1,0c0-5.78-.69-12-4.27-16.8-3-4-7.77-6.53-12.85-5.83-.64.09-.37,1,.26,1Z" transform="translate(-144.5 -7.45)"/><path d="M455.91,94.66c4.11-.57,10,3.15,12.34,6.53,2.38,3.53,4.62,9.19,3.52,13.39a.5.5,0,0,0,1,.27,13.11,13.11,0,0,0-.83-8.09,24.85,24.85,0,0,0-3.34-6.82,19.84,19.84,0,0,0-6.29-4.7,10.37,10.37,0,0,0-6.63-1.54c-.64.09-.37,1,.26,1Z" transform="translate(-144.5 -7.45)"/><path d="M470.17,114.36c.56-8.67-4.38-18.82-13.9-19.6-.64-.05-.63.95,0,1,9,.74,13.42,10.54,12.9,18.6,0,.64,1,.64,1,0Z" transform="translate(-144.5 -7.45)"/><path d="M440.48,98.73c7.13,2.13,9.41,9.68,12.57,15.57,2.3,4.27,6.44,6.66,11.18,4.57.59-.26.08-1.12-.51-.87-7.74,3.42-10.5-6-13.22-11.11-2.19-4.08-5.18-7.76-9.76-9.12a.5.5,0,0,0-.26,1Z" transform="translate(-144.5 -7.45)"/><path d="M463.92,117.21a22.33,22.33,0,0,0-20-19.18c-.64-.07-.63.93,0,1A21.34,21.34,0,0,1,463,117.48c.09.63,1.05.36,1-.27Z" transform="translate(-144.5 -7.45)"/><path d="M444.77,99.39c5.38-.15,6.57,6.6,9,10.11a21,21,0,0,0,8.16,6.87c.58.28,1.08-.58.5-.86a21.21,21.21,0,0,1-10-10.57c-1.54-3.22-3.64-6.66-7.65-6.55a.5.5,0,0,0,0,1Z" transform="translate(-144.5 -7.45)"/><path d="M462,114.86c0-2.49-2.09-4.3-3.8-5.88a36.11,36.11,0,0,0-7.14-5.13c-.56-.31-1.06.55-.5.86a36.59,36.59,0,0,1,5.86,4c1.76,1.51,4.56,3.62,4.58,6.14a.5.5,0,0,0,1,0Z" transform="translate(-144.5 -7.45)"/><path d="M415.32,96.93c5.14-7.07,13.23-11.93,22.15-11.56a22,22,0,0,1,12.27,4.3c3.35,2.48,6.25,4.77,10.4,5.81.63.16.89-.81.27-1a20.32,20.32,0,0,1-7.52-3.65A40.51,40.51,0,0,0,447.5,87,23.49,23.49,0,0,0,435,84.39c-8.39.51-15.71,5.36-20.56,12-.38.52.49,1,.86.5Z" transform="translate(-144.5 -7.45)"/><path d="M417.86,96.84c2.13-3.15,7.17-4.71,10.54-6s7-2.69,10.65-2.46c6.35.39,11.32,5.34,17.59,6.24.63.09.9-.88.27-1-7.25-1-12.83-7.07-20.49-6.18-3.67.42-7.22,1.9-10.59,3.36-3.08,1.33-6.87,2.65-8.84,5.55-.36.53.51,1,.87.5Z" transform="translate(-144.5 -7.45)"/><path d="M421.7,97.36c5.26-3.81,11.69-5.14,18.09-5.26a21.78,21.78,0,0,1,8.85,2c2.29.91,4.43,1.56,6.9,1.08.63-.12.36-1.08-.27-1-3.36.65-6.24-1.22-9.31-2.25a21.77,21.77,0,0,0-8.65-.71c-5.75.4-11.4,1.86-16.12,5.27-.51.38,0,1.25.51.87Z" transform="translate(-144.5 -7.45)"/><path d="M426.89,98.74a26.64,26.64,0,0,1,15-2.3c3.54.44,7.07.94,10.17-1.17.53-.36,0-1.23-.5-.86-4.07,2.76-9,.76-13.49.74a27.05,27.05,0,0,0-11.72,2.73c-.58.27-.07,1.14.51.86Z" transform="translate(-144.5 -7.45)"/><path d="M409.92,134c6.56-3,13-10.45,14.19-17.71,1.36-8.44-5.55-11.93-12.51-13.72a.5.5,0,0,0-.27,1c3.09.79,6.43,1.65,8.91,3.78,3.14,2.71,3.61,7,2.4,10.77a26.25,26.25,0,0,1-13.22,15c-.58.27-.08,1.13.5.87Z" transform="translate(-144.5 -7.45)"/><path d="M409.8,131a15.54,15.54,0,0,0,9.45-12.58,15.86,15.86,0,0,0-7.52-15c-.54-.35-1,.51-.5.86a14.83,14.83,0,0,1,7,14A14.5,14.5,0,0,1,409.54,130c-.59.24-.33,1.21.26,1Z" transform="translate(-144.5 -7.45)"/><path d="M387.11,133.47c8.64-2.49,12.28-11.25,17.08-18,.37-.53-.5-1-.87-.51-4.62,6.5-8.12,15.12-16.48,17.52a.5.5,0,0,0,.27,1Z" transform="translate(-144.5 -7.45)"/><path d="M394.8,131.91c4.7-1.56,7-5.85,8.65-10.19,1.23-3.15,2.41-6.32,3.61-9.48s2.28-6.76,4.66-9.43c.43-.47-.28-1.18-.71-.7-3.4,3.8-4.73,9.37-6.5,14-2.06,5.4-3.81,12.75-10,14.8-.61.2-.35,1.16.26,1Z" transform="translate(-144.5 -7.45)"/><path d="M403.9,131.13a15.47,15.47,0,0,0,11.53-11c1.71-6.54-1.41-12.5-5-17.79-.35-.53-1.22,0-.86.51,3.22,4.78,6.3,10.24,5.07,16.22a14.54,14.54,0,0,1-11,11.14c-.63.15-.36,1.11.27,1Z" transform="translate(-144.5 -7.45)"/><path d="M403.08,129.27a18.71,18.71,0,0,0,9.54-10.87c1.46-4.44,1.16-9.83-3.21-12.46-.55-.33-1.05.53-.5.87,4.66,2.8,4,9,2,13.27a17.77,17.77,0,0,1-8.3,8.32c-.58.29-.07,1.15.5.87Z" transform="translate(-144.5 -7.45)"/><path d="M403.7,126c3.76-4.11,10-12.82,5.39-18.35-.41-.49-1.12.22-.71.71,2.3,2.76.87,7.19-.5,10.05a29.13,29.13,0,0,1-4.88,6.88c-.44.48.27,1.19.7.71Z" transform="translate(-144.5 -7.45)"/><path d="M349.75,94.7c6.5-9.78,19.05-14.67,30.45-15,11.61-.38,23.23,4.69,29.23,14.93a.5.5,0,0,0,.86-.51c-6.18-10.54-18.13-15.8-30.09-15.42-11.77.38-24.61,5.46-31.31,15.55-.36.53.51,1,.86.5Z" transform="translate(-144.5 -7.45)"/><path d="M351.71,90.82c2-11.95,20.05-13.42,29.45-14,5.67-.33,12.24-1.25,17.65.83,5.65,2.19,10.5,6.74,14.17,11.45.39.51,1.09-.21.7-.71-3.7-4.76-8.57-9.22-14.22-11.54-6.09-2.5-13.7-1.37-20.09-.92-9.52.67-26.62,2.68-28.62,14.59-.11.63.86.9,1,.26Z" transform="translate(-144.5 -7.45)"/><path d="M418,87.16a26.65,26.65,0,0,0-11.64-12.42c-5.84-3.09-12.57-3.55-19.06-3.45-12.88.19-26.56,3.53-34.46,14.53-.37.53.5,1,.87.51,7.67-10.69,21.11-13.86,33.59-14,6.31-.09,12.87.32,18.56,3.32a25.73,25.73,0,0,1,11.28,12.06c.26.58,1.13.07.86-.51Z" transform="translate(-144.5 -7.45)"/><path d="M420.93,85C420.16,82.09,418,80,416,78a26,26,0,0,0-7.35-5.58c-.58-.28-1.08.58-.5.86a24.19,24.19,0,0,1,6.57,4.84c2.06,2.06,4.47,4.24,5.24,7.14a.5.5,0,0,0,1-.27Z" transform="translate(-144.5 -7.45)"/><path d="M422.93,84.18a14.35,14.35,0,0,0-2.64-5c-1.45-1.75-3.54-2.79-4.93-4.57-.4-.5-1.1.21-.71.71,1.17,1.5,2.85,2.38,4.17,3.72A13.08,13.08,0,0,1,422,84.44c.2.62,1.16.35,1-.26Z" transform="translate(-144.5 -7.45)"/><path d="M424.06,82.74a7.91,7.91,0,0,0-2.81-6.6c-.49-.41-1.2.29-.71.71a6.94,6.94,0,0,1,2.52,5.89c0,.64,1,.64,1,0Z" transform="translate(-144.5 -7.45)"/><path d="M427.11,82.37a4.26,4.26,0,0,0-.95-4c-.43-.48-1.13.23-.71.71a3.2,3.2,0,0,1,.69,3,.5.5,0,0,0,1,.26Z" transform="translate(-144.5 -7.45)"/><path d="M408,104a22.83,22.83,0,0,0-5.46-15.24c-3.63-4-9.09-5.36-14.19-6.23-6.16-1.06-12.57-2.12-18.82-1.27a34,34,0,0,0-15.88,6.63c-.51.39,0,1.25.5.87a33.27,33.27,0,0,1,14-6.26c6.14-1.14,12.36-.21,18.46.74,4.74.74,9.81,1.69,13.66,4.75,4.48,3.57,6.93,10.39,6.77,16,0,.64,1,.64,1,0Z" transform="translate(-144.5 -7.45)"/><path d="M403.88,114.6c2.37-6.42,3.83-14.07-.56-20-3.61-4.88-9.67-7.21-15.26-9a27.7,27.7,0,0,0-11-1.57,87.06,87.06,0,0,0-11.57,1.84c-7.11,1.6-14,4.6-18.73,10.3-.41.5.29,1.21.71.71,4.45-5.34,10.77-8.24,17.41-9.85,7-1.68,14.32-3,21.3-1,5.51,1.6,11.57,3.62,15.52,8,5.14,5.74,3.69,13.63,1.26,20.22-.23.6.74.86,1,.26Z" transform="translate(-144.5 -7.45)"/><path d="M347.45,98.19a36.72,36.72,0,0,1,18-8.14c7.62-1.14,15.44.12,23,1.37,6.31,1,11.74,4.1,13.83,10.5,2.25,6.86-1.93,12.63-5.39,18.21-.34.55.52,1.05.86.51,3.55-5.74,7.72-11.62,5.6-18.66a16.12,16.12,0,0,0-12.1-11c-7.92-1.83-16.85-3-24.94-2a37.77,37.77,0,0,0-19.51,8.56c-.49.41.22,1.11.71.7Z" transform="translate(-144.5 -7.45)"/><path d="M394.18,122.19a13.6,13.6,0,0,0,7.24-13.88c-.92-6.38-6-10.12-11.6-12.48a40.71,40.71,0,0,0-10.68-3.36c-3.8-.46-7.72.12-11.51.4-7,.52-14.17.78-20.45,4.19-.56.31-.06,1.18.51.87,5.57-3,11.86-3.46,18.06-3.92,6.6-.49,12.8-1.27,19.17,1,5.31,1.88,11.52,4.17,14.25,9.51a12.56,12.56,0,0,1-5.5,16.81c-.57.31-.06,1.17.51.87Z" transform="translate(-144.5 -7.45)"/><path d="M392.58,121.34a10.59,10.59,0,0,0,5.42-8.08c.42-3.85-1.6-7.32-4.3-9.91-6.42-6.16-15.84-8.79-24.57-7.82-.64.07-.64,1.07,0,1a30.76,30.76,0,0,1,20.93,5.15c3.06,2.13,6.14,5.08,6.86,8.9a9.52,9.52,0,0,1-4.84,9.9.5.5,0,0,0,.5.86Z" transform="translate(-144.5 -7.45)"/><path d="M360.89,133.3c-8.15-1.28-15.42-7-17-15.36-1.79-9.5,4.29-16.19,11.9-20.73a.5.5,0,0,0-.5-.86c-7.78,4.64-13.94,11.41-12.49,21.09,1.35,9,9.05,15.45,17.82,16.82.63.1.9-.86.27-1Z" transform="translate(-144.5 -7.45)"/><path d="M359.33,95.2c-6.9,1.61-9.41,12.21-8.85,18.23a15.29,15.29,0,0,0,4.6,9.69c2.9,2.89,6.23,5.91,10.25,7a.5.5,0,0,0,.27-1c-3.63-1-6.48-3.63-9.17-6.17a14.75,14.75,0,0,1-4.91-9.29c-.65-5.6,1.58-16.06,8.07-17.57.63-.15.36-1.12-.26-1Z" transform="translate(-144.5 -7.45)"/><path d="M366,133.24c4.78-8,18.44-6.28,21.08-16.1,2.43-9-6.43-17.47-14.25-19.87-.62-.19-.88.77-.27,1,8.25,2.53,19.51,14.42,11.09,22.76-5.34,5.3-14.39,4.89-18.51,11.75a.5.5,0,0,0,.86.5Z" transform="translate(-144.5 -7.45)"/><path d="M362.13,95c-4.08,6.59-8.83,13-6.22,21.09a16.38,16.38,0,0,0,14,11.07c.64.07.63-.93,0-1a15.28,15.28,0,0,1-13.49-11.9C355,107,359.38,101.36,363,95.52c.34-.54-.52-1-.86-.5Z" transform="translate(-144.5 -7.45)"/><path d="M366.25,95.28c-1.22.44-1.63,1.38-2.2,2.51a44.68,44.68,0,0,0-2.5,6,21.93,21.93,0,0,0-.86,11.38,14,14,0,0,0,14.78,11c.64,0,.64-1,0-1a13,13,0,0,1-13.71-9.87,19.75,19.75,0,0,1,.37-10,35.44,35.44,0,0,1,1.82-5c.5-1.13,1.27-3.64,2.56-4.1.6-.22.34-1.19-.26-1Z" transform="translate(-144.5 -7.45)"/><path d="M368.55,95.6c.25,4-2.37,7.28-3.42,11a13,13,0,0,0,.21,8.65c2.34,5.51,8.24,7.89,13.78,8.69.63.09.9-.87.27-1-5.87-.84-12.59-3.66-13.76-10.21-1.13-6.33,4.3-11.07,3.92-17.14-.05-.64-1.05-.65-1,0Z" transform="translate(-144.5 -7.45)"/><path d="M379,122.84c1.86-1.35,3.8-2.86,4.7-5,1-2.53.36-5.27-.74-7.66a40.6,40.6,0,0,0-5.26-7.93,11,11,0,0,0-2.63-2.8c-1.41-.85-3.87-.46-4.42-2.38a.5.5,0,0,0-1,.27c.43,1.53,1.62,2,3.09,2.37,3,.71,4.8,3.87,6.48,6.23a21.58,21.58,0,0,1,3.74,7.29c.91,4-1.51,6.63-4.51,8.8-.51.38,0,1.24.51.86Z" transform="translate(-144.5 -7.45)"/><path d="M377.64,119.53c-1.82-1.21-4.36-2.41-5.53-4.33a16.52,16.52,0,0,1-1.79-6.5,50.56,50.56,0,0,1,.52-12.94c.09-.63-.87-.9-1-.26-.66,4.86-1.19,9.81-.36,14.69.36,2.1.87,4.59,2.25,6.29s3.61,2.75,5.37,3.91c.54.36,1-.5.5-.86Z" transform="translate(-144.5 -7.45)"/><path d="M379.15,117.32c-7.2-4.79-6.87-14.09-6.33-21.73,0-.64-1-.64-1,0-.56,8-.7,17.59,6.82,22.59.54.36,1-.51.51-.86Z" transform="translate(-144.5 -7.45)"/><path d="M379.34,116.25c-.22-2.2.27-4.42,0-6.62a10,10,0,0,0-1.6-4A56.28,56.28,0,0,0,370,95.26c-.45-.46-1.16.25-.71.71a52.3,52.3,0,0,1,7.06,9.42,10.23,10.23,0,0,1,2,5.47c.05,1.81-.22,3.58,0,5.39.06.64,1.06.65,1,0Z" transform="translate(-144.5 -7.45)"/><path d="M344.11,132.59c-2.76-1.24-4.15-4-5.35-6.63a26.65,26.65,0,0,1-2.64-10.51,16.2,16.2,0,0,1,2.52-9.29c1.94-2.88,4.81-4.85,7.65-6.77.53-.35,0-1.22-.51-.86-2.84,1.92-5.78,3.92-7.78,6.77a17.38,17.38,0,0,0-2.88,10.15,27.55,27.55,0,0,0,2.59,10.61c1.3,2.93,2.82,6,5.89,7.39.59.26,1.1-.6.51-.86Z" transform="translate(-144.5 -7.45)"/><path d="M342.27,134.26c-6.44.53-13.87-.06-16.26-7.24-2.26-6.76,2.16-13.21,6.58-17.89.44-.47-.27-1.17-.71-.7-4.83,5.11-9.52,12.33-6.56,19.61,2.87,7.08,10.28,7.77,16.95,7.22.64-.06.65-1.06,0-1Z" transform="translate(-144.5 -7.45)"/><path d="M344.05,133.41c-3,.15-6.12.3-8.79-1.27a11.12,11.12,0,0,1-4.81-6.4c-1.71-5.57.8-11.27,4.1-15.7.38-.52-.49-1-.87-.5-3.74,5-6.29,11.63-3.72,17.78s8,7.4,14.09,7.09c.65,0,.65-1,0-1Z" transform="translate(-144.5 -7.45)"/><path d="M344.72,132.11c-2.26.1-4.72.07-6.73-1.12-2.19-1.3-3.06-3.69-3.67-6-1.38-5.34-1.34-10.52,2.3-15,.4-.49-.3-1.21-.71-.71-4,4.92-4.05,10.75-2.36,16.65,1.61,5.58,5.61,7.43,11.17,7.17.64,0,.65-1,0-1Z" transform="translate(-144.5 -7.45)"/><path d="M336.33,137.14A19.24,19.24,0,0,1,322.51,134c-5-3.45-4.41-8.87-3.25-14.17.13-.63-.83-.9-1-.27-1.16,5.36-1.81,11.1,3,14.81a20.14,20.14,0,0,0,15.27,3.75c.64-.1.37-1.06-.26-1Z" transform="translate(-144.5 -7.45)"/><path d="M335.36,138.6c-5.75-.39-13.74,2.55-17.94-2.88-3.23-4.19-3.56-12.56.53-16.28.47-.43-.24-1.13-.71-.7-4.26,3.87-4.07,12-1.27,16.65,4.16,6.92,12.92,3.77,19.39,4.21.65,0,.64-1,0-1Z" transform="translate(-144.5 -7.45)"/><path d="M333.7,139.12c-2.95-.5-5.57.29-8.36,1.25-3.4,1.18-7.71,2.62-10.7-.27-2.49-2.41-2.58-6.15-2.22-9.37.38-3.43,1-6.93,2.81-9.93a.5.5,0,0,0-.86-.51,24.17,24.17,0,0,0-2.84,9.58c-.44,3.33-.54,6.9,1.45,9.79,5,7.31,14-.67,20.46.43.63.1.9-.86.26-1Z" transform="translate(-144.5 -7.45)"/><path d="M333.47,139.4a11.66,11.66,0,0,0-8.45,1.52c-3.29,2-6.31,5-10.51,3.81-9.05-2.51-6.32-16.86-1.63-22.12.43-.48-.28-1.19-.7-.71-2.58,2.89-3.91,7.39-4.43,11.15-.49,3.52.05,7.3,2.44,10.06a8.35,8.35,0,0,0,9.39,2.27c4.9-1.9,7.76-6.12,13.62-5,.63.12.9-.85.27-1Z" transform="translate(-144.5 -7.45)"/><path d="M308.62,125.2c-4.3,5.11-5.53,14.42.57,18.56,3.06,2.07,7.15,4.48,11,4a11.3,11.3,0,0,0,5.09-2.31c2.2-1.52,4.37-3.09,6.55-4.63.52-.37,0-1.24-.5-.86a92.2,92.2,0,0,1-8.29,5.76c-4,2.19-7.81.39-11.39-1.66s-5.62-4.31-5.55-8.65a14.8,14.8,0,0,1,3.23-9.52c.41-.49-.29-1.2-.71-.71Z" transform="translate(-144.5 -7.45)"/><path d="M318.94,149.61c-5.28,1-11.77,2-15.67-2.68-3.54-4.27-2.91-10.09-1.7-15.11.15-.63-.82-.89-1-.27-1.3,5.45-1.88,11.84,2.16,16.34,4.21,4.69,10.92,3.73,16.44,2.69.64-.12.37-1.08-.26-1Z" transform="translate(-144.5 -7.45)"/><path d="M316.45,150.87c-4.74,1.11-10.23,2.21-14.21-1.44-3.09-2.85-5.09-8.55-3.09-12.49.29-.58-.57-1.08-.86-.51-2.12,4.18-.34,9.94,2.74,13.2,4.19,4.44,10.32,3.46,15.69,2.21.62-.15.36-1.11-.27-1Z" transform="translate(-144.5 -7.45)"/><path d="M315.39,152.41c-4.85,1.55-11.16,3.33-15.1-1.1s-2.69-10.67-1.64-15.82c.12-.63-.84-.9-1-.27-1.12,5.52-2.25,12.18,1.9,16.79s10.86,3,16.07,1.36c.61-.19.35-1.16-.26-1Z" transform="translate(-144.5 -7.45)"/><path d="M313.82,154.61a23.23,23.23,0,0,1-8.63,2.06,7.67,7.67,0,0,1-7.46-4.41c-2.23-4.07-3.46-11.55-.18-15.33.42-.49-.28-1.2-.7-.71-3.76,4.33-2.46,12.67.39,17.2a8.2,8.2,0,0,0,6.69,4.26,23.37,23.37,0,0,0,10.4-2.21c.58-.26.08-1.12-.51-.86Z" transform="translate(-144.5 -7.45)"/><path d="M312,155.81c-5.16,1.32-12.23,4.52-15.85-1.14-2.62-4.1-3.77-11.59-.93-15.78.36-.53-.51-1-.87-.5-3.12,4.61-1.88,13.07,1.34,17.37,4.14,5.54,11.1,2.41,16.57,1a.5.5,0,0,0-.26-1Z" transform="translate(-144.5 -7.45)"/><path d="M295.34,128.78c.73,3.7-3.42,5.28-6.11,6.44-2.48,1.08-5.13,1.9-7.53,3.15-3.75,2-6.29,5.46-8.7,8.84-.37.52.49,1,.87.5a35.64,35.64,0,0,1,5.51-6.55c2.59-2.23,5.87-3.18,9-4.48,3.53-1.49,8.91-3.33,8-8.16-.12-.64-1.09-.37-1,.26Z" transform="translate(-144.5 -7.45)"/><path d="M297.81,130.34c1.28,5.13-6.39,8.38-10.06,10.18-3.44,1.69-7,3.24-10,5.64-4.68,3.71-8.75,10.65-4.41,16.15.4.51,1.11-.21.71-.71-3.21-4.06-1-9.44,2.2-12.74,2.71-2.83,6.18-4.65,9.66-6.35,4.42-2.16,14.48-5.87,12.84-12.44-.15-.62-1.12-.36-1,.27Z" transform="translate(-144.5 -7.45)"/><path d="M291,140.29c-.76,3.47-5.23,5.8-8.2,7.28-2.54,1.27-4.21,2.22-5.26,5-1.78,4.72-3,11.51,1.92,14.73.55.35,1.05-.51.51-.86-3.38-2.19-3.32-6.33-2.54-9.86.73-3.26,1.68-6.13,4.87-7.66,3.48-1.67,8.75-4.18,9.66-8.35.14-.63-.83-.9-1-.27Z" transform="translate(-144.5 -7.45)"/><path d="M289.09,144.45c.24,2.25.5,4.8-1.18,6.59-1.18,1.27-3,2-4.35,3.08-2.3,1.75-4.4,4-4.84,7a6.9,6.9,0,0,0,1.91,6.12c1,.94,2.83,1.65,3.51,0,.24-.59-.72-.85-1-.26s-2.33-1-2.57-1.33a6.08,6.08,0,0,1-.85-2.21,6.83,6.83,0,0,1,.59-4.26c1.2-2.46,3.48-4.16,5.72-5.61,1.46-.94,2.91-1.83,3.64-3.48s.59-3.79.39-5.68c-.07-.63-1.07-.64-1,0Z" transform="translate(-144.5 -7.45)"/><path d="M290.23,150.6c.5,3.42-3.07,5.38-5,7.55a14.47,14.47,0,0,0-3.31,5.19,5.14,5.14,0,0,0,4.27,6.74c.63.09.9-.87.27-1-3.33-.48-4.56-3.58-3.18-6.51a17.64,17.64,0,0,1,4.06-5.15c2.17-2,4.37-3.91,3.9-7.12-.1-.64-1.06-.37-1,.26Z" transform="translate(-144.5 -7.45)"/><path d="M299.43,161.53a12.84,12.84,0,0,1-7.63,4.8c-2,.39-4.47.31-6-1.19-2-1.95-.83-4.33.55-6.2.38-.51-.49-1-.87-.5-1.19,1.61-2.32,3.42-1.63,5.49a5.53,5.53,0,0,0,4.06,3.4c4.59,1.08,9.47-1.59,12.25-5.09.39-.5-.31-1.21-.71-.71Z" transform="translate(-144.5 -7.45)"/><path d="M299.42,160a12.67,12.67,0,0,1-7.1,2.35c-1.79,0-3.59-.46-4-2.47a9.7,9.7,0,0,1,0-3.18c.08-.64-.92-.63-1,0-.31,2.58-.19,5.58,2.75,6.43,3.27.95,7.16-.45,9.84-2.27.52-.36,0-1.23-.51-.86Z" transform="translate(-144.5 -7.45)"/><path d="M297.1,159.65a5.42,5.42,0,0,1-6.18-7.25c.22-.61-.75-.87-1-.27a6.41,6.41,0,0,0,7.41,8.48c.63-.12.36-1.09-.27-1Z" transform="translate(-144.5 -7.45)"/><path d="M308.76,122.37c-5.15,1.86-10.33,3.62-15.46,5.52-3.34,1.24-5.68,3.41-5.73,7.15a.5.5,0,0,0,1,0c.07-5.28,5.33-6.3,9.39-7.75q5.54-2,11.06-4c.6-.22.34-1.18-.26-1Z" transform="translate(-144.5 -7.45)"/><path d="M307.06,121.28a26.42,26.42,0,0,0-15.58,3,30.15,30.15,0,0,0-6.42,4.33c-1.82,1.81-2.64,5-3.68,7.26-.27.58.6,1.09.86.5.92-2,1.66-4.49,2.93-6.35,1.39-2,4.69-3.68,6.82-4.87a25.52,25.52,0,0,1,15.07-2.9c.64.06.64-.94,0-1Z" transform="translate(-144.5 -7.45)"/><path d="M308,118.21c-4.94-.54-9.55,1-14,2.94-3.3,1.42-7.3,2.89-8.37,6.69a.5.5,0,0,0,1,.27c1.08-3.88,6.19-5.43,9.51-6.76,3.83-1.54,7.76-2.6,11.92-2.14.64.07.63-.93,0-1Z" transform="translate(-144.5 -7.45)"/><path d="M306.72,116.66c-3.71-.72-7.66-1.47-11.35-.24-3.5,1.17-6.75,3.81-9.54,6.19-5.74,4.89-10.2,11.75-9.16,19.58.08.63,1.08.64,1,0-1-7.28,3-13.66,8.25-18.33a37.76,37.76,0,0,1,8.19-5.83c3.94-1.93,8.21-1.21,12.34-.41.63.13.9-.84.27-1Z" transform="translate(-144.5 -7.45)"/><path d="M279.85,138.66c.19-4.89,3.31-8.51,6.56-11.85.45-.46-.25-1.17-.7-.71-3.44,3.54-6.66,7.41-6.86,12.56a.5.5,0,0,0,1,0Z" transform="translate(-144.5 -7.45)"/><path d="M338.11,105.57c-5.82-1.22-10.05,2.93-14.79,5.51-2.19,1.19-4.6,1.83-6.57,3.41a13,13,0,0,0-3.85,5.37c-.24.59.73.85,1,.26a11.68,11.68,0,0,1,4.66-5.67c1.66-1,3.58-1.57,5.29-2.51,4.44-2.41,8.54-6.55,14-5.4.62.13.89-.84.26-1Z" transform="translate(-144.5 -7.45)"/><path d="M341.16,99.86a38.54,38.54,0,0,0-35.88,16.68c-.36.53.51,1,.87.5a37.54,37.54,0,0,1,35-16.18c.63.07.63-.93,0-1Z" transform="translate(-144.5 -7.45)"/><path d="M345.87,97.22c-6.29-4.43-15.75-3-22.66-.89-7.11,2.16-13.5,6.28-17.59,12.56-.35.54.51,1,.86.51,3.95-6.06,10.14-10,17-12.11,6.67-2,15.84-3.48,21.89.79.53.37,1-.5.51-.86Z" transform="translate(-144.5 -7.45)"/><path d="M349.12,94.59c-.5-2.28-2.34-3.49-4.53-4a52,52,0,0,0-11-.83.5.5,0,0,0,0,1c2.49,0,5,.12,7.44.36,2.73.26,6.41.47,7.13,3.73.14.63,1.11.37,1-.26Z" transform="translate(-144.5 -7.45)"/><path d="M351.05,91.86c.1-5.81-8.09-6.6-12.34-6.57a.5.5,0,0,0,0,1c3.6,0,11.43.5,11.34,5.57a.5.5,0,0,0,1,0Z" transform="translate(-144.5 -7.45)"/><path d="M351.72,88.75c.5-4.68-4.6-6.25-8.22-6.88-.63-.11-.9.86-.27,1,3.19.55,7.94,1.71,7.49,5.91-.07.64.93.63,1,0Z" transform="translate(-144.5 -7.45)"/><path d="M352.68,86.16a8.72,8.72,0,0,0-.18-4.48c-.64-1.58-2.07-2-3.41-2.84-.55-.34-1,.53-.51.87,1.12.69,2.46,1,3,2.37a7.56,7.56,0,0,1,.14,3.81c-.08.63.88.9,1,.27Z" transform="translate(-144.5 -7.45)"/><path d="M354,82.22c1.63-1.79,2.81-4,4.68-5.57A12,12,0,0,1,366.78,74a.5.5,0,0,0,0-1,13.09,13.09,0,0,0-7.46,2c-2.59,1.66-4,4.32-6,6.54-.43.48.27,1.19.7.71Z" transform="translate(-144.5 -7.45)"/><path d="M305.62,473.93c.26-5.23.37-10.66-1.61-15.61-1.7-4.24-4.5-6.72-8.3-9-5.28-3.21-5.53-9-6.49-14.56a37.59,37.59,0,0,1-1-7.53,6.25,6.25,0,0,1,1.57-4.39c1.46-1.35,3.52-1.41,5.38-1.46a.5.5,0,0,0,0-1c-4.59.13-7.78,1.9-7.95,6.85a37.23,37.23,0,0,0,.92,7.35,72.39,72.39,0,0,0,1.75,9,10.63,10.63,0,0,0,3.59,5.47c2.23,1.74,4.82,2.71,6.72,4.89,4.79,5.46,4.72,13.19,4.38,20,0,.64,1,.64,1,0Z" transform="translate(-144.5 -7.45)"/><path d="M297.12,420.48a58,58,0,0,1,3.68-18c1.09-2.87,2.36-6.35,4.58-8.58,2.39-2.41,5.9-2.81,9.1-3.14.64-.06.64-1.06,0-1-2.9.3-6,.62-8.47,2.31s-3.89,4.76-5.1,7.51a59,59,0,0,0-4.79,20.93c0,.65,1,.65,1,0Z" transform="translate(-144.5 -7.45)"/><path d="M315.08,389.91c-.55-2.5.5-4.64,1.87-6.66,1.08-1.6,2.45-4,4.19-4.74,3.9-1.66,9.56-.8,13.47.26a.5.5,0,0,0,.27-1,28.59,28.59,0,0,0-8.92-1.05c-2,.1-4.88.14-6.48,1.53a22.67,22.67,0,0,0-4.24,5.8,8.24,8.24,0,0,0-1.12,6.09c.13.63,1.1.36,1-.27Z" transform="translate(-144.5 -7.45)"/><path d="M336.7,379.27c-.51-4.6,3.18-7.7,7.29-8.79,3.3-.89,7.71-1.28,10.33,1.36a.5.5,0,0,0,.7-.7c-3.06-3.1-8.26-2.62-12.09-1.4-4.21,1.34-7.75,4.86-7.23,9.53.07.63,1.07.64,1,0Z" transform="translate(-144.5 -7.45)"/><path d="M355.22,371.92a13.22,13.22,0,0,1,13.11-12.41c7,.17,11.8,6.39,14.89,11.95A101.05,101.05,0,0,1,391.6,392c1,3.46,1.86,7,2.54,10.5.62,3.25,1.59,8.2-2,10.08-.57.3-.06,1.17.51.87,4.74-2.48,2.89-9.31,2-13.42A112.28,112.28,0,0,0,387.93,379c-4-9.23-11.68-24.28-24.29-19.63a14.19,14.19,0,0,0-9.42,12.6c0,.64,1,.64,1,0Z" transform="translate(-144.5 -7.45)"/><path d="M363.08,404.33c-4.09-5-5-10.67-5.51-16.91L356.1,370c-.06-.64-1.06-.64-1,0,.56,6.74,1.06,13.49,1.71,20.22.53,5.54,2,10.47,5.57,14.82.41.5,1.11-.21.7-.71Z" transform="translate(-144.5 -7.45)"/><path d="M359.12,406.62a4.26,4.26,0,0,1,.82-3.44c.39-.5-.31-1.21-.71-.7a5.31,5.31,0,0,0-1.07,4.41c.12.63,1.09.36,1-.27Z" transform="translate(-144.5 -7.45)"/><path d="M333.88,407.3c-1.1-9.94-2.11-20.61,2.91-29.72.31-.56-.56-1.06-.87-.5-5.11,9.28-4.16,20.08-3,30.22.07.63,1.07.64,1,0Z" transform="translate(-144.5 -7.45)"/><path d="M314.4,414.71c-.43-8.42.54-16.79,1.55-25.13.08-.64-.92-.64-1,0-1,8.34-2,16.71-1.55,25.13,0,.64,1,.64,1,0Z" transform="translate(-144.5 -7.45)"/><path d="M299.61,425c1.92,1.83,4.6,3.54,7.38,2.79,1.38-.37,2.38-1.45,3.6-2.14a9.11,9.11,0,0,1,6.74-.88c2.95.81,5.29,3.59,8.45,3.68,3.78.11,6.25-4.78,10.08-3.38.61.23.87-.74.27-1-2.65-1-4.71.65-6.82,2-4.14,2.74-6.62-.28-10.33-1.86a10.17,10.17,0,0,0-7.44-.18,22.23,22.23,0,0,0-3.48,2.08c-2.83,1.66-5.62.12-7.74-1.89-.47-.45-1.18.26-.71.7Z" transform="translate(-144.5 -7.45)"/><path d="M355.64,424.1a13.11,13.11,0,0,0,7.11.15,12.74,12.74,0,0,0,3-1.22c1.47-.86,2.62-2.24,4.32-2.65.63-.15.36-1.12-.26-1-2.06.5-3.39,2.2-5.25,3.11a11.87,11.87,0,0,1-8.61.62.5.5,0,0,0-.27,1Z" transform="translate(-144.5 -7.45)"/><path d="M399,416.4a7.2,7.2,0,0,0-4.46-5.15c-.6-.23-.86.73-.26,1a6.22,6.22,0,0,1,3.76,4.46c.14.63,1.1.36,1-.27Z" transform="translate(-144.5 -7.45)"/><path d="M403.63,413.71l-2.42-2c-.49-.4-1.2.3-.7.71l2.41,2c.49.41,1.2-.29.71-.7Z" transform="translate(-144.5 -7.45)"/><path d="M405.19,412.15h-1.47a.5.5,0,0,0,0,1h1.47a.5.5,0,0,0,0-1Z" transform="translate(-144.5 -7.45)"/><path d="M303,448a42.06,42.06,0,0,1-5.26-27.9c.11-.62-.86-.9-1-.26a43.15,43.15,0,0,0,5.35,28.66.5.5,0,0,0,.87-.5Z" transform="translate(-144.5 -7.45)"/><path d="M400.8,472c-1.17-12,8.48-21.35,12-32.15,1.06-3.26,1.55-6.66,2.57-9.93s2.45-6.31,3.52-9.52c2.24-6.7,1.58-13.51.67-20.39-.08-.63-1.09-.64-1,0,1,7.51,1.45,14.54-1.22,21.79-1.13,3.06-2.47,6-3.33,9.19-.91,3.34-1.46,6.76-2.68,10-3.85,10.27-12.68,19.36-11.55,31,.06.64,1.07.64,1,0Z" transform="translate(-144.5 -7.45)"/><path d="M396.37,363.53c-3.85-5.47-7.83-10.31-14.63-11.77-2.9-.62-5.35-1.89-8.28-.58-3.1,1.38-4.89,4.39-6.52,7.21a.5.5,0,0,0,.86.51c1.62-2.8,3.46-6,6.74-7.07,2.56-.82,6,.57,8.56,1.23,5.62,1.45,9.24,6.47,12.41,11,.37.52,1.23,0,.86-.5Z" transform="translate(-144.5 -7.45)"/><path d="M392.31,362.48c-3.86,3.11-8.09-1.86-11.18-3.66-.94-.55-2.81-.83-3.31-1.65-.3-.48,0-2.12-.09-2.68a23.7,23.7,0,0,0-.46-2.78c-.13-.63-1.09-.37-1,.26a23.14,23.14,0,0,1,.46,6.1.51.51,0,0,0,.5.5c5.18.47,10.24,9.06,15.75,4.62.5-.4-.21-1.11-.71-.71Z" transform="translate(-144.5 -7.45)"/><path d="M330.1,376.71c4-6.92,8.39-14.09,15.71-17.95.57-.3.06-1.16-.51-.86-7.46,3.94-11.93,11.25-16.06,18.31a.5.5,0,0,0,.86.5Z" transform="translate(-144.5 -7.45)"/><path d="M352.84,369.8a19.64,19.64,0,0,0-3.11-8.94c-.35-.54-1.22,0-.87.51a18.59,18.59,0,0,1,3,8.43c.06.64,1.06.65,1,0Z" transform="translate(-144.5 -7.45)"/><path d="M419.74,400.85a41.82,41.82,0,0,0-4.11-12.26c-.3-.57-1.16-.07-.86.5a41.2,41.2,0,0,1,4,12c.11.63,1.07.37,1-.26Z" transform="translate(-144.5 -7.45)"/><path d="M407.13,371.87c-2.73-.16-4.64-2-6.4-3.93s-3.57-3.95-5.35-5.93c-.43-.48-1.14.23-.71.71,2.26,2.5,4.41,5.19,6.88,7.48a8.82,8.82,0,0,0,5.58,2.67c.64,0,.64-1,0-1Z" transform="translate(-144.5 -7.45)"/><polygon class="cls-1" points="340.34 330.8 402.57 350.61 343.12 377.75 368.03 358.01 352.14 356.57 362.45 347.74 340.34 330.8"/><path class="cls-1" d="M373.15,396.27" transform="translate(-144.5 -7.45)"/><polyline class="cls-1" points="242.25 369.01 299.32 358.25 362.45 347.74 352.14 356.57 368.03 358.01 307.32 374.75 247.85 385.38"/><path class="cls-1" d="M386.76,376.46" transform="translate(-144.5 -7.45)"/><path class="cls-1" d="M386.76,376.46" transform="translate(-144.5 -7.45)"/><path class="cls-1" d="M364.76,380.63" transform="translate(-144.5 -7.45)"/><path class="cls-1" d="M350.82,383.26" transform="translate(-144.5 -7.45)"/><path class="cls-1" d="M340.29,385.25" transform="translate(-144.5 -7.45)"/><path class="cls-1" d="M340.29,385.25" transform="translate(-144.5 -7.45)"/><path class="cls-1" d="M323.4,388" transform="translate(-144.5 -7.45)"/><path class="cls-1" d="M314.56,389.68" transform="translate(-144.5 -7.45)"/><polyline class="cls-1" points="155.46 401.9 138.47 404.94 131.82 406.13 43.06 420.96 38.48 407.52 128.69 390.48"/><path class="cls-1" d="M297,410.05" transform="translate(-144.5 -7.45)"/><path class="cls-1" d="M329.12,404.15" transform="translate(-144.5 -7.45)"/><path class="cls-1" d="M339.26,402.33" transform="translate(-144.5 -7.45)"/><path class="cls-1" d="M339.26,402.33" transform="translate(-144.5 -7.45)"/><path class="cls-1" d="M359.58,398.7" transform="translate(-144.5 -7.45)"/><path class="cls-1" d="M359.58,398.7" transform="translate(-144.5 -7.45)"/><path class="cls-1" d="M364.32,397.85" transform="translate(-144.5 -7.45)"/><path d="M276.94,397.23q2.07,7.42,3.5,15c.12.63,1.08.36,1-.27q-1.42-7.58-3.5-15a.5.5,0,0,0-1,.27Z" transform="translate(-144.5 -7.45)"/><path class="cls-1" d="M436.48,374.79l11.73-9.93Z" transform="translate(-144.5 -7.45)"/><line class="cls-1" x1="313.03" y1="373.17" x2="291.97" y2="367.33"/><path d="M267.78,414.69l-20.59,33.84-3,4.9a.51.51,0,0,0,.56.74c2.37-.71,5.58-.81,7-3l6.43-10,17-26.36a11.69,11.69,0,0,0,1.46-2.27,4.5,4.5,0,0,0-.39-2.34q-1.14-4.47-1.92-9c-.31-1.82,0-3.13-1.46-4.1-1.15-.78-2.33-1.52-3.49-2.27l-27.07-17.65c-3.37-2.19-6.69-4.8-10.25-6.68-.93-.49-1.36-.32-2.5-.13l-7.36,1.22c-.46.08-.45.7-.12.91l36.25,24.17,5.13,3.42c.54.35,1-.51.51-.87l-36.26-24.16-5.13-3.42-.12.91,5.89-1a16.41,16.41,0,0,1,2.86-.47c.3,0-.45-.19.12.11,2.65,1.39,5.14,3.35,7.65,5l26.63,17.36,4.72,3.07a11.24,11.24,0,0,1,2.54,1.66c.39.52.29,2,.41,2.7.49,2.86,1.08,5.71,1.77,8.53.52,2.12,1,2.11,0,3.67L259.73,437l-8.07,12.49a10.75,10.75,0,0,1-1.37,2.13c.51-.46-.35,0-.66.05-.7.16-1.39.42-2.08.63l-3,.9.56.74,20.59-33.84,3-4.91c.34-.55-.53-1.05-.86-.5Z" transform="translate(-144.5 -7.45)"/><polyline class="cls-1" points="109.94 409.79 84.82 448.75 96.86 446.88 119.79 408.14 105.43 410.54 91.44 412.88 66.94 451.65 81.33 449.08 105.43 410.54"/><polyline class="cls-1" points="114.9 393.08 74.35 366.01 63.35 369 103.36 395.26"/><polyline class="cls-1" points="98.97 396.09 58.43 368.86 45.5 372.34 87.87 398.19"/><polyline class="cls-1" points="82.72 399.16 41.44 372.65 29.83 375.75 71.36 401.31"/><path class="cls-1" d="M211.19,409.65c-3.89-2.48-42.27-25.12-42.27-25.12l-12.44,2.56L197,410.94" transform="translate(-144.5 -7.45)"/><path d="M192.4,411.21c-13.13-7.83-26.19-15.78-39.4-23.48a1.87,1.87,0,0,0-1.62-.39,61.32,61.32,0,0,0-6.52,1.59.51.51,0,0,0-.12.92l34.08,21.51,5,3.13v-.86c-3.32,1.5-5.78,4.65-5.19,8.44.69,4.48,4.9,5.95,8.81,6.79l-.22-.84-26.06,33-3.71,4.69c-.23.29-.13.91.35.85l6-.69c1.37-.15,4.11.08,5.31-.68a6,6,0,0,0,1.18-1.59l3.11-4.3,19.29-26.71,3.17-4.39a4,4,0,0,1,.63-.88c-.41.29.36.07.68,0,.62-.07,1.24-.21,1.85-.31l-.56-.74-20.88,32.1-3.05,4.69c-.26.4.17.79.57.73l14-2.05c.93-.14,1.65-.09,2.29-.7a16.1,16.1,0,0,0,2-3.2l17.82-28.63c.92-1.47,1.78-3,2.75-4.43.49-.72-.1-.23.53-.35,1.27-.25,2.55-.43,3.83-.64l-.57-.74-21,32.87-3,4.65c-.19.3,0,.81.43.76l13-1.67c2-.25,2.47-2,3.52-3.64l17.14-26.75,5.22-8.14c.34-.54-.52-1-.87-.5l-12.63,19.71-8.39,13.1-2.65,4.14c-.21.33-.41.67-.64,1-.34.49.66-.06-.05,0-4.57.49-9.13,1.17-13.7,1.75l.44.75,21-32.87,3-4.65c.25-.4-.17-.8-.57-.74-1.33.23-3.62.12-4.65,1a11.35,11.35,0,0,0-1.64,2.64l-8.27,13.28L194,454.89l-2.92,4.68a5.52,5.52,0,0,1-.63,1c-.11.11-.18.18,0,0s-.38,0-.49,0c-2.78.06-5.73.84-8.48,1.24l-6.72,1,.57.73,20.87-32.09,3-4.69c.26-.4-.17-.8-.56-.74-1.14.19-2.41.13-3.25.9a17.46,17.46,0,0,0-2,2.75l-8.61,11.91-10.15,14.06c-2,2.81-4.29,5.55-6.13,8.49-.4.63.16.09-.07.14-1.1.2-2.24.25-3.35.38l-7.4.85.36.86,26.06-33,3.71-4.69a.5.5,0,0,0-.22-.83c-3.28-.71-7-1.71-8-5.41s1.48-6.59,4.59-8a.5.5,0,0,0,0-.86l-34.07-21.52-5-3.13-.12.92,5.72-1.4c.47-.11,1.48-.18.93-.34a2.81,2.81,0,0,1,.6.36c2.48,1.76,5.31,3.17,7.93,4.73l25.07,14.94,6.52,3.88a.5.5,0,0,0,.5-.86Z" transform="translate(-144.5 -7.45)"/><line class="cls-1" x1="128.85" y1="390.59" x2="170.06" y2="382.22"/><text class="cls-2" transform="translate(145.52 522.27)">TED BUNDY</text></svg>